<svg xmlns="http://www.w3.org/2000/svg" data-name="Layer 1" viewBox="0 0 512 512"><path fill="#343c4a" d="M454.95048,511.999a10,10,0,0,0,10-10V376.36569a71.15438,71.15438,0,0,0-50.69321-68.08091L321.04467,280.18A30.49474,30.49474,0,0,1,299.319,251.00243V187.37232H212.681v63.63011A30.49474,30.49474,0,0,1,190.95533,280.18l-93.2126,28.10482a71.15438,71.15438,0,0,0-50.69321,68.08091V501.999a10,10,0,0,0,10,10Z"/><path fill="#fff" d="M324.1543,281.11719c-.76319-.19092-1.844-.48926-3.10962-.937A32.62021,32.62021,0,0,1,305.344,269.17139a30.9358,30.9358,0,0,1-6.0249-18.16895V187.37256H212.68091v63.62988a30.93147,30.93147,0,0,1-6.0249,18.16846c-5.53907,7.36523-13.04956,10.07519-16.06861,11.12012-1.12207.38818-2.07617.6538-2.74609.82568A348.34032,348.34032,0,0,0,256,490.18018a327.19736,327.19736,0,0,0,39.15625-65.27247C321.14429,367.22559,324.77393,314.11133,324.1543,281.11719Z"/><rect width="28" height="186.566" x="242" y="310.446" fill="#ededed"/><path fill="#f9beac" d="M256,296.12744c3.68152.58985,28.68481,4.21,44.36743-12.19531a39.24974,39.24974,0,0,0,7.65125-11.66065,31.55878,31.55878,0,0,1-8.08167-15.17431,30.286,30.286,0,0,1-.618-6.09473V202.33105L284.3136,187.37256H227.6864L212.681,202.33105v48.67139a30.39761,30.39761,0,0,1-8.69971,21.269,41.07452,41.07452,0,0,0,8.01368,11.55616C227.87488,299.8335,251.98584,296.71,256,296.12744Z"/><path fill="#596381" d="M223.76566,511.999l-67.523-128.68554a5.07061,5.07061,0,0,1,1.373-6.3545l15.48462-12.0913a8.00018,8.00018,0,0,0,1.99463-10.32276l-17.904-30.83252a8.00037,8.00037,0,0,1,.9519-9.34668l29.69849-33.249a494.58678,494.58678,0,0,0,70.53174,210.29541L255.179,511.999H223.76566Z"/><path fill="#596381" d="M246.72106,511.999c16.28357-27.98681,36.25062-67.57275,50.91224-111.2959a582.83906,582.83906,0,0,0,26.521-119.58593c8.44229,12.97158,23.25421,31.74648,30.01819,40.18333a7.99459,7.99459,0,0,1,.55258,9.22222L343.11971,349.2104a8,8,0,0,0,.13955,8.65785L355.09013,375.616a8,8,0,0,1,.42758,8.15415L288.26,511.999h-41.539Z"/><path fill="#e58a7b" d="M299.937,257.09717a30.286,30.286,0,0,1-.61816-6.09473V202.33105l-15.00537-14.95849h-56.627l-15.00537,14.95849v48.67139a30.27426,30.27426,0,0,1-.45459,5.18164A97.5549,97.5549,0,0,0,227.843,267.44629h0A70.01234,70.01234,0,0,0,263,276.91016h0a70.01394,70.01394,0,0,0,35.15723-9.46387h0c1.5205-.88281,3.00317-1.813,4.46338-2.76953A29.57671,29.57671,0,0,1,299.937,257.09717Z"/><path fill="#f9beac" d="M291.15713,253.44645l-.00006,0a70.01345,70.01345,0,0,1-35.157,9.46372h0a70.01347,70.01347,0,0,1-35.157-9.46371l-.00007,0a97.20641,97.20641,0,0,1-48.45661-84.04328V76.1487H339.61374v93.25447A97.20641,97.20641,0,0,1,291.15713,253.44645Z"/><path fill="#e58a7b" d="M268.48557,169.4355v4.84505A12.48563,12.48563,0,0,1,256,186.76618h0a12.48563,12.48563,0,0,1-12.48562-12.48563V169.4355a3,3,0,0,1,3-3h18.97127A3,3,0,0,1,268.48557,169.4355Z"/><path fill="#343c4a" d="M314.614,25.97363a98.48287,98.48287,0,0,0,.49695-9.88525h0A12.60892,12.60892,0,0,0,302.4823,3.499H214.6377a42.18557,42.18557,0,0,0-42.25135,42.11963V148.02637h4.19617A10.49048,10.49048,0,0,0,187.073,137.53589V119.752a6,6,0,0,1,6-6h24.06958a97.7245,97.7245,0,0,0,58.4999-19.32227,3.95215,3.95215,0,0,1,4.775.0545,91.45364,91.45364,0,0,0,39.62907,17.75489,5.97826,5.97826,0,0,1,4.8805,5.88991v19.40715a10.49024,10.49024,0,0,0,10.49024,10.49024h4.19653v-83.606A42.11293,42.11293,0,0,0,314.614,25.97363Z"/><path fill="#e58a7b" d="M339.61377,160.43689h0V117.3738h6.01116a18.526,18.526,0,0,1,18.52595,18.5259v.00005A24.53708,24.53708,0,0,1,339.61377,160.43689Z"/><path fill="#e58a7b" d="M147.84915,117.3738h.00009a24.53708,24.53708,0,0,1,24.53708,24.53708v.00006a18.526,18.526,0,0,1-18.526,18.526h-6.01121a0,0,0,0,1,0,0V117.3738A0,0,0,0,1,147.84915,117.3738Z" transform="rotate(180 160.118 138.905)"/><path fill="#f96263" d="M304.62439,313.944a6.91643,6.91643,0,0,1-8.55328,6.70838c-4.33735-1.03849-8.89775-2.30863-13.63263-3.86477a172.48971,172.48971,0,0,1-33.06287-14.88526v.42969a112.6265,112.6265,0,0,1,47.23662-19.54235,6.90228,6.90228,0,0,1,8.01216,6.82141Z"/><path fill="#f96263" d="M207.37561,313.944a6.91643,6.91643,0,0,0,8.55328,6.70838c4.33735-1.03849,8.89775-2.30863,13.63263-3.86477a172.48971,172.48971,0,0,0,33.06287-14.88526v.42969a112.6265,112.6265,0,0,0-47.23662-19.54235,6.90228,6.90228,0,0,0-8.01216,6.82141Z"/><rect width="20.355" height="27.14" x="245.823" y="288.547" fill="#d34342" rx="3.877"/><path d="M293.78271,140.57715a3.50017,3.50017,0,0,0-3.5,3.5v8.05469a3.5,3.5,0,0,0,7,0v-8.05469A3.50017,3.50017,0,0,0,293.78271,140.57715Zm96.04883,291.249a3.50017,3.50017,0,0,0-3.5,3.5V508.5a3.5,3.5,0,0,0,7,0V435.32617A3.50017,3.50017,0,0,0,389.83154,431.82617ZM282.45361,136.18066a29.72946,29.72946,0,0,1,10.57373-2.22949,30.23061,30.23061,0,0,1,12.08448,2.22949,3.50005,3.50005,0,0,0,2.65625-6.47656,36.78118,36.78118,0,0,0-27.97168,0,3.50024,3.50024,0,0,0,2.65722,6.47656ZM122.16846,431.82617a3.50017,3.50017,0,0,0-3.5,3.5V508.5a3.5,3.5,0,0,0,7,0V435.32617A3.50017,3.50017,0,0,0,122.16846,431.82617ZM256,190.26758a16.00417,16.00417,0,0,0,15.98535-15.98633v-4.22363a3.5,3.5,0,0,0-7,0v4.22363a8.9856,8.9856,0,1,1-17.97119,0v-4.22363a3.5,3.5,0,0,0-7,0v4.22363A16.00459,16.00459,0,0,0,256,190.26758Zm0,219.95947a3.5,3.5,0,1,0,3.5,3.5A3.49986,3.49986,0,0,0,256,410.22705Zm0-84a3.5,3.5,0,1,0,3.5,3.5A3.49986,3.49986,0,0,0,256,326.22705Zm0,28a3.5,3.5,0,1,0,3.5,3.5A3.49986,3.49986,0,0,0,256,354.22705Zm197.69971-22.34228a74.29016,74.29016,0,0,0-38.4292-26.94532L322.05029,276.8291a27.132,27.132,0,0,1-11.22265-6.626,3.48537,3.48537,0,0,0-.58594-.61767A26.80667,26.80667,0,0,1,302.81982,251v-1.10986a101.03939,101.03939,0,0,0,40.29395-80.48584v-5.69287a28.07316,28.07316,0,0,0,24.53711-27.811A22.05084,22.05084,0,0,0,345.625,113.875h-2.51123V64.42188a45.68844,45.68844,0,0,0-24.80029-40.55176c.19775-2.58692.29736-5.19336.29736-7.78028A16.12745,16.12745,0,0,0,302.48242,0H214.6377a45.73725,45.73725,0,0,0-45.75147,45.61914V113.875H166.375a22.05084,22.05084,0,0,0-22.02588,22.02539,28.07316,28.07316,0,0,0,24.53711,27.811v5.69287a101.03939,101.03939,0,0,0,40.29395,80.48584V251a26.80806,26.80806,0,0,1-7.38379,18.54541,3.46629,3.46629,0,0,0-.61475.64795,27.13277,27.13277,0,0,1-11.23193,6.63574l-3.01075.90772-.02294.00683L96.73047,304.93848A74.64971,74.64971,0,0,0,43.5498,376.37012V508.5a3.5,3.5,0,0,0,7,0V376.37012A67.25315,67.25315,0,0,1,98.751,311.64062L176.9458,288.061l-21.41357,23.97412a11.47571,11.47571,0,0,0-1.36817,13.43652l17.90381,30.832a4.51813,4.51813,0,0,1-1.12109,5.80664l-15.48535,12.09082a8.57011,8.57011,0,0,0-2.31788,10.73926L218.82666,510.126a3.49977,3.49977,0,1,0,6.19824-3.252L159.34229,381.68848a1.57224,1.57224,0,0,1,.42724-1.96973l15.48535-12.09082a11.54752,11.54752,0,0,0,2.8667-14.83984L160.21777,321.957a4.48985,4.48985,0,0,1,.53516-5.25781l24.43945-27.36231a497.85287,497.85287,0,0,0,69.14453,202.15918q-4.166,7.68678-8.55029,15.24414a3.5,3.5,0,1,0,6.05078,3.51954q4.96582-8.53419,9.636-17.248c.03027-.0586.06738-.11377.094-.17432q6.0487-11.26392,11.61133-22.79052c.01831-.04.04-.07813.05689-.11963a586.96706,586.96706,0,0,0,27.71606-68.11084A587.49741,587.49741,0,0,0,326.50537,290.7793c8.18555,11.58008,18.68506,24.91308,24.93652,32.71191a4.504,4.504,0,0,1,.31006,5.18555l-11.60547,18.6875a11.52618,11.52618,0,0,0,.20069,12.44629l11.83105,17.748a4.49858,4.49858,0,0,1,.24024,4.58692L286.978,506.874a3.49977,3.49977,0,1,0,6.19824,3.252L358.6167,385.39746a11.49353,11.49353,0,0,0-.61426-11.72168l-11.83105-17.748a4.51126,4.51126,0,0,1-.07862-4.87011l11.60547-18.6875a11.514,11.514,0,0,0-.79492-13.25782c-4.95581-6.18164-15.80176-19.88427-24.25342-31.77636L413.25,311.6416a67.2514,67.2514,0,0,1,48.2002,64.72852V508.5a3.5,3.5,0,0,0,7,0V376.37012A73.96557,73.96557,0,0,0,453.69971,331.88477ZM343.11377,120.875H345.625a15.04266,15.04266,0,0,1,15.02588,15.02539,21.05335,21.05335,0,0,1-17.53711,20.72119ZM168.88623,156.62158a21.05335,21.05335,0,0,1-17.53711-20.72119A15.04266,15.04266,0,0,1,166.375,120.875h2.51123Zm7-111.00244A38.7291,38.7291,0,0,1,214.6377,7h87.84472a9.11993,9.11993,0,0,1,9.12842,9.08984,95.23991,95.23991,0,0,1-.47949,9.53321,3.49937,3.49937,0,0,0,2.05517,3.54687,38.68609,38.68609,0,0,1,22.92725,35.252v80.10546H335.417a6.99806,6.99806,0,0,1-6.99023-6.99023V118.12988a9.47149,9.47149,0,0,0-7.74951-9.332A88.3936,88.3936,0,0,1,282.564,91.7207a7.46763,7.46763,0,0,0-9.00927-.09863,93.88068,93.88068,0,0,1-56.41211,18.63086H193.07275a9.51081,9.51081,0,0,0-9.5,9.5v17.78418a6.99806,6.99806,0,0,1-6.99023,6.99023h-.69629Zm0,123.78516v-17.877h.69629a14.00623,14.00623,0,0,0,13.99023-13.99023V119.75293a2.50263,2.50263,0,0,1,2.5-2.5h24.06983A100.83288,100.83288,0,0,0,277.731,97.23926a.45072.45072,0,0,1,.53955.01074,95.42052,95.42052,0,0,0,41.145,18.43262,2.47392,2.47392,0,0,1,2.01123,2.44726v19.40723A14.00624,14.00624,0,0,0,335.417,151.52734h.69678v17.877a94.01692,94.01692,0,0,1-46.71436,81.0166,66.53583,66.53583,0,0,1-66.79882,0A94.01692,94.01692,0,0,1,175.88623,169.4043ZM238.5,447.83545a490.04543,490.04543,0,0,1-46.87573-164.20068l.34594-.1045a34.33712,34.33712,0,0,0,11.04346-5.65185,44.8043,44.8043,0,0,0,3.40674,4.93359,10.38913,10.38913,0,0,0-2.54053,6.79834v24.33008a10.40712,10.40712,0,0,0,10.39356,10.4082,10.527,10.527,0,0,0,2.47217-.29492c4.6582-1.11621,9.33593-2.44043,13.91064-3.93945,2.62939-.86768,5.24707-1.8086,7.84375-2.80274Zm3.82275-139.63135c-4.52978,1.94336-9.176,3.7168-13.85254,5.25977-4.38818,1.43847-8.88183,2.71093-13.35937,3.78418a3.43678,3.43678,0,0,1-2.93994-.63672,3.33962,3.33962,0,0,1-1.291-2.6709V289.61035a3.39978,3.39978,0,0,1,3.94092-3.36719,110.14013,110.14013,0,0,1,14.3042,3.36329,107.30358,107.30358,0,0,1,13.19775,5.03808ZM266.5,467.79q-4.02832,8.324-8.32837,16.5083Q251.53479,473.15307,245.5,461.66455v-143.813a7.30668,7.30668,0,0,0,4.19971,1.33692h12.60058A7.30668,7.30668,0,0,0,266.5,317.85156ZM249.32275,311.81055V292.42578a.378.378,0,0,1,.377-.37793h12.60058a.378.378,0,0,1,.377.37793v19.38477a.378.378,0,0,1-.377.37793H249.69971A.378.378,0,0,1,249.32275,311.81055Zm12.97754-26.7627H249.69971a7.36263,7.36263,0,0,0-5.6792,2.67529,114.34716,114.34716,0,0,0-12.84473-4.81,117.19047,117.19047,0,0,0-15.21777-3.57715,10.43464,10.43464,0,0,0-3.30908-.00489,37.82982,37.82982,0,0,1-4.41358-6.45166,33.71551,33.71551,0,0,0,7.7522-18.28515q1.52965.96387,3.09741,1.87939a73.53329,73.53329,0,0,0,73.83008,0q1.57031-.91187,3.09741-1.87939a33.71926,33.71926,0,0,0,7.80493,18.34814,35.95393,35.95393,0,0,1-4.14648,6.44922,10.36437,10.36437,0,0,0-3.63037-.05469,117.01126,117.01126,0,0,0-15.21533,3.57618,114.30919,114.30919,0,0,0-12.84571,4.81A7.36263,7.36263,0,0,0,262.30029,285.04785Zm7.377,23.15625V294.64453a107.27194,107.27194,0,0,1,13.19873-5.03808,109.95953,109.95953,0,0,1,14.30175-3.36231,3.334,3.334,0,0,1,2.73829.75977,3.36794,3.36794,0,0,1,1.2041,2.60644v24.33008a3.33962,3.33962,0,0,1-1.291,2.6709,3.42388,3.42388,0,0,1-2.94385.63574c-4.47363-1.07227-8.96728-2.34473-13.34912-3.78125C278.854,311.92139,274.207,310.14746,269.67725,308.2041Zm24.63769,91.3877Q285.24573,426.63721,273.5,452.76367V317.31152c2.59766.99414,5.21729,1.936,7.8501,2.80469,4.56836,1.49707,9.24609,2.82129,13.90039,3.93652a10.56332,10.56332,0,0,0,2.47607.2959,10.40712,10.40712,0,0,0,10.39356-10.4082V289.61035a10.39088,10.39088,0,0,0-2.36524-6.5918,42.7108,42.7108,0,0,0,3.33545-5.05957,34.34471,34.34471,0,0,0,10.93946,5.57129l.29882.09034A580.42667,580.42667,0,0,1,294.31494,399.5918ZM256,382.22705a3.5,3.5,0,1,0,3.5,3.5A3.49986,3.49986,0,0,0,256,382.22705ZM229.54736,136.18066a3.49987,3.49987,0,1,0,2.65528-6.47656,36.77986,36.77986,0,0,0-27.97119,0,3.50024,3.50024,0,1,0,2.65722,6.47656,29.72462,29.72462,0,0,1,10.57324-2.22949A30.15538,30.15538,0,0,1,229.54736,136.18066ZM256,438.22705a3.5,3.5,0,1,0,3.5,3.5A3.49986,3.49986,0,0,0,256,438.22705ZM242.01367,219.86914a36.713,36.713,0,0,0,13.0542,2.751q.45117.01172.90332.01172a37.20671,37.20671,0,0,0,14.01416-2.7627,3.49987,3.49987,0,1,0-2.65527-6.47656,29.783,29.783,0,0,1-22.65918,0,3.50024,3.50024,0,0,0-2.65723,6.47656Zm-23.79638-79.292a3.50017,3.50017,0,0,0-3.5,3.5v8.05469a3.5,3.5,0,0,0,7,0v-8.05469A3.50017,3.50017,0,0,0,218.21729,140.57715Z"/></svg>