<svg xmlns="http://www.w3.org/2000/svg" data-name="Layer 1" viewBox="0 0 512 512"><path fill="#343c4a" d="M255.9999,3.499h.00021A103.76214,103.76214,0,0,1,359.76224,107.26116V285.38245A33.02894,33.02894,0,0,1,326.7333,318.4114H185.2667a33.02894,33.02894,0,0,1-33.02894-33.02894V107.26116A103.76214,103.76214,0,0,1,255.9999,3.499Z"/><path fill="#f9beac" d="M454.55951,501.999V397.30246a60,60,0,0,0-33.65575-53.90714l-102.824-50.24975a20,20,0,0,1-11.21858-17.96905V241.13818H205.13879v34.03834a20,20,0,0,1-11.21858,17.96905l-102.824,50.24975a60,60,0,0,0-33.65575,53.90714V501.999a10,10,0,0,0,10,10h377.119A10,10,0,0,0,454.55951,501.999Z"/><path fill="#e58a7b" d="M205.13879,241.13818v28.001A80.11444,80.11444,0,0,0,263,293.75928h0A79.98719,79.98719,0,0,0,307.53638,280.29a19.9653,19.9653,0,0,1-.67517-5.11328V241.13818Z"/><path fill="#f9beac" d="M175.62763,196.54278V133.60986a7.00686,7.00686,0,0,1,7.13527-6.99794,199.07178,199.07178,0,0,0,60.51314-8.40977A198.84694,198.84694,0,0,0,291.88917,96.057a5.98547,5.98547,0,0,1,8.07405,1.63846,81.38524,81.38524,0,0,0,32.34339,26.926,6.99618,6.99618,0,0,1,4.06576,6.35253v65.56879A80.37228,80.37228,0,0,1,256.00008,276.915h-.00017A80.37229,80.37229,0,0,1,175.62763,196.54278Z"/><path fill="#e58a7b" d="M268.70444 196.84891v5.73261a12.7012 12.7012 0 0 1-12.7012 12.70119h-.00648a12.7012 12.7012 0 0 1-12.7012-12.70119v-5.73261a3 3 0 0 1 3-3h19.40888A3 3 0 0 1 268.70444 196.84891zM336.37238 192.42068h0V151.371H352.7622a7 7 0 0 1 7 7l0 10.65978A23.38985 23.38985 0 0 1 336.37238 192.42068z"/><path fill="#e58a7b" d="M152.23775,151.371h.00008a23.38985,23.38985,0,0,1,23.38985,23.38985v10.65983a7,7,0,0,1-7,7H152.23775a0,0,0,0,1,0,0V151.371a0,0,0,0,1,0,0Z" transform="rotate(180 163.933 171.896)"/><path fill="#f96263" d="M266.16226 339.38428c0 4.1864-5.65412 12.72891-8.52741 16.79974a1.99834 1.99834 0 0 1-3.2697 0c-2.87329-4.07083-8.52741-12.61334-8.52741-16.79974a10.16226 10.16226 0 0 1 20.32452 0zM308.16226 325.38428c0 4.1864-5.65412 12.72891-8.52741 16.79974a1.99834 1.99834 0 0 1-3.2697 0c-2.87329-4.07083-8.52741-12.61334-8.52741-16.79974a10.16226 10.16226 0 0 1 20.32452 0zM224.16226 325.38428c0 4.1864-5.65412 12.72891-8.52741 16.79974a1.99834 1.99834 0 0 1-3.2697 0c-2.87329-4.07083-8.52741-12.61334-8.52741-16.79974a10.16226 10.16226 0 0 1 20.32452 0zM256 508.499V475.64014a80.88155 80.88155 0 0 1 80.88171-80.88135h.00013A31.21932 31.21932 0 0 0 368.101 363.53955V321.13574a5.0552 5.0552 0 0 1 6.80786-4.7417L395.37415 323.96a5.0547 5.0547 0 0 1 3.30224 4.74121v52.03858a81.37576 81.37576 0 0 0 3.939 25.01074l2.04492 6.33105a131.84943 131.84943 0 0 1-4.4043 92.75635l-1.57959 3.66113-1.63766 3.5H256z"/><path fill="#f96263" d="M256.00006,508.499V475.64035a80.88167,80.88167,0,0,0-80.88167-80.88167h-.00011a31.21911,31.21911,0,0,1-31.21911-31.21911V321.13576a5.05511,5.05511,0,0,0-6.808-4.74148L116.626,323.95993a5.05512,5.05512,0,0,0-3.30226,4.74148v52.03816a81.37275,81.37275,0,0,1-3.939,25.01075l-2.04493,6.33116a131.84924,131.84924,0,0,0,4.40428,92.75619l1.57964,3.66135,1.87381,3.5H256.00006Z"/><path d="M256,218.7832A16.2212,16.2212,0,0,0,272.20459,202.582v-5.5293a3.5,3.5,0,0,0-7,0v5.5293a9.20459,9.20459,0,0,1-18.40918,0v-5.5293a3.5,3.5,0,0,0-7,0v5.5293A16.2212,16.2212,0,0,0,256,218.7832Zm47.87451-71.06152a34.20319,34.20319,0,0,0-26.01806,0,3.50042,3.50042,0,1,0,2.6582,6.47656,27.14672,27.14672,0,0,1,9.66064-2.03808,27.44049,27.44049,0,0,1,11.043,2.03808,3.50005,3.50005,0,1,0,2.65625-6.47656Zm-82.74072,10.0127a3.50017,3.50017,0,0,0-3.5,3.5V168.668a3.5,3.5,0,0,0,7,0v-7.43359A3.50017,3.50017,0,0,0,221.13379,157.73438Zm69.73242,0a3.50017,3.50017,0,0,0-3.5,3.5V168.668a3.5,3.5,0,0,0,7,0v-7.43359A3.50017,3.50017,0,0,0,290.86621,157.73438ZM422.437,340.25586,402.17627,330.353v-1.65088a8.58774,8.58774,0,0,0-5.58887-8.02442l-20.46484-7.56543a8.5535,8.5535,0,0,0-7.55542.82129l-12.88135-6.29687a36.20733,36.20733,0,0,0,7.574-22.25684V169.12842c.00012-.03223.00244-.064.00244-.09619V158.37207c0-.01611-.00244-.03174-.00244-.04834v-51.064a107.25977,107.25977,0,0,0-214.51954,0v51.064c0,.0166-.00244.03223-.00244.04834v10.66016c0,.03222.00232.064.00244.09619V285.37988a36.20733,36.20733,0,0,0,7.574,22.25684l-12.8811,6.29639a8.55139,8.55139,0,0,0-7.55518-.82081l-20.46533,7.56543a8.58774,8.58774,0,0,0-5.58887,8.02442V330.353l-20.25928,9.90185A63.8756,63.8756,0,0,0,53.93994,397.2998V508.5a3.5,3.5,0,0,0,7,0V397.2998a56.83121,56.83121,0,0,1,31.69727-50.75488l17.18652-8.40039v42.5957a77.75026,77.75026,0,0,1-3.76953,23.93457l-2.04492,6.33106a135.30583,135.30583,0,0,0,4.521,95.21973l1.57959,3.66113a3.50028,3.50028,0,1,0,6.42774-2.77344l-1.57959-3.66113a128.30251,128.30251,0,0,1-4.2876-90.29395l2.04492-6.33105a84.75331,84.75331,0,0,0,4.1084-26.08692V328.70215a1.56075,1.56075,0,0,1,1.01563-1.458l20.46582-7.56543a1.554,1.554,0,0,1,2.09375,1.458V363.541a34.75872,34.75872,0,0,0,34.71923,34.71875A77.4692,77.4692,0,0,1,252.5,475.6416V508.5a3.5,3.5,0,0,0,7,0V475.6416a77.4692,77.4692,0,0,1,77.38184-77.38183A34.75872,34.75872,0,0,0,371.60107,363.541v-42.4043a1.55424,1.55424,0,0,1,2.09424-1.458l20.46582,7.56543a1.561,1.561,0,0,1,1.01514,1.458v52.03808a84.75331,84.75331,0,0,0,4.1084,26.08692l2.04492,6.33105a128.30251,128.30251,0,0,1-4.2876,90.294l-1.57959,3.66113a3.50028,3.50028,0,1,0,6.42774,2.77344l1.57959-3.66113a135.30583,135.30583,0,0,0,4.521-95.21973l-2.04492-6.33106a77.75026,77.75026,0,0,1-3.76953-23.93457v-42.5957l17.188,8.40137a56.82993,56.82993,0,0,1,31.6958,50.7539V508.5a3.5,3.5,0,0,0,7,0V397.2998A63.87431,63.87431,0,0,0,422.437,340.25586Zm-66.17724-54.876a29.25943,29.25943,0,0,1-7.02649,19.10254l-29.6156-14.47656a16.67038,16.67038,0,0,1-3.97828-2.72022l-.00854-.01123c-.01025-.01123-.02295-.01855-.0332-.02929a16.37841,16.37841,0,0,1-5.2378-12.06543V260.33887a83.69792,83.69792,0,0,0,29.5127-63.79492v-.85743a26.85423,26.85423,0,0,0,16.38721-8.5747Zm-77.70655,20.30567a78.39181,78.39181,0,0,1-45.11377-.002A82.27061,82.27061,0,0,1,203.81921,289.46a23.38364,23.38364,0,0,0,4.82093-14.28027v-9.46192a83.64924,83.64924,0,0,0,94.71972,0v9.46192a23.3879,23.3879,0,0,0,4.76026,14.20263A81.509,81.509,0,0,1,278.55322,305.68555Zm22.87586,13.99853a6.65947,6.65947,0,0,1,3.233,5.70166c0,1.65528-2.07178,6.25977-6.66211,13.01367-4.59033-6.7539-6.66211-11.35839-6.66211-13.01367a6.65947,6.65947,0,0,1,3.233-5.70166,3.50065,3.50065,0,0,0,6.85816,0ZM259.429,333.68359a6.66013,6.66013,0,0,1,3.23315,5.70215c0,1.65528-2.07178,6.25977-6.66211,13.01367-4.59033-6.7539-6.66211-11.35839-6.66211-13.01367a6.66013,6.66013,0,0,1,3.23315-5.70215,3.50063,3.50063,0,0,0,6.85792,0Zm-41.99988-13.99951a6.65947,6.65947,0,0,1,3.233,5.70166c0,1.65528-2.07178,6.25977-6.66211,13.01367-4.59033-6.7539-6.66211-11.35839-6.66211-13.01367a6.65947,6.65947,0,0,1,3.233-5.70166,3.50065,3.50065,0,0,0,6.85816,0ZM256,273.416A76.95918,76.95918,0,0,1,179.12744,196.544v-62.9336A3.46286,3.46286,0,0,1,180.168,131.125a3.51177,3.51177,0,0,1,2.481-1.0127c.01953,0,.03906,0,.05859.001a202.74567,202.74567,0,0,0,61.57764-8.55859,202.353,202.353,0,0,0,49.46875-22.53516,2.4873,2.4873,0,0,1,3.35107.69727,84.89594,84.89594,0,0,0,33.73047,28.081,3.51562,3.51562,0,0,1,2.03711,3.17676V196.544A76.95918,76.95918,0,0,1,256,273.416ZM356.25977,169.08057a19.908,19.908,0,0,1-16.38721,19.51367V154.87207h12.88965a3.50289,3.50289,0,0,1,3.49756,3.47559Zm-200.51954-61.8208a100.25977,100.25977,0,1,1,200.51954,0v41.22412a10.42425,10.42425,0,0,0-3.49756-.61182H339.87256V130.97461a10.53992,10.53992,0,0,0-6.0957-9.5293,77.86235,77.86235,0,0,1-30.95557-25.76953,9.48873,9.48873,0,0,0-12.79736-2.58008,195.333,195.333,0,0,1-47.75733,21.75586,195.1343,195.1343,0,0,1-59.44824,8.26172c-.05811,0-.11572-.001-.17334-.001a10.50625,10.50625,0,0,0-10.51758,10.49805v14.26172H159.23779a10.42425,10.42425,0,0,0-3.49756.61182Zm0,51.08789a3.50289,3.50289,0,0,1,3.49756-3.47559h12.88965v33.72217a19.908,19.908,0,0,1-16.38721-19.51367Zm0,127.03222V187.11182a26.85423,26.85423,0,0,0,16.38721,8.5747v.85743a83.69792,83.69792,0,0,0,29.5127,63.79492v14.84082a16.38,16.38,0,0,1-5.32349,12.14843c-.01331.01417-.02954.02393-.04272.03809l-.00953.0127a16.68935,16.68935,0,0,1-3.88159,2.62695l-29.616,14.47656A29.25887,29.25887,0,0,1,155.74023,285.37988Zm208.86084,35.75684V363.541a27.75023,27.75023,0,0,1-27.71923,27.71875A84.51871,84.51871,0,0,0,256,451.63086a84.51871,84.51871,0,0,0-80.88184-60.37109A27.75023,27.75023,0,0,1,147.39893,363.541v-42.4043a8.52584,8.52584,0,0,0-.1106-1.2959l48.16968-23.5459a23.94074,23.94074,0,0,0,3.28772-1.96A91.67147,91.67147,0,0,0,210.5,302.957v9.23731a13.67441,13.67441,0,0,0-10.16211,13.1914c0,3.86914,3.08447,10.2002,9.167,18.81543a5.49736,5.49736,0,0,0,8.98926.002c6.0835-8.61718,9.168-14.94824,9.168-18.81738A13.67441,13.67441,0,0,0,217.5,312.19434v-5.33106a86.03131,86.03131,0,0,0,13.94336,5.5293A87.75365,87.75365,0,0,0,252.5,315.91748v10.27686a13.67441,13.67441,0,0,0-10.16211,13.1914c0,3.86914,3.08447,10.2002,9.167,18.81543a5.49736,5.49736,0,0,0,8.98926.002c6.0835-8.61718,9.168-14.94824,9.168-18.81738A13.67441,13.67441,0,0,0,259.5,326.19434V315.918a87.37121,87.37121,0,0,0,21.05518-3.52539A85.332,85.332,0,0,0,294.5,306.835v5.35938a13.67441,13.67441,0,0,0-10.16211,13.1914c0,3.86914,3.08447,10.2002,9.167,18.81543a5.49736,5.49736,0,0,0,8.98926.002c6.0835-8.61718,9.168-14.94824,9.168-18.81738A13.67441,13.67441,0,0,0,301.5,312.19434v-9.293a90.93779,90.93779,0,0,0,11.66943-8.62842,23.92637,23.92637,0,0,0,3.37354,2.022l48.1687,23.5459A8.52584,8.52584,0,0,0,364.60107,321.13672Zm-130.45849-173.415a34.64418,34.64418,0,0,0-13.87647-2.55957,34.14393,34.14393,0,0,0-12.1416,2.56055,3.49952,3.49952,0,1,0,2.6582,6.47461,27.20627,27.20627,0,0,1,20.70362.001,3.50005,3.50005,0,0,0,2.65625-6.47656Zm34.57861,84.042a29.89927,29.89927,0,0,1-12.63086,2.86231H256.001a29.89372,29.89372,0,0,1-12.72217-2.86231,3.50021,3.50021,0,0,0-2.99756,6.32617A36.932,36.932,0,0,0,256.001,241.626h.11035a36.94764,36.94764,0,0,0,15.60693-3.53614,3.5001,3.5001,0,1,0-2.99707-6.32617Z"/></svg>