<svg xmlns="http://www.w3.org/2000/svg" data-name="Layer 1" viewBox="0 0 512 512"><path fill="#343c4a" d="M381.72132,277.1646,256,327.499,130.27868,277.1646a7.41825,7.41825,0,0,1-.96105-13.3059l0,0a56.96193,56.96193,0,0,0,28.18517-54.35347l-5.2651-58.99388V107.26116A103.76214,103.76214,0,0,1,255.99989,3.499h.00021A103.76213,103.76213,0,0,1,359.76223,107.26116v43.25021l-5.26509,58.99384a56.96193,56.96193,0,0,0,28.18518,54.35346l0,0A7.41825,7.41825,0,0,1,381.72132,277.1646Z"/><path fill="#343c4a" d="M447.55951,501.999V376.92864a60,60,0,0,0-33.65575-53.90715l-102.824-50.24975a20,20,0,0,1-11.21858-17.969V220.76436H212.13879V254.8027a20,20,0,0,1-11.21858,17.969l-102.824,50.24975a60,60,0,0,0-33.65575,53.90715V501.999a10,10,0,0,0,10,10h363.119A10,10,0,0,0,447.55951,501.999Z"/><path fill="#f9beac" d="M311.07983,272.772a20.0001,20.0001,0,0,1-11.2185-17.96924V220.76416H212.13867v34.03857a20.0001,20.0001,0,0,1-11.2185,17.96924c-.28565,4.29932-.8313,20.29883,10.3728,34.54785C227.509,327.94238,253.74756,326.34229,256,326.1665a57.13779,57.13779,0,0,0,34.21875-12.36767C309.08374,298.58008,310.843,276.51953,311.07983,272.772Z"/><path fill="#f9f7f8" d="M331.18841,432.5846l-25.86148,12.51883a6,6,0,0,1-8.20331-3.21823L252.44534,327.46014,256,324.80892l26.51551-8.29342,51.47572,108.08877A6,6,0,0,1,331.18841,432.5846Z"/><path fill="#f9f7f8" d="M180.81159,432.5846l25.86148,12.51883a6,6,0,0,0,8.20331-3.21823l44.67828-114.42506L256,324.80892l-26.51551-8.29342L178.00877,424.60427A6,6,0,0,0,180.81159,432.5846Z"/><path fill="#eaeaea" d="M310.39956 266.79122a4.99733 4.99733 0 0 0-8.0612 3.6471 59.263 59.263 0 0 1-8.36308 27.1216c-12.644 20.90617-33.87626 26.29315-37.97528 27.249q31.40269 12.785 62.80542 25.5699a7 7 0 0 0 7.20124-1.17377l.02089-.018a46.24431 46.24431 0 0 0-1.71457-71.55577zM201.60044 266.79122a4.99733 4.99733 0 0 1 8.0612 3.6471 59.263 59.263 0 0 0 8.36308 27.1216C230.66867 318.46609 251.901 323.85307 256 324.80892q-31.40269 12.785-62.80542 25.5699a7 7 0 0 1-7.20124-1.17377l-.02089-.018a46.24431 46.24431 0 0 1 1.71457-71.55577z"/><path fill="#e58a7b" d="M299.86133,254.80273V220.76416H212.13867v34.03857a19.9717,19.9717,0,0,1-.353,3.68116A80.04047,80.04047,0,0,0,263,276.915h0a79.97049,79.97049,0,0,0,40.33691-10.86572A19.97511,19.97511,0,0,1,299.86133,254.80273Z"/><path fill="#f9beac" d="M175.62763,175.54278V112.60986a7.00686,7.00686,0,0,1,7.13527-6.99794A199.07178,199.07178,0,0,0,243.276,97.20215,198.84694,198.84694,0,0,0,291.88917,75.057a5.98547,5.98547,0,0,1,8.07405,1.63846,81.38524,81.38524,0,0,0,32.34339,26.926,6.99618,6.99618,0,0,1,4.06576,6.35253v65.56879A80.37228,80.37228,0,0,1,256.00008,255.915h-.00017A80.37229,80.37229,0,0,1,175.62763,175.54278Z"/><path fill="#e58a7b" d="M268.70444 181.2601v7.32142a12.7012 12.7012 0 0 1-12.7012 12.70119h-.00648a12.7012 12.7012 0 0 1-12.7012-12.70119V181.2601a3 3 0 0 1 3-3h19.40888A3 3 0 0 1 268.70444 181.2601zM336.37238 171.42068h0V130.371H352.7622a7 7 0 0 1 7 7l0 10.65978A23.38985 23.38985 0 0 1 336.37238 171.42068z"/><path fill="#e58a7b" d="M152.23775,130.371h.00008a23.38985,23.38985,0,0,1,23.38985,23.38985v10.65983a7,7,0,0,1-7,7H152.23775a0,0,0,0,1,0,0V130.371A0,0,0,0,1,152.23775,130.371Z" transform="rotate(180 163.933 150.896)"/><path d="M415.4375,319.875,356.457,291.05127,383.02051,280.419a10.92116,10.92116,0,0,0,1.41406-19.58692,53.64375,53.64375,0,0,1-26.44824-51.01172l5.25976-59c.00879-.103.01368-.207.01368-.31054V148.147c.00024-.03906.00293-.07715.00293-.11572l-.001-10.65918c0-.01318-.002-.02539-.002-.03857V107.25977a107.25977,107.25977,0,0,0-214.51954,0v30.05468c0,.01953-.00293.03809-.00293.05762v10.65967c0,.03857.00269.07666.00293.11572v2.36231c0,.10351.00489.20752.01368.31054l5.25976,58.99805c.14356,1.62646.2168,3.23193.2168,4.77148a53.59948,53.59948,0,0,1-26.66211,46.24024,10.92033,10.92033,0,0,0,1.41113,19.58887L155.543,291.05127,96.5625,319.875a63.907,63.907,0,0,0-35.62207,57.05469V508.5a3.5,3.5,0,1,0,7,0V376.92969a56.86351,56.86351,0,0,1,31.69629-50.76563l72.58447-35.47217a49.749,49.749,0,0,0,11.4917,61.16944,10.46073,10.46073,0,0,0,10.80078,1.75976l16.65772-6.78173-36.31885,76.26123a9.51689,9.51689,0,0,0,4.43262,12.63964l25.85546,12.50782a9.50143,9.50143,0,0,0,13-5.08594l37.86011-96.98486L293.8623,443.169A9.50478,9.50478,0,0,0,306.85449,448.25l25.86231-12.51074a9.516,9.516,0,0,0,4.43359-12.63379L300.8291,346.83984l16.65723,6.78223a10.47111,10.47111,0,0,0,10.82226-1.7793,49.74888,49.74888,0,0,0,11.47022-61.15088l72.58447,35.47217a56.86351,56.86351,0,0,1,31.69629,50.76563V508.5a3.5,3.5,0,0,0,7,0V376.92969A63.907,63.907,0,0,0,415.4375,319.875ZM155.74023,107.25977a100.25977,100.25977,0,1,1,200.51954,0v20.22412a10.42767,10.42767,0,0,0-3.498-.61182H339.87207v-16.897a10.53516,10.53516,0,0,0-6.09473-9.52881,77.86654,77.86654,0,0,1-30.95605-25.77,9.48459,9.48459,0,0,0-12.79688-2.57959,195.32692,195.32692,0,0,1-47.75683,21.75488,195.261,195.261,0,0,1-59.4502,8.26172c-.05664-.001-.11328-.00146-.1709-.00146a10.50709,10.50709,0,0,0-10.51855,10.499v14.26123H159.2373a10.43285,10.43285,0,0,0-3.49707.61133ZM356.25977,137.353v10.74365a19.92133,19.92133,0,0,1-16.3877,19.51709v-33.7417h12.88965A3.50315,3.50315,0,0,1,356.25977,137.353Zm-23.3877-27.37793V175.544a76.87207,76.87207,0,0,1-153.74414,0V112.61084a3.46156,3.46156,0,0,1,1.04-2.48535,3.514,3.514,0,0,1,2.48242-1.01367l.05762.00048a202.08412,202.08412,0,0,0,61.57715-8.55761,202.3414,202.3414,0,0,0,49.46972-22.53516,2.487,2.487,0,0,1,3.35059.69727,84.87273,84.87273,0,0,0,33.73144,28.082A3.51346,3.51346,0,0,1,332.87207,109.9751ZM155.74023,137.34326a3.50251,3.50251,0,0,1,3.49707-3.47119h12.89063v33.7417a19.92133,19.92133,0,0,1-16.3877-19.51709Zm8.28394,149.563L131.582,273.9209a3.9201,3.9201,0,0,1-.50781-7.03223,60.62077,60.62077,0,0,0,30.15625-52.29883c0-1.74463-.082-3.55761-.24414-5.39111l-3.70264-41.53125a26.80544,26.80544,0,0,0,14.84424,7.019v.85743a83.837,83.837,0,0,0,36.51172,69.17334V254.7998a16.59819,16.59819,0,0,1-1.91382,7.70313,8.46244,8.46244,0,0,0-7.27661,1.52832l-13.91309,10.83984a50.266,50.266,0,0,0-3.99682,3.47559ZM191.875,347.1377a3.49575,3.49575,0,0,1-3.62109-.60352,42.74375,42.74375,0,0,1,1.585-66.1416L203.752,269.55273a1.43879,1.43879,0,0,1,1.53321-.18554,1.45486,1.45486,0,0,1,.88379,1.28613,62.26171,62.26171,0,0,0,8.86035,28.71875c8.78906,14.53125,21.63769,22.05957,30.791,25.80273Zm19.74707,93.47265a2.50083,2.50083,0,0,1-3.42773,1.33887l-25.8584-12.50879a2.50293,2.50293,0,0,1-1.166-3.3252L220.79,342.92285l34.43945-14.02148ZM256,321.207c-6.35913-1.60937-24.15479-7.5581-34.98047-25.458a55.323,55.323,0,0,1-7.86426-25.52441,8.52584,8.52584,0,0,0-.89648-3.31836,23.62787,23.62787,0,0,0,3.38086-12.10645v-5.76025a83.68111,83.68111,0,0,0,80.7207,0v5.76025a23.62787,23.62787,0,0,0,3.38086,12.10645,8.53054,8.53054,0,0,0-.89648,3.31934,55.32268,55.32268,0,0,1-7.86426,25.52343C280.15479,313.64893,262.35913,319.59766,256,321.207Zm74.833,104.91309a2.502,2.502,0,0,1-1.167,3.31933l-25.86524,12.51172a2.49987,2.49987,0,0,1-3.41992-1.334L259.7583,336.55176l2.167-5.55127,29.28492,11.92334Zm-7.10645-79.56934a3.49434,3.49434,0,0,1-3.60156.58789L266.17969,325.1748c9.15332-3.74316,22.002-11.27148,30.791-25.80273a62.26143,62.26143,0,0,0,8.86035-28.71777,1.4983,1.4983,0,0,1,2.417-1.10157l13.91308,10.83985a42.74357,42.74357,0,0,1,1.56543,66.1582Zm6.73413-68.2041a50.266,50.266,0,0,0-3.99682-3.47559l-13.91309-10.83984a8.46193,8.46193,0,0,0-7.27637-1.52832,16.5955,16.5955,0,0,1-1.91406-7.70313V244.71729A83.837,83.837,0,0,0,339.87207,175.544v-.85743a26.80544,26.80544,0,0,0,14.84424-7.019l-3.70264,41.53076a60.6706,60.6706,0,0,0,29.91406,57.69238,3.82505,3.82505,0,0,1,1.95215,3.36915,3.87718,3.87718,0,0,1-2.46093,3.66113l-32.44312,12.98535ZM126.78418,397.7002a3.50048,3.50048,0,0,0-3.5,3.5v18.14941a56.82215,56.82215,0,0,1-2.751,17.45508l-2.26855,7.02929a104.23841,104.23841,0,0,0,.70312,65.8125,3.49975,3.49975,0,1,0,6.61328-2.293,97.20614,97.20614,0,0,1-.65527-61.36817l2.26953-7.03223a63.80432,63.80432,0,0,0,3.08887-19.60351V401.2002A3.50048,3.50048,0,0,0,126.78418,397.7002Zm264.68164,39.10644a56.84368,56.84368,0,0,1-2.751-17.457V401.2002a3.5,3.5,0,0,0-7,0v18.14941a63.82626,63.82626,0,0,0,3.08887,19.60547l2.27051,7.03125a97.2749,97.2749,0,0,1-.64746,61.36816,3.50036,3.50036,0,1,0,6.61523,2.291,104.32834,104.32834,0,0,0,.69336-65.81055ZM256,131.17383a3.50017,3.50017,0,0,0,3.5-3.5v-7.43262a3.5,3.5,0,0,0-7,0v7.43262A3.50017,3.50017,0,0,0,256,131.17383Zm34.86621,12.561a3.50017,3.50017,0,0,0-3.5,3.5V154.668a3.5,3.5,0,0,0,7,0v-7.43311A3.50017,3.50017,0,0,0,290.86621,143.73486ZM303.874,133.72119a34.20786,34.20786,0,0,0-26.01757.001,3.5,3.5,0,1,0,2.6582,6.47558,27.144,27.144,0,0,1,9.66113-2.03711,27.47779,27.47779,0,0,1,11.044,2.03809,3.50014,3.50014,0,0,0,2.65429-6.47754Zm-35.15332,84.042a29.89039,29.89039,0,0,1-12.62988,2.8628H256.001a29.88672,29.88672,0,0,1-12.72168-2.86231,3.49987,3.49987,0,1,0-2.99805,6.3252A36.92525,36.92525,0,0,0,256.002,227.626h.11035a36.9517,36.9517,0,0,0,15.60645-3.53662,3.50032,3.50032,0,0,0-2.998-6.32618ZM256,204.78369a16.22109,16.22109,0,0,0,16.2041-16.20117v-5.52979a3.5,3.5,0,0,0-7,0v5.52979a9.2041,9.2041,0,0,1-18.4082,0v-5.52979a3.5,3.5,0,0,0-7,0v5.52979A16.22109,16.22109,0,0,0,256,204.78369Zm-34.86621-61.04883a3.50017,3.50017,0,0,0-3.5,3.5V154.668a3.5,3.5,0,0,0,7,0v-7.43311A3.50017,3.50017,0,0,0,221.13379,143.73486Zm13.00781-10.01367a34.20819,34.20819,0,0,0-26.01758.001,3.5,3.5,0,1,0,2.65821,6.47558,27.14913,27.14913,0,0,1,9.66211-2.03711,27.46416,27.46416,0,0,1,11.043,2.03809,3.50014,3.50014,0,0,0,2.6543-6.47754Z"/></svg>