<svg xmlns="http://www.w3.org/2000/svg" data-name="Layer 1" viewBox="0 0 512 512"><path fill="#00988c" d="M50.44049,501.999V369.05864A60,60,0,0,1,89.93,312.67316l101.20877-36.81511H320.86119L422.07,312.67316a60,60,0,0,1,39.48955,56.38548V501.999a10,10,0,0,1-10,10H60.44049A10,10,0,0,1,50.44049,501.999Z"/><polygon fill="#f9beac" points="306.861 311.083 306.861 229.138 205.139 229.138 205.139 311.083 256.411 341.6 306.861 311.083"/><rect width="73" height="16" x="311.5" y="398.499" fill="#f96263" rx="2"/><rect width="73" height="16" x="128.121" y="398.499" fill="#fff" rx="2"/><path fill="#416bd0" d="M384.5,412.499v-12a2.00006,2.00006,0,0,0-2-2h-19v16h19A2.00006,2.00006,0,0,0,384.5,412.499Z"/><path fill="#ffbc5b" d="M313.5,398.499a2.00006,2.00006,0,0,0-2,2v12a2.00006,2.00006,0,0,0,2,2h22v-16Z"/><path fill="#006e66" d="M420.85992 312.23291l-59.29638-21.56934-4.99586 14.55923a6 6 0 0 0 3.72776 7.62255l48.32117 16.58125a6 6 0 0 0 7.6226-3.72778zM103.38339 329.4266l48.32117-16.58125a6 6 0 0 0 3.72776-7.62255l-4.99586-14.55923L91.14008 312.23291l4.62071 13.46591A6 6 0 0 0 103.38339 329.4266zM252.11711 344.80849L205.181 321.93931a11.92237 11.92237 0 0 0-13.071 1.73779l-4.38547 3.832a5 5 0 0 1-8.23523-4.50293l6.34442-45.22119q9.64806-7.83178 19.29611-15.66406Q230.56037 299.95273 255.991 337.784z"/><path fill="#006e66" d="M266.51018,342.49048V511.999h-21V360.03769a22.33042,22.33042,0,0,1,1.3-7.53l60.01-30.57a11.91593,11.91593,0,0,1,13.07,1.74l4.39,3.83a4.99607,4.99607,0,0,0,8.23-4.5q-3.165-22.62-6.34-45.22-9.645-7.83-19.3-15.67c-13.92,20.72-46.37,68.83-57.52,85.35a22.70274,22.70274,0,0,0-2.54,5.04"/><ellipse cx="256" cy="65.999" fill="#00988c" rx="118" ry="62.5"/><path fill="#e58a7b" d="M329.78339,174.51667h0V133.467h5.73011a17.65977,17.65977,0,0,1,17.65977,17.65972v0A23.38985,23.38985,0,0,1,329.78339,174.51667Z"/><path fill="#e58a7b" d="M159.64876,133.467h.00008a23.38985,23.38985,0,0,1,23.38985,23.38985v.00006a17.65977,17.65977,0,0,1-17.65977,17.65977h-5.73016a0,0,0,0,1,0,0V133.467a0,0,0,0,1,0,0Z" transform="rotate(180 171.344 153.992)"/><path fill="#e58a7b" d="M205.13879,249.208a67.31133,67.31133,0,0,0,12.92786,12.18408l9.20728,6.62012a61.90528,61.90528,0,0,0,36.137,11.64258h.00006a61.9025,61.9025,0,0,0,36.137-11.64307l7.31324-5.25781V229.13818H205.13879Z"/><path fill="#f9beac" d="M329.78336,173.31068V185.719a67.33777,67.33777,0,0,1-28.02789,54.67274L292.548,247.012a61.90261,61.90261,0,0,1-36.137,11.64279h0a61.90265,61.90265,0,0,1-36.137-11.64275l-9.20723-6.62a67.33774,67.33774,0,0,1-28.028-54.67258l0-12.40875V102.20336l146.74467-4.43587Z"/><path fill="#343c4a" d="M329.78336 164.999h-4a10 10 0 0 1-10-10v-45h14zM183.03859 164.999h4a10 10 0 0 0 10-10v-52h-14z"/><path fill="#fb615f" d="M169.87636,100.999c0-34.51779,38.55887-62.5,86.12364-62.5s86.12364,27.98221,86.12364,62.5Z"/><path fill="#006e66" d="M166.88977,101.68994a12.106,12.106,0,0,0,14.89349,15.64111,252.12348,252.12348,0,0,1,150.26691,1.52784,12.10571,12.10571,0,0,0,14.8197-16.32129q-3.93612-9.14062-7.87219-18.28223a185.85326,185.85326,0,0,0-165.463-1.33349Q170.21222,92.30566,166.88977,101.68994Z"/><circle cx="256" cy="51.322" r="24.816" fill="#fff"/><path fill="#343c4a" d="M227.677,188.7466a3.58038,3.58038,0,0,1,3.01583-3.54272,163.71979,163.71979,0,0,1,51.4388.00035,3.57954,3.57954,0,0,1,3.01344,3.54206v10.70918a3.59,3.59,0,0,1-4.10914,3.5457,175.06737,175.06737,0,0,0-49.25249.00038A3.58828,3.58828,0,0,1,227.677,199.456Z"/><path fill="#e58a7b" d="M269.11546,170.91782v5.0593a12.70119,12.70119,0,0,1-12.70119,12.70119h-.00649a12.70119,12.70119,0,0,1-12.70119-12.70119v-5.0593a3,3,0,0,1,3-3h19.40887A3,3,0,0,1,269.11546,170.91782Z"/><path d="M269.13184,212.15918a29.89069,29.89069,0,0,1-12.62989,2.8623h-.08984a29.88017,29.88017,0,0,1-12.72168-2.8623,3.49987,3.49987,0,0,0-2.998,6.3252,36.91119,36.91119,0,0,0,15.71973,3.5371h.11133a36.93075,36.93075,0,0,0,15.60644-3.5371,3.49987,3.49987,0,1,0-2.998-6.3252Zm114.74707,219.667a3.50017,3.50017,0,0,0-3.5,3.5V508.5a3.5,3.5,0,0,0,7,0V435.32617A3.50018,3.50018,0,0,0,383.87891,431.82617ZM199.12109,395h-69a5.50654,5.50654,0,0,0-5.5,5.5v12a5.50654,5.50654,0,0,0,5.5,5.5h69a5.50654,5.50654,0,0,0,5.5-5.5v-12A5.50654,5.50654,0,0,0,199.12109,395Zm-1.5,16h-66v-9h66ZM423.2666,309.38086,327.923,274.70361l-17.56262-14.25976v-22.5542a71.03666,71.03666,0,0,0,22.91992-52.16944v-7.9375a26.92387,26.92387,0,0,0,23.39258-26.65478,21.18364,21.18364,0,0,0-21.15918-21.16016h-2.2334v-7.2207a15.65342,15.65342,0,0,0,2.5586.21631A15.66591,15.66591,0,0,0,351.37274,107.082C368.24036,95.51709,377.5,80.99023,377.5,66c0-18.05371-12.93555-34.84766-36.42285-47.28809C318.29492,6.64551,288.08008,0,256,0s-62.29492,6.64551-85.07715,18.71191C147.43555,31.15234,134.5,47.94629,134.5,66c0,15.71484,10.09515,30.80762,28.46234,42.63867A15.61889,15.61889,0,0,0,179.54,121.29834v8.66943h-2.23145a21.18384,21.18384,0,0,0-21.16015,21.16016,26.92469,26.92469,0,0,0,23.3916,26.6543v7.938a71.01459,71.01459,0,0,0,22.09961,51.38672v23.34034L184.0788,274.70264,88.73242,309.38086a63.7086,63.7086,0,0,0-41.792,59.6792V508.5a3.5,3.5,0,0,0,7,0V369.06006a56.69943,56.69943,0,0,1,35.06-52.27686l3.44977,10.05225a9.49878,9.49878,0,0,0,12.06933,5.90283l48.32031-16.58154a9.5007,9.5007,0,0,0,5.90332-12.06934l-3.8811-11.31006,26.69678-9.70947-5.5315,39.42285a8.50015,8.50015,0,0,0,14,7.65528l4.38575-3.83252a8.40122,8.40122,0,0,1,9.23339-1.22705l42.58551,20.7705a26.22718,26.22718,0,0,0-2.71539,5.46778l-.001.00293a25.74776,25.74776,0,0,0-1.50585,8.71093V508.5a3.5,3.5,0,0,0,7,0V360.03857a18.83216,18.83216,0,0,1,.68945-5.07324l13.31055-6.78076V508.5a3.5,3.5,0,0,0,7,0V344.61865L308.35352,325.085a8.40165,8.40165,0,0,1,9.23632,1.231l4.38672,3.82763a8.49519,8.49519,0,0,0,13.999-7.61962q-1.7505-12.51636-3.50782-25.02539l-2.0235-14.42969,26.69367,9.709-3.8811,11.31006a9.50043,9.50043,0,0,0,5.90332,12.06885l48.32031,16.58154a9.499,9.499,0,0,0,12.06933-5.90234l3.44971-10.05225a56.69866,56.69866,0,0,1,35.06006,52.27637V508.5a3.5,3.5,0,0,0,7,0V369.06006A63.70812,63.70812,0,0,0,423.2666,309.38086ZM179.54,170.68994a19.90836,19.90836,0,0,1-16.3916-19.562,14.17629,14.17629,0,0,1,14.16015-14.16016H179.54ZM152.00293,308.26953a2.48281,2.48281,0,0,1-1.43457,1.26611l-48.32031,16.58155a2.50367,2.50367,0,0,1-3.17676-1.55371l-3.50684-10.21875,52.718-19.17383,3.83966,11.18848A2.48187,2.48187,0,0,1,152.00293,308.26953ZM326.28027,161.5h-.5a6.50753,6.50753,0,0,1-6.5-6.5V119.89014a3.46969,3.46969,0,0,0-.22851-1.21241c2.41662.64991,4.82794,1.3252,7.22851,2.04883Zm9.2334-24.53223a14.17545,14.17545,0,0,1,14.15918,14.16016,19.9089,19.9089,0,0,1-16.39258,19.5625V136.96777ZM163.58984,100.522c-.00769.02149-.01306.04346-.02063.06543C149.30573,90.49414,141.5,78.355,141.5,66c0-15.33643,11.61328-29.93359,32.69922-41.102C195.99023,13.35645,225.041,7,256,7s60.00977,6.35645,81.80078,17.898C358.88672,36.06641,370.5,50.66357,370.5,66c0,12.001-7.42841,23.8833-20.99414,33.811q-2.01975-4.6985-4.042-9.39112l-3.249-7.54346c-.00994-.02294-.02618-.04345-.03668-.0664-8.4328-21.82178-31.87427-39.04541-61.45117-45.26074a28.29377,28.29377,0,0,0-49.4538-.00049c-28.88409,6.07617-52.154,22.832-60.94311,43.98926-.03925.08691-.07367.17431-.10864.26416-.008.022-.02247.04052-.03.063l-.04755.13428A46.5545,46.5545,0,0,0,168.5354,86.543Q166.06265,93.542,163.58984,100.522ZM283.692,45.42041c21.15692,5.3916,38.38153,16.80273,47.59747,31.32617a188.95594,188.95594,0,0,0-49.32788-14.13574A28.24683,28.24683,0,0,0,283.692,45.42041Zm-6.37659,5.90283A21.31543,21.31543,0,1,1,256,30.00732,21.34024,21.34024,0,0,1,277.31543,51.32324ZM229.91187,62.33105a188.93519,188.93519,0,0,0-48.35016,13.12012c9.41742-13.88721,26.30963-24.80615,46.7456-30.02832a28.29767,28.29767,0,0,0,1.60456,16.9082Zm-47.71845,51.23438c-.47394.13916-.94958.27148-1.42291.41357a8.60424,8.60424,0,0,1-10.58106-11.12109q2.49024-7.03638,4.98047-14.08154l1.18164-3.33106a182.06082,182.06082,0,0,1,57.47205-16.54687,28.26731,28.26731,0,0,0,44.16461.23926,182.11834,182.11834,0,0,1,58.29889,17.67089l2.74805,6.38086q2.31006,5.3628,4.62011,10.73438A8.60494,8.60494,0,0,1,333.125,115.5293,255.55912,255.55912,0,0,0,182.34937,113.52C182.29559,113.53076,182.24628,113.55176,182.19342,113.56543Zm12.74457,3.80225a3.48246,3.48246,0,0,0-1.398,2.78222V155a6.50753,6.50753,0,0,1-6.5,6.5h-.5V119.59082Q190.72272,118.40429,194.938,117.36768Zm-8.398,68.35253V168.5h.5a13.51507,13.51507,0,0,0,13.5-13.5V120.1499a3.4967,3.4967,0,0,0-2.869-3.43652,248.53068,248.53068,0,0,1,55.99005-6.5835c.2666-.001.52832-.00146.79395-.00146a248.4356,248.4356,0,0,1,59.04895,7.123,3.47643,3.47643,0,0,0-1.22376,2.63868V155a13.51508,13.51508,0,0,0,13.5,13.5h.5v17.22021a63.98775,63.98775,0,0,1-26.56347,51.82764l-9.21,6.62012a58.40441,58.40441,0,0,1-68.19336.001l-9.2002-6.6211A63.97031,63.97031,0,0,1,186.54,185.72021Zm63.63415,154.271-43.45935-21.19629a15.3865,15.3865,0,0,0-16.90722,2.24756l-4.38574,3.832a1.4205,1.4205,0,0,1-1.707.18653,1.43513,1.43513,0,0,1-.75976-1.56739l6.15332-43.85791,15.2539-12.38232,47.35621,70.44873Q250.922,338.88282,250.17419,339.99121Zm-41.53454-78.9209V242.94385c.12982.09472.25616.19336.38672.28711l9.20019,6.6206a65.38019,65.38019,0,0,0,76.36621.00049l8.76758-6.30176v17.51612c-11.02649,16.40918-32.8313,48.75146-47.41736,70.374Zm119.64941,63.98926a1.42114,1.42114,0,0,1-1.708-.188l-4.38476-3.82666a15.40969,15.40969,0,0,0-16.96484-2.2251l-37.99909,19.35791a3.48351,3.48351,0,0,0-3.90991,1.9917l-7.35077,3.74463c.77179-1.144,1.58716-2.35254,2.43365-3.60742a3.4719,3.4719,0,0,0,.84162-1.24707c13.864-20.55078,36.26269-53.769,48.39075-71.80908l15.25683,12.38769,2.6416,18.833q1.75488,12.50831,3.5127,25.05713A1.41585,1.41585,0,0,1,328.28906,325.05957Zm84.63965-.49561a2.50109,2.50109,0,0,1-3.17676,1.55323l-48.32031-16.58155a2.5,2.5,0,0,1-1.55371-3.17578l3.83966-11.189,52.7179,19.17383ZM128.12109,431.82617a3.50018,3.50018,0,0,0-3.5,3.5V508.5a3.5,3.5,0,1,0,7,0V435.32617A3.50017,3.50017,0,0,0,128.12109,431.82617ZM382.5,395h-69a5.50654,5.50654,0,0,0-5.5,5.5v12a5.50654,5.50654,0,0,0,5.5,5.5h69a5.50654,5.50654,0,0,0,5.5-5.5v-12A5.50654,5.50654,0,0,0,382.5,395ZM332,411H315v-9h17Zm28,0H339v-9h21Zm21,0H367v-9h14ZM279.59766,138.79541a3.48458,3.48458,0,0,0,1.32812-.26318,27.16032,27.16032,0,0,1,9.66113-2.03711,27.51091,27.51091,0,0,1,11.04395,2.03808,3.50014,3.50014,0,0,0,2.6543-6.47754,34.20758,34.20758,0,0,0-26.01758.001,3.50051,3.50051,0,0,0,1.33008,6.73877Zm-69.73243,0a3.48463,3.48463,0,0,0,1.32813-.26318,27.21036,27.21036,0,0,1,20.70508.001,3.50014,3.50014,0,0,0,2.65429-6.47754,34.20786,34.20786,0,0,0-26.01757.001,3.50051,3.50051,0,0,0,1.33007,6.73877Zm20.26954,42.94922a7.05909,7.05909,0,0,0-5.95508,7.00537v10.71a7.08395,7.08395,0,0,0,8.08984,7.00586,173.35106,173.35106,0,0,1,24.1416-1.70654c.11621,0,.2334,0,.35059.00049a172.71062,172.71062,0,0,1,23.78125,1.70459,7.08807,7.08807,0,0,0,8.10742-7.0044V188.75a7.03474,7.03474,0,0,0-5.96582-6.99561c-3.50323-.563-7.08783-1.00537-10.70166-1.34179a16.12133,16.12133,0,0,0,.63232-4.43457v-5.52979a3.5,3.5,0,0,0-7,0V175.978a9.2041,9.2041,0,0,1-18.4082,0v-5.52979a3.5,3.5,0,0,0-7,0V175.978a16.12189,16.12189,0,0,0,.63147,4.43115C237.23224,180.74707,233.64807,181.1875,230.13477,181.74463Zm14.53674,5.36816a16.13483,16.13483,0,0,0,23.47314.00684c4.54059.33154,9.05213.84277,13.43055,1.5459.00585.001.06933.08349.07519.08447v10.71l-.11914.07471a179.80649,179.80649,0,0,0-24.75391-1.7749,176.06178,176.06178,0,0,0-25.48632,1.77441l-.11133-.07422V188.75c0-.05225.02441-.0874.05859-.09277C235.62915,187.96143,240.1405,187.4502,244.67151,187.11279Zm-19.62659-41.54345a3.5,3.5,0,0,0-7,0v7.4331a3.5,3.5,0,1,0,7,0Zm66.23242-3.5a3.50017,3.50017,0,0,0-3.5,3.5v7.4331a3.5,3.5,0,0,0,7,0v-7.4331A3.50017,3.50017,0,0,0,291.27734,142.06934Z"/></svg>