<svg xmlns="http://www.w3.org/2000/svg" data-name="Layer 1" viewBox="0 0 512 512"><path fill="#f9f7f8" d="M470.41092,511.999a10,10,0,0,0,10-10V358.0428a81.04234,81.04234,0,0,0-57.84058-77.52166L316.21547,248.519a34.73243,34.73243,0,0,1-24.78882-33.22357V142.84178h-70.8533v72.45368A34.73243,34.73243,0,0,1,195.78453,248.519L89.42966,280.52114A81.04234,81.04234,0,0,0,31.58908,358.0428V501.999a10,10,0,0,0,10,10Z"/><rect width="35.565" height="243.419" x="238.218" y="268.58" fill="#eaeaea"/><path fill="#f9beac" d="M291.15709,238.67131l-.00006,0A70.01345,70.01345,0,0,1,256,248.13507h0a70.01338,70.01338,0,0,1-35.157-9.46372l-.00007,0A97.20639,97.20639,0,0,1,172.38627,154.628V54.37357H339.6137V154.628A97.20638,97.20638,0,0,1,291.15709,238.67131Z"/><path fill="#e58a7b" d="M268.48553,154.52608v4.97934A12.48562,12.48562,0,0,1,255.99991,171.991h0a12.48562,12.48562,0,0,1-12.48562-12.48562v-4.97934a3,3,0,0,1,3-3h18.97127A3,3,0,0,1,268.48553,154.52608Z"/><path fill="#343c4a" d="M172.38631,54.37357v78.87766h4.19617A10.49047,10.49047,0,0,0,187.073,122.76076V104.97682a6,6,0,0,1,6-6h24.06958a97.7245,97.7245,0,0,0,58.4999-19.32227,3.95212,3.95212,0,0,1,4.77495.0545,91.45376,91.45376,0,0,0,39.62907,17.75489,5.97826,5.97826,0,0,1,4.8805,5.88991V122.761a10.49023,10.49023,0,0,0,10.49023,10.49023h4.19654V54.37357Z"/><path fill="#eaeaea" d="M333.12365,253.451l-14.3664,7.20987a138.23748,138.23748,0,0,1-125.5145,0l-14.3664-7.20987V209.31829l.00008,0c49.19154,24.68709,105.0556,24.68709,154.24714,0l.00008,0Z"/><path fill="#f9f7f8" d="M256,3.24609A124.36792,124.36792,0,1,0,380.36816,127.61426,124.36823,124.36823,0,0,0,256,3.24609Zm0,224.77539A100.40747,100.40747,0,1,1,356.40735,127.61426,100.52126,100.52126,0,0,1,256,228.02148Z"/><path fill="#eaeaea" d="M256,3.499c-68.68658,0-124.36818,55.568-124.36818,124.115a124.47792,124.47792,0,0,0,2.29731,23.81921c.08663.02947.18107.06394.26631.09285C145.85774,97.903,195.95945,57.58583,256,57.58583S366.14219,97.903,377.80456,151.52608c.08072-.00723.17021-.01668.25308-.02446a124.467,124.467,0,0,0,2.31054-23.8876C380.36818,59.067,324.68664,3.499,256,3.499Z"/><rect width="85.574" height="36.437" x="323.332" y="339.42" fill="#57aafe" rx="5.699"/><rect width="85.574" height="36.437" x="103.299" y="339.42" fill="#57aafe" rx="5.699"/><path fill="#ff7b4f" d="M480.411 371.63916H463.33038a5.99983 5.99983 0 0 0-6 6V439.6665a5.99983 5.99983 0 0 0 6 6H480.411zM31.58911 445.6665H48.66968a5.99983 5.99983 0 0 0 6-6V377.63916a5.99983 5.99983 0 0 0-6-6H31.58911z"/><path d="M117.29932,431.82617a3.50017,3.50017,0,0,0-3.5,3.5V508.5a3.5,3.5,0,0,0,7,0V435.32617A3.50017,3.50017,0,0,0,117.29932,431.82617Zm65.875-95.90527H108.99854a9.20989,9.20989,0,0,0-9.19922,9.19922v25.03906a9.20989,9.20989,0,0,0,9.19922,9.19922h74.17578a9.2099,9.2099,0,0,0,9.19922-9.19922V345.12012A9.2099,9.2099,0,0,0,183.17432,335.9209Zm2.19922,34.23828a2.20141,2.20141,0,0,1-2.19922,2.19922H108.99854a2.2014,2.2014,0,0,1-2.19922-2.19922V345.12012a2.2014,2.2014,0,0,1,2.19922-2.19922h74.17578a2.20141,2.20141,0,0,1,2.19922,2.19922Zm209.32714,61.667a3.50017,3.50017,0,0,0-3.5,3.5V508.5a3.5,3.5,0,0,0,7,0V435.32617A3.50017,3.50017,0,0,0,394.70068,431.82617Zm8.50684-95.90527H329.03174a9.20989,9.20989,0,0,0-9.19922,9.19922v25.03906a9.20989,9.20989,0,0,0,9.19922,9.19922h74.17578a9.20989,9.20989,0,0,0,9.19922-9.19922V345.12012A9.20989,9.20989,0,0,0,403.20752,335.9209Zm2.19922,34.23828a2.20141,2.20141,0,0,1-2.19922,2.19922H329.03174a2.20141,2.20141,0,0,1-2.19922-2.19922V345.12012a2.20141,2.20141,0,0,1,2.19922-2.19922h74.17578a2.20141,2.20141,0,0,1,2.19922,2.19922Zm-111.624-244.35742a3.50017,3.50017,0,0,0-3.5,3.5v8.05469a3.5,3.5,0,0,0,7,0v-8.05469A3.50017,3.50017,0,0,0,293.78271,125.80176ZM256,175.49219a16.00333,16.00333,0,0,0,15.98535-15.98535v-4.22461a3.5,3.5,0,1,0-7,0v4.22461a8.9856,8.9856,0,0,1-17.97119,0v-4.22461a3.5,3.5,0,1,0-7,0v4.22461A16.00375,16.00375,0,0,0,256,175.49219Zm11.3291,23.125a30.34189,30.34189,0,0,1-12.08447,2.22949,29.72942,29.72942,0,0,1-10.57373-2.22949,3.50024,3.50024,0,0,0-2.65723,6.47656,36.713,36.713,0,0,0,13.0542,2.751q.45117.01172.90332.01172a37.203,37.203,0,0,0,14.01416-2.7627,3.50005,3.50005,0,1,0-2.65625-6.47656Zm216.58106,173.0332.001-.00977-.001-.00976V358.04a84.54785,84.54785,0,0,0-60.332-80.87207l-86.958-26.16309V226.78613a127.98183,127.98183,0,0,0,44.87072-74.606l.00184-.00635.01129-.062q.28574-1.46631.53839-2.94434l.01361-.082q.25149-1.481.46954-2.97363l.01026-.07325q.21506-1.48388.397-2.97851c.00543-.04444.01-.08936.01532-.1333q.17423-1.45386.31738-2.91553c.00971-.1001.01727-.20019.02674-.30029.0863-.916.16632-1.8335.23315-2.7544.0152-.208.02551-.4165.03967-.62451.05512-.81445.10828-1.62988.148-2.44873.02051-.417.03131-.834.04767-1.25146.02393-.61719.05219-1.2334.06726-1.85254q.03928-1.58277.04022-3.16407A128.08837,128.08837,0,0,0,297.65338,6.71875c-.05591-.02588-.10431-.061-.16217-.084a3.49062,3.49062,0,0,0-.38776-.11036A127.89128,127.89128,0,0,0,128.13184,127.61523q0,1.57911.04016,3.16016c.01465.60059.04211,1.19824.06506,1.79688.01685.43408.02832.86816.04956,1.30224.03894.80176.09107,1.6001.14453,2.398.01514.22217.02625.44434.04248.6665.06519.89991.14319,1.7959.22693,2.69092.01135.11963.02039.23975.03211.35987q.13768,1.42895.3092,2.84863c.00769.06445.01428.12891.02209.19287q.17688,1.46631.38819,2.92139c.00586.04052.01111.08056.017.12109q.21331,1.4685.46081,2.92676c.00672.03955.01306.07959.01978.11963q.24828,1.45971.53027,2.9082c.00488.0249.00879.05029.01367.0752l.00269.01025a127.981,127.981,0,0,0,44.88354,74.67236v24.21875L88.42139,277.168A84.54821,84.54821,0,0,0,28.08984,358.04v13.59082l-.001.00976.001.00977V445.6582l-.001.00977.001.00976V508.5a3.5,3.5,0,0,0,7,0V449.168H48.66943a9.51081,9.51081,0,0,0,9.5-9.5V377.64062a9.51081,9.51081,0,0,0-9.5-9.5H35.08984V358.04a77.54827,77.54827,0,0,1,55.34864-74.16895l88.311-26.56982,12.9209,6.48682a144.47137,144.47137,0,0,0,43.0498,13.76367V508.5a3.5,3.5,0,0,0,7,0V278.436a138.01509,138.01509,0,0,0,28.55958,0V508.5a3.5,3.5,0,0,0,7,0V277.55176a144.47765,144.47765,0,0,0,43.05029-13.76367l12.92035-6.48682L421.561,283.87109a77.54792,77.54792,0,0,1,55.34912,74.169v10.10058H463.33057a9.51081,9.51081,0,0,0-9.5,9.5V439.668a9.51081,9.51081,0,0,0,9.5,9.5h13.57959V508.5a3.5,3.5,0,0,0,7,0V445.67773l.001-.00976-.001-.00977ZM48.66943,375.14062a2.50263,2.50263,0,0,1,2.5,2.5V439.668a2.50263,2.50263,0,0,1-2.5,2.5H35.08984V375.14062ZM298.1156,14.55859c45.94293,17.09864,78.75256,61.32325,78.75256,113.05664,0,1.17334-.02075,2.34766-.05511,3.52247-.00824.28808-.02252.57421-.03284.8623-.03363.92334-.07489,1.84668-.12964,2.76953-.007.11865-.01532.23682-.02258.35547a120.22748,120.22748,0,0,0-20.79858-35.48975,3.36728,3.36728,0,0,0-.218-.26611,124.60661,124.60661,0,0,0-13.507-13.61963c-.05688-.0581-.1228-.10547-.18359-.15918-1.54248-1.33056-3.10828-2.63916-4.72266-3.8999a131.01792,131.01792,0,0,0-55.71832-25.15527Zm54.79456,113.06153A96.29416,96.29416,0,0,1,341.33,173.51758a100.62955,100.62955,0,0,0,1.7799-18.8877V96.28418q3.519,3.45337,6.73151,7.18359A96.34573,96.34573,0,0,1,352.91016,127.62012ZM335.41992,136.75h.68994v17.87988a92.85268,92.85268,0,0,1-7.83685,37.46924,96.76723,96.76723,0,0,1-144.546,0,92.85173,92.85173,0,0,1-7.83691-37.46924V136.75h.68994a14.00614,14.00614,0,0,0,13.98974-13.99023v-17.7793a2.50263,2.50263,0,0,1,2.5-2.5h24.07032a100.83774,100.83774,0,0,0,60.59424-20.0166.44629.44629,0,0,1,.53857.01074,95.37858,95.37858,0,0,0,41.14355,18.42773,2.47621,2.47621,0,0,1,2.01368,2.44727v19.41016A14.00614,14.00614,0,0,0,335.41992,136.75Zm0-7a6.998,6.998,0,0,1-6.98974-6.99023V103.34961a9.47517,9.47517,0,0,0-7.75-9.332,88.35363,88.35363,0,0,1-38.11036-17.06934,7.45729,7.45729,0,0,0-9.01757-.09765,93.88405,93.88405,0,0,1-56.41211,18.62988H193.06982a9.51081,9.51081,0,0,0-9.5,9.5v17.7793a6.998,6.998,0,0,1-6.98974,6.99023h-.68994V89.92871a125.67591,125.67591,0,0,1,160.21972,0V129.75ZM256,7a120.70428,120.70428,0,0,1,35.47906,5.30566L274.41473,55.36377a133.423,133.423,0,0,0-36.829,0L220.521,12.30566A120.70358,120.70358,0,0,1,256,7ZM135.34937,134.76953c-.05469-.92334-.09595-1.84765-.12964-2.77148-.01026-.28711-.02454-.57276-.03272-.86035-.03442-1.17432-.05517-2.34864-.05517-3.52247,0-51.73339,32.80957-95.958,78.75256-113.05664l16.63611,41.97657a131.01959,131.01959,0,0,0-55.71875,25.15527c-1.61438,1.26074-3.18018,2.56934-4.72266,3.8999-.06079.05371-.12671.10108-.18359.15918a124.56285,124.56285,0,0,0-13.5127,13.62695c-.07312.08252-.14428.16553-.20971.25586a120.24129,120.24129,0,0,0-20.801,35.49268C135.36475,135.00635,135.35645,134.88818,135.34937,134.76953ZM170.67,173.51758a96.68908,96.68908,0,0,1-8.51135-70.04981q3.20965-3.72729,6.73145-7.18359v58.3457A100.62955,100.62955,0,0,0,170.67,173.51758ZM329.62012,251.291l-12.43018,6.24121a135.222,135.222,0,0,1-122.37939,0L182.37988,251.291V232.10449a127.6086,127.6086,0,0,0,147.24024,0ZM256,248.48242A121.074,121.074,0,0,1,137.64062,152.167a109.57868,109.57868,0,0,1,15.10755-36.13916,103.50894,103.50894,0,0,0,25.329,80.24512l.02649.02978a103.75825,103.75825,0,0,0,155.7923.00049l.02722-.03076a103.50862,103.50862,0,0,0,25.32867-80.24463A109.58155,109.58155,0,0,1,374.35944,152.167,121.07409,121.07409,0,0,1,256,248.48242ZM476.91016,442.168H463.33057a2.50263,2.50263,0,0,1-2.5-2.5V377.64062a2.50263,2.50263,0,0,1,2.5-2.5h13.57959ZM307.76807,114.92871a36.781,36.781,0,0,0-27.97168,0,3.50024,3.50024,0,0,0,2.65722,6.47656,29.72909,29.72909,0,0,1,10.57325-2.22949,30.20965,30.20965,0,0,1,12.085,2.22949,3.50005,3.50005,0,0,0,2.65625-6.47656Zm-75.56543,0a37.0728,37.0728,0,0,0-14.91748-2.751,36.70163,36.70163,0,0,0-13.05371,2.751,3.50024,3.50024,0,1,0,2.65722,6.47656,29.72462,29.72462,0,0,1,10.57324-2.22949,30.12493,30.12493,0,0,1,12.08545,2.22949,3.49987,3.49987,0,1,0,2.65528-6.47656Zm-13.98535,10.87305a3.50017,3.50017,0,0,0-3.5,3.5v8.05469a3.5,3.5,0,0,0,7,0v-8.05469A3.50017,3.50017,0,0,0,218.21729,125.80176Z"/></svg>