<svg xmlns="http://www.w3.org/2000/svg" data-name="Layer 1" viewBox="0 0 512 512"><path fill="#f9beac" d="M447.55957,501.999V379.2998a60,60,0,0,0-38.01-55.82509l-97.01835-38.21638a20,20,0,0,1-12.67-18.60836V247.7426H212.13892V266.65a20,20,0,0,1-12.67,18.60837l-97.01846,38.21639a60,60,0,0,0-38.01,55.82509V501.999a10,10,0,0,0,10,10H437.55957A10,10,0,0,0,447.55957,501.999Z"/><path fill="#7177db" d="M383.88,511.999V456.45967a13.54839,13.54839,0,0,0-1.16415-5.4945l-4.01987-9.06053a139.666,139.666,0,0,1-3.615-104.30764L383.88,313.36321l-46.61187-18.36084h-.00025a88.48929,88.48929,0,0,1-162.5357,0H174.732L128.12,313.36321l8.79906,24.23379a139.666,139.666,0,0,1-3.615,104.30764l-4.01987,9.06053a13.54839,13.54839,0,0,0-1.16415,5.4945V511.999Z"/><path fill="#e58a7b" d="M212.13892,247.74268V266.6499a19.97681,19.97681,0,0,1-.18677,2.6499,79.75573,79.75573,0,0,0,90.97461,7.96534,19.95863,19.95863,0,0,1-3.06543-10.61524V247.74268Z"/><rect width="255.76" height="55.539" x="128.12" y="456.46" fill="#57aafe"/><path fill="#57aafe" d="M178.60725,425.86144A24.50182,24.50182,0,0,1,166.92944,405.157V383.94861a47.995,47.995,0,0,0,13.12922-2.62388,47.13225,47.13225,0,0,0,10.25564-5.06241,45.70474,45.70474,0,0,0,10.48352,5.21367,46.60121,46.60121,0,0,0,12.95469,2.511V405.157a24.50214,24.50214,0,0,1-11.67788,20.70463L190.341,433.27117Z"/><ellipse cx="362.616" cy="223.263" fill="#343c4a" rx="21.617" ry="45.874" transform="rotate(-30 362.616 223.263)"/><circle cx="342.249" cy="187.986" r="12.471" fill="#ffbc5b"/><ellipse cx="149.384" cy="223.263" fill="#343c4a" rx="45.874" ry="21.617" transform="rotate(-60 149.384 223.263)"/><circle cx="169.751" cy="187.986" r="12.471" fill="#ffbc5b"/><path fill="#343c4a" d="M359.80881,159.01067h-207.571V107.28445A103.78543,103.78543,0,0,1,256.02318,3.499h.00021A103.78542,103.78542,0,0,1,359.80881,107.28445Z"/><path fill="#f9beac" d="M175.62756,185.51353V122.70162a6.00321,6.00321,0,0,1,6.13416-6.01543,107.483,107.483,0,0,0,43.86926-8.07,106.96622,106.96622,0,0,0,29.87135-18.66456,5.98744,5.98744,0,0,1,8.058.12531,98.34846,98.34846,0,0,0,28.417,18.53925,98.56337,98.56337,0,0,0,38.42784,7.89863,5.99,5.99,0,0,1,5.96718,5.998v64.01008a80.37231,80.37231,0,0,1-80.98173,80.36981C211.07475,266.56414,175.62756,229.83058,175.62756,185.51353Z"/><path fill="#e58a7b" d="M268.70445 186.46v6.09821A12.70443 12.70443 0 0 1 256 205.26262h0a12.70443 12.70443 0 0 1-12.70443-12.70443V186.46a3 3 0 0 1 3-3h19.40888A3 3 0 0 1 268.70445 186.46zM336.37239 182.40058h0V141.35091h5.7301a17.65977 17.65977 0 0 1 17.65977 17.65972v0A23.38985 23.38985 0 0 1 336.37239 182.40058z"/><path fill="#e58a7b" d="M152.23776,141.35091h.00008a23.38985,23.38985,0,0,1,23.38985,23.38985v.00006a17.65977,17.65977,0,0,1-17.65977,17.65977h-5.73016a0,0,0,0,1,0,0V141.35091A0,0,0,0,1,152.23776,141.35091Z" transform="rotate(-180 163.933 161.876)"/><path d="M410.833,320.22363,385.09448,310.084c-.00708-.00293-.01294-.00732-.02026-.00976l-.01245-.00293-71.24829-28.06836a16.40726,16.40726,0,0,1-10.45313-15.35254V255.74756a84.771,84.771,0,0,0,11.72461-9.69678A83.76012,83.76012,0,0,0,333.26343,219.252a95.49458,95.49458,0,0,0,7.60571,16.56739c6.375,11.04882,14.44727,20.30078,22.72949,26.05175,5.80371,4.0293,11.34864,6.08008,16.22657,6.08008a14.73181,14.73181,0,0,0,7.4746-1.92969c12.19239-7.04,10.90528-31.33593-2.92871-55.31152-7.59912-13.16553-17.74975-23.832-27.40258-28.88574a14.45714,14.45714,0,0,0-1.97315-3.44434,26.79159,26.79159,0,0,0,8.25342-18.77539,3.48992,3.48992,0,0,0,.05981-.59277V107.28516a107.28565,107.28565,0,0,0-214.57129,0v51.72656a26.7937,26.7937,0,0,0,8.26709,19.36816,14.46543,14.46543,0,0,0-1.97216,3.44385c-9.65284,5.05371-19.804,15.72022-27.40332,28.88721-13.834,23.97461-15.1211,48.27051-2.92871,55.31054a14.73436,14.73436,0,0,0,7.4746,1.92969c4.87793,0,10.42286-2.05078,16.22657-6.08008,8.28222-5.751,16.35449-15.00293,22.72949-26.05078a95.01812,95.01812,0,0,0,7.75781-17.02246,85.4506,85.4506,0,0,0,29.751,36.67969v11.17285a16.40726,16.40726,0,0,1-10.45313,15.35254L126.94019,310.0708l-.01441.00342c-.0083.00293-.01514.0083-.02344.01123L101.168,320.22363A63.13553,63.13553,0,0,0,60.94043,379.2998V508.75a3.5,3.5,0,1,0,7,0V379.2998a56.17259,56.17259,0,0,1,35.793-52.5625l22.32519-8.79492,7.57032,20.84961a135.52763,135.52763,0,0,1-3.52442,101.69434l-4.01953,9.06055a16.9487,16.9487,0,0,0-1.46484,6.91406v52.293a3.5,3.5,0,0,0,7,0v-48.793H380.37988v48.793a3.5,3.5,0,0,0,7,0v-52.293a16.9487,16.9487,0,0,0-1.46484-6.91406l-4.01953-9.06153A135.525,135.525,0,0,1,378.37109,338.792l7.57032-20.8501,22.32617,8.79541a56.17313,56.17313,0,0,1,35.792,52.5625V508.75a3.5,3.5,0,0,0,7,0V379.2998A63.13607,63.13607,0,0,0,410.833,320.22363Zm-52.8479-129.58154c7.20044,5.08594,14.50879,13.4917,20.32348,23.56689,5.8711,10.17579,9.51953,20.75684,10.27344,29.7959.667,7.999-1.07617,13.81446-4.78223,15.9541-3.708,2.13868-9.61425.74122-16.209-3.83789-7.45215-5.1748-14.78906-13.62695-20.65918-23.80078a81.02005,81.02005,0,0,1-9.63281-25.04883q.48339-1.90869.87353-3.8457a15.94731,15.94731,0,0,0,19.81275-12.78369Zm-18.71167,5.79a85.31834,85.31834,0,0,0,.59863-9.90869V185.666a26.69691,26.69691,0,0,0,9.49414-3.13184,8.9537,8.9537,0,0,1-10.09277,13.898Zm.59863-17.83936V144.85156h2.23047a14.17661,14.17661,0,0,1,14.16016,14.16016A19.9222,19.9222,0,0,1,339.87207,178.59277ZM155.7373,159.01172a14.17661,14.17661,0,0,1,14.16016-14.16016h2.23047v33.74121A19.9222,19.9222,0,0,1,155.7373,159.01172Zm16.39454,26.65478a85.66849,85.66849,0,0,0,.71582,10.72168,8.88808,8.88808,0,0,1-7.57715-.62841,8.92766,8.92766,0,0,1-2.63672-13.22559A26.69472,26.69472,0,0,0,172.13184,185.6665Zm-7.06348,46.65479c-5.87012,10.17285-13.207,18.625-20.65918,23.7998-6.59473,4.57911-12.50195,5.97657-16.209,3.83789-3.70606-2.13964-5.44922-7.95507-4.78223-15.9541.75391-9.03906,4.40234-19.62011,10.27344-29.79492,5.81494-10.07617,13.12353-18.48242,20.324-23.56836a15.90307,15.90307,0,0,0,20.011,12.73389c.239,1.11914.48559,2.23535.76806,3.3374A80.40039,80.40039,0,0,1,165.06836,232.32129Zm9.94043-116.44824a9.46059,9.46059,0,0,0-2.88086,6.8291v15.14941h-2.23047A21.052,21.052,0,0,0,155.7373,143.333V107.28516a100.28565,100.28565,0,0,1,200.57129,0V143.375a21.05214,21.05214,0,0,0-14.20605-5.52344h-2.23047V122.51367a9.50809,9.50809,0,0,0-9.45605-9.49805,94.53575,94.53575,0,0,1-64.4668-25.49609,9.462,9.462,0,0,0-12.76367-.19141,103.15573,103.15573,0,0,1-71.332,25.86036A9.41793,9.41793,0,0,0,175.00879,115.87305Zm4.11914,69.6416v-62.8125a2.51407,2.51407,0,0,1,.76562-1.81543,2.43616,2.43616,0,0,1,1.71192-.70117c.02148,0,.043,0,.06543.001a110.14142,110.14142,0,0,0,76.14648-27.61035,2.48535,2.48535,0,0,1,3.3545.06055,101.55062,101.55062,0,0,0,69.22265,27.3789,2.496,2.496,0,0,1,2.47754,2.49805v64.00977a78.02076,78.02076,0,0,1-.81519,11.24218c-.01977.09864-.02929.19678-.04077.2959a76.454,76.454,0,0,1-1.67968,8.11573c-.01709.062-.03711.12158-.051.18408A76.38037,76.38037,0,0,1,310.15332,241.083a77.64864,77.64864,0,0,1-12.041,9.77148,3.54686,3.54686,0,0,0-.30249.19092,76.29278,76.29278,0,0,1-41.8059,12.3501c-.19532,0-.39161,0-.58692-.002C213.35059,263.082,179.12793,228.14551,179.12793,185.51465Zm21.625,103.00195a23.37074,23.37074,0,0,0,14.88672-21.86621v-6.78564a82.35889,82.35889,0,0,0,39.72461,10.5288c.21484.002.42676.002.64062.002a83.374,83.374,0,0,0,40.35547-10.32764v6.58252a23.37074,23.37074,0,0,0,14.88672,21.86621l21.2937,8.38867a84.96883,84.96883,0,0,1-153.08154,0ZM371.791,336.40332a142.49424,142.49424,0,0,0,3.70605,106.9209l4.01953,9.06055c.084.18945.14893.38378.2207.57617H132.2627c.07177-.19239.13671-.38672.2207-.57617l4.01953-9.05957A142.49692,142.49692,0,0,0,140.209,336.40332l-7.63476-21.02783,40.34985-15.896a91.98038,91.98038,0,0,0,166.15259.00049L379.426,315.37549ZM256.1123,231.60547a36.944,36.944,0,0,0,15.60645-3.53613,3.50032,3.50032,0,0,0-2.998-6.32618,29.8899,29.8899,0,0,1-12.62988,2.86231H256.001a29.89319,29.89319,0,0,1-12.72168-2.86231,3.50032,3.50032,0,0,0-2.99805,6.32618,36.94025,36.94025,0,0,0,15.71973,3.53613Zm-21.9707-93.9043a34.21431,34.21431,0,0,0-26.01758,0,3.50043,3.50043,0,1,0,2.65821,6.47656,27.216,27.216,0,0,1,20.70507,0,3.49968,3.49968,0,1,0,2.6543-6.47656Zm-20.21289,242.792a43.21336,43.21336,0,0,1-11.98437-2.32324,42.33381,42.33381,0,0,1-9.68262-4.81445,3.50349,3.50349,0,0,0-3.86719-.01856,43.71066,43.71066,0,0,1-9.49414,4.68653,44.5605,44.5605,0,0,1-12.17383,2.43164,3.49992,3.49992,0,0,0-3.29687,3.49414v21.209a27.97927,27.97927,0,0,0,13.30957,23.66309h-.001l11.7334,7.41016a3.49936,3.49936,0,0,0,3.73828,0l11.73242-7.41016a27.97926,27.97926,0,0,0,13.31055-23.66309V383.98828A3.49862,3.49862,0,0,0,213.92871,380.49316Zm-3.67578,24.665a21.01963,21.01963,0,0,1-10.04785,17.74512l-9.86426,6.22949-9.86426-6.22949h-.001a21.02216,21.02216,0,0,1-10.0459-17.74512V387.14648a51.47618,51.47618,0,0,0,10.78808-2.51757,50.8821,50.8821,0,0,0,9.07813-4.2295,49.4456,49.4456,0,0,0,9.35547,4.38379,50.04089,50.04089,0,0,0,10.60156,2.42383Zm80.61328-257.44336a3.50049,3.50049,0,0,0-3.5,3.5v7.43262a3.5,3.5,0,1,0,7,0v-7.43262A3.50049,3.50049,0,0,0,290.86621,147.71484Zm-11.67969-3.27441a3.50246,3.50246,0,0,0,1.32813-.2627,27.21567,27.21567,0,0,1,20.70508,0,3.49968,3.49968,0,1,0,2.65429-6.47656,34.214,34.214,0,0,0-26.01757,0,3.50078,3.50078,0,0,0,1.33007,6.73926Zm-58.05273,3.27441a3.50049,3.50049,0,0,0-3.5,3.5v7.43262a3.5,3.5,0,0,0,7,0v-7.43262A3.50049,3.50049,0,0,0,221.13379,147.71484ZM256,208.76367a16.22109,16.22109,0,0,0,16.2041-16.20117v-5.53027a3.5,3.5,0,1,0-7,0v5.53027a9.2041,9.2041,0,0,1-18.4082,0v-5.53027a3.5,3.5,0,0,0-7,0v5.53027A16.22109,16.22109,0,0,0,256,208.76367Z"/></svg>