<svg xmlns="http://www.w3.org/2000/svg" data-name="Layer 1" viewBox="0 0 512 512"><path fill="#343c4a" d="M206.62766,3.499h98.74468a31,31,0,0,1,31,31V101.4992a0,0,0,0,1,0,0H175.62766a0,0,0,0,1,0,0V34.499a31,31,0,0,1,31-31Z"/><path fill="#38424f" d="M319.30737,44.9375A87.812,87.812,0,0,1,305,59.499c-5.87537,15.57715-2.4043,32.08789,7.85553,42h23.51685v-67a30.85528,30.85528,0,0,0-3.55268-14.40771A88.16983,88.16983,0,0,1,319.30737,44.9375Z"/><path fill="#f96263" d="M447.55957,501.999V347.31989a60,60,0,0,0-38.01-55.82508l-97.01835-38.21639a20,20,0,0,1-12.67-18.60836V215.7627H212.13892v18.90736a20,20,0,0,1-12.67,18.60836l-97.01846,38.21639a60,60,0,0,0-38.01,55.8251V501.999a10,10,0,0,0,10,10H437.55957A10,10,0,0,0,447.55957,501.999Z"/><path fill="#f9beac" d="M317.721,255.32273l-5.18981-2.04431a20,20,0,0,1-12.67-18.60836V215.7627H212.13892v18.90736a20,20,0,0,1-12.67,18.60836l-5.18986,2.04433,12.72095,42,58.80809,5.01079,46.713-21.1404Z"/><path fill="#e58a7b" d="M303.04388,245.47168a19.96156,19.96156,0,0,1-3.18267-10.80176V215.7627H212.13892v7.73974A100.87451,100.87451,0,0,0,235.7074,244.6958,63.12191,63.12191,0,0,0,303.04388,245.47168Z"/><path fill="#f9beac" d="M327.57336 180.20264A100.8781 100.8781 0 0 1 290.293 223.69531l-.00043.00049a63.128 63.128 0 0 1-68.58514 0 100.88022 100.88022 0 0 1-37.28064-43.49268l-.00012-.00048a100.87854 100.87854 0 0 1-8.79895-41.20508V101.499a211.64548 211.64548 0 0 0 78.51306-13.8999A210.46609 210.46609 0 0 0 305 59.499a68.35471 68.35471 0 0 0 31.37231 42v37.49854A100.87951 100.87951 0 0 1 327.57336 180.20264zM437.55957 511.999H383.88V459.98354h63.67957V501.999A10 10 0 0 1 437.55957 511.999z"/><rect width="63.68" height="23.647" x="383.88" y="445.984" fill="#8fd17a"/><path fill="#f9beac" d="M128.12,511.999H74.44043a10,10,0,0,1-10-10V459.98354H128.12Z"/><rect width="63.68" height="23.647" x="64.44" y="445.984" fill="#8fd17a"/><path fill="#e58a7b" d="M268.70444,158.10436v7.53322a12.7012,12.7012,0,0,1-12.7012,12.7012h-.00648a12.7012,12.7012,0,0,1-12.7012-12.7012v-7.53322a3,3,0,0,1,3-3h19.40888A3,3,0,0,1,268.70444,158.10436Z"/><path fill="#e58a7b" d="M152.23776,97.42914h.00008A23.38985,23.38985,0,0,1,175.62769,120.819v.00006a17.65977,17.65977,0,0,1-17.65977,17.65977h-5.73016a0,0,0,0,1,0,0V97.42914A0,0,0,0,1,152.23776,97.42914Z" transform="rotate(180 163.933 117.954)"/><path fill="#8fd17a" d="M256,316.499a88.62859,88.62859,0,0,0,81.26788-53.47656L317.721,255.32275a67.49771,67.49771,0,0,1-123.442,0l-19.54687,7.69971A88.62857,88.62857,0,0,0,256,316.499Z"/><rect width="213.03" height="54.012" x="149.485" y="405.939" fill="#d34342" rx="10"/><path fill="#e58a7b" d="M336.37239,138.47881h0V97.42914h5.7301a17.65977,17.65977,0,0,1,17.65977,17.65972v0A23.38985,23.38985,0,0,1,336.37239,138.47881Z"/><path fill="#343c4a" d="M343.02324,406.2398l-2.59176-5.24175-5.83537.37634a9.0738,9.0738,0,0,0-7.0324,4.123l-55.251,85.32351a6.59911,6.59911,0,0,0,2.23963,9.30189l12.97421,7.49066a6.59912,6.59912,0,0,0,9.17549-2.71137l46.2668-90.51055A9.07374,9.07374,0,0,0,343.02324,406.2398Z"/><path fill="#8fd17a" d="M162.45393,376.92445a27.21083,27.21083,0,0,1-12.969-22.99366V330.37758a53.30161,53.30161,0,0,0,14.58083-2.914,52.34328,52.34328,0,0,0,11.38955-5.62213,50.75815,50.75815,0,0,0,11.64261,5.79012,51.75381,51.75381,0,0,0,14.387,2.78865v23.51056a27.21115,27.21115,0,0,1-12.969,22.9938l-13.031,8.22883Z"/><path d="M511.18115,200.6123c-.23047-1.61328-.52356-3.19042-.84521-4.75-.015-.06738-.02509-.13525-.044-.20166-.20721-.99121-.42389-1.97607-.66742-2.94433l-.01013-.0376c-4.18262-16.59228-13.65057-29.77441-27.20178-37.59863-14.355-8.28711-31.62549-9.5918-49.09424-3.84961-.05335.01367-.10407.03369-.15668.0498-1.52118.50391-3.04321,1.04151-4.56549,1.65235a91.17966,91.17966,0,0,0-33.63,24.03808c-.02735.02979-.05463.0586-.08106.08936a105.96091,105.96091,0,0,0-12.74835,17.63037l-.00592.0083-.00488.01074a104.99739,104.99739,0,0,0-8.8014,19.64893,3.458,3.458,0,0,0-.19592.61474,96.83614,96.83614,0,0,0-4.38238,21.65772,3.47152,3.47152,0,0,0-.07923,1.1626,83.766,83.766,0,0,0,1.29529,22.0542,3.49365,3.49365,0,0,0,.23639,1.21923c.14142.65918.305,1.30811.46326,1.95948a3.50969,3.50969,0,0,0,.29309,1.209,69.61659,69.61659,0,0,0,3.26172,9.582l-60.4043-23.79394a16.41,16.41,0,0,1-10.45264-15.35352V218.2915a104.33424,104.33424,0,0,0,36.47657-76.542,26.92489,26.92489,0,0,0,23.42578-26.65967,21.18363,21.18363,0,0,0-21.15967-21.15966h-2.23V34.5a34.2737,34.2737,0,0,0-3.85108-15.80908,3.45932,3.45932,0,0,0-.16-.312A34.52745,34.52745,0,0,0,305.37256,0H206.62744a34.539,34.539,0,0,0-34.5,34.5V93.93018h-2.23a21.18363,21.18363,0,0,0-21.15967,21.15966,26.92386,26.92386,0,0,0,23.4253,26.65918,104.335,104.335,0,0,0,36.477,76.54248v16.37842a16.41,16.41,0,0,1-10.45264,15.35352L101.168,288.24316a63.13759,63.13759,0,0,0-40.228,59.07666V508.5a3.5,3.5,0,1,0,7,0V473.13184h56.68018V508.5a3.5,3.5,0,0,0,7,0V424.12988a3.5,3.5,0,0,0-7,0v18.3545H67.93994V347.31982a56.176,56.176,0,0,1,35.793-52.56347L172.923,267.49951a91.981,91.981,0,0,0,166.15436-.00049l40.11621,15.80176q.77271,1.20117,1.59864,2.36035a3.47045,3.47045,0,0,0,.408.55664,54.75926,54.75926,0,0,0,13.78876,13.2793l-56.653,98.12988-3.96479.25586a12.63542,12.63542,0,0,0-8.89495,4.55713H159.48a13.51539,13.51539,0,0,0-13.5,13.5V449.9502a13.51539,13.51539,0,0,0,13.5,13.5H285.86707l-16.49256,25.46923a10.09894,10.09894,0,0,0,3.42774,14.23536l12.97412,7.49072a10.09926,10.09926,0,0,0,14.042-4.14942l22.004-43.04589H352.52a13.51539,13.51539,0,0,0,13.5-13.5V415.93994a13.51539,13.51539,0,0,0-13.5-13.5h-7.47174l-.64948-1.31348,56.653-98.13037a54.78713,54.78713,0,0,0,18.42138,5.31983,3.49442,3.49442,0,0,0,.69092.07666c.04743,0,.09418-.00733.14142-.00928,1.84857.17383,3.70886.27686,5.58173.27686.9256,0,1.85418-.02832,2.78393-.07032a56.14951,56.14951,0,0,1,15.38892,38.73v95.16456H387.37988v-18.3545a3.5,3.5,0,0,0-7,0V508.5a3.5,3.5,0,0,0,7,0V473.13184h56.68018V508.5a3.5,3.5,0,0,0,7,0V347.31982a63.05744,63.05744,0,0,0-13.92316-39.66748q3.24885-.57421,6.49188-1.46533a3.49647,3.49647,0,0,0,1.09009-.31982c.63263-.18457,1.26477-.37451,1.89588-.57715a3.52454,3.52454,0,0,0,1.31744-.4375,83.806,83.806,0,0,0,19.808-9.9502,3.48078,3.48078,0,0,0,.94214-.65039,96.8568,96.8568,0,0,0,16.55054-14.61425,3.46163,3.46163,0,0,0,.38061-.41749,106.21707,106.21707,0,0,0,21.53925-37.38378l.01184-.03711A91.19507,91.19507,0,0,0,511.18115,200.6123ZM339.87207,101.50488l.00049-.00488v-.56982h2.23a14.17577,14.17577,0,0,1,14.15967,14.15966,19.90879,19.90879,0,0,1-16.39014,19.5625ZM172.12744,134.65234a19.909,19.909,0,0,1-16.38965-19.5625,14.17577,14.17577,0,0,1,14.15967-14.15966h2.23Zm-47.50732,314.832v16.64746H67.93994V449.48438ZM332.50433,30.03418A27.5488,27.5488,0,0,1,332.87256,34.5V94.96484A65.45879,65.45879,0,0,1,318.20947,80.023a64.68588,64.68588,0,0,1-9.23089-19.27637A91.38687,91.38687,0,0,0,322.07275,47.084,91.13491,91.13491,0,0,0,332.50433,30.03418ZM179.12744,97.43506l.00049-.00488-.00049-.00489V34.5a27.53112,27.53112,0,0,1,27.5-27.5h98.74512a27.50993,27.50993,0,0,1,23.59772,13.398,84.461,84.461,0,0,1-12.4278,22.395A84.47284,84.47284,0,0,1,302.8443,56.74121a206.9711,206.9711,0,0,1-49.95563,27.59033,207.0729,207.0729,0,0,1-73.76123,13.67383Zm8.49414,81.33887a96.75663,96.75663,0,0,1-8.49414-39.77539v-33.98a213.88268,213.88268,0,0,0,76.26514-14.1499,213.79282,213.79282,0,0,0,47.646-25.6001,71.58748,71.58748,0,0,0,9.44532,18.78077,72.63729,72.63729,0,0,0,20.38818,19.40722v35.542a97.38188,97.38188,0,0,1-44.481,81.75976,59.71352,59.71352,0,0,1-64.78222,0A97.15539,97.15539,0,0,1,187.62158,178.77393Zm13.13135,77.7622a23.37143,23.37143,0,0,0,14.88721-21.86621V223.77734c1.366.98,2.74841,1.94043,4.166,2.85791a66.72433,66.72433,0,0,0,72.38819-.00048c1.41742-.917,2.79968-1.87745,4.16552-2.85743v10.89258a23.37072,23.37072,0,0,0,14.88721,21.86621l1.68756.66455a63.97485,63.97485,0,0,1-113.86932.00049ZM256,313a85.01872,85.01872,0,0,1-76.54114-48.0752l13.06385-5.14648a70.97756,70.97756,0,0,0,126.95477,0l13.064,5.146A85.01927,85.01927,0,0,1,256,313ZM159.48,456.4502a6.50753,6.50753,0,0,1-6.5-6.5V415.93994a6.50753,6.50753,0,0,1,6.5-6.5H320.84137L290.4,456.4502Zm134.106,46.85937a3.099,3.099,0,0,1-4.30957,1.27344l-12.97412-7.49072a3.0988,3.0988,0,0,1-1.05176-4.36817L330.173,407.90771l.01911-.02929.30884-.47705a5.59952,5.59952,0,0,1,4.32031-2.53321l3.50732-.22607,1.55713,3.1499a5.59668,5.59668,0,0,1-.0332,5.00733Zm52.499-87.32373a12.5804,12.5804,0,0,0,1.32587-6.5459H352.52a6.50753,6.50753,0,0,1,6.5,6.5V449.9502a6.50753,6.50753,0,0,1-6.5,6.5H325.40057Zm97.9751,50.146H387.37988V449.48438h56.68018Zm52.6983-286.89844a56.20288,56.20288,0,0,1,3.32611,6.77441l-5.428-3.13427Zm6.41876,16.64306c.01313.05713.02466.11573.03766.17334l-6.9339,12.00977-12.1242-6.99951,6.99969-12.124Zm-28.583,7.74561-7.00177,12.12744-12.12415-7L462.47,196.62207Zm-8.624-13.062,6.9997-12.124,12.12414,7-6.99969,12.12353ZM464.09222,221.812l-6.99987,12.124-12.12409-6.99952,6.99982-12.12451Zm-14.68646-16.5625-12.124-6.99951,7.00183-12.12793,12.124,7Zm-3.50012,6.0625-6.99982,12.124-12.12408-6.99952,6.99988-12.12451ZM435.4057,229.49854l-6.99988,12.124-12.12408-6.99951,6.99988-12.12451ZM420.7193,212.936l-12.12409-6.99952,6.99988-12.12451,12.12409,7Zm-3.50012,6.0625-6.99988,12.124-12.12415-6.99951,6.99988-12.12451Zm-10.5,18.18652-6.99988,12.124-12.12421-7,6.99988-12.124Zm-4.43756,21.68652,12.12414,7-6.99988,12.124-12.12414-6.99952Zm3.50012-6.062,6.99982-12.12451,12.12414,7-6.99982,12.124Zm25.1864-1.62451,12.12408,7-6.99987,12.124-12.12409-6.99951Zm3.50012-6.062,6.99982-12.12451,12.12408,7-6.99981,12.124Zm25.18634-1.62451,12.12421,7-6.99982,12.124-12.1242-6.99951Zm3.50012-6.062L470.1546,225.312l12.12421,7L475.279,244.436ZM473.65479,219.25l7.00177-12.12793,12.12414,7L485.779,226.24951Zm8.21746-56.2334a47.91514,47.91514,0,0,1,10.52356,9.772l-3.80169,6.585-12.12421-7Zm-19.7976-7.70947A47.91734,47.91734,0,0,1,475.812,159.5127l-5.40448,9.36084-12.124-7Zm4.83276,19.62891-6.9997,12.12353-12.124-6.99951,6.99976-12.124Zm-12.57367-20.22168-2.11255,3.65918-5.41333-3.12549A56.39654,56.39654,0,0,1,454.33374,154.71436Zm-17.79706,2.82617c.05139-.01612.10285-.03467.15418-.0503L448.721,164.436l-6.99976,12.12353-12.124-6.99951Zm1.68445,25.08154-7.00183,12.12744-12.124-6.99951,7.00183-12.12744ZM426.01337,161.7666l-2.47852,4.293-2.649-1.5293Q423.40955,163.04566,426.01337,161.7666Zm-11.68268,7.0625,5.704,3.293-7.00183,12.12744-9.92621-5.731A88.681,88.681,0,0,1,414.33069,168.8291Zm-16.0445,14.98975,11.24646,6.49316-6.99987,12.124-12.531-7.23487A98.95857,98.95857,0,0,1,398.28619,183.81885Zm-11.78247,17.4458,12.52893,7.23389-6.99994,12.124-11.233-6.48535A98.34453,98.34453,0,0,1,386.50372,201.26465Zm-7.87726,19.70117,9.90607,5.71924-6.99982,12.124-5.67907-3.27881A89.475,89.475,0,0,1,378.62646,220.96582Zm-3.22454,22.38672,2.63061,1.519L375.564,249.147Q375.3783,246.28247,375.40192,243.35254Zm8.23,33.8208a56.66484,56.66484,0,0,1-3.30347-6.72754l5.39069,3.11231Zm-6.43183-16.6167c-.01355-.05908-.02392-.11963-.03729-.17822l6.93213-12.00684,12.12421,7-6.99988,12.124Zm21.30451,32.85645a47.81194,47.81194,0,0,1-10.51245-9.79151l3.78937-6.56347,12.1242,7Zm19.8064,7.69433a47.82557,47.82557,0,0,1-13.74573-4.19092l5.40289-9.35839,12.124,7Zm7.28131-12.61181-12.124-6.99952,6.99982-12.12451,12.124,7Zm.46344,13.19775,2.09881-3.63525,5.39319,3.11377A56.67,56.67,0,0,1,426.05579,301.69336Zm17.7879-2.80957c-.05676.01758-.11365.03369-.17041.05078l-12.01856-6.93848,6.99988-12.12451,12.12427,7Zm-1.689-25.07422,6.99988-12.12451,12.12427,7-6.99988,12.124Zm12.20911,20.85352,2.47748-4.291,2.63837,1.52295Q456.94832,293.38842,454.36383,294.66309Zm11.66827-7.06836-5.69067-3.28516,6.99988-12.12451,9.91516,5.72461A89.4743,89.4743,0,0,1,466.0321,287.59473Zm16.05549-14.979-11.24616-6.49267,6.99982-12.124,12.53027,7.23438A98.46943,98.46943,0,0,1,482.08759,272.61572Zm11.78466-17.44482-12.53088-7.23438,6.99988-12.12451,11.24621,6.49317A98.93628,98.93628,0,0,1,493.87225,255.1709Zm7.89515-19.69043-9.926-5.73047,7.00177-12.12744,5.704,3.293A88.66471,88.66471,0,0,1,501.7674,235.48047Zm.57586-23.92041,2.4787-4.29346q.19162,2.89453.17047,5.82276ZM160.58545,379.88477l13.03076,8.229a3.50031,3.50031,0,0,0,3.73731,0l13.03125-8.22852a30.6935,30.6935,0,0,0,14.60009-25.95361V330.42139a3.50014,3.50014,0,0,0-3.3247-3.49561,48.30228,48.30228,0,0,1-13.416-2.60058,47.31037,47.31037,0,0,1-10.84033-5.39063,3.50248,3.50248,0,0,0-3.86768-.019,48.90638,48.90638,0,0,1-10.6289,5.24609,49.88552,49.88552,0,0,1-13.625,2.72266,3.5,3.5,0,0,0-3.29737,3.49414v23.55322A30.69083,30.69083,0,0,0,160.58545,379.88477Zm-7.60059-46.29932a56.7578,56.7578,0,0,0,12.23926-2.81836,56.02424,56.02424,0,0,0,10.2124-4.7832,54.41492,54.41492,0,0,0,10.51514,4.95507,55.17448,55.17448,0,0,0,12.0332,2.71143v20.28125a23.73039,23.73039,0,0,1-11.3374,20.03467l-11.1626,7.04834-11.16211-7.04883a23.72831,23.72831,0,0,1-11.33789-20.03418ZM256,181.83984a16.22119,16.22119,0,0,0,16.20459-16.20117v-5.52978a3.5,3.5,0,0,0-7,0v5.52978a9.20459,9.20459,0,0,1-18.40918,0v-5.52978a3.5,3.5,0,0,0-7,0v5.52978A16.22119,16.22119,0,0,0,256,181.83984ZM224.63379,128.23a3.5,3.5,0,0,0-7,0v7.43311a3.5,3.5,0,0,0,7,0Zm6.853-7.03662a3.49987,3.49987,0,0,0,2.65527-6.47656,34.20476,34.20476,0,0,0-26.01758.00049,3.5,3.5,0,0,0,2.6582,6.47558,27.13933,27.13933,0,0,1,9.66114-2.03711A27.48057,27.48057,0,0,1,231.48682,121.19336Zm8.79443,79.95215a36.93963,36.93963,0,0,0,15.72021,3.53662h.11036a36.955,36.955,0,0,0,15.60644-3.53662,3.5001,3.5001,0,0,0-2.99707-6.32617,29.90713,29.90713,0,0,1-12.63086,2.86279H256.001a29.89035,29.89035,0,0,1-12.72217-2.86279,3.50021,3.50021,0,0,0-2.99756,6.32617Zm50.585-76.41553a3.49987,3.49987,0,0,0-3.5,3.5v7.43311a3.5,3.5,0,0,0,7,0V128.23A3.49986,3.49986,0,0,0,290.86621,124.73Zm-11.6792-3.27393a3.48766,3.48766,0,0,0,1.32764-.26318,27.14635,27.14635,0,0,1,9.66162-2.03711,27.44146,27.44146,0,0,1,11.04248,2.0376,3.49987,3.49987,0,1,0,2.65527-6.47656,34.20489,34.20489,0,0,0-26.01757.00049,3.50061,3.50061,0,0,0,1.33056,6.73876Z"/></svg>