<svg xmlns="http://www.w3.org/2000/svg" data-name="Layer 1" viewBox="0 0 512 512"><path fill="#f9beac" d="M447.55957,501.999V375.57357a60,60,0,0,0-38.01-55.82508L312.53121,281.5321a20,20,0,0,1-12.67-18.60836V244.01637H212.13892v18.90736a20,20,0,0,1-12.67,18.60837l-97.01846,38.21639a60,60,0,0,0-38.01,55.82509V501.999a10,10,0,0,0,10,10H437.55957A10,10,0,0,0,447.55957,501.999Z"/><path fill="#ff7b4f" d="M383.88,511.999V452.73344a13.54842,13.54842,0,0,0-1.16415-5.4945l-4.01987-9.06052a139.666,139.666,0,0,1-3.615-104.30764L383.88,309.637l-46.61187-18.36084h-.00025a88.48929,88.48929,0,0,1-162.5357,0H174.732L128.12,309.637l8.79906,24.2338a139.666,139.666,0,0,1-3.615,104.30764l-4.01987,9.06052a13.54842,13.54842,0,0,0-1.16415,5.4945V511.999Z"/><rect width="255.76" height="59.266" x="128.12" y="452.733" fill="#57aafe"/><path fill="#57aafe" d="M178.60725,422.13522a24.50184,24.50184,0,0,1-11.67781-20.70449V380.22238a47.995,47.995,0,0,0,13.12922-2.62388,47.1318,47.1318,0,0,0,10.25564-5.06241,45.70517,45.70517,0,0,0,10.48352,5.21368,46.60193,46.60193,0,0,0,12.95469,2.511v21.16994a24.50213,24.50213,0,0,1-11.67788,20.70462L190.341,429.54494Z"/><path fill="#e58a7b" d="M212.13892,244.0166v17.04a84.99574,84.99574,0,0,0,92.97168,15.37012,19.98988,19.98988,0,0,1-5.24927-13.50293V244.0166Z"/><path fill="#f9beac" d="M341.56734,87.764l0,89.61141a85.56729,85.56729,0,0,1-86.2161,85.56463c-47.18026-.34978-84.91863-39.45766-84.91863-86.63921l0-88.53684Z"/><path fill="#e58a7b" d="M269.52562,176.6648v8.041A13.5256,13.5256,0,0,1,256,198.23138h0a13.5256,13.5256,0,0,1-13.5256-13.5256v-8.041a3,3,0,0,1,3-3h21.05122A3,3,0,0,1,269.52562,176.6648Z"/><path fill="#57aafe" d="M145.50147,71.658v95.29588a42.58546,42.58546,0,0,0,42.58546,42.58546h21.30183A10.64637,10.64637,0,0,0,220.03512,198.893V180.73025a10.64636,10.64636,0,0,0-10.64636-10.64636H200.867a10.64637,10.64637,0,0,1-10.64636-10.64637V99.33807A10.64637,10.64637,0,0,1,200.867,88.6917H311.13276a10.64637,10.64637,0,0,1,10.64636,10.64637v60.09945a10.64637,10.64637,0,0,1-10.64636,10.64637H302.611a10.64636,10.64636,0,0,0-10.64636,10.64636V198.893A10.64637,10.64637,0,0,0,302.611,209.53938h21.30209a42.58546,42.58546,0,0,0,42.58546-42.58546V71.658a42.58546,42.58546,0,0,0-42.58546-42.58546H188.08693A42.58546,42.58546,0,0,0,145.50147,71.658Z"/><rect width="93.688" height="22.357" x="211.818" y="47.704" fill="#416bd0" rx="5.323"/><path fill="#416bd0" d="M210.59122,3.499h90.81756a9.58173,9.58173,0,0,1,9.58173,9.58173V29.07258a0,0,0,0,1,0,0h-109.981a0,0,0,0,1,0,0V13.08075A9.58173,9.58173,0,0,1,210.59122,3.499Z"/><path d="M410.833,316.49316l-97.01953-38.21875a16.41322,16.41322,0,0,1-10.45313-15.35449V252.7085A89.09748,89.09748,0,0,0,338.635,210.61426a46.15593,46.15593,0,0,0,31.363-43.65918V71.65918a46.13762,46.13762,0,0,0-46.085-46.08594h-9.42286V13.082A13.09611,13.09611,0,0,0,301.40918,0H210.59082a13.09611,13.09611,0,0,0-13.08105,13.082V25.57324h-9.42286a46.13762,46.13762,0,0,0-46.085,46.08594v95.2959a46.15811,46.15811,0,0,0,31.72388,43.78174,89.94152,89.94152,0,0,0,34.91382,41.96386v10.21924a16.411,16.411,0,0,1-10.45313,15.35352L101.168,316.49316a63.1378,63.1378,0,0,0-40.22754,59.07715V508.75a3.5,3.5,0,1,0,7,0V375.57031a56.17484,56.17484,0,0,1,35.793-52.56347l22.324-8.79444,7.57154,20.854a135.52793,135.52793,0,0,1-3.52442,101.69433l-4.01953,9.05957a16.94539,16.94539,0,0,0-1.46484,6.91407v56.01953a3.5,3.5,0,0,0,7,0V456.23438H380.37988v52.51953a3.5,3.5,0,0,0,7,0V452.73438a16.93745,16.93745,0,0,0-1.46484-6.91309l-4.01953-9.06152a135.52528,135.52528,0,0,1-3.52442-101.69336l7.57154-20.854,22.325,8.79444a56.17538,56.17538,0,0,1,35.792,52.56347V508.75a3.5,3.5,0,0,0,7,0V375.57031A63.13834,63.13834,0,0,0,410.833,316.49316ZM204.50977,13.082A6.08824,6.08824,0,0,1,210.59082,7h90.81836a6.08824,6.08824,0,0,1,6.08105,6.082V25.57324H204.50977ZM149.002,166.95508V71.65918a39.12976,39.12976,0,0,1,39.085-39.08594H323.91309a39.12976,39.12976,0,0,1,39.085,39.08594v95.2959a39.12892,39.12892,0,0,1-39.085,39.085H302.61133a7.15479,7.15479,0,0,1-7.14649-7.14649v-18.1621a7.15479,7.15479,0,0,1,7.14649-7.14649h8.52148a14.162,14.162,0,0,0,14.14649-14.14648V99.33887a14.162,14.162,0,0,0-14.14649-14.14649H200.86719A14.162,14.162,0,0,0,186.7207,99.33887v60.09961A14.162,14.162,0,0,0,200.86719,173.585h8.52148a7.15479,7.15479,0,0,1,7.14649,7.14649v18.1621a7.15479,7.15479,0,0,1-7.14649,7.14649H188.08691A39.12892,39.12892,0,0,1,149.002,166.95508Zm33.21924,45.69873a46.23319,46.23319,0,0,0,5.86572.38623h21.30176a14.162,14.162,0,0,0,14.14649-14.14649v-18.1621A14.162,14.162,0,0,0,209.38867,166.585h-8.52148a7.15478,7.15478,0,0,1-7.14649-7.14648V99.33887a7.15479,7.15479,0,0,1,7.14649-7.14649H311.13281a7.15479,7.15479,0,0,1,7.14649,7.14649v60.09961a7.15478,7.15478,0,0,1-7.14649,7.14648h-8.52148a14.162,14.162,0,0,0-14.14649,14.14649v18.1621A14.162,14.162,0,0,0,302.61133,213.04h21.30176a46.24271,46.24271,0,0,0,6.21826-.43115,82.4954,82.4954,0,0,1-74.15967,46.83349c-.19824,0-.39746,0-.5957-.002a81.0513,81.0513,0,0,1-40.90528-11.37354,3.48565,3.48565,0,0,0-1.07739-.66552A82.68423,82.68423,0,0,1,182.22119,212.65381Zm18.53174,72.13232a23.37266,23.37266,0,0,0,14.88672-21.86621V256.7041a88.09553,88.09553,0,0,0,39.68457,9.73633c.2168.002.42969.002.64648.002a88.79838,88.79838,0,0,0,40.38965-9.76562v6.24316a23.37494,23.37494,0,0,0,14.88672,21.86719l21.29541,8.38916a84.96893,84.96893,0,0,1-153.0852-.00049ZM371.791,332.67773a142.49456,142.49456,0,0,0,3.70605,106.9209l4.01953,9.06153c.08374.18847.14868.38232.22022.57422H132.26294c.07153-.19239.13647-.38624.22046-.5752l4.01953-9.06055a142.49456,142.49456,0,0,0,3.70605-106.9209l-7.63623-21.03222L172.92236,295.75a91.98013,91.98013,0,0,0,166.15576.001l40.34913,15.89453Zm-78.6709-196.39257a3.50048,3.50048,0,0,0-3.5,3.5v7.91308a3.5,3.5,0,0,0,7,0v-7.91308A3.50049,3.50049,0,0,0,293.12012,136.28516Zm-12.43457-3.93848a3.5013,3.5013,0,0,0,1.32715-.2627,29.16045,29.16045,0,0,1,10.36718-2.18554,29.56306,29.56306,0,0,1,11.84864,2.18554,3.49968,3.49968,0,1,0,2.65429-6.47656,36.51706,36.51706,0,0,0-14.67969-2.707,36.13681,36.13681,0,0,0-12.84667,2.707,3.50065,3.50065,0,0,0,1.3291,6.73926ZM217.14062,73.56152h83.042a8.83312,8.83312,0,0,0,8.82324-8.82324V53.02734a8.83292,8.83292,0,0,0-8.82324-8.82226h-83.042a8.83292,8.83292,0,0,0-8.82324,8.82226V64.73828A8.83312,8.83312,0,0,0,217.14062,73.56152Zm-1.82324-20.53418a1.82506,1.82506,0,0,1,1.82324-1.82226h83.042a1.82506,1.82506,0,0,1,1.82324,1.82226V64.73828a1.82589,1.82589,0,0,1-1.82324,1.82324h-83.042a1.82589,1.82589,0,0,1-1.82324-1.82324ZM256,201.73242A17.0436,17.0436,0,0,0,273.02539,184.71v-5.88672a3.5,3.5,0,0,0-7,0V184.71a10.02539,10.02539,0,0,1-20.05078,0v-5.88672a3.5,3.5,0,0,0-7,0V184.71A17.0436,17.0436,0,0,0,256,201.73242Zm-21.44629-71.55957a3.4991,3.4991,0,0,0-1.91113-4.56543,36.19763,36.19763,0,0,0-27.52637,0,3.50005,3.50005,0,1,0,2.65625,6.47656,29.17389,29.17389,0,0,1,10.36719-2.18554,29.54754,29.54754,0,0,1,11.84863,2.18554A3.4978,3.4978,0,0,0,234.55371,130.17285Zm-20.626,246.59277a43.11192,43.11192,0,0,1-11.98339-2.32128,42.30712,42.30712,0,0,1-9.68164-4.81446,3.5033,3.5033,0,0,0-3.86817-.01953,43.66511,43.66511,0,0,1-9.49414,4.68653,44.562,44.562,0,0,1-12.17383,2.43261,3.49992,3.49992,0,0,0-3.29687,3.49414v21.208a27.97929,27.97929,0,0,0,13.30957,23.66309h-.001l11.7334,7.41015a3.4993,3.4993,0,0,0,3.73828,0l11.7334-7.40918a27.98339,27.98339,0,0,0,13.30957-23.66406V380.26172A3.501,3.501,0,0,0,213.92773,376.76562Zm-3.6748,24.666a21.02249,21.02249,0,0,1-10.04785,17.74609l-9.86426,6.22852-9.86426-6.22949h-.001a21.02217,21.02217,0,0,1-10.0459-17.74512V383.4209a51.49872,51.49872,0,0,0,10.78711-2.51856,50.746,50.746,0,0,0,9.0791-4.22949,49.33314,49.33314,0,0,0,9.35547,4.38477,49.99319,49.99319,0,0,0,10.60156,2.42285Zm8.627-265.14648a3.50049,3.50049,0,0,0-3.5,3.5v7.91308a3.5,3.5,0,0,0,7,0v-7.91308A3.50048,3.50048,0,0,0,218.87988,136.28516Zm20.48242,86.02148a39.046,39.046,0,0,0,16.63477,3.74414h.12109a39.10638,39.10638,0,0,0,16.51954-3.74316,3.50031,3.50031,0,0,0-2.998-6.32617,32.04913,32.04913,0,0,1-13.543,3.06933h-.09863a32.03688,32.03688,0,0,1-13.6377-3.06836,3.49943,3.49943,0,0,0-2.99805,6.32422Z"/></svg>