<svg xmlns="http://www.w3.org/2000/svg" data-name="Layer 1" viewBox="0 0 512 512"><path fill="#f96263" d="M461.55957,501.999V377.83518A80,80,0,0,0,406.687,301.88379l-86.10752-28.48743a20,20,0,0,1-13.71814-18.98785V229.13818H205.13867v25.27033a20,20,0,0,1-13.71814,18.98785L105.313,301.88379a80,80,0,0,0-54.87258,75.95139V501.999a10,10,0,0,0,10,10H451.55957A10,10,0,0,0,461.55957,501.999Z"/><path fill="#ffbc5b" d="M249,512V376.83057a60.001,60.001,0,0,1,18.4939-43.32764l65.467-56.00928,57.918,19.16162v.37256a173.94283,173.94283,0,0,0-2.26772,128.93291,34.87094,34.87094,0,0,1,2.26772,12.35529V512Z"/><rect width="141.88" height="42" x="249" y="449.65" fill="#ff7b4f"/><path fill="#ff7b4f" d="M249.00006,428.64551h140.5c-.2616-.9043-.5542-1.80127-.88879-2.68457a174.65729,174.65729,0,0,1-9.83387-39.31543H249.00006Z"/><path fill="#e88f37" d="M262.99957,338.32373a59.9954,59.9954,0,0,0-13.99951,38.50684V512h27.999V376.83057A59.99528,59.99528,0,0,0,262.99957,338.32373Z"/><rect width="27.999" height="42" x="249" y="449.65" fill="#f24f2a"/><rect width="27.999" height="42" x="249" y="386.646" fill="#f24f2a"/><path fill="#ffbc5b" d="M262.999,512V376.83057a60.001,60.001,0,0,0-18.49389-43.32764l-65.467-56.00928-57.918,19.16162v.37256a174.22924,174.22924,0,0,1,13.55005,67.48145,174.23694,174.23694,0,0,1-11.28234,61.45146,34.87115,34.87115,0,0,0-2.26771,12.35529V512Z"/><path fill="#ff7b4f" d="M123.38782,425.96094c-.3346.8833-.6272,1.78027-.8888,2.68457h140.5v-42H133.22168A174.65465,174.65465,0,0,1,123.38782,425.96094Z"/><circle cx="241.999" cy="407.646" r="7" fill="#343c4a"/><rect width="141.879" height="42" x="121.12" y="449.65" fill="#ff7b4f"/><circle cx="241.999" cy="470.646" r="7" fill="#343c4a"/><path fill="#f9beac" d="M197.94556 269.75781a76.97119 76.97119 0 0 0 116.10888 0 19.99 19.99 0 0 1-7.19311-15.34912V229.13818H205.13867v25.27051A19.99 19.99 0 0 1 197.94556 269.75781zM121.12012 511.999H60.44043a10 10 0 0 1-10-10V463.65h70.67969zM390.879 463.64551h70.67968l.00076 38.35338a10 10 0 0 1-10 10.00013h-60.6805z"/><path fill="#e58a7b" d="M329.18106,150.80806h0V109.75838h5.7301a17.65977,17.65977,0,0,1,17.65977,17.65973v0A23.38984,23.38984,0,0,1,329.18106,150.80806Z"/><path fill="#e58a7b" d="M159.04643,109.75838h.00008a23.38985,23.38985,0,0,1,23.38985,23.38985v.00006a17.65977,17.65977,0,0,1-17.65977,17.65977h-5.73016a0,0,0,0,1,0,0V109.75838A0,0,0,0,1,159.04643,109.75838Z" transform="rotate(180 170.741 130.283)"/><path fill="#e58a7b" d="M205.13867,229.13818v7.63233a67.30046,67.30046,0,0,0,19.51709,21.91308l9.20716,6.61963a61.90237,61.90237,0,0,0,36.137,11.64307h.00006a61.90246,61.90246,0,0,0,36.137-11.64307l2.81269-2.022a19.90584,19.90584,0,0,1-2.08832-8.87256V229.13818Z"/><path fill="#f9beac" d="M329.37237,163.60207V183.0104a67.33774,67.33774,0,0,1-28.02789,54.67273l-9.20752,6.62024a61.90273,61.90273,0,0,1-36.137,11.64279h0a61.9027,61.9027,0,0,1-36.137-11.64275l-9.20723-6.62a67.33778,67.33778,0,0,1-28.02795-54.67258l0-19.40875V106.49474l146.74468-4.43587Z"/><path fill="#343c4a" d="M290.1381,207.72581,266.114,203.5216a58.67247,58.67247,0,0,0-20.22808,0l-24.02406,4.20421A5,5,0,0,1,216,202.80065v-10.848a5,5,0,0,1,4.1381-4.92515L245.886,182.5216a58.67247,58.67247,0,0,1,20.22808,0l25.74786,4.50587A5,5,0,0,1,296,191.95262v10.848A5,5,0,0,1,290.1381,207.72581Z"/><path fill="#e58a7b" d="M268.70447,171.28509v4.707a12.7012,12.7012,0,0,1-12.7012,12.70119h-.00648a12.7012,12.7012,0,0,1-12.7012-12.70119v-4.707a4,4,0,0,1,4-4h17.40888A4,4,0,0,1,268.70447,171.28509Z"/><path fill="#ffbc5b" d="M255.99991,3.499h.00017A85.60293,85.60293,0,0,1,341.603,89.102V98.071a0,0,0,0,1,0,0H170.397a0,0,0,0,1,0,0V89.102A85.60293,85.60293,0,0,1,255.99991,3.499Z"/><path fill="#cce4ff" d="M324.92177,149.402,280.8987,161.16934a7,7,0,0,1-6.75778-1.81323l-13.89825-13.90046a6,6,0,0,0-8.48562-.00033l-13.90123,13.90123a7,7,0,0,1-6.75749,1.8128L187.0782,149.402a6,6,0,0,1-4.45051-5.79648v-32.771H329.37237v32.7709A6,6,0,0,1,324.92177,149.402Z"/><rect width="183" height="21" x="164.5" y="89.835" fill="#e88f37" rx="4"/><path d="M298.7373,143.96924a3.49132,3.49132,0,0,0,2.4751-1.0249L313.73779,130.419a3.50032,3.50032,0,0,0-4.95019-4.9502l-12.52539,12.52539a3.5,3.5,0,0,0,2.47509,5.9751Zm109.05176,154.5874-58.27826-19.2749L334.05957,274.168c-.01733-.00586-.03516-.0083-.05255-.01367l-12.32733-4.07715a16.50265,16.50265,0,0,1-5.298-2.92822c-.0097-.00879-.01635-.019-.02618-.02784-.02423-.021-.05231-.03418-.07691-.05468a16.46524,16.46524,0,0,1-5.9187-12.65625V234.78564a71.017,71.017,0,0,0,22.51026-51.77587V154.05469a26.88293,26.88293,0,0,0,23.1997-26.63477,21.24066,21.24066,0,0,0-6.93573-15.6499A7.461,7.461,0,0,0,351,106.83545v-13a7.51153,7.51153,0,0,0-5.96332-7.34033,88.46235,88.46235,0,0,0-26.0318-60.40039c-1.53552-1.53565-3.13232-2.98535-4.75714-4.394a3.51215,3.51215,0,0,0-.3045-.26269,88.96724,88.96724,0,0,0-115.53308-.26563,3.48688,3.48688,0,0,0-.77515.65918A88.93488,88.93488,0,0,0,166.94067,86.501,7.51058,7.51058,0,0,0,161,93.83545v13a7.4643,7.4643,0,0,0,1.69873,4.74658,21.22966,21.22966,0,0,0-7.14893,15.83789,26.87763,26.87763,0,0,0,23.58008,26.68164v28.90821a71.01785,71.01785,0,0,0,22.51026,51.77636v19.624a16.4669,16.4669,0,0,1-5.92127,12.65869c-.02356.01953-.05066.03174-.07385.05224-.00952.0083-.01587.01856-.02515.02686a16.4974,16.4974,0,0,1-5.29907,2.9292L177.95569,274.167l-.01575.00391-12.92724,4.27685-60.80225,20.10987a83.377,83.377,0,0,0-57.27051,79.28222V508.5a3.5,3.5,0,0,0,7,0V467.15039h63.68018v24.5l.001.00977V508.5a3.5,3.5,0,0,0,7,0V495.15039H259.5V508.5a3.5,3.5,0,0,0,7,0V495.15039H387.37988V508.5a3.5,3.5,0,0,0,7,0V467.15039h63.68018V508.5a3.5,3.5,0,0,0,7,0V377.83984A83.37891,83.37891,0,0,0,407.78906,298.55664ZM349.06982,127.41992a19.8857,19.8857,0,0,1-16.19726,19.54395V114.33545h7.4375A14.22382,14.22382,0,0,1,349.06982,127.41992ZM272.6499,8.68994A81.26341,81.26341,0,0,1,308.24268,25.7627V47.1748a3.5,3.5,0,1,0,7,0V32.292a81.45976,81.45976,0,0,1,22.79016,54.04346H308.45593l-14.765-41.38184a8.5183,8.5183,0,0,0-8.00586-5.64355H274.1499a1.50164,1.50164,0,0,1-1.5-1.5ZM246.3501,37.81006V7.58643A82.41359,82.41359,0,0,1,256,7a83.43867,83.43867,0,0,1,9.6499.58057V37.81006a8.50951,8.50951,0,0,0,8.5,8.5h11.53516a1.50368,1.50368,0,0,1,1.41308.99609l13.92566,39.0293H210.9762l13.92566-39.0293a1.50368,1.50368,0,0,1,1.41308-.99609H237.8501A8.50951,8.50951,0,0,0,246.3501,37.81006Zm-49.602-5.45068V47.1748a3.5,3.5,0,1,0,7,0V25.82227a81.84982,81.84982,0,0,1,35.602-17.12256V37.81006a1.50164,1.50164,0,0,1-1.5,1.5H226.31494a8.5183,8.5183,0,0,0-8.00586,5.64355l-14.765,41.38184h-29.574A81.78783,81.78783,0,0,1,196.74805,32.35938Zm-17.80811,114.646a19.90125,19.90125,0,0,1-16.39014-19.58545,14.20287,14.20287,0,0,1,8.76636-13.08447h7.62378ZM168.5,107.33545a.50034.50034,0,0,1-.5-.5v-13a.50034.50034,0,0,1,.5-.5h1.85632c.0149,0,.02869.00439.04358.00439s.02869-.00439.04358-.00439H205.9469c.02087.00049.042.00537.06287.00537.02343,0,.04614-.00488.06958-.00537h99.8413c.02338.00049.04615.00537.06958.00537.02088,0,.042-.00488.06287-.00537h35.50342c.01489,0,.02862.00439.04358.00439s.02868-.00439.04358-.00439H343.5a.50034.50034,0,0,1,.5.5v13a.50034.50034,0,0,1-.5.5h-175Zm157.18018,7v31.2417l-45.68506,12.21191a3.50808,3.50808,0,0,1-3.37891-.90674L259.5,139.76367V114.33545Zm-73.18018,0v25.42773l-17.11914,17.11914a3.50954,3.50954,0,0,1-3.37891.90674l-45.87207-12.26269V114.33545Zm-66.37012,68.67432V152.77246l44.06446,11.7793a10.51974,10.51974,0,0,0,10.13671-2.71924L256,146.16309l15.666,15.66845a10.52917,10.52917,0,0,0,10.13671,2.72022l44.06739-11.7793v30.23731a63.97675,63.97675,0,0,1-26.57471,51.82959l-9.19824,6.61865a58.42044,58.42044,0,0,1-68.19287.001l-9.20118-6.6206A63.97617,63.97617,0,0,1,186.12988,183.00977Zm123.05023,86.87744a73.41277,73.41277,0,0,1-106.35992,0,23.45307,23.45307,0,0,0,5.82-15.477V240.53857l9.17724,6.60352a65.37959,65.37959,0,0,0,76.36719-.00147l9.17529-6.60205v13.87159A23.45116,23.45116,0,0,0,309.18011,269.88721Zm-116.66058,6.83642a23.60576,23.60576,0,0,0,4.94214-2.30224,80.44,80.44,0,0,0,117.077,0,23.57921,23.57921,0,0,0,4.94226,2.30224l6.48456,2.14453-60.75068,51.97266c-.04931.042-.09765.08594-.14453.13086a63.055,63.055,0,0,0-9.088,10.92236,63.06879,63.06879,0,0,0-9.05511-10.91845c-.04737-.0459-.0962-.08985-.146-.13184l-60.75073-51.97412ZM119.09326,427.35156a3.46508,3.46508,0,0,0-.2229,1.30078,38.1727,38.1727,0,0,0-1.24927,9.66407v11.32421l-.001.00977v10.5H53.93994V377.83984a76.38763,76.38763,0,0,1,52.46924-72.63672l12.56445-4.15527a169.50375,169.50375,0,0,1,12.19727,63.458,170.87575,170.87575,0,0,1-1.13013,19.45947,3.49105,3.49105,0,0,0-1.20386,2.103C126.42529,400.4873,122.47705,418.84473,119.09326,427.35156ZM259.5,488.15039H124.62109v-35H259.5Zm0-42H124.62109v-7.834a31.20545,31.20545,0,0,1,.62207-6.1709H255.95154c.01654,0,.03186.00488.04846.00488h3.5Zm0-21.00488H127.41382a177.13947,177.13947,0,0,0,8.86719-35H255.95154c.01654,0,.03186.00488.04846.00488h3.5Zm0-42H137.16724a177.96286,177.96286,0,0,0,1.00366-18.63184,176.47285,176.47285,0,0,0-12.52637-65.668l44.01416-14.561,8.6062-2.84668,63.8899,54.65967A56.77,56.77,0,0,1,259.5,376.83008Zm.44763-34.33936a56.04088,56.04088,0,0,1,9.89319-12.71142l63.89056-54.65821,17.40058,5.75489,35.225,11.6582a177.256,177.256,0,0,0-11.522,84.30078H266.5v-6.32031A63.644,63.644,0,0,0,259.94763,348.80615Zm115.77295,41.34424a176.97321,176.97321,0,0,0,8.8664,35H266.5v-35Zm11.6593,73.49023-.001.00977.001.00977v24.49023H266.5v-35H387.37988Zm0-17.49023H266.5v-14H386.75909a31.21692,31.21692,0,0,1,.62079,6.16992Zm70.68018,14H394.37988V438.32031a38.17106,38.17106,0,0,0-2.49707-13.59961,170.368,170.368,0,0,1,1.14643-123.67285l12.56109,4.1543a76.38955,76.38955,0,0,1,52.46973,72.63769ZM277.7373,143.96924a3.49132,3.49132,0,0,0,2.4751-1.0249L292.73779,130.419a3.50032,3.50032,0,0,0-4.95019-4.9502l-12.52539,12.52539a3.5,3.5,0,0,0,2.47509,5.9751Zm-9.01611,75.20459a29.90713,29.90713,0,0,1-12.63086,2.86279,29.3,29.3,0,0,1-12.811-2.8623,3.49987,3.49987,0,0,0-2.99805,6.32519,36.91933,36.91933,0,0,0,15.71973,3.53711h.11084A36.955,36.955,0,0,0,271.71826,225.5a3.5001,3.5001,0,0,0-2.99707-6.32617ZM242.001,397.14551a10.5,10.5,0,1,0,10.5,10.5A10.5118,10.5118,0,0,0,242.001,397.14551Zm0,14a3.5,3.5,0,1,1,3.5-3.5A3.50424,3.50424,0,0,1,242.001,411.14551Zm-26.4751-201.83985a8.47846,8.47846,0,0,0,6.938,1.87159l24.02929-4.20948a55.05739,55.05739,0,0,1,19.0127-.00048l24.03711,4.21142a8.5759,8.5759,0,0,0,1.45947.12549A8.50216,8.50216,0,0,0,299.5,202.7998V191.9502a8.48836,8.48836,0,0,0-7.03564-8.36768l-20.76691-3.64063a16.12168,16.12168,0,0,0,.50714-3.94873v-5.52978a3.5,3.5,0,1,0-7,0v5.52978a9.20459,9.20459,0,0,1-18.40918,0v-5.52978a3.5,3.5,0,1,0-7,0v5.52978a16.11879,16.11879,0,0,0,.50714,3.94873l-20.76886,3.64063A8.48846,8.48846,0,0,0,212.5,191.9502v10.8496A8.48575,8.48575,0,0,0,215.52588,209.30566ZM219.5,191.9502a1.49863,1.49863,0,0,1,1.24463-1.47315l22.90875-4.01611a16.16058,16.16058,0,0,0,24.69318,0l22.90686,4.01611A1.49854,1.49854,0,0,1,292.5,191.9502v10.8496a1.50245,1.50245,0,0,1-1.75586,1.48291l-24.03125-4.21044a61.99282,61.99282,0,0,0-21.42676.00048l-24.02343,4.2085A1.50208,1.50208,0,0,1,219.5,202.7998Zm-18.7627-47.981a3.49132,3.49132,0,0,0,2.4751-1.0249L215.73779,130.419a3.50032,3.50032,0,1,0-4.95019-4.9502l-12.52539,12.52539a3.5,3.5,0,0,0,2.47509,5.9751ZM242.001,460.14551a10.5,10.5,0,1,0,10.5,10.5A10.5118,10.5118,0,0,0,242.001,460.14551Zm0,14a3.5,3.5,0,1,1,3.5-3.5A3.50424,3.50424,0,0,1,242.001,474.14551ZM221.7373,143.96924a3.49132,3.49132,0,0,0,2.4751-1.0249L236.73779,130.419a3.50032,3.50032,0,1,0-4.95019-4.9502l-12.52539,12.52539a3.5,3.5,0,0,0,2.47509,5.9751Z"/></svg>