<svg xmlns="http://www.w3.org/2000/svg" data-name="Layer 1" viewBox="0 0 512 512"><path fill="#343c4a" d="M464.95048,511.999V376.36569a71.15438,71.15438,0,0,0-50.69321-68.08091L321.04467,280.18A30.49474,30.49474,0,0,1,299.319,251.00243V187.37232H212.681v63.63011A30.49474,30.49474,0,0,1,190.95533,280.18l-93.2126,28.10482a71.15438,71.15438,0,0,0-50.69321,68.08091V511.999Z"/><polygon fill="#fff" points="337.257 308.285 321.045 280.18 256.001 324.128 190.955 280.18 181.743 308.285 256.939 497.285 337.257 308.285"/><polygon fill="#f96263" points="287.597 483.951 255.613 490.951 225.422 483.951 250.587 322.354 261.413 322.354 287.597 483.951"/><path fill="#d34342" d="M290.97173,331.70941l-20.67326,31.51521a15.4913,15.4913,0,0,1-25.94705-.09321l-21.44487-33.21164L256,324.12768Z"/><path fill="#f9beac" d="M256,324.12768l52.01864-51.85615a30.39844,30.39844,0,0,1-8.69964-21.26906V202.331L284.31363,187.3724H227.68637L212.681,202.331v48.67143a30.39844,30.39844,0,0,1-8.69964,21.26906Z"/><path fill="#eaeaea" d="M324.15427,281.11772l-3.10957-.9377a30.508,30.508,0,0,1-13.02606-7.90849h0L256,324.12768l29.75485,15.9082a15.30481,15.30481,0,0,0,21.74365-8.65125Z"/><path fill="#596381" d="M223.76192,511.999,156.24267,383.31331a5.0701,5.0701,0,0,1,1.37323-6.35422l16.75764-13.08572a5.06993,5.06993,0,0,0,.70311-7.33316L156.79585,335.582a5.06805,5.06805,0,0,1-.42967-6.09866l31.47519-48.3664,67.77131,206.83662-.9188,24.04547Z"/><path fill="#596381" d="M247.65237,511.999l76.5019-230.88183,31.47933,48.36728a5.068,5.068,0,0,1-.42959,6.099l-18.28387,20.961a5.06994,5.06994,0,0,0,.70391,7.33391l16.7589,13.08087a5.0701,5.0701,0,0,1,1.37413,6.35483L288.34674,511.999Z"/><path fill="#eaeaea" d="M187.84666,281.11772l3.10957-.9377a30.50794,30.50794,0,0,0,13.02606-7.90849h0l52.01864,51.85615L226.085,340.122a15.30466,15.30466,0,0,1-21.75983-8.70035Z"/><path fill="#e88f37" d="M495.62628,511.999H348.099a12.73915,12.73915,0,0,1-12.87371-12.60017V396.87914A12.73915,12.73915,0,0,1,348.09894,384.279H495.62627A12.73915,12.73915,0,0,1,508.5,396.87915v102.5197A12.73914,12.73914,0,0,1,495.62628,511.999Z"/><path fill="#ffbc5b" d="M495.62622,384.27881H348.09888a12.73944,12.73944,0,0,0-12.87378,12.6001V422.605l69.11523,33.75h35.04444L508.5,422.605V396.87891A12.73929,12.73929,0,0,0,495.62622,384.27881Z"/><rect width="35.045" height="34.3" x="404.34" y="445.338" fill="#596381" rx="5.306"/><path fill="#e58a7b" d="M299.31909,202.33105l-15.00561-14.95849H227.6864l-15.00549,14.95849v48.67139a30.27338,30.27338,0,0,1-.47644,5.30713A97.413,97.413,0,0,0,234.843,274.44629h0A70.01234,70.01234,0,0,0,270,283.91016h0a70.01234,70.01234,0,0,0,35.157-9.46387h.00025c.58056-.33691,1.14892-.68945,1.7207-1.0376l1.14062-1.13721a30.39831,30.39831,0,0,1-8.69946-21.269Z"/><path fill="#f9beac" d="M291.15713,253.44645l-.00006,0a70.01345,70.01345,0,0,1-35.157,9.46372h0a70.01347,70.01347,0,0,1-35.157-9.46371l-.00007,0a97.20641,97.20641,0,0,1-48.45661-84.04328V76.1487H339.61374v93.25447A97.20641,97.20641,0,0,1,291.15713,253.44645Z"/><path fill="#243047" d="M339.61374,148.0266h-4.19619a10.49048,10.49048,0,0,1-10.49048-10.49048V90.32894h14.68667Z"/><path fill="#343c4a" d="M172.38632 148.0266h4.19619A10.49048 10.49048 0 0 0 187.073 137.53612V82.98561H172.38632zM225.85664 184.3847a3.756 3.756 0 0 1 3.16375-3.71648 171.74987 171.74987 0 0 1 53.96179.00037 3.75509 3.75509 0 0 1 3.16124 3.71578v11.23446a3.76614 3.76614 0 0 1-4.31069 3.71961 183.65315 183.65315 0 0 0-51.66824.0004 3.76428 3.76428 0 0 1-4.30785-3.71945z"/><path fill="#e58a7b" d="M268.48557,169.60089v4.67966A12.48563,12.48563,0,0,1,256,186.76618h0a12.48563,12.48563,0,0,1-12.48562-12.48563v-4.67966a3,3,0,0,1,3-3h18.97127A3,3,0,0,1,268.48557,169.60089Z"/><path fill="#243047" d="M336.74275,113.75171h2.871V64.42032a42.18573,42.18573,0,0,0-42.25136-42.11979H245.006v.00009A91.59426,91.59426,0,0,0,336.74275,113.75171Z"/><path fill="#343c4a" d="M217.14265,113.75171H172.38632V45.61882A42.18574,42.18574,0,0,1,214.63769,3.499H302.4823A12.60905,12.60905,0,0,1,315.111,16.08836v.00011C315.111,70.02639,271.24905,113.75171,217.14265,113.75171Z"/><path fill="#e58a7b" d="M339.61377,160.43689h0V117.3738h6.01116a18.526,18.526,0,0,1,18.52595,18.5259v.00005A24.53708,24.53708,0,0,1,339.61377,160.43689Z"/><path fill="#e58a7b" d="M147.84915,117.3738h.00009a24.53708,24.53708,0,0,1,24.53708,24.53708v.00006a18.526,18.526,0,0,1-18.526,18.526h-6.01121a0,0,0,0,1,0,0V117.3738A0,0,0,0,1,147.84915,117.3738Z" transform="rotate(180 160.118 138.905)"/><path d="M495.626,377.27979H470.3125V364.11572a17.28253,17.28253,0,0,0-6.438-13.42383,74.96966,74.96966,0,0,0-48.604-45.75293L322.05078,276.8291a27.13229,27.13229,0,0,1-11.24414-6.64795c-.01538-.02051-.033-.03955-.04883-.06006a3.53755,3.53755,0,0,0-.23633-.29541,26.93965,26.93965,0,0,1-6.52636-10.957c-.04981-.16455-.09717-.33056-.1438-.49658q-.19738-.69214-.35645-1.39648c-.08813-.394-.17187-.79-.24292-1.19-.03735-.20752-.07446-.41552-.10693-.62451-.09058-.58984-.165-1.18457-.2168-1.78515-.011-.12354-.01806-.24805-.02734-.37207-.0481-.66309-.08057-1.33008-.08057-2.00391v-1.10986a101.042,101.042,0,0,0,40.293-80.48584v-5.68994a28.026,28.026,0,0,0,24.53711-27.81348A22.05084,22.05084,0,0,0,345.625,113.875h-2.51172V76.1499c0-.00976-.00293-.019-.00293-.02881V64.41992a45.68456,45.68456,0,0,0-24.7959-40.5542q.29517-3.85034.29688-7.77636A16.12746,16.12746,0,0,0,302.48242,0H214.6377a45.73693,45.73693,0,0,0-45.751,45.61963V113.875H166.375a22.05084,22.05084,0,0,0-22.02539,22.02588,28.0731,28.0731,0,0,0,24.53711,27.811v5.69239a101.04234,101.04234,0,0,0,40.293,80.48584V251c0,.67383-.03247,1.34082-.08057,2.00391-.00928.124-.01636.248-.02722.37207-.05188.60107-.12647,1.19629-.21692,1.78613-.03247.208-.06934.41455-.10669.62158-.07129.40283-.15552.80078-.24463,1.19776q-.15856.69653-.353,1.38281c-.0476.16992-.09594.33935-.14685.50781a26.94316,26.94316,0,0,1-6.52526,10.95361,3.39423,3.39423,0,0,0-.27686.34668,27.13632,27.13632,0,0,1-11.25244,6.65674l-3.063.92383c-.037.01025-.07349.02148-.11011.0332L96.73047,304.939A74.64695,74.64695,0,0,0,43.5498,376.37012V508.5a3.5,3.5,0,0,0,7,0V376.37012a67.25037,67.25037,0,0,1,48.20118-64.729l80.9331-24.40478L153.43262,327.5752a8.60555,8.60555,0,0,0,.72558,10.30859l18.28028,20.9585a1.56865,1.56865,0,0,1-.21875,2.27343l-16.75684,13.085a8.56978,8.56978,0,0,0-2.32031,10.73975L218.82617,510.126a3.5002,3.5002,0,0,0,6.19922-3.252L159.3418,381.689a1.57215,1.57215,0,0,1,.42871-1.97021l16.75781-13.08594a8.569,8.569,0,0,0,1.18555-12.39258l-18.28028-20.95752a1.57667,1.57667,0,0,1-.13379-1.88916L186.79,289.1499l65.13965,198.80664-6.44239,19.44287a3.49983,3.49983,0,1,0,6.64454,2.20118L310.80176,332.5332c.00537-.01611.01318-.03076.01855-.04687.00293-.00879.00318-.01807.00586-.02686l14.3584-43.33349,27.51465,42.27734a1.53816,1.53816,0,0,1-.1377,1.87695l-18.27929,20.96924a8.5751,8.5751,0,0,0,1.18457,12.38965l13.63354,10.64063h-1.00171a16.25667,16.25667,0,0,0-16.373,16.10009v28.20655L286.98047,506.874a3.5002,3.5002,0,1,0,6.19922,3.252l38.5459-73.47119V495.8999A16.25668,16.25668,0,0,0,348.09863,512H495.626A16.25753,16.25753,0,0,0,512,495.8999V393.38037A16.25762,16.25762,0,0,0,495.626,377.27979ZM343.11328,120.875H345.625a15.04276,15.04276,0,0,1,15.02539,15.02637,20.99689,20.99689,0,0,1-17.53711,20.72656ZM168.88672,156.62207a21.0532,21.0532,0,0,1-17.53711-20.72119A15.04266,15.04266,0,0,1,166.375,120.875h2.51172Zm167.22656-12.09228h-.69336a6.998,6.998,0,0,1-6.99023-6.98975V116.87842q3.82251.33618,7.68359.3584ZM317.449,31.41211a38.65691,38.65691,0,0,1,18.66138,33.00781v45.82764A88.53865,88.53865,0,0,1,283.58447,92.4873,101.04754,101.04754,0,0,0,317.449,31.41211ZM175.88672,45.61963A38.72941,38.72941,0,0,1,214.6377,7h87.84472a9.11932,9.11932,0,0,1,9.12891,9.08936c0,51.92187-42.37891,94.16308-94.46875,94.16308h-30.0481c-.0083,0-.01587-.00244-.02417-.00244s-.01587.00244-.02417.00244H175.88672Zm0,71.63281h7.68359V137.54a6.998,6.998,0,0,1-6.99023,6.98975h-.69336Zm0,52.15186V151.52979h.69336A14.00614,14.00614,0,0,0,190.57031,137.54v-20.2876h26.57227a101.13932,101.13932,0,0,0,60.84326-20.25488,95.52692,95.52692,0,0,0,43.44385,19.00049V137.54a14.00614,14.00614,0,0,0,13.99023,13.98975h.69336V169.4043a94.01446,94.01446,0,0,1-46.71387,81.01611,66.53269,66.53269,0,0,1-66.79882,0A94.01446,94.01446,0,0,1,175.88672,169.4043Zm40.10034,85.18994q1.52985.96459,3.0979,1.87988a73.53642,73.53642,0,0,0,73.83008,0q1.57068-.91187,3.0979-1.87988a33.734,33.734,0,0,0,7.15967,17.56738L256.00024,319.186l-47.17248-47.02491A33.734,33.734,0,0,0,215.98706,254.59424Zm40.01343,73.50342,24.54541,13.12255L267.374,361.30957a11.93368,11.93368,0,0,1-10.01562,5.394h-.04688A11.78052,11.78052,0,0,1,247.29,361.23145L233.62109,340.0625ZM207.65137,330.333l-.00318-.00684-15.36548-46.896a34.2644,34.2644,0,0,0,11.63929-6.27539l46.2605,46.11572-25.74793,13.76611a11.80446,11.80446,0,0,1-16.7832-6.70361Zm4.54236,13.86572a18.64913,18.64913,0,0,0,15.22741-.8335l13.1753,20.40381-7.0879,45.4834Zm43.43981,132.5791L238.30933,423.9043l8.33776-53.5044a18.94777,18.94777,0,0,0,10.63709,3.30371h.07422a18.98937,18.98937,0,0,0,8.50635-2.0083l8.07348,49.83887Zm23.06763-69.61816-6.56494-40.52686c.38257-.47607.751-.96679,1.09033-1.48388l13.6543-20.82471a18.59007,18.59007,0,0,0,12.70288-.189Zm25.45654-76.82862a11.8013,11.8013,0,0,1-16.75244,6.61915l-25.58691-13.67969,46.25976-46.11572a34.272,34.272,0,0,0,11.62159,6.27ZM463.3125,364.11572v13.16407H380.41211V364.11572a10.59173,10.59173,0,0,1,10.72754-10.42529H452.585A10.59173,10.59173,0,0,1,463.3125,364.11572Zm-123.53711-2.99316a1.574,1.574,0,0,1-.2168-2.273l18.27246-20.96143a8.57594,8.57594,0,0,0,.73243-10.30713l-26.25879-40.34814L413.251,311.6416a68.00359,68.00359,0,0,1,41.36938,35.17285,18.06466,18.06466,0,0,0-2.0354-.124H391.13965a17.598,17.598,0,0,0-17.72754,17.42529v13.16407h-14.416a8.54323,8.54323,0,0,0-2.46289-3.07911ZM505,495.8999A9.25067,9.25067,0,0,1,495.626,505H348.09863a9.25043,9.25043,0,0,1-9.373-9.1001V424.71l62.11425,30.332v15.79053a8.81635,8.81635,0,0,0,8.80664,8.80664h24.43164a8.81636,8.81636,0,0,0,8.80665-8.80664V455.042L505,424.71Zm-97.16016-25.06738v-23.687a1.8088,1.8088,0,0,1,1.80664-1.80664h24.43164a1.8088,1.8088,0,0,1,1.80665,1.80664v23.687a1.80881,1.80881,0,0,1-1.80665,1.80664H409.64648A1.80881,1.80881,0,0,1,407.83984,470.83252ZM505,416.91992l-62.11523,30.332v-.10644a8.81636,8.81636,0,0,0-8.80665-8.80664H409.64648a8.81635,8.81635,0,0,0-8.80664,8.80664v.10644l-62.11425-30.332v-23.54a9.25011,9.25011,0,0,1,9.373-9.10009H495.626A9.25075,9.25075,0,0,1,505,393.38037ZM229.54688,136.18066a3.50005,3.50005,0,1,0,2.65624-6.47656,37.13537,37.13537,0,0,0-14.918-2.75146,36.71545,36.71545,0,0,0-13.05469,2.75195,3.5,3.5,0,1,0,2.6582,6.47559,29.73745,29.73745,0,0,1,10.57422-2.2295A30.08121,30.08121,0,0,1,229.54688,136.18066ZM122.169,431.82617a3.50017,3.50017,0,0,0-3.5,3.5V508.5a3.5,3.5,0,0,0,7,0V435.32617A3.50018,3.50018,0,0,0,122.169,431.82617ZM224.85352,201.0957a7.28683,7.28683,0,0,0,5.7998,1.70948,179.72314,179.72314,0,0,1,50.68945.00048,7.26088,7.26088,0,0,0,8.29688-7.18554v-11.23a7.22525,7.22525,0,0,0-6.11133-7.17725c-3.83691-.60742-7.72949-1.09082-11.61816-1.44678.04541-.48925.07519-.9834.07519-1.48437v-4.22412a3.5,3.5,0,0,0-7,0v4.22412a8.98535,8.98535,0,1,1-17.9707,0v-4.22412a3.5,3.5,0,0,0-7,0v4.22412c0,.499.03.99072.075,1.478-3.9082.353-7.80249.83886-11.61792,1.45312a7.22525,7.22525,0,0,0-6.11133,7.17725v11.23A7.24645,7.24645,0,0,0,224.85352,201.0957Zm4.50683-16.70556a.25576.25576,0,0,1,.21485-.26465c4.20239-.67627,8.49755-1.18115,12.7998-1.52637a15.939,15.939,0,0,0,27.248.00342c4.28344.3501,8.58154.85449,12.80957,1.52441a.25365.25365,0,0,1,.207.26319v11.23a.23171.23171,0,0,1-.083.18945.28861.28861,0,0,1-.23437.06494,187.758,187.758,0,0,0-25.93555-1.86474c-.12305,0-.2461-.00049-.36914-.00049A187.70288,187.70288,0,0,0,229.6709,195.874a.26623.26623,0,0,1-.22656-.0625.234.234,0,0,1-.084-.1914Zm-11.14258-43.81348a3.50017,3.50017,0,0,0-3.5,3.5v8.05469a3.5,3.5,0,0,0,7,0v-8.05469A3.50017,3.50017,0,0,0,218.21777,140.57666Zm64.23633-4.39648a29.73223,29.73223,0,0,1,10.57324-2.2295,30.07536,30.07536,0,0,1,12.08594,2.23,3.49968,3.49968,0,1,0,2.6543-6.47656,36.77188,36.77188,0,0,0-27.97168.00049,3.5,3.5,0,1,0,2.6582,6.47559Zm11.32813,4.39648a3.50017,3.50017,0,0,0-3.5,3.5v8.05469a3.5,3.5,0,0,0,7,0v-8.05469A3.50017,3.50017,0,0,0,293.78223,140.57666Zm-26.45215,72.81592a30.1637,30.1637,0,0,1-12.085,2.22949,29.73422,29.73422,0,0,1-10.57422-2.22949,3.50005,3.50005,0,1,0-2.65625,6.47656,36.71575,36.71575,0,0,0,13.05273,2.751c.31641.00781.63086.01172.94629.01172a36.63715,36.63715,0,0,0,13.97071-2.7627,3.49968,3.49968,0,1,0-2.6543-6.47656Z"/></svg>