<svg xmlns="http://www.w3.org/2000/svg" data-name="Layer 1" viewBox="0 0 512 512"><path fill="#57aafe" d="M447.55957,501.999V347.31989a60,60,0,0,0-38.01-55.82508l-97.01835-38.21639a20,20,0,0,1-12.67-18.60836V215.7627H212.13892v18.90736a20,20,0,0,1-12.67,18.60836l-97.01846,38.21639a60,60,0,0,0-38.01,55.8251V501.999a10,10,0,0,0,10,10H437.55957A10,10,0,0,0,447.55957,501.999Z"/><path fill="#f9beac" d="M312.53121,253.27842a20,20,0,0,1-12.67-18.60836V215.7627H212.13892v18.90736a20,20,0,0,1-12.67,18.60836L256,276.98638Z"/><path fill="#416bd0" d="M264.95552,397.43207h-17.911a6,6,0,0,1-6-6v-111.828L256,276.98638l14.95552,2.6177v111.828A6,6,0,0,1,264.95552,397.43207Z"/><path fill="#416bd0" d="M302.8944 245.25051L256 276.98638l23.68874 25.43478a15 15 0 0 0 23.62717-2.16308l14.57613-44.851zM209.10481 245.25L256 276.98638l-23.68874 25.43478a15 15 0 0 1-23.62717-2.16308l-14.57613-44.851z"/><path fill="#ffbc5b" d="M171.469,393.51741A27.21083,27.21083,0,0,1,158.5,370.52376V346.97054a53.30122,53.30122,0,0,0,14.58083-2.914,52.34373,52.34373,0,0,0,11.38955-5.62213,50.75852,50.75852,0,0,0,11.64261,5.79011,51.75345,51.75345,0,0,0,14.387,2.78865v23.51057a27.21118,27.21118,0,0,1-12.969,22.9938L184.5,401.74638Z"/><path fill="#e58a7b" d="M212.13892,215.7627v18.12207a74.40157,74.40157,0,0,0,12.82983,7.82128h.00024a88.1897,88.1897,0,0,0,76.062,0h.00024c.03369-.01611.06641-.03369.1001-.0498a19.95991,19.95991,0,0,1-1.27-6.98633V215.7627Z"/><path fill="#f9beac" d="M336.37234,153.5396v0a74.4442,74.4442,0,0,1-42.341,67.1664l-.00031.00015a88.19058,88.19058,0,0,1-76.06206.00011l-.00008,0A74.44421,74.44421,0,0,1,175.62766,153.54V134.6539l7-33.1547H329.37234l7,33.1547Z"/><path fill="#343c4a" d="M336.37234 134.6539h-4a10 10 0 0 1-10-10V101.4992h14zM175.62766 134.6539h4a10 10 0 0 0 10-10V101.4992h-14z"/><path fill="#57aafe" d="M255.99992,3.499h.00017a83.87225,83.87225,0,0,1,83.87225,83.87225v1.45351a0,0,0,0,1,0,0H172.12766a0,0,0,0,1,0,0V87.37128A83.87225,83.87225,0,0,1,255.99992,3.499Z"/><path fill="#416bd0" d="M162.91074,98.08015a3.96676,3.96676,0,0,0,1.54051,6.862c16.15183,4.60739,56.7978,15.1366,91.1001,15.18923,34.719.05308,75.76817-10.56416,92.00609-15.19277a3.965,3.965,0,0,0,1.5308-6.85925q-5.45085-4.62736-10.90174-9.25465H173.81345Q168.362,93.45224,162.91074,98.08015Z"/><path d="M210.6748,343.51855a48.316,48.316,0,0,1-13.415-2.60009,47.34356,47.34356,0,0,1-10.84082-5.39063,3.50257,3.50257,0,0,0-3.86719-.019,48.95074,48.95074,0,0,1-10.62891,5.24609,49.8883,49.8883,0,0,1-13.626,2.72266A3.49992,3.49992,0,0,0,155,346.97168V370.5249a30.69317,30.69317,0,0,0,14.59961,25.95264v.00049l13.03125,8.229a3.502,3.502,0,0,0,3.73828,0l13.03125-8.22949A30.69317,30.69317,0,0,0,214,370.5249V347.01416A3.49987,3.49987,0,0,0,210.6748,343.51855ZM207,370.5249a23.73017,23.73017,0,0,1-11.33789,20.03418L184.5,397.60791l-11.16211-7.04883v.00049A23.73161,23.73161,0,0,1,162,370.5249V350.17871a56.77287,56.77287,0,0,0,12.24023-2.81836,56.06543,56.06543,0,0,0,10.21094-4.7832,54.49247,54.49247,0,0,0,10.51563,4.95556A55.21329,55.21329,0,0,0,207,350.24316Zm169.87988,61.30127a3.50018,3.50018,0,0,0-3.5,3.5V508.5a3.5,3.5,0,0,0,7,0V435.32617A3.50017,3.50017,0,0,0,376.87988,431.82617Zm-241.75976,0a3.50017,3.50017,0,0,0-3.5,3.5V508.5a3.5,3.5,0,0,0,7,0V435.32617A3.50018,3.50018,0,0,0,135.12012,431.82617ZM256,340.90283a3.5,3.5,0,1,0,3.5,3.5A3.49986,3.49986,0,0,0,256,340.90283Zm-3.5-24.5a3.5,3.5,0,1,0,3.5-3.5A3.49985,3.49985,0,0,0,252.5,316.40283Zm158.332-28.15918-91.33154-35.97314-13.989-9.47412a16.41134,16.41134,0,0,1-2.102-6.89014,107.11956,107.11956,0,0,0,12.83667-7.66064,108.622,108.622,0,0,0,24.3689-23.37989c.02319-.03271.04932-.0625.07153-.09619A109.67348,109.67348,0,0,0,353.44629,183.269c.00439-.00976.00561-.02.00976-.02978a3.49174,3.49174,0,0,0,.18165-.55664c.01025-.04151.029-.08008.03784-.12158a3.506,3.506,0,0,0,.07641-.72266v-78.897c.02344-.09131.05811-.17774.07813-.27a7.44455,7.44455,0,0,0-2.47754-7.25977l-7.98047-6.7749V87.37207a87.37207,87.37207,0,0,0-174.74414,0v1.26465l-7.98145,6.77588a7.44524,7.44524,0,0,0-2.47753,7.25488c.02026.09326.05542.18066.0791.273v78.898a3.52021,3.52021,0,0,0,.0769.72412c.01074.05078.0332.09814.04614.14844a3.47682,3.47682,0,0,0,.17481.53174c.00513.01171.00659.02441.01172.03564a108.66279,108.66279,0,0,0,12.7705,21.335,3.50114,3.50114,0,0,0,.57251.73877,109.59788,109.59788,0,0,0,36.70582,30.272,16.316,16.316,0,0,1-2.13208,7.18116l-13.97486,9.46533L101.168,288.24316a63.13618,63.13618,0,0,0-40.22754,59.07666V508.5a3.5,3.5,0,1,0,7,0V347.31982a56.17587,56.17587,0,0,1,35.792-52.56347L191.92627,260.019l13.4292,41.32178a3.55139,3.55139,0,0,0,.37695.79932,18.3775,18.3775,0,0,0,13.916,8.48193q.86426.07909,1.72363.0791a18.36119,18.36119,0,0,0,13.501-5.89355l2.667-2.86377v89.48633a9.51081,9.51081,0,0,0,9.5,9.5H264.96a9.51081,9.51081,0,0,0,9.5-9.5V301.94385l2.667,2.86377a18.35775,18.35775,0,0,0,13.501,5.89355c.57129,0,1.14746-.02637,1.72363-.0791a18.3775,18.3775,0,0,0,13.916-8.48193,3.55139,3.55139,0,0,0,.37695-.79932l13.4292-41.32178,88.19385,34.7378a56.17473,56.17473,0,0,1,35.792,52.563V508.5a3.5,3.5,0,0,0,7,0V347.31982A63.135,63.135,0,0,0,410.832,288.24365Zm-98.585-65.74316a99.19538,99.19538,0,0,1-29.53564,14.01269l.79565-7.91894a91.19077,91.19077,0,0,0,12.033-4.72656,77.47537,77.47537,0,0,0,23.63818-17.52784h11.18531A101.44615,101.44615,0,0,1,312.24707,222.50049ZM224.147,185.33838l1.40674,14.00146H195.89526a71.05614,71.05614,0,0,1-5.83471-7.96582q-1.8545-2.94213-3.39746-6.03564Zm-40.53833-7a70.81569,70.81569,0,0,1-4.36645-21H221.334l2.10987,21Zm42.64844,28.00146,1.46875,14.61914a83.79986,83.79986,0,0,1-8.24438-3.40576,71.09194,71.09194,0,0,1-16.7876-11.21338Zm-47.1272-56.00146V138.1499h.5a13.51507,13.51507,0,0,0,13.5-13.5v-8.915c18.62207,4.04834,41.65576,7.86524,62.416,7.89746h.26465c21.032,0,44.29565-3.83837,63.05957-7.90918v8.92676a13.51507,13.51507,0,0,0,13.5,13.5h.5v12.18848Zm0-19.18848V112.47119c2.21607.55127,4.55616,1.11572,7,1.68555V124.6499a6.50752,6.50752,0,0,1-6.5,6.5Zm146.74024-6.5V114.14844c2.44458-.56885,4.78369-1.13233,7-1.68262V131.1499h-.5A6.50752,6.50752,0,0,1,325.87012,124.6499Zm-39.42383,74.68994,1.40674-14.00146h37.41748a71.82043,71.82043,0,0,1-9.23682,14.00146Zm22.8125,7a70.308,70.308,0,0,1-16.73828,11.21241,83.84181,83.84181,0,0,1-8.24634,3.40673l1.46875-14.61914Zm-20.70264-28.00146,2.10987-21h42.08935a70.57659,70.57659,0,0,1-4.41406,21Zm-4.92529-21-2.10986,21H230.479l-2.10986-21ZM256,225.83008a84.984,84.984,0,0,1-21.01685-2.66162l-1.69091-16.82862h45.41552l-1.69091,16.82862A84.96416,84.96416,0,0,1,256,225.83008Zm20.27563,4.71582-.77636,7.72851a95.53928,95.53928,0,0,1-39.0105-.12011l-.7644-7.6084a91.13088,91.13088,0,0,0,40.55126,0Zm-43.68676-31.20606-1.40674-14.00146h49.63574l-1.40674,14.00146Zm-1.0542,44.85254a3.47157,3.47157,0,0,0,1.73486.47168c.05127,0,.10327-.00586.155-.00781a103.41715,103.41715,0,0,0,22.8645,2.5708q2.67774,0,5.36914-.14111a103.82666,103.82666,0,0,0,17.71045-2.48194l.0354-.00732a105.1644,105.1644,0,0,0,17.36646-5.61719,23.35154,23.35154,0,0,0,1.57007,5.12793L256,272.76123,213.65576,244.105a23.2943,23.2943,0,0,0,1.61475-5.36035A106.49214,106.49214,0,0,0,231.53467,244.19238Zm104.47412-44.85254H324.906a78.8742,78.8742,0,0,0,8.11352-14.00146h11.65576A102.58125,102.58125,0,0,1,336.00879,199.33984ZM346.752,178.33838H335.76636a77.425,77.425,0,0,0,3.99829-21h6.9873Zm0-28h-6.88183V110.6748c2.56494-.67675,4.87817-1.30908,6.88183-1.8706ZM256,7a80.46878,80.46878,0,0,1,80.34668,78.32568H175.65332A80.46878,80.46878,0,0,1,256,7Zm-90.82422,93.74951.001-.00049,9.92187-8.42334H336.90137l9.92187,8.42286.011.01025a3.4965,3.4965,0,0,0-.08228.74121v.0083a.777.777,0,0,1-.15429.06543c-15.90528,4.53418-56.53125,15.05957-90.78516,15.05859h-.25488c-21.79395-.03369-46.27149-4.38037-65.18433-8.6792-.02124-.00488-.042-.01025-.06348-.01464-10.48535-2.38477-19.262-4.75342-24.89868-6.36133a.78074.78074,0,0,1-.16308-.06983V101.5a3.4965,3.4965,0,0,0-.08228-.74121Zm6.9541,9.92822v39.66065h-6.88183v-41.5332C167.25049,109.36719,169.56348,110,172.12988,110.67773Zm-6.88183,46.66065h6.98535a77.8178,77.8178,0,0,0,3.95141,21H165.24805Zm10.86474,42.00146a101.86641,101.86641,0,0,1-8.76782-14.00146h11.56592a78.119,78.119,0,0,0,5.22778,9.76855q1.36817,2.17017,2.87354,4.23291Zm5.69214,7h10.93921A77.99529,77.99529,0,0,0,216.46,223.86768a91.19077,91.19077,0,0,0,12.033,4.72656l.77979,7.76025A101.86887,101.86887,0,0,1,181.80493,206.33984ZM229.75,300.03711a11.5,11.5,0,0,1-17.88379-1.311l-13.61523-41.896,10.85449-7.35254,41.54687,28.1167Zm37.71,91.39307a2.50263,2.50263,0,0,1-2.5,2.5H247.04a2.50263,2.50263,0,0,1-2.5-2.5V294.42773L256,282.12305l11.46,12.30468Zm32.67383-92.70411a11.5,11.5,0,0,1-17.88379,1.311l-20.90234-22.44287L302.89355,249.478l10.85547,7.35205ZM217.26367,127.793a3.50017,3.50017,0,0,0-3.5,3.5v8.97363a3.5,3.5,0,0,0,7,0V131.293A3.50017,3.50017,0,0,0,217.26367,127.793Zm77.47266,0a3.50017,3.50017,0,0,0-3.5,3.5v8.97363a3.5,3.5,0,0,0,7,0V131.293A3.50017,3.50017,0,0,0,294.73633,127.793ZM256,368.90283a3.5,3.5,0,1,0,3.5,3.5A3.49986,3.49986,0,0,0,256,368.90283Z"/></svg>