<svg xmlns="http://www.w3.org/2000/svg" data-name="Layer 1" viewBox="0 0 512 512"><path fill="#57aafe" d="M447.55957,501.999V340.31989a60,60,0,0,0-38.01-55.82508l-97.01835-38.21639a20,20,0,0,1-12.67-18.60836V194.7627H212.13892v32.90736a20,20,0,0,1-12.67,18.60836l-97.01846,38.21639a60,60,0,0,0-38.01,55.8251V501.999a10,10,0,0,0,10,10H437.55957A10,10,0,0,0,447.55957,501.999Z"/><path fill="#f9beac" d="M312.53121,246.27842a20,20,0,0,1-12.67-18.60836V194.7627H212.13892v32.90736a20,20,0,0,1-12.67,18.60836l56.53115,28Z"/><path fill="#e58a7b" d="M299.86121,194.7627H212.13892v29.52246A100.85454,100.85454,0,0,0,228.7074,237.6958a63.128,63.128,0,0,0,68.58514,0l.00043-.00049c1.34448-.87011,2.65686-1.78125,3.95434-2.71093a19.96792,19.96792,0,0,1-1.3861-7.31446Z"/><path fill="#f9beac" d="M376.88,463.5152h70.67957a0,0,0,0,1,0,0V501.999a10,10,0,0,1-10,10H376.88a0,0,0,0,1,0,0V463.5152A0,0,0,0,1,376.88,463.5152Z"/><path fill="#ff7b4f" d="M324.70679,251.07471l-12.17554-4.79639a19.96262,19.96262,0,0,1-7.51306-5.21338l-.00011.00011a69.322,69.322,0,0,1-98.0361-.00006l0,0a19.96219,19.96219,0,0,1-7.51294,5.21338l-12.17578,4.79639.00007.00007a97.16616,97.16616,0,0,0,137.41344,0Z"/><path fill="#f9beac" d="M64.44043,463.5152H135.12a0,0,0,0,1,0,0V511.999a0,0,0,0,1,0,0H74.44043a10,10,0,0,1-10-10V463.5152A0,0,0,0,1,64.44043,463.5152Z"/><rect width="70.68" height="20.968" x="64.44" y="449.515" fill="#ff7b4f"/><rect width="63.68" height="20.968" x="383.88" y="449.515" fill="#ff7b4f"/><path fill="#f9beac" d="M327.57336,180.20264A100.8781,100.8781,0,0,1,290.293,223.69531l-.00043.00049a63.128,63.128,0,0,1-68.58514,0,100.88022,100.88022,0,0,1-37.28064-43.49268l-.00012-.00048a100.87854,100.87854,0,0,1-8.79895-41.20508V101.499a211.64548,211.64548,0,0,0,78.51306-13.8999A210.46609,210.46609,0,0,0,305,59.499a68.35471,68.35471,0,0,0,31.37231,42v37.49854A100.87951,100.87951,0,0,1,327.57336,180.20264Z"/><path fill="#343c4a" d="M336.37231 139.07382h-4a10 10 0 0 1-10-10V101.4992h14zM175.62766 139.07382h4a10 10 0 0 0 10-10V101.4992h-14z"/><path fill="#e58a7b" d="M268.70444,158.52574v7.11184a12.7012,12.7012,0,0,1-12.7012,12.7012h-.00648a12.7012,12.7012,0,0,1-12.7012-12.7012v-7.11184a3,3,0,0,1,3-3h19.40888A3,3,0,0,1,268.70444,158.52574Z"/><path fill="#e58a7b" d="M152.23776,101.4992h.00008A23.38985,23.38985,0,0,1,175.62769,124.889v.00006a17.65977,17.65977,0,0,1-17.65977,17.65977h-5.73016a0,0,0,0,1,0,0V101.4992A0,0,0,0,1,152.23776,101.4992Z" transform="rotate(180 163.933 122.024)"/><path fill="#e58a7b" d="M336.37239,142.54887h0V101.4992h5.7301a17.65977,17.65977,0,0,1,17.65977,17.65973v0A23.38984,23.38984,0,0,1,336.37239,142.54887Z"/><path fill="#f24f2a" d="M114.82226,74.69768h74.82421a0,0,0,0,1,0,0V101.4992a0,0,0,0,1,0,0H95.47655a0,0,0,0,1,0,0V94.04339A19.34571,19.34571,0,0,1,114.82226,74.69768Z"/><path fill="#ff7b4f" d="M255.99992,3.499h.00016a80.37226,80.37226,0,0,1,80.37226,80.37226V101.4992a0,0,0,0,1,0,0H175.62766a0,0,0,0,1,0,0V83.87128A80.37226,80.37226,0,0,1,255.99992,3.499Z"/><path fill="#343c4a" d="M231.7241,82.52805h48.5518a3,3,0,0,1,3,3V101.4992a0,0,0,0,1,0,0H228.7241a0,0,0,0,1,0,0V85.52805A3,3,0,0,1,231.7241,82.52805Z"/><path fill="#ffd597" d="M508.10082,234.1737a1.99955,1.99955,0,0,0-1.96535-3.16431,77.70109,77.70109,0,0,0-37.38255,18.37494c-25.52521,23.02589-25.65451,55.06748-25.58945,60.31246l30.46565,17.58936a45.8011,45.8011,0,0,0,18.16945-12.28193c2.34256-2.60723,9.945-11.68366,11.28381-24.87421,1.322-13.02437-4.816-16.72772-4.96293-28.71474C498.039,254.84127,499.75782,245.559,508.10082,234.1737Z"/><path fill="#343c4a" d="M350.30507,506.69446l0,0a13.42188,13.42188,0,0,1-5.95993-16.09418,648.80842,648.80842,0,0,1,98.81835-180.90347l31.34563,18.09742a660.33854,660.33854,0,0,1-48.23258,94.67238A660.31777,660.31777,0,0,1,367.25034,503.778,13.42383,13.42383,0,0,1,350.30507,506.69446Z"/><path d="M511.13965,230.02344a5.43755,5.43755,0,0,0-5.66406-2.4502,81.25781,81.25781,0,0,0-39.06739,19.21338c-21.45666,19.35547-25.83471,44.74268-26.59955,57.46875A63.44728,63.44728,0,0,0,410.833,281.24316L326.03394,247.8374l-.02436-.00928-12.1961-4.80468a16.545,16.545,0,0,1-6.08338-4.14258,3.45277,3.45277,0,0,0-.23694-.29c-.01452-.01465-.032-.02393-.04675-.03809a16.42493,16.42493,0,0,1-4.08606-10.88281V218.291a104.2984,104.2984,0,0,0,36.28217-72.44727,26.92506,26.92506,0,0,0,23.62018-26.68408A21.18374,21.18374,0,0,0,342.10254,98h-2.23047V83.87207A83.87494,83.87494,0,0,0,173.08539,71.2002H114.82031A22.86594,22.86594,0,0,0,91.98047,94.04v7.46a3.50017,3.50017,0,0,0,3.5,3.5h58.73834a21.05044,21.05044,0,0,0-5.48151,14.16016,26.92421,26.92421,0,0,0,23.62018,26.68359A104.296,104.296,0,0,0,208.63965,218.291v9.3789a16.42547,16.42547,0,0,1-4.08826,10.88526c-.01373.01318-.03.022-.04358.03564a3.41094,3.41094,0,0,0-.23248.28467,16.541,16.541,0,0,1-6.08881,4.14795l-12.19482,4.8042-.02692.01025L101.168,281.24316a63.1378,63.1378,0,0,0-40.22754,59.07715V508.5a3.5,3.5,0,1,0,7,0V473.9834h63.67969V508.5a3.5,3.5,0,0,0,7,0V420.27637a3.5,3.5,0,0,0-7,0V446.0166H67.94043V340.32031a56.17484,56.17484,0,0,1,35.793-52.56347l82.738-32.59473a100.78047,100.78047,0,0,0,139.05726,0l82.73895,32.59473a56.44739,56.44739,0,0,1,28.40991,24.66308,651.77757,651.77757,0,0,0-95.63159,177.0127,16.9387,16.9387,0,0,0,28.87207,16.6123c1.16614-1.373,2.30615-2.77246,3.46191-4.15674V508.5a3.5,3.5,0,0,0,7,0V493.36963q7.70646-9.54639,15.07257-19.38916h48.60712V508.5a3.5,3.5,0,0,0,7,0V386.06787c9.73535-18.46,18.62012-37.38867,26.55054-56.6167a49.26661,49.26661,0,0,0,16.79223-12.10644,48.21242,48.21242,0,0,0,12.16211-26.86035c.80078-7.89258-.877-12.71778-2.5-17.38477a33.9206,33.9206,0,0,1-2.44531-11.72656c-.09863-8.11377,3.03125-16.56885,9.30469-25.1294A5.49286,5.49286,0,0,0,511.13965,230.02344ZM339.87207,105h2.23047a14.17629,14.17629,0,0,1,14.16016,14.16016,19.90881,19.90881,0,0,1-16.39063,19.562ZM172.12793,138.72217a19.90881,19.90881,0,0,1-16.39063-19.562A14.17629,14.17629,0,0,1,169.89746,105h2.23047Zm0-54.8501V98H98.98047V94.04A15.85776,15.85776,0,0,1,114.82031,78.2002h57.52088C172.21515,80.07715,172.12793,81.96387,172.12793,83.87207ZM131.62012,453.0166v13.9668H67.94043V453.0166Zm201.252-317.44189h-.5a6.50753,6.50753,0,0,1-6.5-6.5V105h7ZM179.12793,83.87207a76.87207,76.87207,0,0,1,153.74414,0V98h-46.0957V85.52881a6.50753,6.50753,0,0,0-6.5-6.5H231.72363a6.50753,6.50753,0,0,0-6.5,6.5V98h-46.0957Zm100.64844,2.15674V98H232.22363V86.02881ZM179.12793,105h7v24.07471a6.50753,6.50753,0,0,1-6.5,6.5h-.5Zm8.49316,73.77393a96.67424,96.67424,0,0,1-8.421-36.19922h.4278a13.51508,13.51508,0,0,0,13.5-13.5V105H318.87207v24.07471a13.51508,13.51508,0,0,0,13.5,13.5h.4278A97.34388,97.34388,0,0,1,288.3916,220.7583a59.71711,59.71711,0,0,1-64.7832,0A97.1614,97.1614,0,0,1,187.62109,178.77393ZM300.298,240.73a65.81226,65.81226,0,0,1-88.59576-.00049,23.46013,23.46013,0,0,0,3.93738-13.05957v-3.89258c1.366.98,2.74841,1.94043,4.166,2.85791a66.72517,66.72517,0,0,0,72.38868-.00048c1.4176-.917,2.8-1.87793,4.166-2.85791v3.89306A23.45936,23.45936,0,0,0,300.298,240.73Zm-106.58441,11.5791,7.03931-2.77295a23.695,23.695,0,0,0,6.23474-3.6333,72.81032,72.81032,0,0,0,98.02539.00049,23.69117,23.69117,0,0,0,6.234,3.63281l7.03931,2.77295A93.78438,93.78438,0,0,1,193.71362,252.30908Zm250.346,214.67139H400.63586q5.03229-6.91407,9.87018-13.96094h33.55353Zm0-20.96094h-28.77q7.20264-10.7373,13.96723-21.7168,7.67184-12.46436,14.80273-25.30908ZM423.2959,420.63281A658.83861,658.83861,0,0,1,364.582,501.51367a9.94029,9.94029,0,0,1-16.93848-9.74316,645.29408,645.29408,0,0,1,96.42066-177.51026l26.0354,15.03077A658.871,658.871,0,0,1,423.2959,420.63281ZM494.61914,261.459a40.74762,40.74762,0,0,0,2.834,13.93946c1.498,4.30859,2.791,8.02832,2.14649,14.3789-1.168,11.50977-7.665,19.84082-10.4043,22.88868a42.28343,42.28343,0,0,1-15.27295,10.749l-27.25244-15.73389c.19251-10.16894,2.93189-36.30615,24.42774-55.69726a73.7277,73.7277,0,0,1,31.998-16.73047C497.36328,244.02588,494.51465,252.82666,494.61914,261.459ZM240.28125,201.14551a36.94506,36.94506,0,0,0,15.7207,3.53662h.11035a36.9517,36.9517,0,0,0,15.60645-3.53662,3.50031,3.50031,0,0,0-2.998-6.32617,29.89038,29.89038,0,0,1-12.62988,2.86279,30.45324,30.45324,0,0,1-12.81152-2.86279,3.50031,3.50031,0,0,0-2.99805,6.32617Zm-15.64746-68.1377V125.5752a3.5,3.5,0,1,0-7,0v7.43261a3.5,3.5,0,0,0,7,0Zm66.23242-10.93261a3.50017,3.50017,0,0,0-3.5,3.5v7.43261a3.5,3.5,0,0,0,7,0V125.5752A3.50017,3.50017,0,0,0,290.86621,122.0752Zm-59.37891-3.53614a3.50014,3.50014,0,0,0,2.6543-6.47754,34.20819,34.20819,0,0,0-26.01758.001,3.5,3.5,0,1,0,2.65821,6.47559,27.21034,27.21034,0,0,1,20.70507.001ZM256,181.83984a16.22109,16.22109,0,0,0,16.2041-16.20117v-5.52978a3.5,3.5,0,0,0-7,0v5.52978a9.2041,9.2041,0,0,1-18.4082,0v-5.52978a3.5,3.5,0,0,0-7,0v5.52978A16.22109,16.22109,0,0,0,256,181.83984Zm23.18652-63.03857a3.48463,3.48463,0,0,0,1.32813-.26318,27.21036,27.21036,0,0,1,20.70508.001,3.50014,3.50014,0,0,0,2.65429-6.47754,34.20816,34.20816,0,0,0-26.01757.001,3.50051,3.50051,0,0,0,1.33007,6.73877Z"/></svg>