<svg xmlns="http://www.w3.org/2000/svg" data-name="Layer 1" viewBox="0 0 512 512"><path fill="#343c4a" d="M461.55957,501.999V363.38579a60,60,0,0,0-41.15445-56.96354l-99.82577-33.02589a20,20,0,0,1-13.71814-18.98785V229.13818H205.13879v25.27033a20,20,0,0,1-13.71814,18.98785L91.59493,306.42225a60,60,0,0,0-41.15444,56.96354V501.999a10,10,0,0,0,10,10H451.55957A10,10,0,0,0,461.55957,501.999Z"/><path fill="#fff" d="M320.57935,273.39636a20,20,0,0,1-13.71814-18.98785V229.13818H205.13879v25.27033a20,20,0,0,1-13.71814,18.98785L255.66153,511.999Z"/><path fill="#f9beac" d="M205.13879,229.13818v25.27051a19.99624,19.99624,0,0,1-13.60174,18.94385l14.79053,10.064a89.48225,89.48225,0,0,0,98.6679,2.47217l18.58692-11.499-3.00305-.99317a20,20,0,0,1-13.71814-18.98779V229.13818Z"/><path fill="#e58a7b" d="M329.37239,178.80806h0V137.75838h5.7301a17.65978,17.65978,0,0,1,17.65977,17.65973v0A23.38985,23.38985,0,0,1,329.37239,178.80806Z"/><path fill="#e58a7b" d="M159.23776,137.75838h.00008a23.38985,23.38985,0,0,1,23.38985,23.38985v.00006a17.65977,17.65977,0,0,1-17.65977,17.65977h-5.73016a0,0,0,0,1,0,0V137.75838A0,0,0,0,1,159.23776,137.75838Z" transform="rotate(180 170.933 158.283)"/><path fill="#e58a7b" d="M315.34448,272.68311c.47211-.33936.93659-.687,1.39832-1.0376a19.99217,19.99217,0,0,1-9.88159-17.23682V229.13818H205.13879V250.771a67.30323,67.30323,0,0,0,19.51691,21.91259l9.20722,6.61963a61.90237,61.90237,0,0,0,36.137,11.64307h.00006a61.90246,61.90246,0,0,0,36.137-11.64307Z"/><path fill="#f9beac" d="M329.37237,177.60207V197.0104a67.33774,67.33774,0,0,1-28.02789,54.67273l-9.20752,6.62024a61.90273,61.90273,0,0,1-36.137,11.64279h0a61.9027,61.9027,0,0,1-36.137-11.64275l-9.20723-6.62a67.33778,67.33778,0,0,1-28.02795-54.67258l0-19.40875V106.49474l146.74468-4.43587Z"/><ellipse cx="256" cy="103.281" fill="#dc8768" rx="135" ry="32.5"/><ellipse cx="256" cy="103.281" fill="#dc8768" rx="135" ry="32.5"/><path fill="#dc8768" d="M334,87.11852A14.23226,14.23226,0,0,1,322.29376,101.11a369.64042,369.64042,0,0,1-70.61761,5.97214,369.55727,369.55727,0,0,1-62.04915-5.986A14.19621,14.19621,0,0,1,178,87.11717V71.92975A129.43686,129.43686,0,0,1,187.41742,23.461,31.89923,31.89923,0,0,1,228.024,5.47369h.00006a80.923,80.923,0,0,0,55.9519,0h.00006A31.89923,31.89923,0,0,1,324.58258,23.461,129.43686,129.43686,0,0,1,334,71.92975Z"/><path fill="#ab5249" d="M322.29376,87.10986A369.65872,369.65872,0,0,1,251.67615,93.082,369.57319,369.57319,0,0,1,189.627,87.09619,14.19661,14.19661,0,0,1,178,73.11719v14a14.19661,14.19661,0,0,0,11.627,13.979,369.57319,369.57319,0,0,0,62.04914,5.98584,369.65872,369.65872,0,0,0,70.61761-5.97217A14.23186,14.23186,0,0,0,334,87.11865v-14A14.23186,14.23186,0,0,1,322.29376,87.10986Z"/><path fill="#343c4a" d="M178,73.81031c22.03,3.76026,48.94,5.97022,78,5.97022s55.97-2.21,78-5.97022c.03833-3.01074-.02451-6.22705-.23123-9.62353-.24286-3.99024-.65305-7.71631-1.15878-11.14649A514.118,514.118,0,0,1,256,58.78053c-28.45,0-54.84-2.12012-76.61-5.74024-.43352,2.937-.79569,6.08252-1.04311,9.41944C178.04718,66.50172,177.95471,70.29908,178,73.81031Z"/><path fill="#dc8768" d="M243.20319,501.83975c-23.62251-39.58313-51.90781-86.51387-75.86593-126.60272a7.99586,7.99586,0,0,1,.21583-8.54182q6.18264-9.25955,12.35827-18.51909a8.00115,8.00115,0,0,0-4.05186-12.00449l-36.28189-12.496A7.9946,7.9946,0,0,1,135.349,311.947,98.96056,98.96056,0,0,1,201.37572,266.109q25.5,89.13,51.01,178.28,7.095,24.765,14.18,49.55Z"/><path fill="#dc8768" d="M240.28691,511.999l5.17309-18.05s9.45-33.04,14.18-49.56q25.5-89.145,51.01-178.28a99.02963,99.02963,0,0,1,66.03,45.84,7.99281,7.99281,0,0,1-4.23,11.73q-18.135,6.24-36.28,12.49a7.99972,7.99972,0,0,0-4.05,12.01q6.18,9.255,12.36,18.52a7.98754,7.98754,0,0,1,.21,8.54c-23.62,39.56-70.87,118.7-70.87,118.7l-10.76654,18.06Z"/><path fill="#343c4a" d="M285.01042,235.6847c1.83735-.44463,13.50394-3.4544,20.48545-14.31982l.07426-.11615a3.73211,3.73211,0,0,0-4.16755-5.569,18.42128,18.42128,0,0,1-7.64805.569c-6.01176-.87115-8.26616-4.53012-13.82871-6.59023-4.68024-1.73344-12.17024-2.50762-23.92583,2.92227-11.75564-5.42989-19.24564-4.65571-23.92587-2.92227-5.56256,2.06011-7.817,5.71908-13.82865,6.59023a18.42523,18.42523,0,0,1-7.65855-.57193,3.7281,3.7281,0,0,0-4.15418,5.578l.07132.11026c7.458,11.47327,20.46406,14.0465,22.50407,14.41775A36.97066,36.97066,0,0,0,256,229.87144C257.67129,231.06689,269.71709,239.38456,285.01042,235.6847Z"/><path fill="#e58a7b" d="M268.70447,195.06917v6.19933a12.7012,12.7012,0,0,1-12.7012,12.7012h-.00648a12.7012,12.7012,0,0,1-12.7012-12.7012v-6.19933a2,2,0,0,1,2-2h21.40888A2,2,0,0,1,268.70447,195.06917Z"/><circle cx="228.5" cy="167.999" r="20.5" fill="#343c4a"/><circle cx="283.5" cy="167.999" r="20.5" fill="#343c4a"/><path d="M128.12109,431.82617a3.50018,3.50018,0,0,0-3.5,3.5V508.5a3.5,3.5,0,1,0,7,0V435.32617A3.50017,3.50017,0,0,0,128.12109,431.82617Zm255.75782,0a3.50017,3.50017,0,0,0-3.5,3.5V508.5a3.5,3.5,0,0,0,7,0V435.32617A3.50018,3.50018,0,0,0,383.87891,431.82617Zm37.63086-128.729-69.86908-23.11035c-.74079-.52881-1.46509-1.07666-2.22174-1.58741a102.24468,102.24468,0,0,0-36.65687-15.42822,16.34345,16.34345,0,0,1-2.40173-8.561v-5.62452a71.01932,71.01932,0,0,0,22.50977-51.77587V182.07422A26.92584,26.92584,0,0,0,356.2627,155.419a21.18373,21.18373,0,0,0-21.16016-21.15967h-2.23242v-.772C368.37482,127.63184,394.5,117.42725,394.5,103.27979c0-16.45948-34.43372-25.38477-57-29.46631V71.93066a132.336,132.336,0,0,0-9.67188-49.77929,35.24212,35.24212,0,0,0-45.0625-19.96094,77.48638,77.48638,0,0,1-53.53124,0,35.24017,35.24017,0,0,0-45.0625,19.96094A132.336,132.336,0,0,0,174.5,71.93066v1.88282c-22.56628,4.08154-57,13.00683-57,29.46631,0,14.14746,26.12518,24.352,61.62988,30.20751v.772h-2.23242A21.18373,21.18373,0,0,0,155.7373,155.419a26.92584,26.92584,0,0,0,23.39258,26.65527v14.93555a71.017,71.017,0,0,0,22.50977,51.77539v5.625a16.36528,16.36528,0,0,1-2.39929,8.56689,102.33388,102.33388,0,0,0-36.63977,15.42236c-.7522.50782-1.47229,1.05323-2.20887,1.57959L90.49023,303.09717a63.40656,63.40656,0,0,0-43.5498,60.293V508.5a3.5,3.5,0,0,0,7,0V363.39014a56.419,56.419,0,0,1,38.74805-53.64746l53.745-17.77491a104.43659,104.43659,0,0,0-14.0683,18.15479,11.49918,11.49918,0,0,0,6.0752,16.86719l36.2793,12.48925a4.505,4.505,0,0,1,2.27929,6.75733q-6.18017,9.25635-12.35937,18.51953a11.52867,11.52867,0,0,0-.30371,12.27978c11.10644,18.584,23.1416,38.6377,35.21094,58.748,13.4757,22.4541,27.39758,45.65137,39.87036,66.54785l-1.49146,5.2041a3.49975,3.49975,0,1,0,6.72852,1.92872l4.1709-14.55176s5.73956-20.06641,10.51135-36.74268c.00982-.0293.01636-.05908.02545-.08887,1.34167-4.68847,2.60577-9.106,3.64288-12.72851q14.76709-51.62256,29.54-103.24365L308.4021,286.689l.00165-.00585,4.71539-16.48a95.50562,95.50562,0,0,1,60.57617,43.57471,4.49334,4.49334,0,0,1-2.38379,6.59278L335.0293,332.86084A11.50009,11.50009,0,0,0,329.209,350.124q6.18018,9.25343,12.36133,18.52051a4.5043,4.5043,0,0,1,.11524,4.80127l-70.8711,118.70166-8.68066,14.56006a3.49974,3.49974,0,1,0,6.01172,3.585l8.67969-14.5581,70.86621-118.69385a11.52946,11.52946,0,0,0-.29883-12.28174q-6.18018-9.27173-12.36426-18.52588a4.50057,4.50057,0,0,1,2.28027-6.75342l36.28321-12.49072a11.49215,11.49215,0,0,0,6.07324-16.86523,104.04272,104.04272,0,0,0-14.05414-18.14307l53.69965,17.76221a56.41857,56.41857,0,0,1,38.749,53.64746V508.5a3.5,3.5,0,0,0,7,0V363.39014A63.40656,63.40656,0,0,0,421.50977,303.09717ZM179.12988,174.98145A19.909,19.909,0,0,1,162.7373,155.419a14.17619,14.17619,0,0,1,14.16016-14.15967h2.23242Zm146.74024-38.895-22.6546,18.25146A23.98724,23.98724,0,0,0,259.75793,164.5h-7.51586a23.9813,23.9813,0,0,0-41.83967-12.23633l-24.27252-16.36426v-1.33056A501.47856,501.47856,0,0,0,256,139.27979a501.47856,501.47856,0,0,0,69.87012-4.71094ZM300.5,168a17,17,0,1,1-17-17A17.019,17.019,0,0,1,300.5,168Zm-55,0a17,17,0,1,1-17-17A17.019,17.019,0,0,1,245.5,168Zm89.60254-26.74072A14.17619,14.17619,0,0,1,349.2627,155.419a19.909,19.909,0,0,1-16.39258,19.5625V141.25928ZM190.66211,24.77246a28.26084,28.26084,0,0,1,26.23633-17.7959,28.63281,28.63281,0,0,1,9.916,1.78223,84.48935,84.48935,0,0,0,58.3711,0,28.27324,28.27324,0,0,1,36.15234,16.01367,125.69984,125.69984,0,0,1,7.25433,25.30127A512.29752,512.29752,0,0,1,256,55.28174a481.66451,481.66451,0,0,1-72.6037-5.145A125.69582,125.69582,0,0,1,190.66211,24.77246Zm-8.28656,32.29A488.92009,488.92009,0,0,0,256,62.28174a519.36077,519.36077,0,0,0,73.61749-5.28369,126.40275,126.40275,0,0,1,.86957,13.84228C308.43292,74.3999,282.76367,76.28174,256,76.28174s-52.43292-1.88184-74.48706-5.44141A126.40983,126.40983,0,0,1,182.37555,57.0625ZM181.5,77.93164c22.16779,3.50342,47.816,5.3501,74.5,5.3501s52.33221-1.84668,74.5-5.3501v9.188a10.73394,10.73394,0,0,1-8.834,10.54785A367.18433,367.18433,0,0,1,251.7168,103.583a367.13227,367.13227,0,0,1-61.46094-5.92871A10.69231,10.69231,0,0,1,181.5,87.11816Zm1.78485,49.19434c-7.82251-1.22168-15.18079-2.644-21.92547-4.26758C134.18262,116.31592,124.5,108.45508,124.5,103.27979c0-6.63282,15.50867-15.96924,50-22.34961v6.188A17.68906,17.68906,0,0,0,188.99805,104.54a374.18262,374.18262,0,0,0,62.63672,6.043q2.1621.0249,4.32226.0249a374.20972,374.20972,0,0,0,66.96485-6.05371A17.73175,17.73175,0,0,0,337.5,87.11963V80.93018c34.49133,6.38037,50,15.71679,50,22.34961,0,5.17529-9.68262,13.03613-36.85938,19.57861-6.74468,1.62353-14.103,3.0459-21.92547,4.26758-.022.00439-.0448.00586-.06671.01025A481.14551,481.14551,0,0,1,256,132.27979a481.14551,481.14551,0,0,1-72.64844-5.14356C183.32965,127.13184,183.30688,127.13037,183.28485,127.126ZM242.0957,492.98584l-.03448.12012c-11.58826-19.39307-24.23541-40.46729-36.51239-60.92432-12.06738-20.10644-24.09961-40.15625-35.208-58.7417a4.504,4.504,0,0,1,.12109-4.79834q6.18018-9.2688,12.35938-18.51855A11.50509,11.50509,0,0,0,177,332.86035l-36.27637-12.48779a4.50721,4.50721,0,0,1-2.78418-2.75049,4.45005,4.45005,0,0,1,.39453-3.84326,95.44234,95.44234,0,0,1,60.57715-43.57569l53.46466,186.8462C247.65155,473.55957,242.095,492.9873,242.0957,492.98584Zm43.71875-152.80273q-14.77148,51.62035-29.54,103.24365c-.08337.2915-.1715.59912-.25775.90039L212.19611,291.186a92.81771,92.81771,0,0,0,40.1203,11.6831q2.60742.14576,5.12793.14356a94.27771,94.27771,0,0,0,41.85644-9.96192Zm16.18628-56.56788A87.3858,87.3858,0,0,1,252.709,295.87988a86.2294,86.2294,0,0,1-43.3601-14.644l-4.16657-14.561a23.30052,23.30052,0,0,0,3.45252-12.14062l9.18255,6.60791a65.37807,65.37807,0,0,0,76.36621-.00147l9.18152-6.60546a23.27725,23.27725,0,0,0,3.47766,12.15771Zm-2.70483-34.77587-9.19922,6.61865a58.41816,58.41816,0,0,1-68.19238.001l-9.20118-6.62109a63.97192,63.97192,0,0,1-26.57324-51.82812V144.34082l20.49091,13.81445A23.99582,23.99582,0,1,0,252.24207,171.5h7.51586a23.99933,23.99933,0,1,0,46.62775-10.728l19.48444-15.69726v51.93506A63.975,63.975,0,0,1,299.2959,248.83936Zm-30.5752-4.38916a29.6943,29.6943,0,0,1-25.4414.00048,3.49987,3.49987,0,1,0-2.99805,6.3252A36.92525,36.92525,0,0,0,256.002,254.313h.11035a36.9517,36.9517,0,0,0,15.60645-3.53662,3.50031,3.50031,0,0,0-2.998-6.32617ZM300.458,212.30957a15.01739,15.01739,0,0,1-6.20606.47656c-2.73535-.396-4.46679-1.52685-6.65918-2.958a30.99237,30.99237,0,0,0-6.44824-3.45068,25.293,25.293,0,0,0-9.36157-1.49267,16.14336,16.14336,0,0,0,.42114-3.61524v-5.52978a3.5,3.5,0,0,0-7,0v5.52978a9.2041,9.2041,0,0,1-18.4082,0v-5.52978a3.5,3.5,0,0,0-7,0v5.52978a16.146,16.146,0,0,0,.421,3.61475,25.29427,25.29427,0,0,0-9.36243,1.49365,30.98506,30.98506,0,0,0-6.44726,3.45019c-2.19239,1.43116-3.92383,2.562-6.65625,2.95752a15.08226,15.08226,0,0,1-6.21582-.47509,7.2298,7.2298,0,0,0-8.04883,10.84277l.02734.042c.01758.02832.03418.05567.05274.083,7.832,12.042,20.97656,15.249,24.81543,15.94482a39.92652,39.92652,0,0,0,27.59961-5.1831,41.77621,41.77621,0,0,0,21.19335,6.08447,36.75245,36.75245,0,0,0,8.666-1.03467c3.45606-.84472,15.30176-4.48291,22.60254-15.82519.03516-.05518.06934-.11182.10156-.16895l.01465-.0249a7.23565,7.23565,0,0,0-8.10156-10.76123Zm2.15918,7.062c-.02735.04346-.05471.08789-.08008.13281l-.02149.03467c-5.90136,9.11377-15.52343,12.06348-18.3291,12.749-13.39746,3.24267-24.1289-3.813-26.14453-5.26026a3.49847,3.49847,0,0,0-4.03125-.03711c-2.62988,1.8169-12.15625,7.57373-24.37695,5.34522-2.23047-.4043-13.64356-2.9126-20.124-12.75782-.04493-.07812-.09961-.168-.166-.26464-.0166-.04053-.01074-.084.0498-.16651.10254-.13672.17774-.11718.25391-.09619a20.686,20.686,0,0,0,18.58692-3.36182,24.52728,24.52728,0,0,1,5.05078-2.74609,20.3134,20.3134,0,0,1,10.89428-.62744,16.12929,16.12929,0,0,0,23.64106,0,20.32072,20.32072,0,0,1,10.89337.627,24.53464,24.53464,0,0,1,5.05175,2.74658,20.6726,20.6726,0,0,0,18.57325,3.3628c.07226-.019.15136-.04151.25586.10058C302.68164,219.27,302.65723,219.30811,302.61719,219.37158Z"/></svg>