<svg xmlns="http://www.w3.org/2000/svg" data-name="Layer 1" viewBox="0 0 512 512"><path fill="#57aafe" d="M447.55957,501.999V376.30249a60,60,0,0,0-33.65578-53.90716L317.46322,275.2652a20,20,0,0,1-11.21859-17.96906v-35.158H205.2019v35.42847a20,20,0,0,1-11.21859,17.96905L98.09622,322.39533a60,60,0,0,0-33.65579,53.90716V501.999a10,10,0,0,0,10,10H437.55957A10,10,0,0,0,447.55957,501.999Z"/><path fill="#d34342" d="M172.9286 420.81247H141.66923v-122.352a5 5 0 0 1 2.48553-4.32174l21.25937-12.36907a5 5 0 0 1 7.51447 4.32174zM339.0714 420.81247h31.25937v-122.352a5 5 0 0 0-2.48553-4.32174l-21.25937-12.36907a5 5 0 0 0-7.51447 4.32174z"/><path fill="#f9beac" d="M256,304.499a98.14694,98.14694,0,0,0,67.15637-26.45166l-5.69311-2.78222a20,20,0,0,1-11.21863-17.96924V222.13818H205.2019v35.42823a20.0001,20.0001,0,0,1-11.2185,17.96923l-5.13965,2.51172A98.14642,98.14642,0,0,0,256,304.499Z"/><path fill="#f96263" d="M128.12,511.999V401.81247a30,30,0,0,1,30-30H353.88a30,30,0,0,1,30,30V511.999Z"/><path fill="#f9beac" d="M128.12 463.90244H64.44049L64.44044 501.999a10 10 0 0 0 10 10H128.12zM383.88 463.90244h63.67951l0 38.09657a10 10 0 0 1-10 10H383.88z"/><path fill="#e58a7b" d="M264.24683,275.1582a39.66233,39.66233,0,0,0,24.42028-8.40966l17.57752-13.73487V222.13818H205.2019v18.7627a51.93129,51.93129,0,0,0,5.6565,5.16064l26.47461,20.687a39.662,39.662,0,0,0,24.42016,8.40966Z"/><path fill="#f9beac" d="M203.85839,229.55333A52.01243,52.01243,0,0,1,183.87065,188.569V116.17265a31.873,31.873,0,0,1,31.873-31.873h80.51287a31.873,31.873,0,0,1,31.873,31.873V188.569a52.01245,52.01245,0,0,1-19.98776,40.98431l-26.47462,20.687a39.66178,39.66178,0,0,1-24.42021,8.40942h-2.4937a39.66175,39.66175,0,0,1-24.42023-8.40944Z"/><path fill="#343c4a" d="M291.14172,218.00244a27.03118,27.03118,0,0,0-27.03137-27.03125h-16.2207a27.03118,27.03118,0,0,0-27.03137,27.03125v24.83447l9.47473,7.40332a39.66194,39.66194,0,0,0,24.42016,8.40967h2.49366a39.66228,39.66228,0,0,0,24.42028-8.40967l9.47461-7.40332Z"/><path fill="#e58a7b" d="M328.1294 168.60646h0V123.734h0a19.63032 19.63032 0 0 1 19.2995 23.219l-1.23428 6.63774A18.37491 18.37491 0 0 1 328.1294 168.60646zM183.8706 168.60646h0V123.734h0a19.63032 19.63032 0 0 0-19.2995 23.219l1.23428 6.63774A18.37491 18.37491 0 0 0 183.8706 168.60646zM267.90184 181.15348v4.75737A11.90186 11.90186 0 0 1 256 197.81271h0a11.90186 11.90186 0 0 1-11.90186-11.90186v-4.75737a3 3 0 0 1 3-3h17.80375A3 3 0 0 1 267.90184 181.15348z"/><path fill="#f96263" d="M238.068,3.499h35.86937A55.78167,55.78167,0,0,1,329.719,59.28069v49.89757a0,0,0,0,1,0,0H182.28634a0,0,0,0,1,0,0V59.28069A55.78167,55.78167,0,0,1,238.068,3.499Z"/><path fill="#57aafe" d="M305.65376,131.80865,276.30437,125.491a96.47392,96.47392,0,0,0-40.60347,0l-29.34927,6.31768a18.33524,18.33524,0,0,1-20.6011-10.45045l-3.861-8.64886a8.74413,8.74413,0,0,1,5.30029-11.89633,225.21567,225.21567,0,0,1,70.438-10.78238c23.44708.16933,51.93841,7.081,66.608,11.1125a8.75281,8.75281,0,0,1,5.683,12.00745l-3.664,8.20762A18.33522,18.33522,0,0,1,305.65376,131.80865Z"/><path fill="#ffbc5b" d="M263.16184,18.462a3.31152,3.31152,0,0,1,3.32,4.42281c-2.21889,5.72917-4.67524,11.38626-7.07026,17.04457-.145.34263-.04109.48544.24261.64922,4.48467,2.589,8.95935,5.19533,13.44836,7.77675a3.37631,3.37631,0,0,1,.71831,5.61015q-12.19594,11.56926-24.41455,23.11476c-1.3655,1.29206-2.70993,1.585-4.10975.90736a3.22342,3.22342,0,0,1-1.65063-4.08164c.84931-2.19485,1.77981-4.35843,2.68367-6.532q2.18712-5.25948,4.39415-10.51066c.15082-.357.02433-.484-.25061-.64208-4.54049-2.6112-9.126-5.16964-13.60974-7.87663a3.36245,3.36245,0,0,1-.5546-5.5155q12.20354-11.56259,24.41474-23.11762A3.88588,3.88588,0,0,1,263.16184,18.462Z"/><circle cx="348" cy="409.499" r="17.5" fill="#ffbc5b"/><circle cx="166" cy="409.499" r="17.5" fill="#ffbc5b"/><path fill="#ffbc5b" d="M266.06853,406.76889a4.11791,4.11791,0,0,1,4.12846,5.49981c-2.75921,7.12427-5.8137,14.15891-8.79193,21.19508-.18034.42606-.0511.60365.30168.80731,5.57673,3.21945,11.141,6.46044,16.72317,9.67046a4.19847,4.19847,0,0,1,.89321,6.97627q-15.16575,14.38648-30.35971,28.74342c-1.698,1.60668-3.36982,1.971-5.11051,1.12831a4.00834,4.00834,0,0,1-2.05257-5.07556c1.05611-2.72932,2.21321-5.41975,3.33717-8.12265q2.71968-6.54021,5.46416-13.0701c.18755-.44395.03025-.6018-.31164-.79844-5.64614-3.24705-11.34825-6.42849-16.92383-9.79465a4.18125,4.18125,0,0,1-.68966-6.85858q15.17521-14.37819,30.36-28.747A4.83208,4.83208,0,0,1,266.06853,406.76889Z"/><path fill="#ededed" d="M477.98215,230.70177,452.661,262.68313a5,5,0,0,0-.67681,5.07061l3.34541,7.81864a5,5,0,0,1-.26675,4.4669l-65.898,114.1386,21.81647,12.59574L476.8793,292.635a5,5,0,0,1,3.73508-2.46446l8.44386-1.01209a5,5,0,0,0,4.05288-3.12144l15.03611-37.91943a5,5,0,0,0-2.14792-6.17316l-21.59708-12.46909A5,5,0,0,0,477.98215,230.70177Z"/><path fill="#343c4a" d="M370.30153,390.748h.00005a25.16717,25.16717,0,0,1,25.16717,25.16717v72.25254a25.16716,25.16716,0,0,1-25.16716,25.16716h-.00005a25.16716,25.16716,0,0,1-25.16716-25.16716V415.91512A25.16716,25.16716,0,0,1,370.30153,390.748Z" transform="rotate(30 370.302 452.041)"/><path d="M507.74951,238.91406l-21.59717-12.46875a8.54951,8.54951,0,0,0-10.91455,2.085l-25.32031,31.98145a8.49022,8.49022,0,0,0-1.15088,8.62012l3.34522,7.81836a1.50656,1.50656,0,0,1-.08008,1.33984l-26.99951,46.76465a63.91234,63.91234,0,0,0-9.59571-5.79883l-41.60644-20.33057V298.46a8.55882,8.55882,0,0,0-4.21973-7.3457l-21.26269-12.3711a8.42068,8.42068,0,0,0-8.51807-.0166,8.52892,8.52892,0,0,0-2.59973,2.3125l-12.5874-6.15429c-.0293-.01368-.0575-.0293-.087-.04248l-5.55591-2.71631a16.618,16.618,0,0,1-9.25928-14.82618V232.7417l.55323-.43262a55.134,55.134,0,0,0,21.33642-43.73926V171.81348a21.87516,21.87516,0,0,0,18.00586-17.582l1.23389-6.63721a23.12181,23.12181,0,0,0-19.23975-27.08838V117.9043l1.48487-3.32618a12.21814,12.21814,0,0,0,.10546-9.6958V59.27979A59.347,59.347,0,0,0,273.93994,0H238.06982A59.34688,59.34688,0,0,0,178.79,59.27979v44.66943c-.03.06445-.06763.124-.09668.189a12.2756,12.2756,0,0,0,.00049,9.999l1.67627,3.75537v2.61328a23.12168,23.12168,0,0,0-19.23975,27.08789l1.23389,6.63818a21.8752,21.8752,0,0,0,18.00586,17.58155v16.75634a55.13271,55.13271,0,0,0,21.33008,43.73389v25.2666a16.39671,16.39671,0,0,1-9.25684,14.8252l-5.0271,2.45605-.0072.00391-12.64319,6.17724a8.53259,8.53259,0,0,0-2.59546-2.30615,8.42288,8.42288,0,0,0-8.52051.01758l-21.27539,12.37891a8.552,8.552,0,0,0-4.20459,7.33691v.46533L96.56445,319.25488A63.8756,63.8756,0,0,0,60.93994,376.2998V508.5a3.5,3.5,0,1,0,7,0V467.40332h56.68018V508.5a3.5,3.5,0,0,0,7,0V401.80957a26.49252,26.49252,0,0,1,11.9895-22.15771l.02649-.01709a26.33942,26.33942,0,0,1,14.484-4.3252H353.87988a26.49524,26.49524,0,0,1,25.18921,18.335,28.39873,28.39873,0,0,0-11.74585,7.63965A20.99884,20.99884,0,1,0,348,430.5c.56262,0,1.12207-.02881,1.6792-.07324l-22.26758,38.56836a28.66727,28.66727,0,0,0,49.65332,28.667l3.31494-5.7417V508.5a3.5,3.5,0,0,0,7,0V479.79639l7.15686-12.396h49.52332V508.5a3.5,3.5,0,0,0,7,0V376.2998a63.07335,63.07335,0,0,0-4.6709-23.853l33.52148-58.061a1.50508,1.50508,0,0,1,1.12061-.73828l8.44238-1.01269a8.49256,8.49256,0,0,0,6.89112-5.30665l15.03613-37.91943A8.54923,8.54923,0,0,0,507.74951,238.91406ZM331.62988,127.61816a16.13267,16.13267,0,0,1,12.35791,18.69629l-1.23388,6.63721a14.87513,14.87513,0,0,1-11.124,11.727ZM180.37012,164.67871a14.87519,14.87519,0,0,1-11.124-11.72656l-1.23388-6.63819a16.13252,16.13252,0,0,1,12.35791-18.6958ZM138.16992,374.916a33.47118,33.47118,0,0,0-13.5498,26.89355v58.59375H67.93994V376.2998a56.83164,56.83164,0,0,1,31.69678-50.75488l38.5332-18.8291Zm31.26026-6.60645H158.12012a33.31328,33.31328,0,0,0-12.9502,2.60645V298.46a1.517,1.517,0,0,1,.74024-1.29492L167.168,284.7959a1.468,1.468,0,0,1,1.50976-.00293,1.44992,1.44992,0,0,1,.75245,1.29687ZM185.79,59.27979A52.339,52.339,0,0,1,238.06982,7h35.87012a52.33913,52.33913,0,0,1,52.28027,52.27979V98.12207c-.34667-.12988-.69653-.25391-1.05712-.353-15.00293-4.123-43.72413-11.06543-67.50977-11.2373a228.28669,228.28669,0,0,0-71.53369,10.94971c-.11255.03613-.21851.08642-.32959.12548Zm-.70557,47.71337a5.16529,5.16529,0,0,1,3.17578-2.84668,221.19248,221.19248,0,0,1,67.73633-10.6206c.53467,0,1.07129.00195,1.606.00586,22.98633.166,51.0332,6.95508,65.70557,10.9873a5.26189,5.26189,0,0,1,3.36865,2.82764,5.17144,5.17144,0,0,1,.04638,4.37793l-1.79248,4.01562c-.012.02686-.0249.05323-.03613.08106l-1.83545,4.11133a14.90991,14.90991,0,0,1-16.66846,8.45556h-.00048l-29.34961-6.31836a99.30705,99.30705,0,0,0-42.07617.001l-29.34913,6.31738a14.90673,14.90673,0,0,1-16.66894-8.45556l-3.86084-8.64893A5.19886,5.19886,0,0,1,185.08447,106.99316Zm2.28565,81.57666V168.6123l.00049-.00488-.00049-.00488V129.59766a22.02621,22.02621,0,0,0,15.17383,6.11718,21.58139,21.58139,0,0,0,4.54394-.48339l29.34961-6.31788a92.37143,92.37143,0,0,1,39.13037-.00048l29.34961,6.31836V135.231a21.91833,21.91833,0,0,0,19.7124-5.63965v39.01123l-.00049.00488.00049.00488v19.95752a48.17953,48.17953,0,0,1-18.645,38.22266l-11.34472,8.86768V218a30.36356,30.36356,0,0,0-23.44239-29.70312,15.36718,15.36718,0,0,0,.20411-2.38526v-4.02637a3.5,3.5,0,1,0-7,0v4.02637a8.40186,8.40186,0,0,1-16.80372,0v-4.02637a3.5,3.5,0,1,0-7,0v4.02637a15.36718,15.36718,0,0,0,.20411,2.38526A30.36356,30.36356,0,0,0,217.35986,218v17.65967l-11.34668-8.86914A48.17689,48.17689,0,0,1,187.37012,188.56982ZM287.64014,218v23.13135l-8.124,6.3501A36.35226,36.35226,0,0,1,257.25,255.15039h-2.5a36.35264,36.35264,0,0,1-22.26465-7.66748l-8.12549-6.35156V218a23.39228,23.39228,0,0,1,19.147-23.11572,15.35289,15.35289,0,0,0,24.98632,0A23.39228,23.39228,0,0,1,287.64014,218Zm-92.12256,60.68457a23.35152,23.35152,0,0,0,13.18262-21.11426V237.77539L228.17627,252.999A43.38352,43.38352,0,0,0,254.75,262.15039h2.5a43.38319,43.38319,0,0,0,26.5752-9.15283l18.915-14.78467V257.2998a23.66507,23.66507,0,0,0,13.18262,21.11426l.97656.47754a94.93059,94.93059,0,0,1-121.80127-.00195Zm140.05224,89.625H176.43018V288.01025l11.81543-5.77295a101.977,101.977,0,0,0,135.50488.00391l11.81933,5.77832Zm31.26026,2.60742a33.39964,33.39964,0,0,0-12.9502-2.60742H342.56982V286.08984a1.50444,1.50444,0,0,1,2.25977-1.29492l21.24512,12.36133a1.52385,1.52385,0,0,1,.75537,1.30371Zm7,3.9917V306.71582L412.36084,325.544a56.84078,56.84078,0,0,1,9.14673,5.61572l-35.21924,61.00146c-.10742.00782-.21484.02246-.32239.03125A33.39614,33.39614,0,0,0,373.83008,374.90869ZM348,423.5a14,14,0,1,1,13.98071-14.37988l-7.32129,12.68066A13.84936,13.84936,0,0,1,348,423.5Zm23.00244,70.66211a21.667,21.667,0,0,1-37.52832-21.667l36.12647-62.57227a21.52339,21.52339,0,0,1,13.15625-10.0957c.39038-.10449.78259-.19141,1.175-.27442.01893-.00293.03736-.001.0564-.00488.044-.0083.08252-.02734.12573-.0376a21.66709,21.66709,0,0,1,23.0149,32.07959Zm73.05762-33.76172H398.57812l14.61329-25.31055a28.47821,28.47821,0,0,0,2.86377-21.75293,28.9719,28.9719,0,0,0-1.88794-5.08007l27.60791-47.81836a56.18039,56.18039,0,0,1,2.28491,15.86132Zm60.834-213.57178-15.03613,37.91944a1.49826,1.49826,0,0,1-1.2168.93554l-8.44384,1.0127a8.54253,8.54253,0,0,0-6.34913,4.18945L409.838,401.75488a28.78479,28.78479,0,0,0-15.754-9.0957L458.09424,281.79a8.53959,8.53959,0,0,0,.45312-7.59375l-3.34521-7.81836a1.49627,1.49627,0,0,1,.20312-1.52051L480.72559,232.876a1.50928,1.50928,0,0,1,1.92675-.36817l21.59717,12.46875A1.50891,1.50891,0,0,1,504.894,246.82861ZM266.73828,216.04248a28.472,28.472,0,0,1-11.4541,2.11377,28.17362,28.17362,0,0,1-10.021-2.11328,3.5,3.5,0,1,0-2.6582,6.47558,35.1486,35.1486,0,0,0,12.50244,2.63575q.45338.011.90479.01123a35.09606,35.09606,0,0,0,13.38134-2.64649,3.49987,3.49987,0,1,0-2.65527-6.47656ZM166,388.5a21,21,0,1,0,21,21A21.0239,21.0239,0,0,0,166,388.5Zm0,35a14,14,0,1,1,14-14A14.01572,14.01572,0,0,1,166,423.5Zm114.17432,17.4082q-4.85889-2.79345-9.70557-5.60937-2.42432-1.40479-4.84766-2.80664l.687-1.61914c2.40429-5.65332,4.89062-11.499,7.15234-17.33887a7.41911,7.41911,0,0,0-.81494-6.9043,7.90642,7.90642,0,0,0-6.53906-3.36035c-.0503,0-.10206,0-.15235.002a8.13682,8.13682,0,0,0-5.33008,2.51563q-9.53392,9.07178-19.10693,18.10156-5.62573,5.31885-11.24756,10.64063a7.88528,7.88528,0,0,0-2.52734,6.58105,7.77611,7.77611,0,0,0,3.81494,5.81445c4.07861,2.4629,8.273,4.8545,12.3291,7.168q1.24952.71339,2.49756,1.42578-2.25221,5.35987-4.47754,10.7295l-.82617,1.97558c-.8501,2.02637-1.729,4.12207-2.54395,6.22852a7.49176,7.49176,0,0,0,3.793,9.49023,7.70955,7.70955,0,0,0,3.33643.78711,8.186,8.186,0,0,0,5.70361-2.52539l5.92139-5.60254q12.22559-11.56641,24.4414-23.14355a7.8332,7.8332,0,0,0,2.51709-6.6211A7.95806,7.95806,0,0,0,280.17432,440.9082Zm-3.25977,7.47168q-12.20727,11.57959-24.43506,23.13672l-5.92187,5.60352c-.76319.72168-.957.62988-1.1792.5205a.52123.52123,0,0,1-.314-.66308c.77979-2.01465,1.63916-4.06445,2.47071-6.0459l.83447-1.99512q2.71509-6.53174,5.45654-13.05371a3.9657,3.9657,0,0,0-1.791-5.19336q-2.33643-1.34325-4.68116-2.67675c-4.019-2.293-8.1748-4.66309-12.1792-7.08106a.90436.90436,0,0,1-.47314-.57422.9852.9852,0,0,1,.38232-.74609q5.61694-5.32177,11.24219-10.63574,9.57129-9.04835,19.12256-18.11621a3.05408,3.05408,0,0,1,.77783-.585.85053.85053,0,0,1,.65967.334.38694.38694,0,0,1,.04688.39746c-2.22071,5.7334-4.68409,11.52637-7.06641,17.12793l-1.68359,3.96387a4.01345,4.01345,0,0,0,1.77392,5.20605q3.50391,2.02294,7.00244,4.05176,4.85963,2.81542,9.7251,5.62109a1.11034,1.11034,0,0,1,.61377.68848A.96626.96626,0,0,1,276.91455,448.37988ZM235.0542,51.3418c3.28369,1.98242,6.65674,3.90625,9.91846,5.7666q.74633.42553,1.49218.85156-1.6919,4.032-3.36718,8.07129l-.667,1.5957c-.68408,1.63086-1.3916,3.31739-2.04882,5.0166a6.82134,6.82134,0,0,0,6.33642,9.19336,7.41281,7.41281,0,0,0,5.09326-2.21337l4.12452-3.90186q10.15136-9.60351,20.29345-19.21631a6.97821,6.97821,0,0,0,2.2334-5.90283,7.07734,7.07734,0,0,0-3.61523-5.28027q-3.958-2.27564-7.90577-4.56885-1.63549-.94849-3.27246-1.89551l.315-.7417c1.936-4.55176,3.938-9.25879,5.76123-13.96631a6.65134,6.65134,0,0,0-.731-6.18994,7.04259,7.04259,0,0,0-5.82178-2.99707c-.04687.00049-.09619.00049-.14551.002a7.20557,7.20557,0,0,0-4.73632,2.21192q-7.62525,7.25463-15.28223,14.47754-4.56519,4.31616-9.12744,8.63525a7.01927,7.01927,0,0,0-2.24219,5.86231A6.93446,6.93446,0,0,0,235.0542,51.3418Zm3.66162-5.97119q4.55785-4.31763,9.12158-8.6294,7.52857-7.11621,15.041-14.24805c-1.6919,4.31641-3.54248,8.667-5.33545,12.8833l-1.35449,3.18995a3.88717,3.88717,0,0,0,1.71582,5.04443q2.76563,1.59667,5.52832,3.19922,3.96019,2.29467,7.92529,4.58056c.021.01221.03955.02344.05615.03467l-.002.002Q261.27759,61.041,251.12549,70.63672l-3.875,3.66553c.52783-1.32715,1.08935-2.666,1.63525-3.96827l.67578-1.61523q2.18262-5.25073,4.38575-10.4917a3.88485,3.88485,0,0,0-1.729-5.03906q-1.88524-1.084-3.77734-2.16016c-3.21143-1.83154-6.53174-3.7251-9.728-5.65381ZM211.8125,149.74316a28.15948,28.15948,0,0,1,10.02051-2.11279,28.47379,28.47379,0,0,1,11.4541,2.11328,3.49987,3.49987,0,1,0,2.65527-6.47656,35.21922,35.21922,0,0,0-26.78808.00049,3.5,3.5,0,0,0,2.6582,6.47558Zm10.73633,3.876a3.49986,3.49986,0,0,0-3.5,3.5v7.67822a3.5,3.5,0,0,0,7,0v-7.67822A3.49987,3.49987,0,0,0,222.54883,153.61914Zm65.03222,0a3.49987,3.49987,0,0,0-3.5,3.5v7.67822a3.5,3.5,0,1,0,7,0v-7.67822A3.49986,3.49986,0,0,0,287.58105,153.61914Zm-10.73681-3.876a28.16646,28.16646,0,0,1,10.021-2.11279,28.47843,28.47843,0,0,1,11.45411,2.11328,3.49987,3.49987,0,0,0,2.65527-6.47656,35.22054,35.22054,0,0,0-26.78857.00049,3.5,3.5,0,1,0,2.6582,6.47558Z"/></svg>