<svg xmlns="http://www.w3.org/2000/svg" data-name="Layer 1" viewBox="0 0 512 512"><path fill="#d4423d" d="M256.00011,251.41534h-.00022A105.00172,105.00172,0,0,1,150.97522,146.43659v-8.47391A40.8616,40.8616,0,0,1,191.84575,97.11h128.3085a40.8616,40.8616,0,0,1,40.87053,40.85266v8.47391A105.00172,105.00172,0,0,1,256.00011,251.41534Z"/><path fill="#f76263" d="M461.55957,501.999V377.83518A80,80,0,0,0,406.687,301.88379l-86.10752-28.48743a20,20,0,0,1-13.71814-18.98785V222.13818H205.13867v32.27033a20,20,0,0,1-13.71814,18.98785L105.313,301.88379a80,80,0,0,0-54.87258,75.95139V501.999a10,10,0,0,0,10,10H451.55957A10,10,0,0,0,461.55957,501.999Z"/><path fill="#fdba5b" d="M249,512V376.83057a60.001,60.001,0,0,1,18.4939-43.32764l65.467-56.00928,57.918,19.16162v.37256a173.94283,173.94283,0,0,0-2.26772,128.93291,34.87094,34.87094,0,0,1,2.26772,12.35529V512Z"/><rect width="141.88" height="42" x="249" y="449.65" fill="#fd7b4f"/><path fill="#fd7b4f" d="M249.00006,428.64551h140.5c-.2616-.9043-.5542-1.80127-.88879-2.68457a174.65729,174.65729,0,0,1-9.83387-39.31543H249.00006Z"/><path fill="#e68d37" d="M262.99957,338.32373a59.9954,59.9954,0,0,0-13.99951,38.50684V512h27.999V376.83057A59.99528,59.99528,0,0,0,262.99957,338.32373Z"/><rect width="27.999" height="42" x="249" y="449.65" fill="#f04f2a"/><rect width="27.999" height="42" x="249" y="386.646" fill="#f04f2a"/><path fill="#fdba5b" d="M262.999,512V376.83057a60.001,60.001,0,0,0-18.49389-43.32764l-65.467-56.00928-57.918,19.16162v.37256a174.22924,174.22924,0,0,1,13.55005,67.48145,174.23694,174.23694,0,0,1-11.28234,61.45146,34.87115,34.87115,0,0,0-2.26771,12.35529V512Z"/><path fill="#fd7b4f" d="M123.38782,425.96094c-.3346.8833-.6272,1.78027-.8888,2.68457h140.5v-42H133.22168A174.65465,174.65465,0,0,1,123.38782,425.96094Z"/><circle cx="234.999" cy="407.646" r="7" fill="#343c4a"/><rect width="141.879" height="42" x="121.12" y="449.65" fill="#fd7b4f"/><circle cx="234.999" cy="470.646" r="7" fill="#343c4a"/><path fill="#f7bcaa" d="M197.94556 269.75781a76.97119 76.97119 0 0 0 116.10888 0 19.99 19.99 0 0 1-7.19311-15.34912V222.13818H205.13867v32.27051A19.99 19.99 0 0 1 197.94556 269.75781zM121.12012 511.999H60.44043a10 10 0 0 1-10-10V465.85047h70.67969zM390.879 465.85047h70.67968l.00076 36.14842a10 10 0 0 1-10 10.00013h-60.6805z"/><path fill="#e3887b" d="M205.13867,222.13818v14.63233a67.30046,67.30046,0,0,0,19.51709,21.91308l9.20716,6.61963a61.90237,61.90237,0,0,0,36.137,11.64307h.00006a61.90246,61.90246,0,0,0,36.137-11.64307l2.81269-2.022a19.90584,19.90584,0,0,1-2.08832-8.87256V222.13818Z"/><path fill="#e68979" d="M335.63767,165.18758h0V120.65215H341.857a19.16354,19.16354,0,0,1,19.16774,19.15932v0A25.38155,25.38155,0,0,1,335.63767,165.18758Z"/><path fill="#e68979" d="M150.97522,120.65215h.01118a25.376,25.376,0,0,1,25.376,25.376v0a19.15937,19.15937,0,0,1-19.15937,19.15937h-6.22783a0,0,0,0,1,0,0V120.65215A0,0,0,0,1,150.97522,120.65215Z" transform="rotate(-180 163.669 142.92)"/><path fill="#f9bda9" d="M335.63765,163.87919v5.86757a73.04586,73.04586,0,0,1-30.4212,59.31531l-9.99375,7.18239a67.20851,67.20851,0,0,1-39.22278,12.63144h0a67.20856,67.20856,0,0,1-39.22272-12.63139l-9.99344-7.18216a73.04583,73.04583,0,0,1-30.42126-59.31512l0-5.868V101.92256L335.63765,97.11Z"/><path fill="#ccc" d="M310.74561,124.86621a3.47733,3.47733,0,0,1-1.32569-.26269,32.9857,32.9857,0,0,0-13.23877-2.44141,32.56026,32.56026,0,0,0-11.582,2.44141,3.50024,3.50024,0,0,1-2.65723-6.47657,39.57956,39.57956,0,0,1,14.062-2.96289,40.13043,40.13043,0,0,1,16.07031,2.96289,3.50041,3.50041,0,0,1-1.32861,6.73926Z"/><path fill="#343c4b" d="M297.00879 145.68359a3.50017 3.50017 0 0 1-3.5-3.5v-8.73828a3.5 3.5 0 0 1 7 0v8.73828A3.50017 3.50017 0 0 1 297.00879 145.68359zM228.728 124.86621a3.47733 3.47733 0 0 1-1.32569-.26269 32.978 32.978 0 0 0-13.23877-2.44141 32.56026 32.56026 0 0 0-11.582 2.44141 3.50024 3.50024 0 0 1-2.65722-6.47657 39.57946 39.57946 0 0 1 14.062-2.96289 40.12732 40.12732 0 0 1 16.07031 2.96289 3.50041 3.50041 0 0 1-1.32861 6.73926z"/><path d="M214.99121,145.68359a3.50017,3.50017,0,0,1-3.5-3.5v-8.73828a3.5,3.5,0,0,1,7,0v8.73828A3.50017,3.50017,0,0,1,214.99121,145.68359Z"/><path fill="#e68979" d="M256 216.42773a39.802 39.802 0 0 1-16.93213-3.80761A3.49989 3.49989 0 1 1 242.064 206.294a32.55143 32.55143 0 0 0 27.87159 0 3.5001 3.5001 0 0 1 2.99707 6.32617 39.80909 39.80909 0 0 1-16.812 3.80761zM269.7893 166.5767v6.97015a13.77972 13.77972 0 0 1-13.77972 13.77972h-.0191a13.77972 13.77972 0 0 1-13.77972-13.77972V166.5767a3 3 0 0 1 3-3H266.7893A3 3 0 0 1 269.7893 166.5767z"/><path fill="#d4423d" d="M255.98254,3.499h.035a79.62012,79.62012,0,0,1,79.62012,79.62012v8.323a0,0,0,0,1,0,0H176.36242a0,0,0,0,1,0,0v-8.323A79.62012,79.62012,0,0,1,255.98254,3.499Z"/><rect width="183.431" height="22.783" x="164.285" y="83.848" fill="#fb615f" rx="4.341"/><rect width="24.493" height="79.91" x="214.351" y="11.537" fill="#fb615f" rx="12.245" transform="rotate(-29.989 226.598 51.492)"/><rect width="24.493" height="79.91" x="271.853" y="11.537" fill="#fb615f" rx="12.245" transform="rotate(-150.011 284.1 51.492)"/><ellipse cx="256" cy="90.543" fill="#ffbc51" rx="23.782" ry="23.771"/><path d="M256.00977,190.82617a17.29855,17.29855,0,0,0,17.27929-17.27929v-6.96973a3.5,3.5,0,0,0-7,0v6.96973a10.28906,10.28906,0,0,1-20.57812,0v-6.96973a3.5,3.5,0,0,0-7,0v6.96973A17.30271,17.30271,0,0,0,256.00977,190.82617ZM269.93555,206.294a32.55143,32.55143,0,0,1-27.87159,0,3.49989,3.49989,0,1,0-2.99609,6.32617A39.802,39.802,0,0,0,256,216.42773h.12061a39.80909,39.80909,0,0,0,16.812-3.80761,3.5001,3.5001,0,0,0-2.99707-6.32617Zm-39.87891-88.167a40.12732,40.12732,0,0,0-16.07031-2.96289,39.57946,39.57946,0,0,0-14.062,2.96289,3.50024,3.50024,0,0,0,2.65722,6.47657,32.56026,32.56026,0,0,1,11.582-2.44141,32.978,32.978,0,0,1,13.23877,2.44141,3.49969,3.49969,0,1,0,2.6543-6.47657Zm-15.06543,11.81836a3.50018,3.50018,0,0,0-3.5,3.5v8.73828a3.5,3.5,0,0,0,7,0v-8.73828A3.50017,3.50017,0,0,0,214.99121,129.94531ZM465.06006,377.83984a83.37891,83.37891,0,0,0-57.271-79.2832l-58.27826-19.2749L334.05957,274.168c-.01721-.00586-.03485-.0083-.05206-.01367l-12.32782-4.07715a16.50435,16.50435,0,0,1-5.29444-2.92529c-.011-.00977-.01861-.022-.02978-.03174-.02753-.02393-.05933-.03907-.0874-.062a16.46544,16.46544,0,0,1-5.90821-12.648V240.32129A108.57243,108.57243,0,0,0,364.52,146.44043v-6.43652c.00043-.06446.00488-.12793.00488-.19239s-.00433-.12793-.00488-.19238V137.96a44.09051,44.09051,0,0,0-14.04486-32.35791,7.77166,7.77166,0,0,0,.745-3.312V88.19043a7.85444,7.85444,0,0,0-7.85009-7.84082h-4.28223a83.328,83.328,0,0,0-26.21405-57.85254,15.61576,15.61576,0,0,0-7.04962-8.6416,15.78877,15.78877,0,0,0-7.17633-2.083,83.13455,83.13455,0,0,0-85.29328-.001c-.21124-.00878-.42193-.02148-.6344-.02148A15.75168,15.75168,0,0,0,197.5293,23.418c-.07331.27344-.12006.54883-.17853.82373a82.29687,82.29687,0,0,0-24.42243,56.10791h-4.29846a7.85444,7.85444,0,0,0-7.85009,7.84082V102.29a7.77166,7.77166,0,0,0,.74505,3.312A44.09051,44.09051,0,0,0,147.48,137.96v1.65918c-.00055.06445-.00488.12793-.00488.19238s.00445.12793.00488.19239v6.43652a108.57243,108.57243,0,0,0,54.16016,93.88086v14.08887a16.46672,16.46672,0,0,1-5.9104,12.6499c-.02716.02246-.058.03662-.08472.06006-.0108.00927-.01813.021-.02881.03076a16.50006,16.50006,0,0,1-5.29541,2.92627L177.959,274.16553l-.02.00537-16.58007,5.48535-57.14844,18.90137a83.377,83.377,0,0,0-57.27051,79.28222V502l.00049.00488V508.5a3.5,3.5,0,0,0,7,0V469.35059h63.67969V508.5a3.5,3.5,0,0,0,7,0V495.15039H259.499V508.5a3.5,3.5,0,0,0,7,0V495.15039H387.37891v9.68848l.001.00976V508.5a3.5,3.5,0,0,0,7,0V469.35059h63.67871l.001,39.14941a3.5,3.5,0,0,0,7,0l-.00012-6.49365L465.06006,502ZM303.17871,226.2168l-10.002,7.18164a63.68849,63.68849,0,0,1-74.35547-.001l-9.99951-7.18066A69.68227,69.68227,0,0,1,179.85986,169.75v-4.53809c.00006-.0083.00244-.01611.00244-.02441V120.65234c0-.0083-.00238-.01611-.00244-.02441V110.12988h57.18573a27.21833,27.21833,0,0,0,37.90882,0h57.18573v10.49805c-.00006.0083-.00244.01611-.00244.02441V165.1875c0,.0083.00238.01611.00244.02441V169.75A69.68314,69.68314,0,0,1,303.17871,226.2168Zm6.00092,43.66992a73.41279,73.41279,0,0,1-106.359,0,23.453,23.453,0,0,0,5.81952-15.47656V234.7041l6.09765,4.37891a70.66913,70.66913,0,0,0,82.52393,0l6.09814-4.37891v19.70606A23.45194,23.45194,0,0,0,309.17963,269.88672ZM235.71826,90.543A20.28174,20.28174,0,1,1,256,110.81445,20.29945,20.29945,0,0,1,235.71826,90.543Zm74.6416,141.59814v-2.5957A76.71389,76.71389,0,0,0,339.14014,169.75v-1.28223a28.83645,28.83645,0,0,0,17.51672-8.8789A101.60988,101.60988,0,0,1,310.35986,232.14111ZM357.52,139.91846a21.91317,21.91317,0,0,1-18.37988,21.48925V124.15234h2.71679a15.67853,15.67853,0,0,1,15.66309,15.563Zm-4.54486-19.8418a22.52955,22.52955,0,0,0-11.11823-2.92432h-2.71679v-7.02246h4.23a7.86266,7.86266,0,0,0,1.53009-.15185A37.32017,37.32017,0,0,1,352.97516,120.07666Zm-9.605-32.72705a.84629.84629,0,0,1,.85009.84082V102.29a.84609.84609,0,0,1-.85009.83984H280.19006A27.08556,27.08556,0,0,0,283.28174,90.543a27.38724,27.38724,0,0,0-.1933-3.19336ZM311.58984,35.37305a15.91061,15.91061,0,0,0,1.29236-2.84522,76.33332,76.33332,0,0,1,19.18488,47.82178H285.61023ZM297.97021,18.75a8.77414,8.77414,0,0,1,4.36133,1.17188,8.68381,8.68381,0,0,1,4.07239,5.29541l.01111.04443a8.679,8.679,0,0,1-.88574,6.60742L279.563,76.82324A27.43238,27.43238,0,0,0,266.07642,65.208l24.30249-42.084A8.79673,8.79673,0,0,1,297.97021,18.75ZM256.02,7a76.00421,76.00421,0,0,1,33.02808,7.53027,15.73246,15.73246,0,0,0-4.72876,5.08985L259.01361,63.44141a27.12364,27.12364,0,0,0-7.23773.1582l-25.40723-43.9834a15.71137,15.71137,0,0,0-4.18536-4.70068A76.039,76.039,0,0,1,256.02,7ZM204.29053,25.23145A8.75229,8.75229,0,0,1,212.72021,18.75a8.79444,8.79444,0,0,1,7.58887,4.37109l24.56726,42.52979a27.44458,27.44458,0,0,0-13.07977,12.33154l-26.635-46.11133A8.69207,8.69207,0,0,1,204.29053,25.23145Zm-6.071,8.332a15.98609,15.98609,0,0,0,.87964,1.80761L225.0799,80.34961H179.92841A75.26313,75.26313,0,0,1,198.21948,33.56348Zm-30.43969,54.627a.84629.84629,0,0,1,.85009-.84082h60.28168a27.38724,27.38724,0,0,0-.1933,3.19336,27.08556,27.08556,0,0,0,3.09168,12.58691H168.62988a.84609.84609,0,0,1-.85009-.83984Zm-.68,21.7876a7.86266,7.86266,0,0,0,1.53009.15185h4.23v7.02246h-2.72509a22.51317,22.51317,0,0,0-11.1081,2.9209A37.31359,37.31359,0,0,1,167.09979,109.978ZM154.48,139.71533a15.67422,15.67422,0,0,1,15.65479-15.563h2.72509v37.25635A21.90684,21.90684,0,0,1,154.48,139.91846Zm.86359,19.877a28.81562,28.81562,0,0,0,17.51629,8.87646V169.75a76.71254,76.71254,0,0,0,28.78028,59.79492v2.59619A101.61107,101.61107,0,0,1,155.34357,159.59229Zm37.176,117.13134a23.58445,23.58445,0,0,0,4.94275-2.30273,80.43964,80.43964,0,0,0,117.07581,0,23.584,23.584,0,0,0,4.94287,2.30273l6.48456,2.14453-60.75068,51.97266c-.04931.042-.09765.08594-.14453.13086a63.04342,63.04342,0,0,0-9.08844,10.92334,63.05441,63.05441,0,0,0-9.0556-10.91943c-.04736-.0459-.09619-.08985-.146-.13184l-60.75042-51.97363ZM123.443,415.04492c-.07354.23535-.1485.4707-.223.70606q-.57623,1.82518-1.19611,3.63427c-.11761.34424-.23217.68946-.35205,1.03321q-.75228,2.1621-1.55755,4.30322c-.03961.10449-.07282.21094-.11151.31592-.1388.377-.27613.75635-.40631,1.15039a38.21922,38.21922,0,0,0-1.97632,12.12842v24.03418H53.93994V377.83984a76.38763,76.38763,0,0,1,52.46924-72.63672l12.5636-4.15527a169.50449,169.50449,0,0,1,12.19714,63.458,170.7125,170.7125,0,0,1-1.39862,21.59668c-.005.03174-.01666.06055-.02081.09277A171.35847,171.35847,0,0,1,123.443,415.04492Zm136.056,73.10547H124.62012v-35H259.499Zm0-42H124.62012v-7.834a31.19588,31.19588,0,0,1,.62231-6.1709H259.499Zm0-21.00488H127.42432c.08752-.24024.16693-.4834.25341-.72412q.48541-1.34839.94617-2.70313c.14075-.4126.28375-.82373.42139-1.2373q.61817-1.85083,1.194-3.71289c.02289-.07422.0473-.148.07013-.22217a176.66779,176.66779,0,0,0,5.9707-26.40039H259.499Zm0-42H137.16626a177.94383,177.94383,0,0,0,1.00366-18.63184,176.47285,176.47285,0,0,0-12.52637-65.668l40.7342-13.47607,11.88641-3.93115,63.88965,54.65918A56.77,56.77,0,0,1,259.499,376.83008Zm.44812-34.33838a56.04492,56.04492,0,0,1,9.89368-12.7124l63.89056-54.65821,17.40058,5.75489,35.225,11.6582a177.25705,177.25705,0,0,0-11.52258,84.2959H266.499v-6.31543A63.64356,63.64356,0,0,0,259.94714,348.80713Zm115.77271,41.33838a176.73563,176.73563,0,0,0,7.26056,30.418c.11133.33349.22705.66552.34033.99853q.5007,1.46852,1.02539,2.93018c.07813.21728.1496.43652.22858.65332H266.499v-35Zm11.66,75.69531-.001.00977v22.2998H266.499v-35H387.37988Zm0-19.69043H266.499V432.14551h120.259a31.21262,31.21262,0,0,1,.62182,6.1748Zm70.68018,16.2002H394.37988V438.32031a38.14463,38.14463,0,0,0-1.97644-12.12988c-.16626-.50391-.33807-.99219-.51867-1.46875q-.82873-2.18847-1.59351-4.40332c-.08612-.24756-.16852-.49609-.25348-.74414q-.68115-1.99073-1.31616-3.999c-.04273-.13575-.08588-.271-.12824-.40625a171.39424,171.39424,0,0,1-6.34484-28.97364c-.00361-.02783-.0138-.05273-.01807-.08056a170.21328,170.21328,0,0,1,10.79828-85.0669l12.56158,4.1543a76.38955,76.38955,0,0,1,52.46973,72.63769ZM234.999,397.14551a10.5,10.5,0,1,0,10.5,10.5A10.5118,10.5118,0,0,0,234.999,397.14551Zm0,14a3.5,3.5,0,1,1,3.5-3.5A3.50425,3.50425,0,0,1,234.999,411.14551Zm0,49a10.5,10.5,0,1,0,10.5,10.5A10.5118,10.5118,0,0,0,234.999,460.14551Zm0,14a3.5,3.5,0,1,1,3.5-3.5A3.50425,3.50425,0,0,1,234.999,474.14551Zm62.00977-344.2002a3.50017,3.50017,0,0,0-3.5,3.5v8.73828a3.5,3.5,0,0,0,7,0v-8.73828A3.50018,3.50018,0,0,0,297.00879,129.94531Zm16.97705-7.25293a3.4998,3.4998,0,0,0-1.91162-4.56543,40.13043,40.13043,0,0,0-16.07031-2.96289,39.57956,39.57956,0,0,0-14.062,2.96289,3.50024,3.50024,0,0,0,2.65723,6.47657,32.56026,32.56026,0,0,1,11.582-2.44141,32.9857,32.9857,0,0,1,13.23877,2.44141,3.496,3.496,0,0,0,4.56592-1.91114Z"/></svg>