<svg xmlns="http://www.w3.org/2000/svg" data-name="Layer 1" viewBox="0 0 512 512"><path fill="#343c4a" d="M175.62769,107.499V89.34678a12.84254,12.84254,0,0,0-5.71184-10.681l0,0A71.48841,71.48841,0,0,1,139.4797,33.08228l-3.49-17.64271A10,10,0,0,1,145.79961,3.499H278.62953a57.74278,57.74278,0,0,1,57.74278,57.74279V107.499Z"/><path fill="#57aafe" d="M447.55957,501.999V340.31989a60,60,0,0,0-38.01-55.82508l-97.01835-38.21639a20,20,0,0,1-12.67-18.60836V194.7627H212.13892v32.90736a20,20,0,0,1-12.67,18.60836l-97.01846,38.21639a60,60,0,0,0-38.01,55.8251V501.999a10,10,0,0,0,10,10H437.55957A10,10,0,0,0,447.55957,501.999Z"/><path fill="#f9beac" d="M312.53121,246.27842a20,20,0,0,1-12.67-18.60836V194.7627H212.13892v32.90736a20,20,0,0,1-12.67,18.60836l56.53115,56Z"/><path fill="#416bd0" d="M447.55957 501.999V340.31982a60.00031 60.00031 0 0 0-38.01-55.82519l-.78967-.311-16.22925 35.72022A96.58508 96.58508 0 0 0 383.88 359.85645V511.999h53.67957A9.99987 9.99987 0 0 0 447.55957 501.999zM119.46948 319.90381l-16.22937-35.72022-.78967.311a60.00031 60.00031 0 0 0-38.01 55.82519V501.999a10 10 0 0 0 10 10H128.12V359.85645A96.58686 96.58686 0 0 0 119.46948 319.90381z"/><path fill="#e58a7b" d="M279.06348,248.55176l23.33374-11.15283a19.96113,19.96113,0,0,1-2.536-9.729V194.7627H212.13892v26.10742a74.33918,74.33918,0,0,0,19.82995,13.83593l28.96765,13.84571A21.01965,21.01965,0,0,0,279.06348,248.55176Z"/><path fill="#f9beac" d="M336.37234,146.5396v0a74.4442,74.4442,0,0,1-42.341,67.1664l-28.96791,13.84565a21.01725,21.01725,0,0,1-18.12683,0l-28.96771-13.84545A74.44421,74.44421,0,0,1,175.62766,146.54V87.499l7-13.99982,35.69058-28,118.0541,28Z"/><path fill="#ff7b4f" d="M324.70679,251.07471l-12.17554-4.79639a19.96262,19.96262,0,0,1-7.51306-5.21338L256,290.083l-49.01807-49.01807a19.96219,19.96219,0,0,1-7.51294,5.21338l-12.17578,4.79639,58.10021,58.1a15,15,0,0,0,21.21316,0Z"/><path fill="#f9beac" d="M64.44043,452.98354H128.12a0,0,0,0,1,0,0V511.999a0,0,0,0,1,0,0H74.44043a10,10,0,0,1-10-10V452.98354A0,0,0,0,1,64.44043,452.98354Z"/><path fill="#f9beac" d="M393.88,452.98354h53.67957a0,0,0,0,1,0,0V511.999a0,0,0,0,1,0,0H383.88a0,0,0,0,1,0,0V462.98354A10,10,0,0,1,393.88,452.98354Z" transform="rotate(180 415.72 482.491)"/><rect width="63.68" height="20.968" x="64.44" y="438.984" fill="#ff7b4f"/><path fill="#ff7b4f" d="M171.469,386.51741A27.21083,27.21083,0,0,1,158.5,363.52376V339.97054a53.30122,53.30122,0,0,0,14.58083-2.914,52.34373,52.34373,0,0,0,11.38955-5.62213,50.75852,50.75852,0,0,0,11.64261,5.79011,51.75345,51.75345,0,0,0,14.387,2.78865v23.51057a27.21118,27.21118,0,0,1-12.969,22.9938L184.5,394.74638Z"/><path fill="#343c4a" d="M175.49,87.499l12.70438-10.91364a52.61857,52.61857,0,0,1,45.508-11.49487L336.37,87.499l.00231-26.25721L254.14579,29.7166,175.62766,48.58707Z"/><path fill="#e58a7b" d="M268.70444,152.55136v6.67171a12.7012,12.7012,0,0,1-12.7012,12.7012h-.00648a12.7012,12.7012,0,0,1-12.7012-12.7012v-6.67171a3,3,0,0,1,3-3h19.40888A3,3,0,0,1,268.70444,152.55136Z"/><path fill="#f9f7f8" d="M508.47941,439.20849a68.976,68.976,0,0,1-12.99534,40.40734c-3.42428,4.76226-7.4379,2.07231-11.93411,5.8234-6.79511,5.669-14.69245,17.06135-23.32351,19.80848a69.68735,69.68735,0,0,1-42.07514,0c-7.04471-2.24222-13.60063-12.58046-19.46738-16.81434-6.07715-4.38573-11.41481-2.73248-15.79024-8.81754a68.976,68.976,0,0,1-12.99534-40.40734c0-7.22549,1.106-7.19268,3.15782-13.74151,2.30048-7.34235,5.79-21.15882,10.243-27.22385a69.44159,69.44159,0,0,1,34.09256-24.82722c6.8539-2.26951,14.18208,3.502,21.79717,3.502,7.17527,0,14.0958-5.90936,20.60488-3.88483a69.41419,69.41419,0,0,1,34.92007,24.71773c4.32283,5.7803.76423,12.25811,3.12491,19.23413S508.47941,431.43528,508.47941,439.20849Z"/><path fill="#343c4a" d="M436.83774 415.60438l-21.91267 15.92048A4 4 0 0 0 413.472 435.997l8.36989 25.75988a4 4 0 0 0 3.80423 2.76393h27.08554a4 4 0 0 0 3.80423-2.76393l8.36989-25.75988a4 4 0 0 0-1.45308-4.47214L441.54 415.60438A4 4 0 0 0 436.83774 415.60438zM460.98694 373.41309L441.54 387.54226a4 4 0 0 1-4.70231 0l-19.44694-14.12917a69.7219 69.7219 0 0 1 43.59619 0zM383.34973 398.14551l7.42811 22.86107a4 4 0 0 1-1.45307 4.47214l-19.447 14.12919a69.39009 69.39009 0 0 1 13.47192-41.4624zM382.88025 479.62549h24.03781a4 4 0 0 1 3.80422 2.76392l7.42811 22.86108a69.64027 69.64027 0 0 1-35.27014-25.625zM460.22742 505.25049l7.42811-22.86108a4 4 0 0 1 3.80422-2.76392h24.03769a69.6336 69.6336 0 0 1-35.27 25.625zM508.5 439.60791l-19.447-14.12919A4 4 0 0 1 487.6 421.00658l7.42811-22.86107A69.38405 69.38405 0 0 1 508.5 439.60791z"/><path fill="#e58a7b" d="M336.37239,135.57894h0V94.52927h5.7301A17.65977,17.65977,0,0,1,359.76224,112.189v0A23.38984,23.38984,0,0,1,336.37239,135.57894Z"/><path fill="#e58a7b" d="M152.23776,94.52927h.00008a23.38985,23.38985,0,0,1,23.38985,23.38985v.00006a17.65977,17.65977,0,0,1-17.65977,17.65977h-5.73016a0,0,0,0,1,0,0V94.52927A0,0,0,0,1,152.23776,94.52927Z" transform="rotate(180 163.933 115.054)"/><path d="M273.39746,390.23633a16.63411,16.63411,0,0,0-16.61523,16.61523v20.97412a16.61524,16.61524,0,0,0,33.23047,0V406.85156A16.63412,16.63412,0,0,0,273.39746,390.23633Zm9.61524,37.58935a9.61524,9.61524,0,0,1-19.23047,0V406.85156a9.61523,9.61523,0,0,1,19.23047,0Zm-72.33741-91.30713a48.32619,48.32619,0,0,1-13.416-2.60009,47.33692,47.33692,0,0,1-10.84131-5.39063,3.49983,3.49983,0,0,0-3.86719-.019,48.9358,48.9358,0,0,1-10.62842,5.24609,49.885,49.885,0,0,1-13.625,2.72266A3.5,3.5,0,0,0,155,339.97168V363.5249A30.69272,30.69272,0,0,0,169.6001,389.478l13.03125,8.229a3.50029,3.50029,0,0,0,3.7373,0l13.03076-8.229A30.69208,30.69208,0,0,0,214,363.5249V340.01416A3.50014,3.50014,0,0,0,210.67529,336.51855ZM207,363.5249a23.72892,23.72892,0,0,1-11.33789,20.03418L184.5,390.60791l-11.1626-7.04883A23.73018,23.73018,0,0,1,162,363.5249V343.17871a56.76879,56.76879,0,0,0,12.23975-2.81836,56.035,56.035,0,0,0,10.21142-4.78369,54.44984,54.44984,0,0,0,10.51563,4.95605A55.20687,55.20687,0,0,0,207,343.24316Zm28.18115,27.63721H225.4873a3.5,3.5,0,0,0,0,7h6.19385v41.853a3.5,3.5,0,0,0,7,0v-45.353A3.49985,3.49985,0,0,0,235.18115,391.16211Zm-3.69433-276.3833a3.49987,3.49987,0,0,0,2.65527-6.47656,34.20483,34.20483,0,0,0-26.01758.00048,3.5,3.5,0,1,0,2.6582,6.47559,27.13933,27.13933,0,0,1,9.66114-2.03711A27.5248,27.5248,0,0,1,231.48682,114.77881Zm-6.853,14.46973v-7.43311a3.5,3.5,0,0,0-7,0v7.43311a3.5,3.5,0,0,0,7,0Zm66.23242-10.93311a3.49986,3.49986,0,0,0-3.5,3.5v7.43311a3.5,3.5,0,0,0,7,0v-7.43311A3.49985,3.49985,0,0,0,290.86621,118.31543ZM498.17847,396.63916a3.49462,3.49462,0,0,0-.66675-.937,73.09336,73.09336,0,0,0-35.05432-25.44678,3.45256,3.45256,0,0,0-.73926-.25049,72.66832,72.66832,0,0,0-10.65808-2.60351V340.31982a63.13672,63.13672,0,0,0-40.22754-59.07617l-.60486-.23828-.02014-.01172c-.02222-.01025-.04553-.01318-.06787-.02295L326.0376,247.83936l-.03272-.0127-12.19238-4.80322a16.53589,16.53589,0,0,1-6.08154-4.1416,3.467,3.467,0,0,0-.2378-.291c-.01489-.01465-.03271-.02441-.04773-.03906a16.42482,16.42482,0,0,1-4.08557-10.88184V212.54248a78.38918,78.38918,0,0,0,36.5127-66.002v-7.6958a26.92468,26.92468,0,0,0,23.38965-26.65479,21.18364,21.18364,0,0,0-21.15967-21.15967h-2.23047V61.24268A61.31177,61.31177,0,0,0,278.62939,0H145.7998a13.49964,13.49964,0,0,0-13.24365,16.11963L136.0459,33.7627a75.49685,75.49685,0,0,0,31.92676,47.81445,9.326,9.326,0,0,1,4.15478,7.77051v1.68261h-2.23a21.18364,21.18364,0,0,0-21.15967,21.15967,26.92468,26.92468,0,0,0,23.38965,26.65479V146.541a78.38877,78.38877,0,0,0,36.5127,66.00146v15.12744a16.42482,16.42482,0,0,1-4.08557,10.88184c-.015.01465-.03284.02441-.04773.03906a3.467,3.467,0,0,0-.2378.291,16.53589,16.53589,0,0,1-6.08154,4.1416l-12.19092,4.80273c-.012.0044-.02392.00879-.03613.01416L101.168,281.24365a63.13645,63.13645,0,0,0-40.228,59.07617V508.5a3.5,3.5,0,1,0,7,0V463.45215h56.68018V508.5a3.5,3.5,0,0,0,7,0V359.85742a99.41864,99.41864,0,0,0-8.96436-41.40039l-14.70361-32.36279,78.489-30.91992,56.4773,56.47656a18.52158,18.52158,0,0,0,26.16308,0l56.47681-56.477,78.48755,30.91992-14.70264,32.35889a99.46782,99.46782,0,0,0-8.96338,41.40722v36.47461a3.25262,3.25262,0,0,0-.18164.30615,72.37834,72.37834,0,0,0-13.7998,42.56885c0,.05176.00378.103.0039.15479a3.48331,3.48331,0,0,0,.017.668,72.35318,72.35318,0,0,0,13.29627,41.06738,3.498,3.498,0,0,0,.6643.95312V508.5a3.5,3.5,0,0,0,7,0V490.25732a72.902,72.902,0,0,0,29.31592,18.16944,3.52126,3.52126,0,0,0,.65515.22168,72.82159,72.82159,0,0,0,43.676,0,3.52126,3.52126,0,0,0,.65515-.22168A73.0759,73.0759,0,0,0,497.917,482.147a3.49648,3.49648,0,0,0,.74536-1.04736,72.35408,72.35408,0,0,0,13.29627-41.06738,3.47362,3.47362,0,0,0,.017-.668c.00012-.05176.0039-.103.0039-.15479A72.376,72.376,0,0,0,498.17847,396.63916ZM339.87256,98.03027h2.23a14.17577,14.17577,0,0,1,14.15967,14.15967,19.909,19.909,0,0,1-16.38965,19.5625ZM172.12744,131.75244a19.909,19.909,0,0,1-16.38965-19.5625,14.17577,14.17577,0,0,1,14.15967-14.15967h2.23ZM124.62012,456.45215H67.93994V442.48438h56.68018Zm-8.33741-135.09961a92.46459,92.46459,0,0,1,8.33741,38.50488v75.627H67.93994V340.31982a56.14955,56.14955,0,0,1,33.51441-51.60449ZM171.85938,75.75537A68.448,68.448,0,0,1,142.91309,32.4043l-3.48975-17.64307A6.49951,6.49951,0,0,1,145.7998,7H278.62939a54.30391,54.30391,0,0,1,54.24268,54.24268V83.1543L234.44873,61.67188a56.401,56.401,0,0,0-48.53516,12.25976l-8.79882,7.55859A16.33012,16.33012,0,0,0,171.85938,75.75537Zm7.26806,70.78516V94.53516l.00049-.00489-.00049-.00488V89.34766c0-.1167-.0083-.23243-.01074-.34864l11.3584-9.75781a49.3758,49.3758,0,0,1,42.481-10.73047l99.916,21.80811V107.5l.00049.00488v39.03565A71.29518,71.29518,0,0,1,292.522,210.54932L263.5542,224.395a17.44142,17.44142,0,0,1-15.1084,0L219.478,210.54932A71.29584,71.29584,0,0,1,179.12744,146.54053Zm121.21118,94.25439L256,285.13428l-44.33875-44.33936a23.45765,23.45765,0,0,0,3.97889-13.125V216.45459c.27417.13525.54321.27832.81933.41016l28.96778,13.8457a24.40846,24.40846,0,0,0,21.1455,0l28.96778-13.8457c.27612-.13184.54516-.27491.81933-.41016v11.21533A23.45856,23.45856,0,0,0,300.33862,240.79492Zm-36.20727,65.90576a11.51115,11.51115,0,0,1-16.2627,0L193.5437,252.376l7.20923-2.83985a23.708,23.708,0,0,0,6.17078-3.57812l46.60119,46.60107a3.50109,3.50109,0,0,0,4.9502,0L305.07617,245.958a23.70872,23.70872,0,0,0,6.1709,3.57812l7.209,2.83985ZM504.63708,432.47607l-13.82067-10.0415,5.2644-16.20312A65.29225,65.29225,0,0,1,504.63708,432.47607ZM491.11047,398.877l-7.25988,22.34326-17.63648,7.98584L442.689,412.11377v-21.0791l18.85511-13.69922A66.06739,66.06739,0,0,1,491.11047,398.877Zm-29.421,35.69385L453.09473,461.022h-27.812L416.688,434.5708l22.501-16.34766Zm-8.68811-59.68115L439.189,384.92529l-13.81262-10.03564a65.59737,65.59737,0,0,1,27.625,0Zm-65.62146-15.02979a92.516,92.516,0,0,1,8.33643-38.5122l14.82751-32.63282a56.14829,56.14829,0,0,1,33.51624,51.605v26.27491c-1.61109-.10791-3.23291-.17578-4.8711-.17578a72.47683,72.47683,0,0,0-22.52685,3.585,3.46656,3.46656,0,0,0-.74439.25244,72.99494,72.99494,0,0,0-28.53784,17.89258Zm29.45362,17.47559L435.689,391.03467v21.0791l-23.52551,17.09228-17.63659-7.98584-7.25977-22.34277A66.06772,66.06772,0,0,1,416.8335,377.33545Zm-34.53662,28.89648,5.26464,16.20264-13.82068,10.0415A65.29434,65.29434,0,0,1,382.29688,406.23193Zm2.46569,69.89453a65.39129,65.39129,0,0,1-11.31018-34.78857l18.63379-13.53857,17.63648,7.98584,9.08239,27.95312-10.593,12.38818Zm5.491,7h17.02771l5.26978,16.21778A66.09677,66.09677,0,0,1,390.25354,483.12646Zm67.22229,19.26807a65.47723,65.47723,0,0,1-36.57373,0l-7.14319-21.98437,10.593-12.38819h29.6737l10.59327,12.38819Zm8.35107-3.05029,5.26978-16.21778h17.02771A66.09677,66.09677,0,0,1,465.8269,499.34424Zm27.78846-23.21778H470.16577l-10.59338-12.38818,9.0824-27.95312,17.63647-7.98584,18.63428,13.53857A65.38991,65.38991,0,0,1,493.61536,476.12646ZM280.51465,114.77832a27.14635,27.14635,0,0,1,9.66162-2.03711,27.436,27.436,0,0,1,11.04248,2.0376,3.49987,3.49987,0,1,0,2.65527-6.47656,34.205,34.205,0,0,0-26.01757.00048,3.5,3.5,0,1,0,2.6582,6.47559Zm-40.2334,79.95215a36.91933,36.91933,0,0,0,15.71973,3.53711h.11084a36.955,36.955,0,0,0,15.60644-3.53662,3.5001,3.5001,0,1,0-2.99707-6.32617,29.69541,29.69541,0,0,1-25.44189.00048,3.49987,3.49987,0,0,0-2.99805,6.3252ZM256,175.42529a16.2212,16.2212,0,0,0,16.20459-16.20117v-5.52978a3.5,3.5,0,0,0-7,0v5.52978a9.20459,9.20459,0,0,1-18.40918,0v-5.52978a3.5,3.5,0,0,0-7,0v5.52978A16.2212,16.2212,0,0,0,256,175.42529Z"/></svg>