<svg xmlns="http://www.w3.org/2000/svg" data-name="Layer 1" viewBox="0 0 512 512"><path fill="#f76263" d="M461.55957,501.999V377.83518A80,80,0,0,0,406.687,301.88379l-86.10752-28.48743a20,20,0,0,1-13.71814-18.98785V229.13818H205.13867v25.27033a20,20,0,0,1-13.71814,18.98785L105.313,301.88379a80,80,0,0,0-54.87258,75.95139V501.999a10,10,0,0,0,10,10H451.55957A10,10,0,0,0,461.55957,501.999Z"/><path fill="#fdba5b" d="M249,512V376.83057a60.001,60.001,0,0,1,18.4939-43.32764l65.467-56.00928,57.918,19.16162v.37256a173.94283,173.94283,0,0,0-2.26772,128.93291,34.87094,34.87094,0,0,1,2.26772,12.35529V512Z"/><rect width="141.88" height="42" x="249" y="449.65" fill="#fd7b4f"/><path fill="#fd7b4f" d="M249.00006,428.64551h140.5c-.2616-.9043-.5542-1.80127-.88879-2.68457a174.65729,174.65729,0,0,1-9.83387-39.31543H249.00006Z"/><path fill="#e68d37" d="M262.99957,338.32373a59.9954,59.9954,0,0,0-13.99951,38.50684V512h27.999V376.83057A59.99528,59.99528,0,0,0,262.99957,338.32373Z"/><rect width="27.999" height="42" x="249" y="449.65" fill="#f04f2a"/><rect width="27.999" height="42" x="249" y="386.646" fill="#f04f2a"/><path fill="#fdba5b" d="M262.999,512V376.83057a60.001,60.001,0,0,0-18.49389-43.32764l-65.467-56.00928-57.918,19.16162v.37256a174.22924,174.22924,0,0,1,13.55005,67.48145,174.23694,174.23694,0,0,1-11.28234,61.45146,34.87115,34.87115,0,0,0-2.26771,12.35529V512Z"/><path fill="#fd7b4f" d="M123.38782,425.96094c-.3346.8833-.6272,1.78027-.8888,2.68457h140.5v-42H133.22168A174.65465,174.65465,0,0,1,123.38782,425.96094Z"/><circle cx="241.999" cy="407.646" r="7" fill="#343c4a"/><rect width="141.879" height="42" x="121.12" y="449.65" fill="#fd7b4f"/><circle cx="241.999" cy="470.646" r="7" fill="#343c4a"/><path fill="#f7bcaa" d="M197.94556 269.75781a76.97119 76.97119 0 0 0 116.10888 0 19.99 19.99 0 0 1-7.19311-15.34912V229.13818H205.13867v25.27051A19.99 19.99 0 0 1 197.94556 269.75781zM121.12012 511.999H60.44043a10 10 0 0 1-10-10V463.65h70.67969zM390.879 463.64551h70.67968l.00076 38.35338a10 10 0 0 1-10 10.00013h-60.6805z"/><path fill="#e3887b" d="M205.13867,229.13818v7.63233a67.30046,67.30046,0,0,0,19.51709,21.91308l9.20716,6.61963a61.90237,61.90237,0,0,0,36.137,11.64307h.00006a61.90246,61.90246,0,0,0,36.137-11.64307l2.81269-2.022a19.90584,19.90584,0,0,1-2.08832-8.87256V229.13818Z"/><path fill="#e68979" d="M333.55746,174.00893h0v-43.3911h6.05694a18.66707,18.66707,0,0,1,18.66706,18.667v0A24.724,24.724,0,0,1,333.55746,174.00893Z"/><path fill="#e68979" d="M153.71856,130.61783h.00009a24.724,24.724,0,0,1,24.724,24.724v.00006a18.66706,18.66706,0,0,1-18.66706,18.66706h-6.057a0,0,0,0,1,0,0v-43.3911A0,0,0,0,1,153.71856,130.61783Z" transform="rotate(180 166.08 152.313)"/><path fill="#f9bda9" d="M333.55744,172.73415V178.451a71.17863,71.17863,0,0,1-29.62657,57.7912L294.19816,243.24a65.4335,65.4335,0,0,1-38.19824,12.30687h0a65.43347,65.43347,0,0,1-38.19818-12.30683l-9.73241-6.99761a71.17864,71.17864,0,0,1-29.62662-57.791l0-5.71726V112.36949l155.11482-4.68889Z"/><path fill="#343c4b" d="M309.31641 134.81348a3.49594 3.49594 0 0 1-1.32618-.26221 31.9897 31.9897 0 0 0-12.85644-2.37256 31.62384 31.62384 0 0 0-11.24609 2.37158 3.5 3.5 0 1 1-2.65821-6.47558 38.67091 38.67091 0 0 1 29.415-.001 3.50079 3.50079 0 0 1-1.32812 6.73975zM295.9375 155.09619a3.50017 3.50017 0 0 1-3.5-3.5V143.082a3.5 3.5 0 0 1 7 0v8.51416A3.50017 3.50017 0 0 1 295.9375 155.09619zM229.44043 134.81348a3.48724 3.48724 0 0 1-1.32617-.2627 32.01141 32.01141 0 0 0-12.85645-2.37207 31.64135 31.64135 0 0 0-11.24707 2.37207 3.50005 3.50005 0 1 1-2.65625-6.47656 38.66864 38.66864 0 0 1 29.41406 0 3.50047 3.50047 0 0 1-1.32812 6.73926zM216.0625 155.09619a3.50017 3.50017 0 0 1-3.5-3.5V143.082a3.5 3.5 0 0 1 7 0v8.51416A3.50017 3.50017 0 0 1 216.0625 155.09619z"/><path fill="#e68979" d="M256.00293,224.023a38.82128,38.82128,0,0,1-16.53223-3.71973,3.49987,3.49987,0,0,1,2.99805-6.32519A31.78284,31.78284,0,0,0,256.002,217.023h.09473a31.79952,31.79952,0,0,0,13.43555-3.04541,3.50031,3.50031,0,0,1,2.998,6.32617,38.8532,38.8532,0,0,1-16.41211,3.71924Z"/><path fill="#343c4b" d="M286.66513,204.53266c1.94216-.47,14.27419-3.65144,21.65392-15.13661l.0785-.12278a3.945,3.945,0,0,0-4.40527-5.88662,19.47174,19.47174,0,0,1-8.08428.60143c-6.35466-.92083-8.73765-4.78851-14.61749-6.96613-4.94719-1.83231-12.86441-2.65064-25.29052,3.08895-12.42617-5.73959-20.34339-4.92126-25.29058-3.08895-5.87984,2.17762-8.26282,6.0453-14.61741,6.96613a19.47613,19.47613,0,0,1-8.09538-.60455,3.94076,3.94076,0,0,0-4.39114,5.89619l.0754.11655c7.88344,12.12768,21.6313,14.84769,23.78767,15.24011,15.13985,2.75509,26.516-4.8506,28.53144-6.24856C257.76662,199.65145,270.4995,208.44355,286.66513,204.53266Z"/><path fill="#e68979" d="M269.42911,160.65073v7.50267a13.42565,13.42565,0,0,1-13.42565,13.42566h-.00686A13.42565,13.42565,0,0,1,242.571,168.1534v-7.50267a3,3,0,0,1,3-3h20.85816A3,3,0,0,1,269.42911,160.65073Z"/><path fill="#ffbc51" d="M256,16.47493h.00016a77.55733,77.55733,0,0,1,77.55733,77.55733v8.12607a0,0,0,0,1,0,0H178.44262a0,0,0,0,1,0,0V94.03226A77.55733,77.55733,0,0,1,256,16.47493Z"/><path fill="#e98f29" d="M242.34267,56.21276l-6.061-46.749A5.28519,5.28519,0,0,1,241.523,3.499H270.477a5.28519,5.28519,0,0,1,5.24133,5.96474l-6.061,46.749a5,5,0,0,1-4.95849,4.35713H247.30116A5,5,0,0,1,242.34267,56.21276Z"/><rect width="178.64" height="22.198" x="166.68" y="94.759" fill="#e98f29" rx="4.228"/><path d="M269.53223,213.97852a31.79952,31.79952,0,0,1-13.43555,3.04541H256.002a31.7827,31.7827,0,0,1-13.5332-3.04493,3.49987,3.49987,0,0,0-2.99805,6.3252,38.82128,38.82128,0,0,0,16.53223,3.71973h.11523a38.85335,38.85335,0,0,0,16.41211-3.71924,3.50031,3.50031,0,0,0-2.998-6.32617Zm14.35547-79.42725a31.62341,31.62341,0,0,1,11.24609-2.37158,31.9897,31.9897,0,0,1,12.85644,2.37256,3.50014,3.50014,0,0,0,2.6543-6.47754,38.671,38.671,0,0,0-29.415.001,3.5,3.5,0,1,0,2.65821,6.47559ZM407.78906,298.55713l-55.48047-18.34961-18.249-6.04c-.01978-.00635-.04028-.00928-.0603-.01562l-12.31958-4.07471a16.4973,16.4973,0,0,1-5.29907-2.9292c-.00928-.0083-.01563-.01856-.02515-.02686-.02344-.0205-.05078-.0332-.07471-.05273a16.46707,16.46707,0,0,1-5.92041-12.6582v-18.749a74.86246,74.86246,0,0,0,26.69922-57.21093v-1.16553a28.25966,28.25966,0,0,0,24.72168-27.999,22.19213,22.19213,0,0,0-22.167-22.167h-2.55469V120.458h4.03223a7.73681,7.73681,0,0,0,7.72754-7.72852V98.98828a7.7367,7.7367,0,0,0-7.72754-7.728h-4.09961a81.03743,81.03743,0,0,0-58.60742-75.13916l.80468-6.207A8.78589,8.78589,0,0,0,270.47656,0H241.52344a8.78608,8.78608,0,0,0-8.71289,9.915l.80468,6.20654A80.798,80.798,0,0,0,174.999,91.26025H170.9082a7.7367,7.7367,0,0,0-7.72754,7.728v13.74121a7.73681,7.73681,0,0,0,7.72754,7.72852h4.03223v6.66064h-2.55469a22.19255,22.19255,0,0,0-22.167,22.16748,28.25954,28.25954,0,0,0,24.72168,27.99854v1.16553a74.86176,74.86176,0,0,0,26.69922,57.21093v18.749a16.468,16.468,0,0,1-5.91748,12.65576c-.0249.02051-.05322.03369-.07764.05517-.00976.00879-.0166.01953-.02637.02784a16.48954,16.48954,0,0,1-5.29687,2.92822L177.9585,274.166l-.019.00488-12.69726,4.20068L104.21,298.55713a83.37778,83.37778,0,0,0-57.26953,79.28271V508.5a3.5,3.5,0,0,0,7,0V467.1499h63.67969v24.5l.001.00977V508.5a3.5,3.5,0,0,0,7,0V495.1499H259.5V508.5a3.5,3.5,0,0,0,7,0V495.1499H387.37988V508.5a3.5,3.5,0,0,0,7,0V467.1499h63.67969V508.5a3.5,3.5,0,0,0,7,0V377.83984A83.37739,83.37739,0,0,0,407.78906,298.55713ZM174.94043,170.2207a21.25873,21.25873,0,0,1-17.72168-20.93506,15.18394,15.18394,0,0,1,15.167-15.167h2.55469Zm164.67383-36.102a15.18394,15.18394,0,0,1,15.167,15.167,21.25873,21.25873,0,0,1-17.72168,20.93506v-36.102ZM234.5271,23.15479,239.43652,61.021a3.49978,3.49978,0,1,0,6.94141-.90039l-6.626-51.105A1.78539,1.78539,0,0,1,241.52344,7h28.95312a1.7852,1.7852,0,0,1,1.77149,2.01465l-6.626,51.106a3.49969,3.49969,0,0,0,3.02051,3.92138,3.59119,3.59119,0,0,0,.4541.0293,3.50022,3.50022,0,0,0,3.4668-3.05029l4.90918-37.86573a74.03148,74.03148,0,0,1,52.51953,68.105H181.999A73.814,73.814,0,0,1,234.5271,23.15479ZM170.9082,113.458a.72863.72863,0,0,1-.72754-.72852V98.98828a.72853.72853,0,0,1,.72754-.728H341.0918a.72853.72853,0,0,1,.72754.728v13.74121a.72863.72863,0,0,1-.72754.72852Zm11.03223,64.99219v-4.4209l.002-.01953V130.61865l-.002-.01953V120.458H330.05957v10.14111l-.002.01953v43.39112l.002.01953v4.4209a67.82918,67.82918,0,0,1-28.17383,54.94873l-9.72851,6.99951a61.90362,61.90362,0,0,1-72.31348.00049l-9.73047-7.00049A67.82932,67.82932,0,0,1,181.94043,178.4502Zm127.24,91.437a73.41356,73.41356,0,0,1-106.3606,0,23.452,23.452,0,0,0,5.81983-15.477V240.96191l7.11621,5.11963a68.92854,68.92854,0,0,0,80.48828,0l7.11621-5.12011v13.44873A23.451,23.451,0,0,0,309.18042,269.88721Zm-116.66089,6.83545a23.57651,23.57651,0,0,0,4.94141-2.30176,80.44017,80.44017,0,0,0,117.07812,0,23.58441,23.58441,0,0,0,4.94239,2.30176l6.48437,2.14453-60.751,51.97314c-.0498.04248-.09765.08643-.14453.13135a63.08855,63.08855,0,0,0-9.08838,10.92236,63.06914,63.06914,0,0,0-9.05517-10.91845c-.04688-.04541-.09571-.08936-.14551-.13233l-60.75073-51.97461ZM119.09375,427.35205a3.46938,3.46938,0,0,0-.22266,1.29688,38.1661,38.1661,0,0,0-1.25,9.667v11.32422l-.001.00976v10.5H53.94043V377.83984a76.38971,76.38971,0,0,1,52.46777-72.6372l12.56519-4.15576a169.51568,169.51568,0,0,1,12.19751,63.459,170.82642,170.82642,0,0,1-1.12988,19.459,3.49254,3.49254,0,0,0-1.20411,2.10352C126.42578,400.4873,122.47754,418.84424,119.09375,427.35205ZM259.5,488.1499H124.62109v-35H259.5Zm0-42H124.62109v-7.834a31.20055,31.20055,0,0,1,.62207-6.17041H259.5Zm0-21.00439H127.41406a177.07913,177.07913,0,0,0,8.86719-35H259.5Zm0-42H137.16724a178.03961,178.03961,0,0,0,1.00366-18.63281,176.48388,176.48388,0,0,0-12.52637-65.66749l43.10352-14.26074,9.5166-3.147,63.89062,54.66016A56.77507,56.77507,0,0,1,259.5,376.83057Zm.44775-34.33887a56.06171,56.06171,0,0,1,9.89307-12.71191L333.73169,281.436l13.97388,4.62158,38.65088,12.792a177.26581,177.26581,0,0,0-11.52173,84.30029H266.5v-6.31933A63.64459,63.64459,0,0,0,259.94775,348.80664ZM375.72046,390.1499a176.939,176.939,0,0,0,8.86621,35H266.5v-35Zm11.65942,73.49024-.001.00976.001.00977V488.1499H266.5v-35H387.37988Zm0-17.49024H266.5v-14H386.75928a31.22369,31.22369,0,0,1,.6206,6.16992Zm70.67969,14H394.37988V438.31982a38.17492,38.17492,0,0,0-2.49609-13.59961,170.36434,170.36434,0,0,1,1.14477-123.67236l12.56226,4.15479a76.38933,76.38933,0,0,1,52.46875,72.6372ZM242.001,460.14551a10.5,10.5,0,1,0,10.5,10.5A10.5118,10.5118,0,0,0,242.001,460.14551Zm0,14a3.5,3.5,0,1,1,3.5-3.5A3.50424,3.50424,0,0,1,242.001,474.14551ZM226.84473,208.084a42.65047,42.65047,0,0,0,29.12695-5.5205,43.25344,43.25344,0,0,0,22.28613,6.47412,39.231,39.231,0,0,0,9.23535-1.106c3.627-.87793,16.04493-4.6665,23.73731-16.58594.05469-.08056.09863-.15185.124-.19775a7.44474,7.44474,0,0,0-8.30761-11.12842,16.0731,16.0731,0,0,1-6.63575.50684c-2.94043-.42578-4.78906-1.63282-7.12988-3.16162a32.672,32.672,0,0,0-6.77441-3.62647,26.55069,26.55069,0,0,0-10.08252-1.55762,16.8476,16.8476,0,0,0,.50439-4.02636v-5.84522a3.5,3.5,0,0,0-7,0v5.84522a9.92871,9.92871,0,0,1-19.85742,0v-5.84522a3.5,3.5,0,0,0-7,0v5.84522a16.85067,16.85067,0,0,0,.50415,4.02636,26.53337,26.53337,0,0,0-10.08228,1.55762,32.672,32.672,0,0,0-6.77441,3.62647c-2.34082,1.5288-4.18945,2.73584-7.125,3.16064a15.93585,15.93585,0,0,1-6.64941-.51562,7.4423,7.4423,0,0,0-8.33594,11.07128c.00879.01514.01758.03028.02734.0459.03418.061.07129.12159.10938.18067C208.9375,203.90723,222.78418,207.332,226.84473,208.084Zm-20.26465-21.15527a.38865.38865,0,0,1,.46387-.18213,22.89343,22.89343,0,0,0,9.54687.70752,23.1605,23.1605,0,0,0,9.95508-4.228,26.16809,26.16809,0,0,1,5.38086-2.92431,21.6945,21.6945,0,0,1,11.68164-.65381,16.84972,16.84972,0,0,0,24.7832,0,21.69091,21.69091,0,0,1,11.68164.65381,26.16809,26.16809,0,0,1,5.38086,2.92431,21.67413,21.67413,0,0,0,19.48145,3.53418.395.395,0,0,1,.47851.1753.38076.38076,0,0,1-.00488.5166l-.02637.04492-.00683.01025c-6.28223,9.77247-16.53614,12.896-19.52832,13.62061-14.18457,3.42969-25.66114-4.0542-27.81739-5.58887a3.49828,3.49828,0,0,0-4.02441-.02539c-2.78516,1.93164-12.88574,8.04834-25.89941,5.68506-3.34668-.61963-14.7627-3.43115-21.44141-13.62793l-.00977-.01758c-.0332-.05859-.06836-.11572-.10449-.17236A.34015.34015,0,0,1,206.58008,186.92871Zm35.4209,231.2168a10.5,10.5,0,1,0-10.5-10.5A10.5118,10.5118,0,0,0,242.001,418.14551Zm0-14a3.5,3.5,0,1,1-3.5,3.5A3.50425,3.50425,0,0,1,242.001,404.14551ZM212.5625,143.083v8.51416a3.5,3.5,0,0,0,7,0V143.083a3.5,3.5,0,0,0-7,0Zm-8.55176-8.53125a31.64091,31.64091,0,0,1,11.24707-2.37207,32.01141,32.01141,0,0,1,12.85645,2.37207,3.49968,3.49968,0,1,0,2.65429-6.47656,38.66864,38.66864,0,0,0-29.41406,0,3.50005,3.50005,0,1,0,2.65625,6.47656ZM292.4375,143.083v8.51416a3.5,3.5,0,0,0,7,0V143.083a3.5,3.5,0,0,0-7,0Z"/></svg>