<svg xmlns="http://www.w3.org/2000/svg" data-name="Layer 1" viewBox="0 0 512 512"><path fill="#343c4a" d="M462.87769,501.999V361.02523a80,80,0,0,0-52.656-75.18183L352.6692,264.91131l-34.24473-9.909c-8.70295-3.16531-7.49613-11.43675-7.49613-20.69745v-27.465H201.07166v27.465c0,9.2607-5.79318,24.53214-14.49613,27.69745l-27.2447,2.909-57.55248,20.9321a80,80,0,0,0-52.656,75.18183V501.999a10,10,0,0,0,10,10H452.87769A10,10,0,0,0,462.87769,501.999Z"/><path fill="#f9beac" d="M325.42447,255.00229a22.0239,22.0239,0,0,1-14.49613-20.69745v-27.465H201.07166v27.465a22.0239,22.0239,0,0,1-14.49613,20.69745l69.4086,49Z"/><path fill="#f9f7f8" d="M159.33,264.909l92.45057,145.41336a5,5,0,0,0,8.43886,0L352.67,264.909l-17.65291-6.41781-80.46413,28-77.57005-28Z"/><path fill="#e58a7b" d="M335.23965,144.93349h0V100.60724h6.18831a19.07065,19.07065,0,0,1,19.07194,19.06932v.00005A25.25852,25.25852,0,0,1,335.23965,144.93349Z"/><path fill="#e58a7b" d="M151.50012,100.60724h.00349a25.25683,25.25683,0,0,1,25.25683,25.25683v0a19.06937,19.06937,0,0,1-19.06937,19.06937h-6.19094a0,0,0,0,1,0,0V100.60724A0,0,0,0,1,151.50012,100.60724Z" transform="rotate(-180 164.13 122.77)"/><path fill="#e58a7b" d="M270,263.7876a66.86,66.86,0,0,0,39.02661-12.57227l5.908-4.24707a21.99715,21.99715,0,0,1-4.00623-12.66357V206.83984H201.07166v15.50293a72.67138,72.67138,0,0,0,19.95813,21.72412l9.94335,7.14844a66.86069,66.86069,0,0,0,39.02674,12.57227Z"/><path fill="#f9beac" d="M328.23963,69.61694l7,42.4726V157.03a72.70959,72.70959,0,0,1-30.26916,59.0367l-9.9438,7.14866a66.85891,66.85891,0,0,1-39.02675,12.57211h0a66.85891,66.85891,0,0,1-39.02669-12.57206L207.0297,216.067a72.70956,72.70956,0,0,1-30.26922-59.03652l0-5.84047V94.73891l7-25.122,29.08876-42h87.80658Z"/><path fill="#eaeaea" d="M176.76038,75.16916v63.30733h0a16.86916,16.86916,0,0,0,16.76926-15.0272l3.66139-33.35049a67.70109,67.70109,0,0,1,15.5273-36.23894l0,0A56.6007,56.6007,0,0,1,256,33.734h.00006a56.60077,56.60077,0,0,1,43.28162,20.12586l0,0A67.70115,67.70115,0,0,1,314.809,90.0988l3.66139,33.35049a16.86917,16.86917,0,0,0,16.76927,15.0272h0V75.16916c0-43.7569-35.47676-71.67014-79.23957-71.67014H256C212.23714,3.499,176.76038,31.41226,176.76038,75.16916Z"/><path fill="#e58a7b" d="M269.72039,156.23767V161.628a13.715,13.715,0,0,1-13.715,13.715h-.01071a13.715,13.715,0,0,1-13.715-13.715v-5.39031a3,3,0,0,1,3-3h21.44071A3,3,0,0,1,269.72039,156.23767Z"/><circle cx="227.874" cy="125.703" r="20.967" fill="#cce4ff"/><circle cx="284.126" cy="125.703" r="20.967" fill="#cce4ff"/><path fill="#fff" d="M194.64165 257.4569a117.34948 117.34948 0 0 0 61.34248 37.05671l-28.73446 68.3349a7.81759 7.81759 0 0 1-8.54855 4.67127l-60.6155-10.56341a7.8176 7.8176 0 0 1-5.71113-11.07293zM317.68843 257.4569a112.60942 112.60942 0 0 1-61.7043 37.05671l28.73446 68.3349a7.81761 7.81761 0 0 0 8.54856 4.67127l60.64728-10.569a7.8176 7.8176 0 0 0 5.72126-11.05163z"/><circle cx="256" cy="441.499" r="8" fill="#f9f7f8"/><circle cx="256" cy="486.499" r="8" fill="#f9f7f8"/><rect width="25.782" height="96.903" x="464.936" y="298.795" fill="#e88f37" rx="12.891" transform="rotate(-150 477.827 347.246)"/><rect width="25.782" height="96.903" x="359.331" y="237.824" fill="#e88f37" rx="12.891" transform="rotate(-150 372.222 286.276)"/><rect width="96.16" height="72.011" x="376.944" y="280.756" fill="#ffbc5b" transform="rotate(-150 425.024 316.761)"/><path fill="#e88f37" d="M361.23725,335.67473h0a14.56732,14.56732,0,0,1,14.56732,14.56732V518.81284a0,0,0,0,1,0,0H346.66993a0,0,0,0,1,0,0V350.24206a14.56732,14.56732,0,0,1,14.56732-14.56732Z" transform="rotate(-150 361.237 427.244)"/><path fill="#eaeaea" d="M256,295.499a102.82312,102.82312,0,0,0,79.01709-37.00781l-9.59253-3.48877a21.98508,21.98508,0,0,1-9.4209-6.64062,81.94436,81.94436,0,0,1-120.00732,0,21.98508,21.98508,0,0,1-9.4209,6.64062l-9.59253,3.48877A102.82312,102.82312,0,0,0,256,295.499Z"/><path d="M239.14453,199.71777a39.6081,39.6081,0,0,0,16.85742,3.792h.11817a39.61717,39.61717,0,0,0,16.73535-3.79248,3.49987,3.49987,0,1,0-2.99805-6.3252,32.56955,32.56955,0,0,1-13.75879,3.11768H256.002a32.55721,32.55721,0,0,1-13.85937-3.11817,3.50031,3.50031,0,0,0-2.99805,6.32617Zm264.6582,102.53809a16.40668,16.40668,0,0,0-19.9851,2.8335l-78.08106-45.08008a16.38049,16.38049,0,0,0-29.92895-12.72461l-10.64844,18.44385-11.24048-4.08838-.00976-.00342-27.29371-9.92627a18.564,18.564,0,0,1-12.18554-17.40039V212.82275a76.4191,76.4191,0,0,0,24.30957-55.792v-8.81689A28.79515,28.79515,0,0,0,364,119.67773,22.5964,22.5964,0,0,0,341.42773,97.1084h-2.68847V69.61816a3.47237,3.47237,0,0,0-.32556-1.45556C334.88721,28.26758,301.32861,0,256,0s-78.88721,28.26758-82.4137,68.1626a3.47237,3.47237,0,0,0-.32556,1.45556V97.1084h-2.6914A22.59514,22.59514,0,0,0,148,119.67773a28.79355,28.79355,0,0,0,25.26074,28.53614v8.81738a76.41638,76.41638,0,0,0,24.30957,55.7915v21.48731a18.56469,18.56469,0,0,1-12.18652,17.40088l-27.29,9.9248-.01318.00488L100.584,282.55078a83.76879,83.76879,0,0,0-54.96386,78.479V508.5a3.5,3.5,0,0,0,7,0V361.02979a76.7478,76.7478,0,0,1,50.35644-71.90088L157.884,269.16016l15.573,24.50244L149.21094,344.374a11.32255,11.32255,0,0,0,8.27832,16.03418l60.60644,10.55909a11.51086,11.51086,0,0,0,1.99024.17431,11.28765,11.28765,0,0,0,2.46386-.272l26.2793,41.33154a8.50031,8.50031,0,0,0,14.34473-.00342l26.26977-41.32324a11.28142,11.28142,0,0,0,2.43921.26758,11.51566,11.51566,0,0,0,1.98731-.17383l60.6416-10.57031a11.31836,11.31836,0,0,0,8.29-15.998l-5.32337-11.22265c.4032-.07666.80567-.16455,1.20618-.272a16.2702,16.2702,0,0,0,7.55054-4.46777L389.625,341.94141,307.08984,484.89648a18.06753,18.06753,0,0,0,31.29395,18.06739L420.9187,360.00879l23.39356,13.50586a16.40691,16.40691,0,0,0,7.53833,18.72412v.00049a16.27588,16.27588,0,0,0,7.52929,2.17187V508.5a3.5,3.5,0,0,0,7,0V393.14941a16.30117,16.30117,0,0,0,7.86133-6.91015l35.56055-61.59278A16.4108,16.4108,0,0,0,503.80273,302.25586ZM338.73926,104.1084h2.68847A15.58821,15.58821,0,0,1,357,119.67773a21.79037,21.79037,0,0,1-18.26074,21.47168ZM173.26074,141.1499A21.789,21.789,0,0,1,155,119.67773a15.587,15.587,0,0,1,15.56934-15.56933h2.6914ZM354.116,269.16016l7.48925,2.72412-18.229,31.57373-4.72778-9.9668Zm-18.02112-6.55371L347.37793,266.71l-12.27441,19.30811-7.15015-15.07422A107.69659,107.69659,0,0,0,336.09485,262.60645ZM180.26074,75.16992c0-19.95361,7.6084-37.105,22.00293-49.60058C216.05762,13.59473,235.1416,7,256,7s39.94238,6.59473,53.73633,18.56934c14.39453,12.4956,22.00293,29.647,22.00293,49.60058v59.3457a13.35123,13.35123,0,0,1-9.78906-11.44726l-3.66211-33.35059A70.96134,70.96134,0,0,0,301.958,51.60547a60.10221,60.10221,0,0,0-91.916,0,70.96134,70.96134,0,0,0-16.33008,38.1123l-3.66211,33.35059a13.35123,13.35123,0,0,1-9.78906,11.44726ZM284.126,101.23975a24.50075,24.50075,0,0,0-24.21253,20.96435h-7.8269a24.45074,24.45074,0,0,0-43.2959-11.78515l-9.59863-6.46973,1.47888-13.46777a63.972,63.972,0,0,1,14.72461-34.36524,53.10081,53.10081,0,0,1,81.209,0A63.972,63.972,0,0,1,311.3291,90.48145l1.7489,15.92724-8.09362,6.52393A24.47323,24.47323,0,0,0,284.126,101.23975Zm17.46679,24.46435A17.4668,17.4668,0,1,1,284.126,108.23975,17.48548,17.48548,0,0,1,301.59277,125.7041Zm-56.25195,0a17.4668,17.4668,0,1,1-17.4668-17.46435A17.48549,17.48549,0,0,1,245.34082,125.7041Zm-65.08008,31.32715V141.666a20.33267,20.33267,0,0,0,16.74805-17.834l1.32019-12.023,6.89807,4.6499a24.46285,24.46285,0,1,0,46.8595,12.74512h7.8269a24.46627,24.46627,0,1,0,47.90784-9.60644c.09766-.064.19824-.1211.291-.1958l5.87269-4.7334,1.00622,9.16357a20.33267,20.33267,0,0,0,16.748,17.834v15.36474a69.37434,69.37434,0,0,1-28.81153,56.19531l-9.94433,7.14844a63.35862,63.35862,0,0,1-73.9668,0l-9.94433-7.14844A69.37275,69.37275,0,0,1,180.26074,157.03125Zm131.19312,90.97217a78.35845,78.35845,0,0,1-110.90784-.00049,25.45844,25.45844,0,0,0,4.02429-13.69287v-15.709c.13965.10157.27564.20752.416.3086l9.94433,7.14844a70.35794,70.35794,0,0,0,82.13868,0l9.94433-7.14844c.14038-.10108.27637-.207.416-.3086v15.709A25.461,25.461,0,0,0,311.45386,248.00342ZM187.77539,258.28955a25.33825,25.33825,0,0,0,8.21924-4.91846,85.41223,85.41223,0,0,0,120.01062,0,25.33442,25.33442,0,0,0,8.21838,4.918l4.77661,1.73731a99.32152,99.32152,0,0,1-146.00036,0ZM164.62146,266.71l11.28369-4.10351a107.71814,107.71814,0,0,0,8.3302,8.51367l-7.21728,15.09472Zm57.5271,96.8877c-.01843.01172-.03845.01709-.05676.0288l-.00782.00635a4.30137,4.30137,0,0,1-2.7832.439l-60.61035-10.56006a4.32349,4.32349,0,0,1-3.16309-6.12207l34.21851-71.56885a106.09726,106.09726,0,0,0,60.61963,23.02783l-26.343,62.647A4.29436,4.29436,0,0,1,222.14856,363.59766Zm35.12,44.84082a1.50053,1.50053,0,0,1-2.53515.00341L228.56128,367.2793a11.406,11.406,0,0,0,1.91528-3.07276L255.98535,303.543l25.50684,60.66162a11.40758,11.40758,0,0,0,1.931,3.09082Zm99.13965-57.20606a4.29392,4.29392,0,0,1-3.09863,2.26953L292.665,364.07275a4.31991,4.31991,0,0,1-2.81275-.45947l-.00146-.00049a4.29942,4.29942,0,0,1-1.90454-2.11914l-26.34058-62.644A106.09443,106.09443,0,0,0,322.4469,275.668l16.777,35.36865a16.36173,16.36173,0,0,0,10.28149,21.66455l6.97022,14.6958A4.28627,4.28627,0,0,1,356.4082,351.23242Zm6.166-29.46387a9.39046,9.39046,0,1,1-16.26465-9.39062l35.56055-61.59326a9.39058,9.39058,0,1,1,16.26465,9.39111ZM332.32129,499.46338a11.06712,11.06712,0,1,1-19.16895-11.0669L395.6875,345.44141l19.16882,11.06738Zm115.0581-132.26123-25.99011-15.00537-.00158-.001-18.473-10.665-32.75036-18.9082,32.50537-56.30078,77.2146,44.57959Zm56.35987-46.05567-35.56055,61.59278a9.40106,9.40106,0,0,1-12.82812,3.4375v.00049a9.40294,9.40294,0,0,1-3.43653-12.82862l35.56055-61.59326a9.39058,9.39058,0,1,1,16.26465,9.39111ZM117.89551,431.82617a3.50017,3.50017,0,0,0-3.5,3.5V508.5a3.5,3.5,0,0,0,7,0V435.32617A3.50018,3.50018,0,0,0,117.89551,431.82617ZM256,475a11.5,11.5,0,1,0,11.5,11.5A11.5131,11.5131,0,0,0,256,475Zm0,16a4.5,4.5,0,1,1,4.5-4.5A4.50491,4.50491,0,0,1,256,491Zm0-61a11.5,11.5,0,1,0,11.5,11.5A11.5131,11.5131,0,0,0,256,430Zm0,16a4.5,4.5,0,1,1,4.5-4.5A4.50491,4.50491,0,0,1,256,446Zm0-267.15625a17.23761,17.23761,0,0,0,17.2207-17.21484v-5.9712a3.5,3.5,0,0,0-7,0v5.9712a10.2207,10.2207,0,0,1-20.4414,0v-5.9712a3.5,3.5,0,0,0-7,0v5.9712A17.23761,17.23761,0,0,0,256,178.84375ZM394.10449,431.82617a3.50018,3.50018,0,0,0-3.5,3.5V508.5a3.5,3.5,0,0,0,7,0V435.32617A3.50017,3.50017,0,0,0,394.10449,431.82617ZM284.12627,131.7022a3.50017,3.50017,0,0,1-3.5-3.5v-6.05468a3.5,3.5,0,1,1,7,0v6.05468A3.50017,3.50017,0,0,1,284.12627,131.7022Zm-56.25225.52809a3.50018,3.50018,0,0,1-3.5-3.5V122.6756a3.5,3.5,0,0,1,7,0v6.05469A3.50017,3.50017,0,0,1,227.874,132.23029Z"/></svg>