<svg xmlns="http://www.w3.org/2000/svg" data-name="Layer 1" viewBox="0 0 512 512"><path fill="#8fd17a" d="M57.04952,511.999a10,10,0,0,1-10-10V376.36569a71.15438,71.15438,0,0,1,50.69321-68.08091L190.95533,280.18A30.49474,30.49474,0,0,0,212.681,251.00243V187.37232h86.638v63.63011A30.49474,30.49474,0,0,0,321.04467,280.18l93.2126,28.10482a71.15438,71.15438,0,0,1,50.69321,68.08091V501.999a10,10,0,0,1-10,10Z"/><path fill="#709653" d="M122.16846,511.999V296.70221a4,4,0,0,1,2.79539-3.8143l27.06505-8.54757a4,4,0,0,1,5.20462,3.81456l-.00307,48.11368a7,7,0,0,0,7,7.00044H347.76613a7,7,0,0,0,7-7V288.15453a4,4,0,0,1,5.20462-3.8143l27.0654,8.54768a4,4,0,0,1,2.79539,3.8143V511.999Z"/><path fill="#f9beac" d="M57.04952 511.999h65.11894V445.6665H47.04952V501.999A10 10 0 0 0 57.04952 511.999zM389.83154 511.999h65.11894a10 10 0 0 0 10-10V445.6665H389.83154zM308.01858 272.27158l.00006 0a30.39844 30.39844 0 0 1-8.69964-21.26906V202.331L284.31363 187.3724H227.68637L212.681 202.331v48.67143a30.39844 30.39844 0 0 1-8.69964 21.26906l.00006 0A73.68072 73.68072 0 0 0 308.01858 272.27158z"/><path fill="#e58a7b" d="M284.31366,187.37256H227.6864L212.681,202.33105v48.67139a30.249,30.249,0,0,1-.76788,6.74317A97.54839,97.54839,0,0,0,227.843,269.29443h.00006A70.01257,70.01257,0,0,0,263,278.7583h.00006a70.0126,70.0126,0,0,0,35.157-9.46387h.00007q2.65173-1.54027,5.17822-3.23339a30.25653,30.25653,0,0,1-4.01636-15.0586V202.33105Z"/><path fill="#f9beac" d="M291.15713,253.44645l-.00006,0a70.01345,70.01345,0,0,1-35.157,9.46372h0a70.01338,70.01338,0,0,1-35.157-9.46372l-.00007,0a97.20641,97.20641,0,0,1-48.45661-84.04328V90.1487H339.61374v79.25447A97.20641,97.20641,0,0,1,291.15713,253.44645Z"/><path fill="#343c4a" d="M339.61374 148.0266h-4.19619a10.49048 10.49048 0 0 1-10.49048-10.49048V91.95046h14.68667zM172.38632 148.0266h4.19619A10.49048 10.49048 0 0 0 187.073 137.53612V91.95046H172.38632zM225.85664 177.3847a3.756 3.756 0 0 1 3.16375-3.71648 171.74987 171.74987 0 0 1 53.96179.00037 3.75509 3.75509 0 0 1 3.16124 3.71578v11.23446a3.76614 3.76614 0 0 1-4.31069 3.71961 183.65315 183.65315 0 0 0-51.66824.0004 3.76428 3.76428 0 0 1-4.30785-3.71945z"/><path fill="#e58a7b" d="M268.48557 163.43689v3.84366A12.48563 12.48563 0 0 1 256 179.76618h0a12.48563 12.48563 0 0 1-12.48562-12.48563v-3.84366a3 3 0 0 1 3-3h18.97127A3 3 0 0 1 268.48557 163.43689zM339.61377 160.43689h0V117.3738h6.01116a18.526 18.526 0 0 1 18.52595 18.5259v.00005A24.53708 24.53708 0 0 1 339.61377 160.43689z"/><path fill="#e58a7b" d="M147.84915,117.3738h.00009a24.53708,24.53708,0,0,1,24.53708,24.53708v.00006a18.526,18.526,0,0,1-18.526,18.526h-6.01121a0,0,0,0,1,0,0V117.3738A0,0,0,0,1,147.84915,117.3738Z" transform="rotate(-180 160.118 138.905)"/><path fill="#fff" d="M397.302,319.87679h0a15.92411,15.92411,0,0,1,15.92411,15.92411V519.752a0,0,0,0,1,0,0H381.37794a0,0,0,0,1,0,0V335.8009A15.92411,15.92411,0,0,1,397.302,319.87679Z" transform="rotate(-150 397.302 419.814)"/><path fill="#f2f2f2" d="M464.31363,269.70229l-13.664,23.6667a5.49107,5.49107,0,0,0,2.00988,7.50095L470.7301,311.303a5.49108,5.49108,0,0,0,7.50095-2.00987l14.33662-24.83176a5.48487,5.48487,0,0,1,9.45649-.1023,46.67705,46.67705,0,1,1-42.76755-22.893A5.49645,5.49645,0,0,1,464.31363,269.70229Z"/><path fill="#8fd17a" d="M222.85015,3.499h66.2997a50.46386,50.46386,0,0,1,50.46386,50.46386V91.95046a0,0,0,0,1,0,0H172.38629a0,0,0,0,1,0,0V53.96289A50.46386,50.46386,0,0,1,222.85015,3.499Z"/><rect width="167.227" height="21" x="172.386" y="70.95" fill="#709653"/><path d="M224.853,194.0957a7.26786,7.26786,0,0,0,5.80029,1.709,179.75057,179.75057,0,0,1,50.68994.001,7.36586,7.36586,0,0,0,1.023.07129,7.25619,7.25619,0,0,0,7.27393-7.25683V177.38965a7.22554,7.22554,0,0,0-6.11231-7.17676c-3.83459-.60742-7.72711-1.0918-11.61767-1.44775.04528-.48926.07519-.98291.07519-1.48389v-4.22363a3.5,3.5,0,0,0-7,0v4.22363a8.9856,8.9856,0,1,1-17.97119,0v-4.22363a3.5,3.5,0,0,0-7,0v4.22363c0,.499.02991.99072.07489,1.478-3.90857.35351-7.802.83935-11.61688,1.45361a7.22554,7.22554,0,0,0-6.11231,7.17676v11.23047A7.2489,7.2489,0,0,0,224.853,194.0957Zm4.50683-16.70605a.25682.25682,0,0,1,.21631-.26465c4.20062-.67529,8.496-1.18018,12.7984-1.52637a15.93831,15.93831,0,0,0,27.24842.00342c4.28582.3501,8.58368.855,12.80914,1.5249a.25383.25383,0,0,1,.208.2627v11.23047a.23221.23221,0,0,1-.083.18945.29285.29285,0,0,1-.23486.06543,187.93288,187.93288,0,0,0-25.93555-1.86523A184.79841,184.79841,0,0,0,229.6709,188.874a.26028.26028,0,0,1-.227-.0625.235.235,0,0,1-.084-.1914Zm-11.14257-43.8125a3.50017,3.50017,0,0,0-3.5,3.5v8.05469a3.5,3.5,0,0,0,7,0v-8.05469A3.50017,3.50017,0,0,0,218.21729,133.57715Zm11.33007-4.39649a3.49987,3.49987,0,1,0,2.65528-6.47656,36.77986,36.77986,0,0,0-27.97119,0,3.50024,3.50024,0,1,0,2.65722,6.47656,29.72462,29.72462,0,0,1,10.57324-2.22949A30.19379,30.19379,0,0,1,229.54736,129.18066ZM505.04,282.585a8.82236,8.82236,0,0,0-7.68359-4.37988h-.04a8.93752,8.93752,0,0,0-7.77979,4.50683l-14.33691,24.832a1.99017,1.99017,0,0,1-2.71973.72851l-18.07031-10.43262a1.99355,1.99355,0,0,1-.729-2.71972l13.66407-23.667h-.00049a8.996,8.996,0,0,0-8.28223-13.48046,50.23755,50.23755,0,0,0-47.26459,45.91894l-18.46734-5.57129V296.7002a7.45617,7.45617,0,0,0-5.23584-7.14844L361.01807,281a7.49239,7.49239,0,0,0-9.352,4.75879l-29.61579-8.92969a27.13475,27.13475,0,0,1-11.24658-6.65088,3.47189,3.47189,0,0,0-.30664-.37646c-.07056-.0708-.15186-.12256-.22668-.186A26.807,26.807,0,0,1,302.81982,251v-1.10986a101.03959,101.03959,0,0,0,40.29395-80.48584v-5.69287a28.07311,28.07311,0,0,0,24.53711-27.811A22.05084,22.05084,0,0,0,345.625,113.875h-2.51123V53.96387A54.02488,54.02488,0,0,0,289.1499,0H222.8501a54.02488,54.02488,0,0,0-53.96387,53.96387V113.875H166.375a22.05084,22.05084,0,0,0-22.02588,22.02539,28.07311,28.07311,0,0,0,24.53711,27.811v5.69287a101.03959,101.03959,0,0,0,40.29395,80.48584V251a26.80729,26.80729,0,0,1-7.45057,18.61572c-.07482.06348-.15618.11524-.22668.186a3.47189,3.47189,0,0,0-.30664.37646,27.13475,27.13475,0,0,1-11.24658,6.65088l-29.61579,8.92969a7.49246,7.49246,0,0,0-9.35833-4.75684l-27.0625,8.54785a7.45783,7.45783,0,0,0-5.24317,7.1504v1.62011l-21.93945,6.61817A74.64971,74.64971,0,0,0,43.5498,376.37012V508.5a3.5,3.5,0,0,0,7,0V449.168h68.12012v14.14258l-.00146.01465V508.5a3.50017,3.50017,0,0,0,3.5,3.5h.00146a3.50017,3.50017,0,0,0,3.5-3.5V296.7002a.4952.4952,0,0,1,.34424-.47266l27.06348-8.54785a.49856.49856,0,0,1,.65234.48047v48.10937a10.5118,10.5118,0,0,0,10.5,10.5H347.77a10.5118,10.5118,0,0,0,10.5-10.5V288.16016a.48.48,0,0,1,.20361-.40821.46687.46687,0,0,1,.44239-.07422l27.07714,8.55176a.4938.4938,0,0,1,.33692.47071V399.96436l-47.86279,82.89892A19.42922,19.42922,0,0,0,372.12109,502.29l14.209-24.61328V508.5a3.5,3.5,0,0,0,7,0V465.55127l9.45666-16.38135H461.4502V508.5a3.5,3.5,0,0,0,7,0V376.37012a74.292,74.292,0,0,0-2.32874-18.42627A50.0431,50.0431,0,0,0,505.04,282.585ZM343.11377,120.875H345.625a15.04266,15.04266,0,0,1,15.02588,15.02539,21.05329,21.05329,0,0,1-17.53711,20.72119ZM168.88623,156.62158a21.05329,21.05329,0,0,1-17.53711-20.72119A15.04266,15.04266,0,0,1,166.375,120.875h2.51123ZM118.66992,442.168H50.5498V376.37012A67.25315,67.25315,0,0,1,98.751,311.64062l19.91894-6.00927ZM336.11377,144.52734h-.69629a6.99806,6.99806,0,0,1-6.99023-6.99023V95.45117h7.68652ZM175.88623,53.96387A47.01733,47.01733,0,0,1,222.8501,7h66.2998a47.01733,47.01733,0,0,1,46.96387,46.96387v13.4873H175.88623Zm0,20.4873H336.11377v14H175.88623Zm0,21h7.68652v42.08594a6.99806,6.99806,0,0,1-6.99023,6.99023h-.69629Zm0,73.95313v-17.877h.69629a14.00623,14.00623,0,0,0,13.99023-13.99023V95.45117h130.8545v42.08594a14.00623,14.00623,0,0,0,13.99023,13.99023h.69629v17.877a94.01692,94.01692,0,0,1-46.71436,81.0166,66.53583,66.53583,0,0,1-66.79882,0A94.01692,94.01692,0,0,1,175.88623,169.4043Zm40.10132,85.18994q1.52965.96387,3.09741,1.87939a73.53329,73.53329,0,0,0,73.83008,0q1.57031-.91187,3.09741-1.87939a33.73024,33.73024,0,0,0,7.10761,17.49951,70.32412,70.32412,0,0,1-94.24012,0A33.73024,33.73024,0,0,0,215.98755,254.59424ZM351.27,336.26953a3.50424,3.50424,0,0,1-3.5,3.5H164.23a3.50424,3.50424,0,0,1-3.5-3.5V292.94971l31.24023-9.41944a34.28586,34.28586,0,0,0,12.01941-6.42968,77.2972,77.2972,0,0,0,104.02076,0,34.28586,34.28586,0,0,0,12.01941,6.42968L351.27,292.94971Zm42.06006-30.63818,18.40643,5.55371a50.75673,50.75673,0,0,0,1.88361,10.80713,50.11681,50.11681,0,0,0,8.23681,16.439l-28.52685,49.40869ZM366.05957,498.78809a12.429,12.429,0,0,1-21.52832-12.42774l82.21613-142.39941a50.60917,50.60917,0,0,0,11.735,8.51855,49.11727,49.11727,0,0,0,9.80792,3.86572Zm95.39063-56.61817H406.82776l48.70679-84.37158c1.1278.13721,2.25775.22754,3.38787.28906a67.27177,67.27177,0,0,1,2.52778,18.28272Zm36.60839-110.63183a43.20849,43.20849,0,0,1-69.159,4.47851c-.0354-.04785-.07862-.08984-.11658-.13574a42.99928,42.99928,0,0,1-8.43781-15.83106,43.48544,43.48544,0,0,1-1.70715-11.55859c-.0014-.063.00385-.126-.001-.188a43.19412,43.19412,0,0,1,40.81409-43.34228c.043-.002.08447-.00293.126-.00293a1.99761,1.99761,0,0,1,1.70556,2.99511h-.00048l-13.66407,23.667a9.00224,9.00224,0,0,0,3.29151,12.28222L468.98,314.335a8.99069,8.99069,0,0,0,12.28223-3.291l14.33691-24.832a1.9923,1.9923,0,0,1,1.74707-1.00683h.00928a1.85519,1.85519,0,0,1,1.65234.93066A43.026,43.026,0,0,1,498.05859,331.53809Zm-215.605-202.35743a29.72946,29.72946,0,0,1,10.57373-2.22949,30.19691,30.19691,0,0,1,12.08448,2.22949,3.50005,3.50005,0,0,0,2.65625-6.47656,36.78118,36.78118,0,0,0-27.97168,0,3.50024,3.50024,0,0,0,2.65722,6.47656Zm11.3291,4.39649a3.50017,3.50017,0,0,0-3.5,3.5v8.05469a3.5,3.5,0,0,0,7,0v-8.05469A3.50017,3.50017,0,0,0,293.78271,133.57715Zm-26.45263,72.81543a30.13423,30.13423,0,0,1-12.08545,2.22949,29.72942,29.72942,0,0,1-10.57373-2.22949,3.50024,3.50024,0,0,0-2.65723,6.47656,36.713,36.713,0,0,0,13.0542,2.751q.45117.01172.90332.01172a37.20671,37.20671,0,0,0,14.01416-2.7627,3.49987,3.49987,0,1,0-2.65527-6.47656Z"/></svg>