<svg xmlns="http://www.w3.org/2000/svg" data-name="Layer 1" viewBox="0 0 512 512"><path fill="#e58a7b" d="M340.7728,162.11846h0V119.05537h6.01115a18.526,18.526,0,0,1,18.526,18.5259v.00005A24.53707,24.53707,0,0,1,340.7728,162.11846Z"/><path fill="#e58a7b" d="M146.69007,119.05537h.00009a24.53708,24.53708,0,0,1,24.53708,24.53708v.00006a18.526,18.526,0,0,1-18.526,18.526h-6.01121a0,0,0,0,1,0,0V119.05537A0,0,0,0,1,146.69007,119.05537Z" transform="rotate(180 158.959 140.587)"/><path fill="#cce4ff" d="M461.55957,501.999V375.31714a60,60,0,0,0-38.552-56.03557L321.96361,280.60638a19.30792,19.30792,0,0,1-12.406-18.03217V236.8916H202.44238v25.68261a19.30792,19.30792,0,0,1-12.406,18.03217L88.99247,319.28157a60,60,0,0,0-38.552,56.03557V501.999a10,10,0,0,0,10,10H451.55957A10,10,0,0,0,461.55957,501.999Z"/><path fill="#f9beac" d="M321.96361,280.60638a19.30792,19.30792,0,0,1-12.406-18.03217V236.8916H202.44238v25.68261a19.30792,19.30792,0,0,1-12.406,18.03217l65.95238,19.10993Z"/><path fill="#343c4a" d="M421.22317 318.59859L362.4406 296.0992l-5.87292 16.1236a6 6 0 0 0 3.72776 7.62255l48.32117 16.58125a6 6 0 0 0 7.6226-3.72778zM103.38339 336.4266l48.32117-16.58125a6 6 0 0 0 3.72776-7.62255l-5.497-16.26749-59.0385 22.59735 4.864 14.14616A6 6 0 0 0 103.38339 336.4266zM283.05987 483.57869L261.03176 506.3644a7 7 0 0 1-10.06449.00095L228.93 483.57883a7 7 0 0 1-1.88839-5.92047l19.95742-131.01618H264.9898l19.95754 131.017A7 7 0 0 1 283.05987 483.57869z"/><path fill="#243047" d="M296.24094,321.53311,263.1813,354.58359a10.16578,10.16578,0,0,1-14.37376,0l-33.05963-33.05048L256,299.71631Z"/><path fill="#88b5ea" d="M256,299.71631l-30.9304,27.009c-8.84506,7.72368-23.35542,4.82315-27.93-5.583l-16.09552-36.61384,20.94632-17.82089Z"/><path fill="#88b5ea" d="M255.98884,299.71631l30.9304,27.009c8.84506,7.72368,23.35542,4.82315,27.93-5.583l16.09551-36.61384L310.011,266.69987Z"/><path fill="#e58a7b" d="M266.43481,286.44434a51.68941,51.68941,0,0,0,31.49366-10.70215l11.207-8.61084c.28076-.21582.55346-.43994.83154-.65821a19.29231,19.29231,0,0,1-.40942-3.89892V236.8916H202.44238v16.65479a98.85624,98.85624,0,0,0,14.42212,13.585l11.207,8.61084a51.68941,51.68941,0,0,0,31.49366,10.70215Z"/><path fill="#f9beac" d="M340.77271,118.2417v49.47735a98.88561,98.88561,0,0,1-38.6372,78.41232l-11.20705,8.611a51.69037,51.69037,0,0,1-31.4936,10.702h-6.86972a51.69039,51.69039,0,0,1-31.49359-10.702l-11.20706-8.611a98.88561,98.88561,0,0,1-38.6372-78.41232V118.2417c29.57178,6.15039,51.25757,2.75781,65.8628-1.70459,20.355-6.21924,27.78-14.76856,45.323-16.87793C305.85156,96.8418,326.60645,108.01416,340.77271,118.2417Z"/><path fill="#e58a7b" d="M268.48564,185.33067v5.34555A12.48563,12.48563,0,0,1,256,203.16185h0a12.48563,12.48563,0,0,1-12.48563-12.48563v-5.34555a3,3,0,0,1,3-3h18.97128A3,3,0,0,1,268.48564,185.33067Z"/><path fill="#cce4ff" d="M350.77009,107.50479H161.22991A27.22991,27.22991,0,0,1,134,80.27488v0a27.22992,27.22992,0,0,1,13.67842-23.61832L225.772,11.84873a60.73909,60.73909,0,0,1,60.456,0l78.09358,44.80779A27.22992,27.22992,0,0,1,378,80.27484v0A27.22991,27.22991,0,0,1,350.77009,107.50479Z"/><path fill="#343c4a" d="M294.36923,146.69654H213.9761a48.09243,48.09243,0,0,1-39.13163-20.13538l-13.61456-19.05637H347.11542l-13.61456,19.05637A48.09243,48.09243,0,0,1,294.36923,146.69654Z"/><path fill="#ffbc5b" d="M250.5 61.68726V41.62293a2.37308 2.37308 0 0 0-1.10616-2.0066l-6.38031-4.02847a2.37311 2.37311 0 0 1 .22667-4.13955l11.67816-5.69568A6.6615 6.6615 0 0 1 264.5 31.74V61.68726zM194.5 52.71946h53a0 0 0 0 1 0 0v14a0 0 0 0 1 0 0h-39a14 14 0 0 1-14-14v0A0 0 0 0 1 194.5 52.71946z"/><path fill="#e88f37" d="M208.5,66.71946h53a0,0,0,0,1,0,0v14a0,0,0,0,1,0,0h-39a14,14,0,0,1-14-14v0A0,0,0,0,1,208.5,66.71946Z"/><path fill="#ffbc5b" d="M278.5,52.71946h39a0,0,0,0,1,0,0v14a0,0,0,0,1,0,0h-53a0,0,0,0,1,0,0v0a14,14,0,0,1,14-14Z" transform="rotate(180 291 59.72)"/><path fill="#e88f37" d="M264.5,66.71946h39a0,0,0,0,1,0,0v14a0,0,0,0,1,0,0h-53a0,0,0,0,1,0,0v0A14,14,0,0,1,264.5,66.71946Z" transform="rotate(180 277 73.72)"/><circle cx="256" cy="67.719" r="21.208" fill="#343c4a"/><path d="M424.26074,316.01074l-92.53491-35.41308L313.24292,264.856a15.98108,15.98108,0,0,1-.18335-2.27588V241.30566a103.10379,103.10379,0,0,0,31.21-73.58545v-2.32666a28.07271,28.07271,0,0,0,24.54-27.81152,22.05084,22.05084,0,0,0-22.02539-22.02588H345.665l3.251-4.55029h1.85449a30.72979,30.72979,0,0,0,15.293-57.38379L287.96973,8.814a64.46222,64.46222,0,0,0-63.93946,0L145.93652,53.62207a30.72671,30.72671,0,0,0,13.44922,57.32373l3.39258,4.74854a22.05508,22.05508,0,0,0-19.58789,21.88818,28.07259,28.07259,0,0,0,24.54,27.811v2.32666a103.10379,103.10379,0,0,0,31.21,73.58545v21.27442a15.58118,15.58118,0,0,1-.188,2.28857l-18.49267,15.73291L87.73926,316.01123a63.8693,63.8693,0,0,0-40.79883,59.30859V508.5a3.5,3.5,0,0,0,7,0V375.31982a56.84009,56.84009,0,0,1,34.83325-52.17627l3.67652,10.6919a9.49878,9.49878,0,0,0,12.06933,5.90283l48.32031-16.58154a9.5,9.5,0,0,0,5.90821-12.05371l-4.42066-13.082,24.6731-9.44288,14.93506,33.97315A20.22532,20.22532,0,0,0,208.334,334.06348a22.32242,22.32242,0,0,0,4.85645.53515,21.9272,21.9272,0,0,0,8.82007-1.85937l20.45288,20.4458-18.8833,123.94629a10.55079,10.55079,0,0,0,2.834,8.88183l22.041,22.79151a10.50544,10.50544,0,0,0,15.0918-.002l22.02734-22.78808a10.55005,10.55005,0,0,0,2.83594-8.88184l-18.8833-123.94824,20.45263-20.44434a21.94094,21.94094,0,0,0,8.81934,1.8584,22.307,22.307,0,0,0,4.85547-.53515,20.22633,20.22633,0,0,0,14.39941-11.51172l14.9353-33.97608,24.98413,9.56153-4.7163,12.95068a9.50043,9.50043,0,0,0,5.90332,12.06885l48.32031,16.58154a9.49682,9.49682,0,0,0,12.05859-5.87207l3.77759-10.686a56.84155,56.84155,0,0,1,34.74292,52.13964V508.5a3.5,3.5,0,0,0,7,0V375.31982A63.87044,63.87044,0,0,0,424.26074,316.01074Zm-272.25781-.74121a2.48281,2.48281,0,0,1-1.43457,1.26611l-48.32031,16.58155a2.50457,2.50457,0,0,1-3.17774-1.55567l-3.76562-10.95117L147.7854,300.5249l4.33667,12.83448A2.48187,2.48187,0,0,1,152.00293,315.26953ZM346.78418,122.55615a15.04277,15.04277,0,0,1,15.02539,15.02637,21.05338,21.05338,0,0,1-17.54,20.72168V122.55615ZM161.22949,104.00586a23.72971,23.72971,0,0,1-11.80859-44.3125l78.09375-44.80811a57.43823,57.43823,0,0,1,56.9707,0L362.5791,59.69336a23.72971,23.72971,0,0,1-11.80859,44.3125Zm6.501,54.29834a21.05338,21.05338,0,0,1-17.54-20.72168,15.04277,15.04277,0,0,1,15.02539-15.02637h2.46533l.04932.06885Zm3.55688-42.74219-3.25512-4.55615H340.31348l-9.66016,13.52148a44.68206,44.68206,0,0,1-36.28418,18.67041H213.97656a44.68072,44.68072,0,0,1-36.28418-18.67041l-3.1477-4.40576a3.45041,3.45041,0,0,0-3.25733-4.55957Zm3.44312,52.1582V132.05762a51.69242,51.69242,0,0,0,39.24609,18.14013h80.39258a51.69686,51.69686,0,0,0,41.97949-21.60107l.9209-1.28906v40.41259A95.94581,95.94581,0,0,1,300.00781,243.354l-11.21093,8.61133a48.44611,48.44611,0,0,1-29.36719,9.98487h-6.85938a48.44576,48.44576,0,0,1-29.36816-9.98584l-11.21-8.61036A95.94581,95.94581,0,0,1,174.73047,167.72021ZM306.18311,264.938,255.99463,295.6123l-50.1792-30.668a22.84816,22.84816,0,0,0,.125-2.36426V247.48975c.5918.47656,1.18457.95263,1.78809,1.416l11.209,8.60938a55.48134,55.48134,0,0,0,33.63281,11.43506h6.85938a55.48164,55.48164,0,0,0,33.63183-11.43409l11.21-8.61035c.60352-.46338,1.19629-.93945,1.78809-1.416v15.09033A22.982,22.982,0,0,0,306.18311,264.938Zm-96.32569,62.29346a13.29957,13.29957,0,0,1-9.51367-7.49707l-15.04687-34.228,17.03124-14.48975,47.77833,29.20069-27.33887,23.87255A14.77238,14.77238,0,0,1,209.85742,327.23145ZM281.49023,478.189a3.5111,3.5111,0,0,1-.94726,2.9585l-22.02735,22.78809a3.5891,3.5891,0,0,1-5.03027.00146l-22.04-22.791a3.51253,3.51253,0,0,1-.94531-2.9585l18.1709-119.27a13.64759,13.64759,0,0,0,14.64844,0ZM260.70508,352.105a6.66946,6.66946,0,0,1-9.4209,0l-23.29272-23.28467,28.00317-24.45215,28.00293,24.45313Zm50.94043-32.3706a13.29935,13.29935,0,0,1-9.51465,7.49707,14.77238,14.77238,0,0,1-12.91016-3.14161l-27.33789-23.87255,47.78907-29.20752,17.0205,14.4956ZM412.92871,331.564a2.50227,2.50227,0,0,1-3.17676,1.55323l-48.32031-16.58155a2.48281,2.48281,0,0,1-1.43457-1.26611,2.44778,2.44778,0,0,1-.14062-1.84814l4.65576-12.78174L416.78809,320.646ZM256,206.6626a16.00333,16.00333,0,0,0,15.98535-15.98535v-4.22413a3.5,3.5,0,0,0-7,0v4.22413a8.98535,8.98535,0,1,1-17.9707,0v-4.22413a3.5,3.5,0,0,0-7,0v4.22413A16.00333,16.00333,0,0,0,256,206.6626ZM383.28418,431.82617a3.50017,3.50017,0,0,0-3.5,3.5V508.5a3.5,3.5,0,0,0,7,0V435.32617A3.50017,3.50017,0,0,0,383.28418,431.82617Zm-254.56836,0a3.50017,3.50017,0,0,0-3.5,3.5V508.5a3.5,3.5,0,1,0,7,0V435.32617A3.50017,3.50017,0,0,0,128.71582,431.82617ZM317.5,49.22021H272.35254A24.83536,24.83536,0,0,0,268,46.15918V31.74023a10.16709,10.16709,0,0,0-14.61523-9.13574l-11.6709,5.69629a5.87448,5.87448,0,0,0-.57325,10.24805L247,42.25049v2.4668a24.77642,24.77642,0,0,0-7.35254,4.50292H194.5a3.50017,3.50017,0,0,0-3.5,3.5,17.519,17.519,0,0,0,14.30591,17.19385A17.519,17.519,0,0,0,222.5,84.22021h15.12744a24.66531,24.66531,0,0,0,36.74512,0H289.5a17.519,17.519,0,0,0,17.19409-14.30615A17.519,17.519,0,0,0,321,52.72021,3.50017,3.50017,0,0,0,317.5,49.22021Zm-95,28a10.51788,10.51788,0,0,1-9.90039-7H231.418a24.51325,24.51325,0,0,0,1.77588,7Zm9.21021-14H208.5a10.51788,10.51788,0,0,1-9.90039-7h35.5415A24.51992,24.51992,0,0,0,231.71021,63.22021Zm14.87866-29.50927,9.8623-4.81348A3.16656,3.16656,0,0,1,261,31.74023V43.5376a24.6345,24.6345,0,0,0-5-.52539c-.67432,0-1.33911.04-2,.09326V41.62012a5.88645,5.88645,0,0,0-2.74121-4.959ZM256,85.42871a17.70825,17.70825,0,1,1,17.708-17.7085A17.72794,17.72794,0,0,1,256,85.42871Zm33.5-8.2085H278.80615a24.51325,24.51325,0,0,0,1.77588-7h18.81836A10.51788,10.51788,0,0,1,289.5,77.22021Zm14-14H280.28979a24.51992,24.51992,0,0,0-2.4309-7h35.5415A10.51788,10.51788,0,0,1,303.5,63.22021Zm-61.48633,173.044a36.7147,36.7147,0,0,0,13.05371,2.75195c.31641.00782.63086.01172.94629.01172a36.645,36.645,0,0,0,13.97071-2.76318,3.49968,3.49968,0,1,0-2.6543-6.47656,30.11739,30.11739,0,0,1-12.085,2.23,29.73223,29.73223,0,0,1-10.57324-2.2295,3.5,3.5,0,1,0-2.65821,6.47559Zm51.76856-64.23682a3.50017,3.50017,0,0,0,3.5-3.5v-8.05468a3.5,3.5,0,0,0-7,0v8.05468A3.50017,3.50017,0,0,0,293.78223,172.02734Zm-75.56446,0a3.50017,3.50017,0,0,0,3.5-3.5v-8.05468a3.5,3.5,0,0,0-7,0v8.05468A3.50017,3.50017,0,0,0,218.21777,172.02734Z"/></svg>