<svg xmlns="http://www.w3.org/2000/svg" data-name="Layer 1" viewBox="0 0 512 512"><path fill="#343c4a" d="M381.72132,298.1646,256,348.499,130.27868,298.1646a7.41825,7.41825,0,0,1-.96105-13.3059l0,0a56.96193,56.96193,0,0,0,28.18517-54.35347l-5.2651-58.99388V128.26116A103.76214,103.76214,0,0,1,255.99989,24.499h.00021A103.76213,103.76213,0,0,1,359.76223,128.26116v43.25021l-5.26509,58.99384a56.96193,56.96193,0,0,0,28.18518,54.35346l0,0A7.41825,7.41825,0,0,1,381.72132,298.1646Z"/><path fill="#f9f7f8" d="M447.55951,501.999V397.30246a60,60,0,0,0-33.65575-53.90714l-102.824-50.24975a20,20,0,0,1-11.21858-17.96905V241.13818H212.13879v34.03834a20,20,0,0,1-11.21858,17.96905l-102.824,50.24975a60,60,0,0,0-33.65575,53.90714V501.999a10,10,0,0,0,10,10h363.119A10,10,0,0,0,447.55951,501.999Z"/><path fill="#f9beac" d="M311.0798,293.14551a20,20,0,0,1-11.21859-17.96875V241.13818H212.13879v34.03858a20,20,0,0,1-11.21859,17.96875c.13812,3.48047,1.30206,24.13867,18.75717,39.10986A55.0049,55.0049,0,0,0,256,345.18262c1.38663.30127,25.7944,5.15527,43.09915-12.92725C314.43326,316.23193,311.45932,295.50146,311.0798,293.14551Z"/><path fill="#e58a7b" d="M299.86121,275.17676V241.13818H212.13879v34.03858a19.99715,19.99715,0,0,1-.45068,4.22265A80.03852,80.03852,0,0,0,262.99994,297.915h.00012a79.97193,79.97193,0,0,0,40.64081-11.04053A19.98688,19.98688,0,0,1,299.86121,275.17676Z"/><path fill="#f9beac" d="M175.62763,196.54278V133.60986a7.00686,7.00686,0,0,1,7.13527-6.99794,199.07178,199.07178,0,0,0,60.51314-8.40977A198.84694,198.84694,0,0,0,291.88917,96.057a5.98547,5.98547,0,0,1,8.07405,1.63846,81.38524,81.38524,0,0,0,32.34339,26.926,6.99618,6.99618,0,0,1,4.06576,6.35253v65.56879A80.37228,80.37228,0,0,1,256.00008,276.915h-.00017A80.37229,80.37229,0,0,1,175.62763,196.54278Z"/><path fill="#e58a7b" d="M268.70444,196.92489v5.65663a12.7012,12.7012,0,0,1-12.7012,12.70119h-.00648a12.7012,12.7012,0,0,1-12.7012-12.70119v-5.65663a2,2,0,0,1,2-2h21.40888A2,2,0,0,1,268.70444,196.92489Z"/><path fill="#f9f7f8" d="M352.363,74.17723a5.99256,5.99256,0,0,1-6.735,4.24531,552.24924,552.24924,0,0,0-180.63959.12571,5.99217,5.99217,0,0,1-6.78791-4.40772q-6.01266-23.14169-12.02535-46.28309A9.99467,9.99467,0,0,1,153.5128,15.618a440.61253,440.61253,0,0,1,204.94394-.07458,10.00276,10.00276,0,0,1,7.29271,12.51975Q359.0562,51.12027,352.363,74.17723Z"/><path fill="#f96263" d="M269.5,29.999H263v-6.5a7,7,0,1,0-14,0v6.5h-6.5a7,7,0,0,0,0,14H249v6.5a7,7,0,0,0,14,0v-6.5h6.5a7,7,0,0,0,0-14Z"/><path fill="#eaeaea" d="M310.39956 287.165a4.99734 4.99734 0 0 0-8.0612 3.64711 59.26294 59.26294 0 0 1-8.36308 27.12159C281.33133 338.83991 260.099 344.2269 256 345.18275l62.80542 25.5699a7 7 0 0 0 7.20124-1.17377l.02089-.018a46.24431 46.24431 0 0 0-1.71457-71.55577zM201.60044 287.165a4.99734 4.99734 0 0 1 8.0612 3.64711 59.26294 59.26294 0 0 0 8.36308 27.12159C230.66867 338.83991 251.901 344.2269 256 345.18275l-62.80542 25.5699a7 7 0 0 1-7.20124-1.17377l-.02089-.018a46.24431 46.24431 0 0 1 1.71457-71.55577z"/><circle cx="256" cy="441.499" r="9" fill="#343c4a"/><circle cx="256" cy="383.499" r="9" fill="#343c4a"/><circle cx="256" cy="499.499" r="9" fill="#343c4a"/><path fill="#e58a7b" d="M336.37238,192.42068h0V151.371H352.7622a7,7,0,0,1,7,7l0,10.65978A23.38985,23.38985,0,0,1,336.37238,192.42068Z"/><path fill="#e58a7b" d="M152.23775,151.371h.00008a23.38985,23.38985,0,0,1,23.38985,23.38985v10.65983a7,7,0,0,1-7,7H152.23775a0,0,0,0,1,0,0V151.371A0,0,0,0,1,152.23775,151.371Z" transform="rotate(180 163.933 171.896)"/><path d="M256,371a12.5,12.5,0,1,0,12.5,12.5A12.51408,12.51408,0,0,0,256,371Zm0,18a5.5,5.5,0,1,1,5.5-5.5A5.50623,5.50623,0,0,1,256,389Zm-129.21533,8.7002a3.49985,3.49985,0,0,0-3.5,3.5v18.1499a56.83444,56.83444,0,0,1-2.751,17.4541l-2.27,7.02978a104.25374,104.25374,0,0,0,.7041,65.813,3.49992,3.49992,0,1,0,6.61328-2.29394,97.21012,97.21012,0,0,1-.65625-61.36719l2.271-7.03223a63.8445,63.8445,0,0,0,3.08887-19.60351V401.2002A3.49986,3.49986,0,0,0,126.78467,397.7002Zm264.68115,39.10644a56.85209,56.85209,0,0,1-2.75146-17.45654V401.2002a3.5,3.5,0,0,0-7,0v18.1499a63.84209,63.84209,0,0,0,3.08935,19.60547l2.27,7.03076a97.27476,97.27476,0,0,1-.64648,61.36816,3.4999,3.4999,0,1,0,6.61425,2.291,104.316,104.316,0,0,0,.69336-65.811ZM256,429a12.5,12.5,0,1,0,12.5,12.5A12.51408,12.51408,0,0,0,256,429Zm0,18a5.5,5.5,0,1,1,5.5-5.5A5.50623,5.50623,0,0,1,256,447ZM415.43652,340.25537l-58.27392-28.479L383.022,301.419a10.922,10.922,0,0,0,1.4126-19.58741,53.64211,53.64211,0,0,1-26.44824-51.01123l5.25976-59c.00928-.103.01368-.207.01368-.31054v-2.38184c.00012-.03223.00244-.064.00244-.09619V158.37207c0-.01611-.00238-.03174-.00244-.04834v-30.064A107.49913,107.49913,0,0,0,352.4209,81.25342a6.47358,6.47358,0,0,0,2.55957-3.53662v-.00049l14.13037-48.67676a13.50287,13.50287,0,0,0-9.8418-16.89941A444.73994,444.73994,0,0,0,256.95361.001C256.68408.00049,256.415,0,256.145,0A444.72719,444.72719,0,0,0,152.69775,12.21533a13.495,13.495,0,0,0-9.91015,16.523l12.71631,48.94483a6.44742,6.44742,0,0,0,3.71057,4.3208,107.5073,107.5073,0,0,0-10.47425,46.25586v30.064c-.00006.0166-.00244.03223-.00244.04834v10.65967c0,.03222.00232.064.00244.09619v2.38184q0,.156.01368.311l5.25976,58.99658c.14356,1.62891.21631,3.23438.21631,4.77246a53.59875,53.59875,0,0,1-26.6626,46.24024,10.92066,10.92066,0,0,0,1.41114,19.58887l25.85894,10.35742-58.273,28.47851A63.8756,63.8756,0,0,0,60.93994,397.2998V508.5a3.5,3.5,0,1,0,7,0V397.2998a56.83292,56.83292,0,0,1,31.69678-50.75537l65.30163-31.91308.03455-.01709,7.24426-3.54a49.74783,49.74783,0,0,0,11.49524,61.16064,10.46143,10.46143,0,0,0,10.80176,1.76026L256,348.96289l61.48535,25.03223a10.46475,10.46475,0,0,0,10.82276-1.77832,49.74722,49.74722,0,0,0,11.47473-61.14258l7.24432,3.54.03449.01709,65.30261,31.91357a56.8325,56.8325,0,0,1,31.6958,50.75488V508.5a3.5,3.5,0,0,0,7,0V397.2998A63.87517,63.87517,0,0,0,415.43652,340.25537ZM149.563,26.978a6.494,6.494,0,0,1,4.76465-7.95508A437.67757,437.67757,0,0,1,256.145,7c.26318,0,.53271.00049.7959.001A437.74124,437.74124,0,0,1,357.644,18.94873a6.503,6.503,0,0,1,4.74414,8.13965L348.38232,75.33545a555.74708,555.74708,0,0,0-186.21923.14062Zm6.17724,101.28174A100.38612,100.38612,0,0,1,167.17535,81.7417a550.496,550.496,0,0,1,88.52485-7.19141c.4121,0,.82666.00049,1.23925.00147A550.47309,550.47309,0,0,1,344.884,81.856a100.39473,100.39473,0,0,1,11.37574,46.40381v20.22412a10.42451,10.42451,0,0,0-3.49756-.61182H339.87256v-16.897a10.53548,10.53548,0,0,0-6.0957-9.52881,77.88921,77.88921,0,0,1-30.95557-25.77,9.4848,9.4848,0,0,0-12.79736-2.57959,195.32848,195.32848,0,0,1-47.75733,21.75488,195.20434,195.20434,0,0,1-59.44922,8.26172,10.50651,10.50651,0,0,0-10.68994,10.49756v14.26123H159.23779a10.42451,10.42451,0,0,0-3.49756.61182Zm200.51954,30.08789v10.73242a19.90812,19.90812,0,0,1-16.38721,19.51416V154.87207h12.88965A3.50281,3.50281,0,0,1,356.25977,158.34766ZM332.87256,130.9751V196.544a76.87256,76.87256,0,0,1-153.74512,0V133.61084A3.46091,3.46091,0,0,1,180.168,131.126a3.51128,3.51128,0,0,1,2.48193-1.01416l.05762.00048a202.097,202.097,0,0,0,61.57764-8.55761,202.33684,202.33684,0,0,0,49.46923-22.53516,2.48839,2.48839,0,0,1,3.35059.69678,84.88407,84.88407,0,0,0,33.73193,28.08252A3.51444,3.51444,0,0,1,332.87256,130.9751ZM155.74023,158.34766a3.50281,3.50281,0,0,1,3.49756-3.47559h12.88965v33.72217a19.90812,19.90812,0,0,1-16.38721-19.51416Zm7.57685,149.28466L131.58154,294.9209a3.9205,3.9205,0,0,1-.50781-7.03223A60.62063,60.62063,0,0,0,161.23,235.58984c0-1.74218-.082-3.55468-.24365-5.39062l-3.70258-41.53174a26.803,26.803,0,0,0,14.84369,7.019v.85743a83.836,83.836,0,0,0,36.5127,69.17382v9.46241a16.57155,16.57155,0,0,1-1.91278,7.69726,8.46011,8.46011,0,0,0-7.27814,1.52783h.00049l-13.91358,10.84034a50.25764,50.25764,0,0,0-4.011,3.48877Zm28.55694,59.8794a3.49553,3.49553,0,0,1-3.6206-.60449,42.74513,42.74513,0,0,1,1.58447-66.14014l13.91357-10.84033h.00049a1.441,1.441,0,0,1,.90186-.32617,1.551,1.551,0,0,1,.63086.14013,1.453,1.453,0,0,1,.8833,1.28614,62.26022,62.26022,0,0,0,8.86182,28.71875c8.78808,14.53125,21.63671,22.05908,30.7915,25.80322Zm29.14551-51.38867a55.327,55.327,0,0,1-7.86426-25.52442,8.5313,8.5313,0,0,0-.89581-3.31787,23.59786,23.59786,0,0,0,3.38068-12.10058V270.04a83.68266,83.68266,0,0,0,80.71972,0v5.14014a23.60035,23.60035,0,0,0,3.38068,12.10107,8.528,8.528,0,0,0-.89581,3.31787A55.32536,55.32536,0,0,1,290.98,316.12354c-10.82312,17.896-28.61969,23.84765-34.98,25.457C249.63971,339.97119,231.84314,334.01953,221.01953,316.12305Zm102.70654,50.80224a3.48626,3.48626,0,0,1-3.60058.58643l-53.94678-21.96289c9.15479-3.74414,22.00342-11.272,30.791-25.80274a62.2586,62.2586,0,0,0,8.8623-28.71875,1.45316,1.45316,0,0,1,.8833-1.28662,1.43845,1.43845,0,0,1,1.53272.186h.00049l13.91357,10.84033a42.74559,42.74559,0,0,1,1.564,66.1582Zm6.74878-68.19091a50.25764,50.25764,0,0,0-4.011-3.48877l-13.91309-10.84034a8.46244,8.46244,0,0,0-7.27814-1.52783,16.57155,16.57155,0,0,1-1.91278-7.69726v-9.46241a83.836,83.836,0,0,0,36.5127-69.17382v-.85743a26.803,26.803,0,0,0,14.84369-7.019l-3.70258,41.53076a60.66777,60.66777,0,0,0,29.91406,57.69141,3.82681,3.82681,0,0,1,1.95215,3.37012,3.87762,3.87762,0,0,1-2.46093,3.66113l-31.736,12.71142ZM303.874,147.72168a34.205,34.205,0,0,0-26.01757.00049,3.5,3.5,0,1,0,2.6582,6.47558,27.14657,27.14657,0,0,1,9.66162-2.03711,27.5537,27.5537,0,0,1,11.04248,2.0376,3.49987,3.49987,0,1,0,2.65527-6.47656ZM256,487a12.5,12.5,0,1,0,12.5,12.5A12.51408,12.51408,0,0,0,256,487Zm0,18a5.5,5.5,0,1,1,5.5-5.5A5.50623,5.50623,0,0,1,256,505Zm12.72119-273.23682a29.90714,29.90714,0,0,1-12.63086,2.8628h-.08984a29.88292,29.88292,0,0,1-12.72119-2.86231,3.49987,3.49987,0,0,0-2.99805,6.3252A36.91933,36.91933,0,0,0,256.001,241.626h.11084a36.955,36.955,0,0,0,15.60644-3.53662,3.50011,3.50011,0,0,0-2.99707-6.32618Zm-34.5791-84.0415a34.20489,34.20489,0,0,0-26.01758.00049,3.5,3.5,0,0,0,2.6582,6.47558,27.13954,27.13954,0,0,1,9.66114-2.03711,27.49358,27.49358,0,0,1,11.043,2.0376,3.49987,3.49987,0,0,0,2.65527-6.47656Zm56.72412,10.01318a3.49987,3.49987,0,0,0-3.5,3.5V168.668a3.5,3.5,0,0,0,7,0v-7.43311A3.49986,3.49986,0,0,0,290.86621,157.73486ZM242.5,47.5h3v3a10.5,10.5,0,0,0,21,0v-3h3a10.5,10.5,0,0,0,0-21h-3v-3a10.5,10.5,0,0,0-21,0v3h-3a10.5,10.5,0,0,0,0,21Zm0-14H249a3.49985,3.49985,0,0,0,3.5-3.5V23.5a3.5,3.5,0,0,1,7,0V30a3.49985,3.49985,0,0,0,3.5,3.5h6.5a3.5,3.5,0,0,1,0,7H263a3.49985,3.49985,0,0,0-3.5,3.5v6.5a3.5,3.5,0,0,1-7,0V44a3.49985,3.49985,0,0,0-3.5-3.5h-6.5a3.5,3.5,0,0,1,0-7Zm13.5,108a3.5,3.5,0,1,0-3.5-3.5A3.49994,3.49994,0,0,0,256,141.5Zm0,77.28369a16.2212,16.2212,0,0,0,16.20459-16.20117v-5.52979a3.5,3.5,0,0,0-7,0v5.52979a9.20459,9.20459,0,0,1-18.40918,0v-5.52979a3.5,3.5,0,0,0-7,0v5.52979A16.2212,16.2212,0,0,0,256,218.78369Zm-34.86621-61.04883a3.49986,3.49986,0,0,0-3.5,3.5V168.668a3.5,3.5,0,0,0,7,0v-7.43311A3.49987,3.49987,0,0,0,221.13379,157.73486Z"/></svg>