<svg xmlns="http://www.w3.org/2000/svg" data-name="Layer 1" viewBox="0 0 512 512"><path fill="#57aafe" d="M64.44049,501.999V358.70152a80,80,0,0,1,43.484-71.17993L187.946,246.46978a80,80,0,0,1,36.516-8.82007h63.076a80,80,0,0,1,36.516,8.82007l80.02152,41.05181a80,80,0,0,1,43.484,71.17993V501.999a10,10,0,0,1-10,10H74.44049A10,10,0,0,1,64.44049,501.999Z"/><polygon fill="#f9beac" points="306.245 273.36 256.001 311.879 205.202 273.36 205.202 205.797 306.245 205.797 306.245 273.36"/><path fill="#e58a7b" fill-rule="evenodd" d="M306.24463,205.79736h-4.40869a19.05822,19.05822,0,0,1-16.29346,0h-60.041a19.05991,19.05991,0,0,1-16.28955,0h-4.01v40.50391a61.40959,61.40959,0,0,0,18.15821,11.32764l31.33716,12.61084a5.99814,5.99814,0,0,0,4.48,0l31.33642-12.61133a61.46149,61.46149,0,0,0,15.731-9.24756Z"/><path fill="#f2f2f2" d="M483.72529,352.74569l-31.22267,54.07924a13.49113,13.49113,0,0,1-11.74374,6.74543l-31.28927-.13932a14.93022,14.93022,0,0,0-12.99643,7.465l-45.19869,78.28643a18.627,18.627,0,0,1-25.44491,6.81794l0,0a18.627,18.627,0,0,1-6.81794-25.44491l49.53086-85.79,32.69671-56.63236a28.58819,28.58819,0,0,1,39.0522-10.464Z"/><path fill="#adb9d6" d="M428.12313,361.08249H463.4938a4,4,0,0,1,4,4V386.087a4,4,0,0,1-4,4H428.12313a0,0,0,0,1,0,0V361.08249A0,0,0,0,1,428.12313,361.08249Z" transform="rotate(-150 447.808 375.585)"/><path fill="#adb9d6" d="M505.04876,315.81235l-21.32347,36.93334-25.11874-14.50231,17.56864-30.42977a4.23341,4.23341,0,0,0-1.54954-5.78294L447.079,286.12658a3.95832,3.95832,0,0,1-1.44885-5.40717v0a25.04627,25.04627,0,0,1,34.21385-9.16757l15.78755,9.11494A25.72836,25.72836,0,0,1,505.04876,315.81235Z"/><polygon fill="#dbe6fc" points="270.411 511.999 270.411 316.969 270.411 296.709 256.001 311.879 241.591 296.709 241.591 316.969 241.591 511.999 270.411 511.999"/><path fill="#dbe6fc" d="M255.99994,311.883l47.3432-29.27484a8.6508,8.6508,0,0,1,10.57909,1.02089l12.39265,10.82851a4,4,0,0,0,6.58817-3.60226l-6.35334-42.59245a15.1022,15.1022,0,0,0-4.10446-8.55839l-7.649-7.49818c-4.76663-4.67264-11.531-3.39131-15.08667,2.85779Z"/><path fill="#dbe6fc" d="M256.00006,311.883l-47.3432-29.27484a8.6508,8.6508,0,0,0-10.57909,1.02089l-12.39265,10.82851a4,4,0,0,1-6.58817-3.60226l6.35334-42.59245a15.1022,15.1022,0,0,1,4.10446-8.55839l7.649-7.49818c4.76663-4.67264,11.53095-3.39131,15.08667,2.85779Z"/><path fill="#f9beac" d="M209.49171,219.22453a64.23843,64.23843,0,0,1-24.686-50.618V102.17265a31.873,31.873,0,0,1,31.873-31.873h80.51288a31.873,31.873,0,0,1,31.873,31.873v66.43383a64.23842,64.23842,0,0,1-24.68608,50.618L283.58458,235.4726a43.2825,43.2825,0,0,1-26.64952,9.17711h0a43.28251,43.28251,0,0,1-26.64954-9.17713Z"/><path fill="#adb9d6" fill-rule="evenodd" d="M197.20361 232.20605l-2.23925 2.19532a61.4472 61.4472 0 0 0 28.39575 23.22754l2.29516.92382L212.29053 235.064C208.73462 228.81494 201.97046 227.53369 197.20361 232.20605zM290.51367 257.62842a61.44335 61.44335 0 0 0 27.64966-22.12158l-3.36694-3.30079c-4.76685-4.67236-11.531-3.39111-15.08692 2.85791l-13.9209 24.46631z"/><path fill="#343c4a" fill-rule="evenodd" d="M184.81,156.679l16.075,27.49963a19.093,19.093,0,0,0,25.89339,6.97773l9.67354-5.47925a14.38279,14.38279,0,0,1,7.08854-1.86811h23.96026a14.38278,14.38278,0,0,1,7.08672,1.86708l9.68274,5.4826a19.09306,19.09306,0,0,0,25.89246-6.98166l18.90188-32.34713v34.72855a61.51831,61.51831,0,0,1-38.55073,57.07006l-31.33651,12.61123a6,6,0,0,1-4.48,0L223.3601,243.62908a61.51828,61.51828,0,0,1-38.55192-57.0743Z"/><path fill="#e58a7b" d="M329.06443 161.60646h0V116.734h0a19.63032 19.63032 0 0 1 19.2995 23.219l-1.23428 6.63774A18.37489 18.37489 0 0 1 329.06443 161.60646zM184.80562 161.60646h0V116.734h0a19.63032 19.63032 0 0 0-19.29949 23.219l1.23428 6.63774A18.37489 18.37489 0 0 0 184.80562 161.60646zM267.90187 172.06548v5.43221A11.90186 11.90186 0 0 1 256 189.39955h0a11.90186 11.90186 0 0 1-11.90186-11.90186v-5.43221a3 3 0 0 1 3-3h17.80374A3 3 0 0 1 267.90187 172.06548z"/><path fill="#343c4a" d="M329.10094 145.29993h-4a10 10 0 0 1-10-10v-31l14-7zM184.80564 145.29993h4a10 10 0 0 0 10-10v-38h-14z"/><path fill="#dbe6fc" d="M214.41229,3.499h85.05086A31.19093,31.19093,0,0,1,330.65407,34.69V95.17827a0,0,0,0,1,0,0H183.22136a0,0,0,0,1,0,0V34.69A31.19093,31.19093,0,0,1,214.41229,3.499Z"/><path fill="#57aafe" d="M306.58878,117.80865,277.23939,111.491a96.47387,96.47387,0,0,0-40.60346,0l-29.34928,6.31768a18.33523,18.33523,0,0,1-20.60109-10.45045l-3.861-8.64886A8.74413,8.74413,0,0,1,188.12485,86.813a225.21567,225.21567,0,0,1,70.438-10.78238c23.44709.16933,51.93842,7.081,66.608,11.1125a8.75281,8.75281,0,0,1,5.683,12.00745l-3.664,8.20762A18.33521,18.33521,0,0,1,306.58878,117.80865Z"/><path d="M256.00073,378.70312a4.1836,4.1836,0,1,0,4.1836,4.1836A4.18358,4.18358,0,0,0,256.00073,378.70312Zm0,110.30469a4.1836,4.1836,0,1,0,4.1836,4.1836A4.18358,4.18358,0,0,0,256.00073,489.00781Zm0-68.46875a4.1836,4.1836,0,1,0,4.1836,4.1836A4.18358,4.18358,0,0,0,256.00073,420.53906ZM142.12012,431.82617a3.50017,3.50017,0,0,0-3.5,3.5V508.5a3.5,3.5,0,0,0,7,0V435.32617A3.50018,3.50018,0,0,0,142.12012,431.82617Zm113.88061,22.18164a4.1836,4.1836,0,1,0,4.1836,4.1836A4.18358,4.18358,0,0,0,256.00073,454.00781Zm0-117.14062a4.1836,4.1836,0,1,0,4.1836,4.18359A4.18357,4.18357,0,0,0,256.00073,336.86719ZM236.877,129.26709a35.21922,35.21922,0,0,0-26.78808.00049,3.5,3.5,0,1,0,2.6582,6.47558,28.16246,28.16246,0,0,1,10.02148-2.11279,28.641,28.641,0,0,1,11.45411,2.11328,3.49968,3.49968,0,1,0,2.65429-6.47656ZM497.38184,277.63672l-15.78809-9.11524a28.57821,28.57821,0,0,0-38.99512,10.44922,7.45763,7.45763,0,0,0,2.73047,10.188L472.876,305.0625a.73468.73468,0,0,1,.26757,1.002L457.3252,333.46289l-12.9668-7.48633a83.56414,83.56414,0,0,0-38.68067-41.5708l-76.1875-39.08008a17.94345,17.94345,0,0,0-4.58984-8.11523l-7.64746-7.49707c-.18384-.18067-.37891-.33692-.56836-.50537a64.79325,64.79325,0,0,0,15.875-42.648V164.81445a21.875,21.875,0,0,0,18.01172-17.58252l1.23437-6.63818a23.12443,23.12443,0,0,0-19.24609-27.08887V103.917l1.49023-3.33838a12.21855,12.21855,0,0,0,.10059-9.707V34.68994A34.72986,34.72986,0,0,0,299.46,0h-85.0498a34.72986,34.72986,0,0,0-34.69043,34.68994V89.95947c-.02832.06055-.06348.11621-.09082.17725a12.279,12.279,0,0,0-.001,10.00049l1.68164,3.7666v9.60107a23.12483,23.12483,0,0,0-19.24512,27.08936l1.23438,6.63721a21.87531,21.87531,0,0,0,18.01074,17.583v21.74561A64.80941,64.80941,0,0,0,196.415,228.30713a14.539,14.539,0,0,0-1.665,1.40332l-7.65137,7.50146a17.93529,17.93529,0,0,0-4.58862,8.11377l-76.18872,39.08057a83.18175,83.18175,0,0,0-45.38086,74.294V508.5a3.5,3.5,0,1,0,7,0V358.7002a76.20843,76.20843,0,0,1,41.57715-68.06592l71.54785-36.7002-5.42773,36.40869a7.50055,7.50055,0,0,0,12.35644,6.75244l12.3916-10.83251a5.16827,5.16827,0,0,1,6.4336-.67579l31.2705,19.33448V508.5a3.5,3.5,0,0,0,7,0V309.24951l9.06934,5.60742a3.47071,3.47071,0,0,0,.50464.25342c.04663.01953.09448.03369.14184.05078a3.53158,3.53158,0,0,0,.44507.12989c.05347.01171.1062.02392.15991.0332a3.51429,3.51429,0,0,0,.58838.05566h.002a3.50886,3.50886,0,0,0,.58813-.05566c.054-.00928.10669-.02149.1604-.0332a3.53981,3.53981,0,0,0,.44483-.12989c.04736-.01709.09521-.03125.14184-.05078a3.48339,3.48339,0,0,0,.50464-.25342l9.06934-5.60742V508.5a3.5,3.5,0,0,0,7,0V304.92139l31.26757-19.333a5.17057,5.17057,0,0,1,6.43848.67676l12.39356,10.833a7.50016,7.50016,0,0,0,12.35253-6.75439l-5.42749-36.40918,71.54761,36.69971a76.546,76.546,0,0,1,31.86817,30.80615A32.10582,32.10582,0,0,0,398.208,336.38428L315.98047,478.80664a22.127,22.127,0,1,0,38.32519,22.12695l15.31446-26.52539V508.5a3.5,3.5,0,0,0,7,0V462.28418L399.50488,422.647a11.4536,11.4536,0,0,1,9.89844-5.71484h.05078l31.28906.13916h.0752a16.91082,16.91082,0,0,0,3.24121-.3169V508.5a3.5,3.5,0,0,0,7,0V413.62891a16.9493,16.9493,0,0,0,4.47461-5.05323l31.22266-54.0791,21.32324-36.9331A29.26232,29.26232,0,0,0,497.38184,277.63672ZM332.55957,145.69727a1.99278,1.99278,0,0,0,0-.79493V120.61768A16.13129,16.13129,0,0,1,344.92285,139.314l-1.23437,6.63819a14.87294,14.87294,0,0,1-11.12891,11.72754Zm-151.25,11.98242a14.87342,14.87342,0,0,1-11.12793-11.728l-1.23437-6.63721a16.13186,16.13186,0,0,1,12.3623-18.69677Zm144.25-6.79785-18.4209,31.53125a15.655,15.655,0,0,1-21.14453,5.70117l-9.67285-5.47559a17.777,17.777,0,0,0-5.25171-1.96533,15.39166,15.39166,0,0,0,.33276-3.1748v-4.02637a3.5,3.5,0,0,0-7,0v4.02637a8.40234,8.40234,0,0,1-16.80468,0v-4.02637a3.5,3.5,0,0,0-7,0v4.02637a15.40555,15.40555,0,0,0,.30053,3.01562,17.77387,17.77387,0,0,0-6.17358,2.12109l-9.667,5.478a15.67625,15.67625,0,0,1-21.15625-5.69922l-15.5918-26.68115V148.7998h.5a13.51507,13.51507,0,0,0,13.5-13.5V121.68115a21.5989,21.5989,0,0,0,5.71387-.4497l29.34863-6.31788a92.37372,92.37372,0,0,1,39.13086-.00048l29.34961,6.31836V121.231a21.51763,21.51763,0,0,0,4.54394.48388c.40284,0,.803-.02148,1.20313-.04394v13.6289a13.51507,13.51507,0,0,0,13.5,13.5h.46Zm-137.25-9.082V115.59131a22.05315,22.05315,0,0,0,7,4.53174V135.2998a6.50753,6.50753,0,0,1-6.5,6.5Zm137.25,0h-.46a6.50752,6.50752,0,0,1-6.5-6.5V120.09766a22.068,22.068,0,0,0,6.96-4.49073ZM186.71973,34.68994A27.72169,27.72169,0,0,1,214.41016,7H299.46a27.72169,27.72169,0,0,1,27.69043,27.68994V84.12012c-.345-.12891-.69311-.25244-1.05176-.35108-15.0039-4.123-43.72558-11.06543-67.51074-11.2373a228.49411,228.49411,0,0,0-71.5332,10.94971c-.11426.03662-.22217.0874-.335.12744Zm-.7002,58.30225a5.16516,5.16516,0,0,1,3.17578-2.84571,220.90012,220.90012,0,0,1,69.3418-10.61474c22.98535.166,51.0332,6.95508,65.70605,10.9873a5.261,5.261,0,0,1,3.36817,2.82764,5.1697,5.1697,0,0,1,.0459,4.37793l-3.66407,8.208a14.902,14.902,0,0,1-16.668,8.45556l-29.34961-6.31836a99.31259,99.31259,0,0,0-42.07618.001l-29.34863,6.31738a14.89863,14.89863,0,0,1-16.66894-8.45556l-3.86133-8.64844A5.20216,5.20216,0,0,1,186.01953,92.99219Zm2.29,93.56787V169.60645l9.54981,16.34179a22.70758,22.70758,0,0,0,30.64648,8.25684l9.67578-5.4834a10.84636,10.84636,0,0,1,5.3584-1.41162h.59741a15.37922,15.37922,0,0,0,23.70508.022,10.8377,10.8377,0,0,1,5.0227,1.394l9.67872,5.4795a22.68959,22.68959,0,0,0,30.63867-8.25977l12.377-21.18652v21.80078a57.78361,57.78361,0,0,1-16.47168,40.562,3.49008,3.49008,0,0,0-.59033.5874,57.90809,57.90809,0,0,1-13.57324,10.0044c-.06055.02783-.11817.05957-.17725.09131a58.999,58.999,0,0,1-5.54395,2.57763l-31.33105,12.61084a2.50608,2.50608,0,0,1-1.86523-.00049L224.667,240.38281a58.82273,58.82273,0,0,1-8.29175-4.126c-.03588-.01905-.06787-.0459-.10424-.064a57.85185,57.85185,0,0,1-11.2334-8.813,3.46657,3.46657,0,0,0-.53858-.55761A57.78591,57.78591,0,0,1,188.30957,186.56006Zm22.18848,93.07129a12.08434,12.08434,0,0,0-14.72168,1.36328l-12.38575,10.82715a.45244.45244,0,0,1-.57714.06592.441.441,0,0,1-.252-.51172l6.35059-42.59864A11.57279,11.57279,0,0,1,192,242.20947l7.65137-7.501a6.95478,6.95478,0,0,1,1.62988-1.20606,64.80754,64.80754,0,0,0,10.85693,8.36768l34.0376,59.82031ZM256,304.80273l-32.66626-57.41064,30.052,12.0918a9.4331,9.4331,0,0,0,7.10059.00341L288.113,248.36719Zm73.18652-12.915a.44928.44928,0,0,1-.57324-.063l-12.38769-10.82764a12.08919,12.08919,0,0,0-14.72657-1.36426L265.8252,301.68994l33.11059-58.189a64.92223,64.92223,0,0,0,12.87964-9.27c.18066.14795.35889.30615.53418.47851L319.999,242.208a11.575,11.575,0,0,1,3.08887,6.56787l6.35059,42.60107A.44023.44023,0,0,1,329.18652,291.8877ZM456.32446,393.20654,428.291,377.021l11.002-19.05616,28.03345,16.18555Zm14.5022-25.11865-31.06494-17.93555a3.5,3.5,0,0,0-4.78125,1.28125l-14.502,25.11866a3.50026,3.50026,0,0,0,1.28125,4.78125L452.82422,399.269l-3.35254,5.80664a10.01448,10.01448,0,0,1-8.65332,4.99561h-.04395l-31.28906-.13916h-.082a18.47028,18.47028,0,0,0-15.96094,9.21484l-45.19922,78.28662A15.12675,15.12675,0,1,1,322.043,482.30664l82.22754-142.42236a24.92339,24.92339,0,0,1,15.2334-11.68946,25.23718,25.23718,0,0,1,6.53418-.86572,24.93732,24.93732,0,0,1,12.50293,3.37207l40.40332,23.32666Zm31.19092-54.02441-19.57324,33.90185L463.3877,336.96289l15.81835-27.39844a7.74268,7.74268,0,0,0-2.83007-10.564l-27.54786-15.9043a.459.459,0,0,1-.167-.626,21.56828,21.56828,0,0,1,29.43262-7.88623l15.78809,9.11524A22.2529,22.2529,0,0,1,502.01758,314.06348ZM301.90918,129.26709a35.21925,35.21925,0,0,0-26.78809.00049,3.5,3.5,0,1,0,2.65821,6.47558,28.16242,28.16242,0,0,1,10.02148-2.11279,28.669,28.669,0,0,1,11.4541,2.11328,3.49968,3.49968,0,1,0,2.6543-6.47656ZM243.54,208.51855A35.14375,35.14375,0,0,0,256.042,211.1543c.30274.00732.60352.01123.90528.01123a35.09163,35.09163,0,0,0,13.38085-2.64649,3.49968,3.49968,0,1,0-2.65429-6.47656,28.70484,28.70484,0,0,1-11.4541,2.11377,28.16729,28.16729,0,0,1-10.02149-2.11328,3.5,3.5,0,1,0-2.6582,6.47558Zm-20.05566-68.89941a3.50017,3.50017,0,0,0-3.5,3.5v7.67822a3.5,3.5,0,1,0,7,0v-7.67822A3.50018,3.50018,0,0,0,223.48438,139.61914Zm65.03124,0a3.50018,3.50018,0,0,0-3.5,3.5v7.67822a3.5,3.5,0,1,0,7,0v-7.67822A3.50017,3.50017,0,0,0,288.51562,139.61914Z"/></svg>