<svg xmlns="http://www.w3.org/2000/svg" data-name="Layer 1" viewBox="0 0 512 512"><path fill="#c9ad6b" d="M50.44049,501.999V369.05864A60,60,0,0,1,89.93,312.67316l101.20877-36.81511H320.86119L422.07,312.67316a60,60,0,0,1,39.48955,56.38548V501.999a10,10,0,0,1-10,10H60.44049A10,10,0,0,1,50.44049,501.999Z"/><polygon fill="#f9beac" points="306.861 313.647 306.861 238.701 205.139 238.701 205.139 313.647 256 341.647 306.861 313.647"/><path fill="#f96263" d="M420.85992 312.23291l-59.29638-21.56934-4.99586 14.55923a6 6 0 0 0 3.72776 7.62255l48.32117 16.58125a6 6 0 0 0 7.6226-3.72778zM103.38339 329.4266l48.32117-16.58125a6 6 0 0 0 3.72776-7.62255l-4.99586-14.55923L91.14008 312.23291l4.62071 13.46591A6 6 0 0 0 103.38339 329.4266z"/><rect width="82.335" height="40.653" x="138.252" y="471.346" fill="#b29860"/><rect width="82.335" height="40.653" x="291.393" y="471.346" fill="#b29860"/><path fill="#a08859" d="M138.25227,470.34588v-9.93461A12.19225,12.19225,0,0,1,150.44452,448.219h57.95031a12.19225,12.19225,0,0,1,12.19224,12.19225v9.93461a8,8,0,0,1-8,8h-66.3348A8,8,0,0,1,138.25227,470.34588Z"/><rect width="82.335" height="23" x="138.252" y="397.499" fill="#f96263" rx="6"/><path fill="#e58a7b" d="M205.13879,257.11426a75.74249,75.74249,0,0,0,8.577,10.27636h.00006a40.86924,40.86924,0,0,0,28.895,11.9668h40.7782a40.86017,40.86017,0,0,0,23.47211-7.42724V238.70166H205.13879Z"/><path fill="#f9beac" d="M327.50162,76.242V192.76248a75.83359,75.83359,0,0,1-22.21745,53.62837h0a40.86983,40.86983,0,0,1-28.89506,11.96679H235.61092a40.86975,40.86975,0,0,1-28.895-11.96679h0a75.83353,75.83353,0,0,1-22.21747-53.62837V80.1888Z"/><path fill="#343c4a" d="M283.41389,210.33849c1.78785-.43265,13.14008-3.36132,19.93348-13.934a30.11122,30.11122,0,0,0,3.95345-9.32229c-3.62894,2.41677-9.18948,5.24061-15.37842,4.344-5.84978-.84768-8.04343-4.40806-13.4561-6.41266-4.55413-1.68673-11.84232-2.44005-23.28115,2.84352-11.4389-5.28357-18.72708-4.53025-23.28121-2.84352-5.41268,2.0046-7.60633,5.565-13.456,6.41266-6.1888.89661-11.74948-1.92723-15.37842-4.344a29.26861,29.26861,0,0,0,3.95338,9.32249c7.25709,11.16412,19.91266,13.668,21.89771,14.02927a35.97453,35.97453,0,0,0,26.26458-5.75211C256.81141,205.8451,268.53264,213.93866,283.41389,210.33849Z"/><path fill="#e58a7b" d="M266.61608,173.30423v4.72907a11.42109,11.42109,0,0,1-11.4211,11.42109h-.00583a11.42109,11.42109,0,0,1-11.4211-11.42109v-4.72907a3,3,0,0,1,3-3h16.848A3,3,0,0,1,266.61608,173.30423Z"/><path fill="#fff" d="M221.42079,87.94736a202.79692,202.79692,0,0,1,68.33275-1.174l13.20284-7.75141L279.608,41.78926l-58.18724,8.03762L201.87626,80.2992Z"/><path fill="#c9ad6b" d="M184.72651 185.434l-18.47112-40.476a87.01452 87.01452 0 0 1 36.99887-112.2424L256 3.499V49.76427l-.00006 0a204.011 204.011 0 0 0-67.72741 116.95722zM327.27349 185.434l18.47112-40.476a87.01452 87.01452 0 0 0-36.99887-112.2424L256 3.499V49.76427l0 0a204.01093 204.01093 0 0 1 67.72742 116.95722z"/><circle cx="256" cy="32.227" r="28.728" fill="#a08859"/><path fill="#b29860" d="M251.84964,344.31121,205.1708,321.49064a11.92237,11.92237,0,0,0-13.07105,1.7378l-4.38547,3.832a5,5,0,0,1-8.23523-4.50293l6.34442-45.22119q9.64806-7.83178,19.29612-15.66406,25.4306,37.83179,50.8612,75.66308Z"/><path fill="#b29860" d="M246.8,352.059a22.70274,22.70274,0,0,1,2.54-5.04c11.15-16.52,43.6-64.63,57.52-85.35q9.645,7.83,19.3,15.67,3.165,22.605,6.34,45.22a4.99607,4.99607,0,0,1-8.23,4.5l-4.39-3.83a11.91593,11.91593,0,0,0-13.07-1.74l-60.01,30.57a22.33042,22.33042,0,0,0-1.3,7.53v152.41h21V342.02355"/><path fill="#a08859" d="M291.28082,470.34588v-9.93461A12.19225,12.19225,0,0,1,303.47306,448.219h57.95031a12.19225,12.19225,0,0,1,12.19225,12.19225v9.93461a8,8,0,0,1-8,8h-66.3348A8,8,0,0,1,291.28082,470.34588Z"/><path d="M208.395,444.72021H150.44434a15.70993,15.70993,0,0,0-15.6919,15.6919v9.93457c0,.22461.021.44385.03375.66553-.01074.11181-.03375.21972-.03375.33447V508.5a3.5,3.5,0,0,0,7,0V480.92822a11.43522,11.43522,0,0,0,4.5.91846h66.33447a11.43515,11.43515,0,0,0,4.5-.91846V508.5a3.5,3.5,0,0,0,7,0V471.34668c0-.11475-.023-.22266-.03375-.33447.01276-.22168.03375-.44092.03375-.66553v-9.93457A15.70992,15.70992,0,0,0,208.395,444.72021Zm8.69189,25.62647a4.50492,4.50492,0,0,1-4.5,4.5H146.25244a4.50493,4.50493,0,0,1-4.5-4.5v-9.93457a8.70144,8.70144,0,0,1,8.6919-8.6919H208.395a8.70174,8.70174,0,0,1,8.69189,8.6919ZM113.60352,431.82617a3.49986,3.49986,0,0,0-3.5,3.5V508.5a3.5,3.5,0,0,0,7,0V435.32617A3.49987,3.49987,0,0,0,113.60352,431.82617Zm284.793,0a3.49987,3.49987,0,0,0-3.5,3.5V508.5a3.5,3.5,0,0,0,7,0V435.32617A3.49986,3.49986,0,0,0,398.39648,431.82617ZM214.58691,394H144.25244a9.51081,9.51081,0,0,0-9.5,9.5v11a9.51081,9.51081,0,0,0,9.5,9.5h70.33447a9.5108,9.5108,0,0,0,9.5-9.5v-11A9.5108,9.5108,0,0,0,214.58691,394Zm2.5,20.5a2.50294,2.50294,0,0,1-2.5,2.5H144.25244a2.50294,2.50294,0,0,1-2.5-2.5v-11a2.50294,2.50294,0,0,1,2.5-2.5h70.33447a2.50294,2.50294,0,0,1,2.5,2.5Zm144.33643,30.22021h-57.9502a15.71,15.71,0,0,0-15.69238,15.6919v9.93457c0,.22461.021.44385.03375.66553-.01074.11181-.03375.21972-.03375.33447V508.5a3.5,3.5,0,0,0,7,0V480.92822a11.43522,11.43522,0,0,0,4.5.91846h66.335a11.43515,11.43515,0,0,0,4.5-.91846V508.5a3.5,3.5,0,0,0,7,0V471.34668c0-.11475-.023-.22266-.03375-.33447.01276-.22168.03375-.44092.03375-.66553v-9.93457A15.71,15.71,0,0,0,361.42334,444.72021Zm8.69238,25.62647a4.50492,4.50492,0,0,1-4.5,4.5h-66.335a4.50493,4.50493,0,0,1-4.5-4.5v-9.93457a8.70185,8.70185,0,0,1,8.69238-8.6919h57.9502a8.70185,8.70185,0,0,1,8.69238,8.6919ZM266.48,222.83887a26.52822,26.52822,0,0,1-11.20752,2.54h-.08008a26.51826,26.51826,0,0,1-11.28808-2.54,3.5001,3.5001,0,1,0-2.99707,6.32617,33.56538,33.56538,0,0,0,14.28564,3.21387h.10059a33.5766,33.5766,0,0,0,14.18359-3.21387,3.5001,3.5001,0,1,0-2.99707-6.32617Zm-46.14014-89.05664v6.68408a3.5,3.5,0,0,0,7,0v-6.68408a3.5,3.5,0,0,0-7,0ZM423.26611,309.38086l-94.51092-34.37647a3.49539,3.49539,0,0,0-.389-.38183l-18.00635-14.61963V246.13672a78.75774,78.75774,0,0,0,20.6416-53.37305v-7.07959l17.92286-39.271a90.50449,90.50449,0,0,0-38.478-116.7544L282.78918,14.335a32.19924,32.19924,0,0,0-53.5783,0L201.5542,29.6582a90.50485,90.50485,0,0,0-38.47852,116.75489l4.58478,10.04589.00165.00342,13.33643,29.22168v7.07959a78.75774,78.75774,0,0,0,20.6416,53.37305v13.853l-18.023,14.63037a3.51366,3.51366,0,0,0-.40686.39941L88.73291,309.38086a63.70929,63.70929,0,0,0-41.793,59.6792V508.5a3.5,3.5,0,0,0,7,0V369.06006A56.69856,56.69856,0,0,1,89.00085,316.7832l3.44935,10.05274a9.499,9.499,0,0,0,12.06933,5.90234l48.3208-16.58154a9.49888,9.49888,0,0,0,5.90235-12.06885L154.862,292.77832l26.61914-9.68164L176.01709,322.042a8.5004,8.5004,0,0,0,14.00049,7.65528l4.38476-3.832a8.40422,8.40422,0,0,1,9.23438-1.22753l42.58478,20.7705a26.27381,26.27381,0,0,0-2.71906,5.47754l-.00244.00733a25.75737,25.75737,0,0,0-1.5,8.69677V508.5a3.5,3.5,0,0,0,7,0V359.58984a18.85521,18.85521,0,0,1,.689-5.07373L263,347.73535V508.5a3.5,3.5,0,0,0,7,0V344.16943l38.34326-19.53271a8.4028,8.4028,0,0,1,9.23584,1.23047l4.38721,3.82763a8.49592,8.49592,0,0,0,14-7.61962l-5.466-38.9878,26.63812,9.68946-3.88111,11.31054a9.49942,9.49942,0,0,0,5.90186,12.06934L407.481,332.73828a9.49823,9.49823,0,0,0,12.06884-5.90283l3.44916-10.05176a56.6982,56.6982,0,0,1,35.0611,52.27637V508.5a3.5,3.5,0,0,0,7,0V369.06006A63.70881,63.70881,0,0,0,423.26611,309.38086Zm-271.26318-1.11133a2.48426,2.48426,0,0,1-1.43457,1.26611l-48.3208,16.58155a2.50367,2.50367,0,0,1-3.17627-1.55323L95.5647,314.34473l52.71783-19.17383,3.839,11.189A2.48292,2.48292,0,0,1,152.00293,308.26953ZM287.37213,24.877,307.0542,35.78223a83.46725,83.46725,0,0,1,38.03229,101.48925A133.485,133.485,0,0,0,321.46,79.37012a3.49993,3.49993,0,1,0-5.68359,4.08593,126.69072,126.69072,0,0,1,23.65521,66.897l-10.77094,23.60009-1.49169-7.88378a206.80171,206.80171,0,0,0-24.30957-65.35254c-3.13587-5.417-6.53284-10.66748-10.137-15.76563a3.51092,3.51092,0,0,0-.26318-.37744,206.596,206.596,0,0,0-20.36487-24.44238A32.16279,32.16279,0,0,0,287.37213,24.877Zm-5.34668,57.34473a205.82711,205.82711,0,0,0-52.69812.86328,199.50648,199.50648,0,0,1,17.472-19.97461,32.1368,32.1368,0,0,0,18.40136,0A199.48512,199.48512,0,0,1,282.02545,82.22168ZM256,7a25.22779,25.22779,0,1,1-25.228,25.228A25.25678,25.25678,0,0,1,256,7ZM183.33936,173.95312l-8.89191-19.48291a121.90061,121.90061,0,0,1,30.722-77.75292,3.5,3.5,0,0,0-5.2373-4.64454A128.69224,128.69224,0,0,0,168.47626,141.249a83.46155,83.46155,0,0,1,36.47-105.46728L224.62787,24.877a32.16279,32.16279,0,0,0,15.27777,35.2544,206.60168,206.60168,0,0,0-21.1731,25.60058,3.49512,3.49512,0,0,0-.32513.46582c-3.27734,4.70948-6.38513,9.54151-9.2663,14.51856a206.798,206.798,0,0,0-24.31006,65.353Zm4.65918,18.81055v-6.09179a3.4637,3.4637,0,0,0,.17041-.59083l3.54-18.71a199.81858,199.81858,0,0,1,23.48975-63.14746c2.59235-4.478,5.37354-8.835,8.2981-13.08886A198.53078,198.53078,0,0,1,287.72491,90.02c3.21241,4.60547,6.25641,9.333,9.07636,14.2041a199.81146,199.81146,0,0,1,23.48975,63.147l3.54,18.71a3.4637,3.4637,0,0,0,.17041.59083v6.09179a71.85752,71.85752,0,0,1-21.19189,51.15283,37.12411,37.12411,0,0,1-26.42041,10.9419H235.61084a37.12411,37.12411,0,0,1-26.42041-10.9419A71.85752,71.85752,0,0,1,187.99854,192.76367ZM250.1637,339.542,206.70508,318.3457a15.39386,15.39386,0,0,0-16.90869,2.248l-4.38477,3.832a1.41975,1.41975,0,0,1-1.707.18652,1.4345,1.4345,0,0,1-.75977-1.56738l6.15332-43.85791,15.25342-12.38232,47.35626,70.44873C251.17334,338.0459,250.65686,338.81152,250.1637,339.542Zm-41.52356-78.90527v-7.92285a44.0253,44.0253,0,0,0,26.9707,9.14453h40.77832a44.0253,44.0253,0,0,0,26.9707-9.14453v7.88965c-11.38012,16.935-33.42608,49.63232-47.42706,70.3872Zm47.32129,82.82861c.76159-1.1289,39.16217-58.064,51.6665-76.66357l15.25732,12.38769,6.15332,43.88965a1.4962,1.4962,0,0,1-2.46777,1.34375l-4.38574-3.82617a15.40291,15.40291,0,0,0-16.96387-2.2251Zm156.96728-18.90185a2.50162,2.50162,0,0,1-3.17578,1.55371l-48.32178-16.58155a2.49973,2.49973,0,0,1-1.55273-3.17626l3.83941-11.18946,52.71735,19.17481ZM255.16455,208.84473a40.89682,40.89682,0,0,0,20.64209,5.90185,35.75626,35.75626,0,0,0,8.43018-1.00537h.00048c3.37012-.81543,14.91993-4.33984,22.0542-15.44385a33.54675,33.54675,0,0,0,4.41407-10.40429,3.49974,3.49974,0,0,0-5.34473-3.72315c-4.63818,3.08887-8.99365,4.36231-12.93652,3.79346-2.64258-.38281-4.32178-1.47852-6.44727-2.86524a30.31247,30.31247,0,0,0-6.29492-3.36572,24.76629,24.76629,0,0,0-9.75665-1.4331,14.8949,14.8949,0,0,0,.19073-2.26514v-4.97266a3.5,3.5,0,1,0-7,0v4.97266a7.859,7.859,0,0,1-.82281,3.49316,51.49294,51.49294,0,0,0-7.10834,2.49756,51.51537,51.51537,0,0,0-7.09265-2.49463,7.85774,7.85774,0,0,1-.82434-3.49609v-4.97266a3.5,3.5,0,0,0-7,0v4.97266a14.9013,14.9013,0,0,0,.19055,2.26416,24.73126,24.73126,0,0,0-9.77014,1.43408,30.26444,30.26444,0,0,0-6.29493,3.36572c-2.126,1.38672-3.80468,2.48243-6.44775,2.86524-3.94189.56885-8.29834-.7041-12.93652-3.79346a3.49992,3.49992,0,0,0-5.34864,3.70752,32.72049,32.72049,0,0,0,4.42774,10.436c7.63379,11.74365,20.457,14.88281,24.20557,15.56494A39.47159,39.47159,0,0,0,255.16455,208.84473Zm-45.207-14.34668c-.0752-.11524-.14893-.23047-.22168-.34668a20.26118,20.26118,0,0,0,18.48242-3.19092,23.8627,23.8627,0,0,1,4.90137-2.66357,20.0099,20.0099,0,0,1,10.75635-.56153,14.87557,14.87557,0,0,0,22.63452-.00244,20.01407,20.01407,0,0,1,10.74048.564,23.87172,23.87172,0,0,1,4.90088,2.66357,20.25994,20.25994,0,0,0,18.47851,3.19189q-.11207.18165-.228.36084c-5.875,9.14453-15.86816,11.95411-17.81152,12.42432h.00049c-12.97266,3.13818-23.40918-3.69922-25.36963-5.10156a3.50124,3.50124,0,0,0-4.03174-.0293,32.49264,32.49264,0,0,1-23.64258,5.18506C226.49561,206.436,216.06445,203.89355,209.95752,194.49805Zm67.4126-66.71729a24.083,24.083,0,0,1,8.562-1.80566,24.33837,24.33837,0,0,1,9.7876,1.80615,3.49987,3.49987,0,0,0,2.65527-6.47656,31.10728,31.10728,0,0,0-23.66309.00049,3.5,3.5,0,1,0,2.65821,6.47558Zm5.67431,6.00147v6.68408a3.5,3.5,0,0,0,7,0v-6.68408a3.5,3.5,0,1,0-7,0ZM214.666,127.78076a24.07849,24.07849,0,0,1,8.562-1.80566,24.33829,24.33829,0,0,1,9.78759,1.80615,3.49987,3.49987,0,1,0,2.65528-6.47656,31.10728,31.10728,0,0,0-23.66309.00049,3.5,3.5,0,1,0,2.65821,6.47558Z"/></svg>