<svg xmlns="http://www.w3.org/2000/svg" data-name="Layer 1" viewBox="0 0 512 512"><path fill="#c9ad6b" d="M64.44049,511.999V419.232a80,80,0,0,1,46.48536-72.64137l58.72078-27.09208,35.49218-23.64051H306.86119l37.94152,23.95956,56.742,26.627A80,80,0,0,1,447.55951,418.867v93.132Z"/><polygon fill="#ededed" points="169.647 319.499 205.139 295.858 306.861 295.858 344.803 319.818 252.163 471.912 169.647 319.499"/><rect width="101.722" height="80.945" x="205.139" y="250.138" fill="#f9beac"/><path fill="#b29860" d="M205.13881,295.85805l-5.311,18.807a20,20,0,0,0,.50873,12.42586L256.411,477.4022,238.7796,490.38182,129.89739,389.85735a6.36793,6.36793,0,0,1,4.26229-10.70315l23.89308-1.4771,11.59387-58.17854Z"/><path fill="#b29860" d="M229.03632,511.999l82.6161-184.09275a20,20,0,0,0,.83136-14.20657l-5.62259-17.84165,37.94152,23.95956,1.57921,57.85949h20.83884a10.09324,10.09324,0,0,1,6.66607,17.6752L267.40091,511.999Z"/><polygon fill="#a08859" points="303.476 348.396 320.642 377.677 346.382 377.677 344.803 319.818 306.861 295.858 311.652 327.906 302.898 347.395 303.476 348.396"/><polygon fill="#a08859" points="206.59 347.882 190.206 375.902 158.053 377.677 169.647 319.499 205.139 295.858 207.864 345.562 206.59 347.882"/><path fill="#e58a7b" d="M336.37239,194.31068h0V153.261h5.7301a17.65977,17.65977,0,0,1,17.65977,17.65972v.00005A23.38984,23.38984,0,0,1,336.37239,194.31068Z"/><path fill="#e58a7b" d="M152.23776,153.261h.00008a23.38985,23.38985,0,0,1,23.38985,23.38985v0a17.65978,17.65978,0,0,1-17.65978,17.65978h-5.73015a0,0,0,0,1,0,0V153.261A0,0,0,0,1,152.23776,153.261Z" transform="rotate(180 163.933 173.786)"/><path fill="#e58a7b" d="M205.13879,275.39014a88.27678,88.27678,0,0,0,14.66333,13.28271h0a63.70358,63.70358,0,0,0,37.18946,11.98194H269.83a63.70367,63.70367,0,0,0,37.03125-11.87256V250.13818H205.13879Z"/><path fill="#f9beac" d="M336.37234,194.31068v1.6491a88.3253,88.3253,0,0,1-36.7635,71.7129l-.00033.00023a63.70546,63.70546,0,0,1-37.18944,11.98186H249.58068A63.70551,63.70551,0,0,1,212.3913,267.673l0,0a88.32528,88.32528,0,0,1-36.76358-71.71269V102.20336L274.8173,70.27029l61.555,27.4972Z"/><path fill="#343c4a" d="M336.37239 171.999h-4a10 10 0 0 1-10-10v-52h14zM175.62761 171.999h4a10 10 0 0 0 10-10v-52h-14z"/><path fill="#b29860" d="M324.31937,114.12786a48.67891,48.67891,0,0,0,23.85225-6.24419l2.98021-1.67517c14.71489-8.27112,19.08928-29.79754,9.05857-44.57727L336.3782,26.51564C326.52677,11.99979,311.31742,3.499,295.19773,3.499H216.8022c-16.11969,0-31.32894,8.50077-41.18047,23.01662l-23.8322,35.11559c-10.03061,14.77973-5.65622,36.30615,9.05857,44.57727l2.98021,1.67517a48.67891,48.67891,0,0,0,23.85225,6.24419Z"/><path fill="#fb615f" d="M175.62761,102.20336V90.183a16.42251,16.42251,0,0,1,11.65017-15.73111,237.11064,237.11064,0,0,1,137.34707-.02672,16.47241,16.47241,0,0,1,11.74754,15.759v12.01911Z"/><ellipse cx="256" cy="60.295" fill="#f8f6f7" rx="18.297" ry="18.29"/><path fill="#b29860" d="M175.62766,102.20336v2.92676A34.13684,34.13684,0,0,0,209.77048,139.261h92.45894a34.137,34.137,0,0,0,34.14292-34.13089v-2.92676Z"/><path fill="#e58a7b" d="M268.70444,199.1374v4.83972a12.7012,12.7012,0,0,1-12.7012,12.70119h-.00648a12.7012,12.7012,0,0,1-12.7012-12.70119V199.1374a3,3,0,0,1,3-3h19.40888A3,3,0,0,1,268.70444,199.1374Z"/><path fill="#f9f7f8" d="M205.13881 295.85805L256.411 331.08348l-29.45387 29.31723a9.41032 9.41032 0 0 1-15.4554-3.38042L200.3365 327.09094a20 20 0 0 1-.50872-12.42583zM306.86119 295.85805L256.411 331.08348l28.58979 30.69709a7.96413 7.96413 0 0 0 13.14052-2.27291l13.682-31.71167a20 20 0 0 0 .7115-13.93434z"/><path d="M403.03174,343.27686l-56.54419-26.53418-36.12769-22.814V263.39307a92.09116,92.09116,0,0,0,29.48828-65.81348,26.92418,26.92418,0,0,0,23.41407-26.65771,21.18363,21.18363,0,0,0-21.15967-21.15967h-2.23V116.56494l12.99414-7.3042a32.52427,32.52427,0,0,0,15.28174-21.09717,36.09124,36.09124,0,0,0-5.042-28.49658l-23.832-35.11572C328.84082,9.17822,312.36377,0,295.19775,0h-78.3955c-17.166,0-33.64307,9.17822-44.07666,24.55127L148.89355,59.667a36.09124,36.09124,0,0,0-5.042,28.49658,32.52209,32.52209,0,0,0,15.28174,21.09668l12.99414,7.30469v33.19727h-2.23a21.18363,21.18363,0,0,0-21.15967,21.15967,26.92418,26.92418,0,0,0,23.41407,26.65771,92.095,92.095,0,0,0,29.48828,65.81348V293.9834l-33.707,22.45215-58.47364,26.978a83.74544,83.74544,0,0,0-48.519,75.81934V508.5a3.5,3.5,0,1,0,7,0V419.23291A76.72394,76.72394,0,0,1,112.39209,349.77l52.4812-24.21338L155.144,374.35352l-21.19824,1.313a9.8624,9.8624,0,0,0-6.604,16.58252q.08862.09449.18408.18262l106.94971,98.7417-7.13916,15.89258a3.50014,3.50014,0,1,0,6.38574,2.86816L254.188,464.37354l.01-.022,49.1084-109.32324,14.31567,24.41992a3.5,3.5,0,0,0,3.01953,1.73h46.5791a6.59319,6.59319,0,0,1,4.356,11.5459,3.48724,3.48724,0,0,0-.27441.26953l-103.311,113.14649a3.49978,3.49978,0,0,0,5.16895,4.71972L376.35059,397.8457a13.59318,13.59318,0,0,0-9.12989-23.66748H349.7876l-1.33155-48.77929,51.60206,24.21484a76.79949,76.79949,0,0,1,44.00146,69.25439V508.5a3.5,3.5,0,0,0,7,0V418.86816A83.82676,83.82676,0,0,0,403.03174,343.27686ZM172.12744,190.50342a19.92234,19.92234,0,0,1-16.38965-19.58154,14.17577,14.17577,0,0,1,14.15967-14.15967h2.23ZM332.87256,168.5h-.50244a6.50753,6.50753,0,0,1-6.5-6.5V134.38623a37.93513,37.93513,0,0,0,7.00244-7.43994ZM179.12744,153.25732v-26.311a37.93513,37.93513,0,0,0,7.00244,7.43994V162a6.50753,6.50753,0,0,1-6.5,6.5h-.502V153.26221ZM256,82.08643a21.82835,21.82835,0,0,0,20.11719-13.4087,234.65392,234.65392,0,0,1,47.49316,9.10352,12.90133,12.90133,0,0,1,9.25977,12.40869V98.7002H179.12988v-8.52a12.85186,12.85186,0,0,1,9.16358-12.37989A234.39461,234.39461,0,0,1,235.87915,68.669,21.82865,21.82865,0,0,0,256,82.08643Zm-14.79639-21.79A14.79639,14.79639,0,1,1,256,75.08643,14.81,14.81,0,0,1,241.20361,60.29639ZM179.14185,105.7002h153.7163a30.66739,30.66739,0,0,1-30.62866,30.062h-92.459A30.66739,30.66739,0,0,1,179.14185,105.7002Zm162.96069,51.062a14.17577,14.17577,0,0,1,14.15967,14.15967,19.924,19.924,0,0,1-16.38965,19.58154V156.76221Zm-169.97266-66.582v11.99951c0,.0083-.00244.01611-.00244.02441v6.33008l-9.56445-5.376a25.51916,25.51916,0,0,1-11.89746-16.59863,29.07383,29.07383,0,0,1,4.02-22.96191l23.832-35.11573C187.7832,14.83008,201.7373,7,216.80225,7h78.3955c15.065,0,29.019,7.83008,38.28467,21.48193l23.832,35.11573a29.07383,29.07383,0,0,1,4.02,22.96191A25.52136,25.52136,0,0,1,349.437,103.15869l-9.56445,5.376V97.76855c0-.0083-.00244-.01611-.00244-.02441v-7.5542a19.85851,19.85851,0,0,0-14.23877-19.11035A241.66607,241.66607,0,0,0,277.739,61.79492c.03394-.4956.05738-.99414.05738-1.49853a21.79639,21.79639,0,0,0-43.59278,0c0,.501.0232.99658.05664,1.48925a241.48226,241.48226,0,0,0-47.9956,9.31495A19.81169,19.81169,0,0,0,172.12988,90.18018Zm6.99756,105.78125v-1.645l.00049-.00489V175.5h.502a13.51539,13.51539,0,0,0,13.5-13.5V138.87354a37.414,37.414,0,0,0,16.64063,3.88867h92.459a37.414,37.414,0,0,0,16.64063-3.88867V162a13.51539,13.51539,0,0,0,13.5,13.5h.50244v20.46094A85.02348,85.02348,0,0,1,297.56494,264.832a59.852,59.852,0,0,1-35.146,11.32373H249.58057a59.852,59.852,0,0,1-35.146-11.32373A85.02545,85.02545,0,0,1,179.12744,195.96143Zm29.5127,98.05664V269.249c.56494.42676,1.1311.85205,1.70752,1.2666a66.81628,66.81628,0,0,0,39.23291,12.64014H262.419a66.81633,66.81633,0,0,0,39.23291-12.64014c.57666-.41455,1.14282-.84033,1.708-1.26708v24.78662l-46.96557,32.78759Zm42.311,37.5581-26.46094,26.34375a5.90673,5.90673,0,0,1-9.668-2.02832l-.00684-.01367-11.19775-30.01514a16.31539,16.31539,0,0,1-.41944-10.24218l3.98389-14.11182Zm-78.15283-9.96826,26.40088-17.58545-2.73633,9.69238a23.26065,23.26065,0,0,0,.59766,14.59815l6.59619,17.68115c-.02735.043-.0625.07715-.08838.12158l-15.43457,26.39649-25.76807,1.42236ZM237.50049,484.439,132.38574,387.39111a2.862,2.862,0,0,1,1.99072-4.73779l23.88965-1.48.01783-.00244,32.1145-1.773a3.5008,3.5008,0,0,0,2.82861-1.728l13.58154-23.22754,40.41895,108.34278Zm13.80859-30.73974L218.79419,366.543a12.71312,12.71312,0,0,0,10.635-3.6626l26.88574-26.7666L282.439,364.165a11.3315,11.3315,0,0,0,7.46973,3.60547Zm42.10059-93.72266a4.42334,4.42334,0,0,1-5.84815-.582l-25.84423-27.751,43.23852-30.186,4.19019,13.29541a16.48058,16.48058,0,0,1-.68653,11.72021Zm29.2373,14.20166-15.82031-26.98633,8.01855-17.85058a23.47474,23.47474,0,0,0,.97706-16.69238l-2.751-8.729L341.355,321.78076l1.43018,52.39746ZM128.12109,431.82617a3.49987,3.49987,0,0,0-3.5,3.5V508.5a3.5,3.5,0,1,0,7,0V435.32617A3.49986,3.49986,0,0,0,128.12109,431.82617Zm255.75782,0a3.49986,3.49986,0,0,0-3.5,3.5V508.5a3.5,3.5,0,0,0,7,0V435.32617A3.49987,3.49987,0,0,0,383.87891,431.82617ZM221.13379,163.06934a3.49985,3.49985,0,0,0-3.5,3.5v7.4331a3.5,3.5,0,0,0,7,0v-7.4331A3.49986,3.49986,0,0,0,221.13379,163.06934Zm-11.67871-3.27393a3.48579,3.48579,0,0,0,1.32763-.26318,27.15371,27.15371,0,0,1,9.66114-2.03711,27.52787,27.52787,0,0,1,11.043,2.03759,3.49987,3.49987,0,0,0,2.65527-6.47656,34.20473,34.20473,0,0,0-26.01758.00049,3.50062,3.50062,0,0,0,1.33057,6.73877ZM256,220.1792A16.2212,16.2212,0,0,0,272.20459,203.978v-5.52979a3.5,3.5,0,0,0-7,0V203.978a9.20459,9.20459,0,0,1-18.40918,0v-5.52979a3.5,3.5,0,0,0-7,0V203.978A16.2212,16.2212,0,0,0,256,220.1792Zm-15.71875,19.30518a36.91932,36.91932,0,0,0,15.71973,3.5371h.11035a36.93678,36.93678,0,0,0,15.60742-3.5371,3.49987,3.49987,0,0,0-2.998-6.3252,29.69668,29.69668,0,0,1-25.4414,0,3.49987,3.49987,0,0,0-2.99805,6.3252Zm50.585-76.415a3.49986,3.49986,0,0,0-3.5,3.5v7.4331a3.5,3.5,0,0,0,7,0v-7.4331A3.49985,3.49985,0,0,0,290.86621,163.06934Zm-10.35156-3.53711a27.16069,27.16069,0,0,1,9.66162-2.03711,27.49928,27.49928,0,0,1,11.04248,2.03759,3.49987,3.49987,0,1,0,2.65527-6.47656,34.20486,34.20486,0,0,0-26.01757.00049,3.5,3.5,0,1,0,2.6582,6.47559Z"/></svg>