<svg xmlns="http://www.w3.org/2000/svg" data-name="Layer 1" viewBox="0 0 512 512"><path fill="#343c4a" d="M152.23775,336.66308V107.26116A103.76214,103.76214,0,0,1,255.99989,3.499h.00021A103.76213,103.76213,0,0,1,359.76223,107.26116V336.66309Z"/><path fill="#343c4a" d="M447.55951,501.999V397.30246a60,60,0,0,0-33.65575-53.90714l-102.824-50.24975a20,20,0,0,1-11.21858-17.96905V241.13818H212.13879v34.03834a20,20,0,0,1-11.21858,17.96905l-102.824,50.24975a60,60,0,0,0-33.65575,53.90714V501.999a10,10,0,0,0,10,10h363.119A10,10,0,0,0,447.55951,501.999Z"/><polygon fill="#fff" points="291.878 487.395 223.95 487.395 195.95 332.702 305.878 332.702 291.878 487.395"/><path fill="#f9beac" d="M311.07979,293.14557a20,20,0,0,1-11.21858-17.96905V241.13818H212.13879v34.03834a20,20,0,0,1-11.21858,17.96905L256.001,336.49121Z"/><path fill="#e58a7b" d="M299.86133,275.17676V241.13818H212.13867v32.15674A80.11492,80.11492,0,0,0,270,297.915h0A80.005,80.005,0,0,0,305.87817,289.46,19.9881,19.9881,0,0,1,299.86133,275.17676Z"/><path fill="#f9beac" d="M175.62763,196.54278V133.60986a7.00686,7.00686,0,0,1,7.13527-6.99794,199.07178,199.07178,0,0,0,60.51314-8.40977A198.84694,198.84694,0,0,0,291.88917,96.057a5.98547,5.98547,0,0,1,8.07405,1.63846,81.38524,81.38524,0,0,0,32.34339,26.926,6.99618,6.99618,0,0,1,4.06576,6.35253v65.56879A80.37228,80.37228,0,0,1,256.00008,276.915h-.00017A80.37229,80.37229,0,0,1,175.62763,196.54278Z"/><path fill="#e58a7b" d="M268.70444 194.51261v8.06568A12.70443 12.70443 0 0 1 256 215.28271h0a12.70443 12.70443 0 0 1-12.70443-12.70442v-8.06568a3 3 0 0 1 3-3h19.40888A3 3 0 0 1 268.70444 194.51261zM336.37238 192.42068h0V151.371H352.7622a7 7 0 0 1 7 7l0 10.65978A23.38985 23.38985 0 0 1 336.37238 192.42068z"/><path fill="#e58a7b" d="M152.23775,151.371h.00008a23.38985,23.38985,0,0,1,23.38985,23.38985v10.65983a7,7,0,0,1-7,7H152.23775a0,0,0,0,1,0,0V151.371A0,0,0,0,1,152.23775,151.371Z" transform="rotate(180 163.933 171.896)"/><polygon fill="#f96263" points="284.904 485.598 255.65 492.598 228.029 485.598 251.049 334.837 256 341.837 260.951 334.837 284.904 485.598"/><path fill="#d34342" d="M287.9902,343.56473l-18.91073,29.40184a14.02078,14.02078,0,0,1-23.7349-.087L225.728,341.89511,256,336.49143Z"/><path fill="#f2f2f2" d="M303.10791,343.26172l15.13525-46.61524-7.16333-3.501a19.95758,19.95758,0,0,1-6.92749-5.60889L256,336.49121l27.218,14.8418A13.911,13.911,0,0,0,303.10791,343.26172Z"/><path fill="#596381" d="M226.2745,511.999,164.75,391.709a4.7941,4.7941,0,0,1,1.25-5.93l15.33-12.21a4.79291,4.79291,0,0,0,.65-6.84l-16.73-19.55a4.81236,4.81236,0,0,1-.39-5.69l28.48-44.64.4-.19,61.91,192.67-.44229,22.67Z"/><path fill="#596381" d="M248.28286,511.999,318.25,296.649l.39.2,28.5,44.64a4.81236,4.81236,0,0,1-.39,5.69l-16.73,19.56a4.786,4.786,0,0,0,.65,6.84l15.33,12.2a4.7941,4.7941,0,0,1,1.25,5.93l-61.86146,120.29Z"/><path fill="#f2f2f2" d="M193.71973,296.66455,208.731,343.29639a13.91154,13.91154,0,0,0,19.90454,8.1167L256.001,336.49121l-48.17139-48.93115a19.96329,19.96329,0,0,1-6.90942,5.58545Z"/><circle cx="458.036" cy="311.968" r="50.455" fill="#343c4a"/><rect width="97.62" height="30.712" x="382.902" y="342.208" fill="#88b5ea" rx="6.581" transform="rotate(-150 431.712 357.563)"/><path fill="#596381" d="M346.00968,506.00439h0a18.60282,18.60282,0,0,0,24.93535-6.02862l75.07572-116.4197-43.97328-25.388L338.763,481.39543A18.60281,18.60281,0,0,0,346.00968,506.00439Z"/><path d="M485.00977,265.23828a53.94313,53.94313,0,0,0-80.28565,54.97119l-.15527-.08935a10.08114,10.08114,0,0,0-13.771,3.69043l-1.98193,3.4331-25.55615-12.48926V169.12793c0-.03223.00244-.064.00244-.09619V158.37207c0-.01611-.00244-.03174-.00244-.04834v-51.064a107.25977,107.25977,0,0,0-214.51954,0v51.064c0,.0166-.00244.03223-.00244.04834v10.65967c0,.03222.00244.064.00244.09619V314.75586l-52.17578,25.499A63.8756,63.8756,0,0,0,60.93994,397.2998V508.5a3.5,3.5,0,1,0,7,0V397.2998a56.83164,56.83164,0,0,1,31.69678-50.75488l84.05444-41.0791-21.781,34.14063a8.36307,8.36307,0,0,0,.68066,9.84863l16.72754,19.54785a1.28029,1.28029,0,0,1,.2959.959,1.25908,1.25908,0,0,1-.46485.8711l-15.33056,12.21a8.3122,8.3122,0,0,0-2.18115,10.26855l60.08007,116.79a3.5,3.5,0,0,0,6.22461-3.20215L167.86523,390.11426a1.28961,1.28961,0,0,1,.31543-1.59668l15.32764-12.208a8.18793,8.18793,0,0,0,3.07373-5.6748,8.32834,8.32834,0,0,0-1.94287-6.17969l-16.72266-19.542a1.30826,1.30826,0,0,1-.106-1.54l24.76953-38.82569,10.12353,31.44776,49.26758,153.32617L246.09131,507.419a3.49976,3.49976,0,1,0,6.65723,2.1621l6.26123-19.271.00219-.00733,47.40747-145.91357c.00513-.01562.01245-.02978.01758-.04541l4.17847-12.86963,8.76147-26.96631L344.19043,343.374a1.3042,1.3042,0,0,1-.1001,1.53028l-16.72705,19.55664a8.31363,8.31363,0,0,0-1.94971,6.168,8.19749,8.19749,0,0,0,3.07666,5.68945l15.32862,12.19922a1.28813,1.28813,0,0,1,.31885,1.5918l-60.08008,116.79a3.49976,3.49976,0,1,0,6.22461,3.20118l60.083-116.79493a8.31047,8.31047,0,0,0-2.18554-10.26367L332.8501,370.8418a1.286,1.286,0,0,1-.17041-1.82618l16.73681-19.56933a8.36022,8.36022,0,0,0,.67383-9.83984l-21.80371-34.15186,57.02075,27.86523-3.28442,5.689a10.09347,10.09347,0,0,0,3.68994,13.77148l11.69873,6.7544L335.6499,479.79785a22.10174,22.10174,0,0,0,38.23633,22.0752l6.49365-10.06983V508.5a3.5,3.5,0,0,0,7,0V480.94873l56.52222-87.64844c.09436,1.33008.158,2.66309.158,3.99951V508.5a3.5,3.5,0,0,0,7,0V397.2998a63.471,63.471,0,0,0-.39856-7.02148l8.194,4.73047a10.08609,10.08609,0,0,0,13.771-3.69043l8.77442-15.19824a10.08146,10.08146,0,0,0-3.68994-13.77149l-.15747-.09082a53.942,53.942,0,0,0,7.4563-97.01953ZM155.74023,158.34766a3.50289,3.50289,0,0,1,3.49756-3.47559h12.88965v33.72217a19.90789,19.90789,0,0,1-16.38721-19.51416ZM192.19507,293.519l-.3523.16651c-.02539.0122-.04834.02881-.07348.0415L155.74023,311.335V187.11182a26.85423,26.85423,0,0,0,16.38721,8.5747v.85743a83.83619,83.83619,0,0,0,36.5127,69.17382v9.46192a16.41554,16.41554,0,0,1-3.4292,10.083,3.5437,3.5437,0,0,0-.32764.42041,16.57108,16.57108,0,0,1-5.5,4.32275ZM255.99951,331.502l-43.63574-44.32422a23.457,23.457,0,0,0,3.27637-11.998V270.04a83.68266,83.68266,0,0,0,80.71972,0v5.13965a23.458,23.458,0,0,0,3.26172,11.97265Zm.001,8.97754,22.07617,12.03809-11.93994,18.55859a10.41815,10.41815,0,0,1-8.89258,4.9043h-.03809a10.43514,10.43514,0,0,1-8.90917-4.97266l-12.39039-19.57129ZM256,273.416A76.95949,76.95949,0,0,1,179.12744,196.544V133.61084A3.46091,3.46091,0,0,1,180.168,131.126a3.51128,3.51128,0,0,1,2.48193-1.01416l.05762.00048a201.96181,201.96181,0,0,0,61.57764-8.55761,202.33684,202.33684,0,0,0,49.46923-22.53516,2.487,2.487,0,0,1,3.35059.69678,84.88407,84.88407,0,0,0,33.73193,28.08252,3.51444,3.51444,0,0,1,2.03565,3.17627V196.544A76.95949,76.95949,0,0,1,256,273.416Zm-43.9375,68.80859-2.89526-8.99365-11.16846-34.75782L202.458,296.294a23.75348,23.75348,0,0,0,5.44678-3.66846l42.34667,43.01513L226.96,348.34082a10.26738,10.26738,0,0,1-8.75391.52539A10.59307,10.59307,0,0,1,212.0625,342.22461Zm4.30127,13.40234a17.04814,17.04814,0,0,0,13.37329-.84961l11.86475,18.74121-6.27759,41.11573Zm39.30371,122.31787-15.543-48.37158,7.54907-49.44336a17.4466,17.4466,0,0,0,9.50806,2.85059h.061a17.44259,17.44259,0,0,0,7.53515-1.70654l7.32422,46.0874Zm21.19409-65.23291-5.80151-36.50586c.33716-.43212.66284-.87548.96338-1.34277l12.36694-19.22217a17.01067,17.01067,0,0,0,11.03711-.07226Zm26.18531-80.59423-3.282,10.10107a10.58976,10.58976,0,0,1-6.13452,6.57422,10.27146,10.27146,0,0,1-8.73682-.53223l-23.146-12.62109L304.074,292.60742a23.76988,23.76988,0,0,0,5.46949,3.6875l4.43115,2.16553Zm53.21289-20.78418L319.98071,293.604l-.13891-.0708c-.009-.00488-.019-.00683-.02832-.01074l-7.1958-3.5166a16.56282,16.56282,0,0,1-5.52-4.34766,3.48636,3.48636,0,0,0-.32056-.41064,16.41647,16.41647,0,0,1-3.41724-10.06787v-9.46192a83.83619,83.83619,0,0,0,36.5127-69.17382v-.85743a26.85423,26.85423,0,0,0,16.38721-8.5747Zm0-142.25342a19.90789,19.90789,0,0,1-16.38721,19.51416V154.87207h12.88965a3.50289,3.50289,0,0,1,3.49756,3.47559Zm0-20.59619a10.42478,10.42478,0,0,0-3.49756-.61182H339.87256v-16.897a10.53548,10.53548,0,0,0-6.0957-9.52881,77.88921,77.88921,0,0,1-30.95557-25.77,9.48556,9.48556,0,0,0-12.79736-2.57959,195.32848,195.32848,0,0,1-47.75733,21.75488,195.307,195.307,0,0,1-59.44922,8.26172,10.50651,10.50651,0,0,0-10.68994,10.49756v14.26123H159.23779a10.42478,10.42478,0,0,0-3.49756.61182V107.25977a100.25977,100.25977,0,1,1,200.51954,0Zm11.74365,349.59619a15.10282,15.10282,0,0,1-26.127-15.085L403.481,363.03857l37.606,21.71143Zm107.33545-125.46L466.564,387.81836a3.08121,3.08121,0,0,1-4.20849,1.12793l-14.5376-8.39307c-.03162-.02-.06433-.03711-.09656-.05615l-58.50842-33.7793a3.0809,3.0809,0,0,1-1.12744-4.209l8.77441-15.19824a3.08195,3.08195,0,0,1,4.209-1.12793l73.14209,42.22851a3.08052,3.08052,0,0,1,1.12793,4.209Zm23.35937-37.16895a46.98306,46.98306,0,0,1-29.3573,22.06494l-56.41028-32.56836a46.9475,46.9475,0,1,1,85.76758,10.50342ZM256,141.5a3.5,3.5,0,1,0-3.5-3.5A3.49985,3.49985,0,0,0,256,141.5ZM128.12012,431.82617a3.50017,3.50017,0,0,0-3.5,3.5V508.5a3.5,3.5,0,0,0,7,0V435.32617A3.50017,3.50017,0,0,0,128.12012,431.82617Zm140.60107-200.063a29.69537,29.69537,0,0,1-25.44189.00049,3.49987,3.49987,0,0,0-2.99805,6.3252A36.91933,36.91933,0,0,0,256.001,241.626h.11084a36.955,36.955,0,0,0,15.60644-3.53662,3.50011,3.50011,0,0,0-2.99707-6.32618Zm22.145-74.02832a3.49987,3.49987,0,0,0-3.5,3.5V168.668a3.5,3.5,0,0,0,7,0v-7.43311A3.49986,3.49986,0,0,0,290.86621,157.73486ZM256,218.78369a16.2212,16.2212,0,0,0,16.20459-16.20117v-5.52979a3.5,3.5,0,0,0-7,0v5.52979a9.20459,9.20459,0,0,1-18.40918,0v-5.52979a3.5,3.5,0,0,0-7,0v5.52979A16.2212,16.2212,0,0,0,256,218.78369Zm47.874-71.062a34.205,34.205,0,0,0-26.01757.00049,3.5,3.5,0,1,0,2.6582,6.47558,27.14657,27.14657,0,0,1,9.66162-2.03711,27.441,27.441,0,0,1,11.04248,2.0376,3.49987,3.49987,0,1,0,2.65527-6.47656Zm-82.74023,10.01318a3.49986,3.49986,0,0,0-3.5,3.5V168.668a3.5,3.5,0,0,0,7,0v-7.43311A3.49987,3.49987,0,0,0,221.13379,157.73486Zm13.0083-10.01318a34.20489,34.20489,0,0,0-26.01758.00049,3.5,3.5,0,0,0,2.6582,6.47558,27.13954,27.13954,0,0,1,9.66114-2.03711,27.47765,27.47765,0,0,1,11.043,2.0376,3.49987,3.49987,0,0,0,2.65527-6.47656Z"/></svg>