<svg xmlns="http://www.w3.org/2000/svg" data-name="Layer 1" viewBox="0 0 512 512"><path fill="#f9beac" d="M447.55957,501.999V389.31989a60,60,0,0,0-38.01-55.82508l-97.01835-38.21639a20,20,0,0,1-12.67-18.60836V250.7627H212.13892v25.90736a20,20,0,0,1-12.67,18.60836l-97.01846,38.21639a60,60,0,0,0-38.01,55.8251V501.999a10,10,0,0,0,10,10H437.55957A10,10,0,0,0,447.55957,501.999Z"/><path fill="#7177db" d="M383.88,511.999V466.47976a13.54842,13.54842,0,0,0-1.16415-5.4945l-4.01987-9.06052a139.666,139.666,0,0,1-3.615-104.30764L383.88,323.3833l-46.61187-18.36084h-.00025a88.48929,88.48929,0,0,1-162.5357,0H174.732L128.12,323.3833l8.79906,24.2338a139.666,139.666,0,0,1-3.615,104.30764l-4.01987,9.06052a13.54842,13.54842,0,0,0-1.16415,5.4945V511.999Z"/><rect width="176" height="108" x="168" y="400.499" fill="#ffbc5b" rx="10"/><circle cx="319.5" cy="42.499" r="39" fill="#243047"/><path fill="#343c4a" d="M232.8899,27.51912h46.22026a57.26221,57.26221,0,0,1,57.26221,57.26221V175.0984a0,0,0,0,1,0,0H175.62769a0,0,0,0,1,0,0V84.78133A57.26221,57.26221,0,0,1,232.8899,27.51912Z"/><path fill="#243047" d="M326.07935,52.043a86.78209,86.78209,0,0,1-29.28162,40.82129l5.7489,38.85693,33.82568,9.92139V84.78125a56.98392,56.98392,0,0,0-9.53894-31.64063l-.45495-.67675C326.281,52.32178,326.17773,52.18408,326.07935,52.043Z"/><path fill="#e58a7b" d="M212.13892,250.7627v20.90087a93.21449,93.21449,0,0,0,33.168,20.08741h.00025a53.77831,53.77831,0,0,0,35.38574,0h.00012a93.36061,93.36061,0,0,0,19.91346-9.71875,19.95551,19.95551,0,0,1-.74524-5.36231V250.7627Z"/><path fill="#f9beac" d="M175.62758,182.541l0-48.93115a7.00689,7.00689,0,0,1,7.13532-6.998,199.07058,199.07058,0,0,0,60.51319-8.40974,198.9478,198.9478,0,0,0,53.52173-25.338,81.41769,81.41769,0,0,0,35.50888,31.75732,6.99616,6.99616,0,0,1,4.06578,6.35253l0,51.567A93.41,93.41,0,0,1,273.693,270.75118l-.00009,0a53.78019,53.78019,0,0,1-35.38586,0l-.00009,0A93.41,93.41,0,0,1,175.62758,182.541Z"/><path fill="#e58a7b" d="M268.70445 181.42068v7.16084a12.7012 12.7012 0 0 1-12.7012 12.70119h-.00648a12.7012 12.7012 0 0 1-12.7012-12.70119v-7.16084a3 3 0 0 1 3-3h19.40888A3 3 0 0 1 268.70445 181.42068zM336.37239 178.42068h0V137.371h16.38984a7 7 0 0 1 7 7l0 10.65978A23.38985 23.38985 0 0 1 336.37239 178.42068z"/><path fill="#e58a7b" d="M152.23776,137.371h.00008a23.38985,23.38985,0,0,1,23.38985,23.38985v10.65983a7,7,0,0,1-7,7H152.23776a0,0,0,0,1,0,0V137.371A0,0,0,0,1,152.23776,137.371Z" transform="rotate(180 163.933 157.896)"/><path d="M256,204.7832A16.22109,16.22109,0,0,0,272.2041,188.582v-5.5293a3.5,3.5,0,0,0-7,0v5.5293a9.2041,9.2041,0,0,1-18.4082,0v-5.5293a3.5,3.5,0,0,0-7,0v5.5293A16.22109,16.22109,0,0,0,256,204.7832Zm17.39746,222.61426a16.63349,16.63349,0,0,0-16.61523,16.61524v20.9746a16.61524,16.61524,0,1,0,33.23047,0V444.0127A16.6335,16.6335,0,0,0,273.39746,427.39746Zm9.61524,37.58984a9.61524,9.61524,0,1,1-19.23047,0V444.0127a9.61524,9.61524,0,1,1,19.23047,0ZM410.833,330.24316l-25.74378-10.14111-.015-.00732-.00928-.00244-71.25146-28.06788a16.41322,16.41322,0,0,1-10.45313-15.35449v-18.3706A96.98972,96.98972,0,0,0,339.87207,182.542v-.85547a26.925,26.925,0,0,0,23.39063-26.65429V144.37109a10.51316,10.51316,0,0,0-10.5-10.499H339.87207V84.78223c0-1.64356-.08447-3.26758-.21313-4.87842a42.49711,42.49711,0,1,0-58.46363-55.83057c-.6936-.02344-1.38574-.05273-2.085-.05273h-46.2207a60.83081,60.83081,0,0,0-60.76172,60.76172v49.08984H159.2373a10.51149,10.51149,0,0,0-10.5,10.5v10.66016a26.925,26.925,0,0,0,23.39063,26.65429v.85547a96.98972,96.98972,0,0,0,36.51172,75.75733v18.3706a16.411,16.411,0,0,1-10.45313,15.35352l-71.25134,28.06885-.0094.00244-.01538.00732L101.168,330.24316a63.1378,63.1378,0,0,0-40.22754,59.07715V508.5a3.5,3.5,0,1,0,7,0V389.32031a56.17484,56.17484,0,0,1,35.793-52.56347l22.325-8.79493,7.57056,20.85059a135.528,135.528,0,0,1-3.52442,101.69434l-4.01953,9.06054a16.94423,16.94423,0,0,0-1.46484,6.91309V508.5a3.5,3.5,0,0,0,7,0V466.48047a9.98569,9.98569,0,0,1,.86328-4.0752l4.01953-9.05957A142.49721,142.49721,0,0,0,140.209,346.42383L132.57373,325.395l40.3501-15.89551A91.9802,91.9802,0,0,0,339.07666,309.5l40.34961,15.895L371.791,346.42383a142.49457,142.49457,0,0,0,3.70605,106.9209l4.01953,9.06054a9.98569,9.98569,0,0,1,.86328,4.0752V508.5a3.5,3.5,0,0,0,7,0V466.48047a16.94423,16.94423,0,0,0-1.46484-6.91309l-4.01953-9.06054a135.528,135.528,0,0,1-3.52442-101.69434l7.57056-20.85059,22.32593,8.79493a56.17538,56.17538,0,0,1,35.792,52.56347V508.5a3.5,3.5,0,0,0,7,0V389.32031A63.13834,63.13834,0,0,0,410.833,330.24316ZM339.87207,140.87207H352.7627a3.50425,3.50425,0,0,1,3.5,3.5v10.66016a19.90926,19.90926,0,0,1-16.39063,19.562ZM172.12793,174.59424a19.90926,19.90926,0,0,1-16.39063-19.562V144.37207a3.50425,3.50425,0,0,1,3.5-3.5h12.89063Zm160.74414-53.58789a77.66533,77.66533,0,0,1-31.43848-27.36573A89.94934,89.94934,0,0,0,326.7644,59.939a53.4129,53.4129,0,0,1,6.10767,24.84327ZM319.5,7a35.49363,35.49363,0,0,1,19.103,65.41211,60.44717,60.44717,0,0,0-9.41895-21.99561,3.50474,3.50474,0,0,0-.52075-.73193A60.8279,60.8279,0,0,0,288.73584,24.791,35.37986,35.37986,0,0,1,319.5,7ZM179.12793,84.78223a53.82233,53.82233,0,0,1,53.76172-53.76172h46.2207a53.7141,53.7141,0,0,1,43.04529,21.5874,83.08529,83.08529,0,0,1-27.41711,37.42334,195.27828,195.27828,0,0,1-52.471,24.82031,195.10772,195.10772,0,0,1-59.44922,8.26172c-.05762-.001-.11524-.001-.17383-.001a10.52778,10.52778,0,0,0-3.5166.61133Zm0,97.75976V133.61035a3.45937,3.45937,0,0,1,1.041-2.48535,3.5089,3.5089,0,0,1,2.48046-1.0127c.01954,0,.03907,0,.0586.001a202.26364,202.26364,0,0,0,61.57715-8.55859,202.14518,202.14518,0,0,0,51.46777-23.80957,84.88813,84.88813,0,0,0,35.083,30.05273,3.5172,3.5172,0,0,1,2.03613,3.17676V182.542A89.99093,89.99093,0,0,1,272.542,267.44727a50.50015,50.50015,0,0,1-33.084,0A89.99093,89.99093,0,0,1,179.12793,182.542ZM256,355a85.01723,85.01723,0,0,1-76.54126-48.0752l21.29419-8.38867a23.37266,23.37266,0,0,0,14.88672-21.86621V263.3916a96.65311,96.65311,0,0,0,21.51562,10.665,57.49917,57.49917,0,0,0,37.68946,0,96.65311,96.65311,0,0,0,21.51562-10.665v13.27832a23.37494,23.37494,0,0,0,14.88672,21.86719l21.29382,8.38818A85.01723,85.01723,0,0,1,256,355Zm-20.81836,73.32324H225.4873a3.5,3.5,0,1,0,0,7h6.19434v41.85352a3.5,3.5,0,0,0,7,0V431.82324A3.50048,3.50048,0,0,0,235.18164,428.32324ZM334,397H178a13.51476,13.51476,0,0,0-13.5,13.5v88A13.51476,13.51476,0,0,0,178,512H334a13.51476,13.51476,0,0,0,13.5-13.5v-88A13.51476,13.51476,0,0,0,334,397Zm6.5,101.5A6.50753,6.50753,0,0,1,334,505H178a6.50753,6.50753,0,0,1-6.5-6.5v-88A6.50753,6.50753,0,0,1,178,404H334a6.50753,6.50753,0,0,1,6.5,6.5ZM279.18652,143.80078a3.50264,3.50264,0,0,0,1.32813-.26269,27.21567,27.21567,0,0,1,20.70508,0,3.49969,3.49969,0,1,0,2.65429-6.47657,34.214,34.214,0,0,0-26.01757,0,3.50078,3.50078,0,0,0,1.33007,6.73926Zm11.67969,3.27442a3.50048,3.50048,0,0,0-3.5,3.5v7.43261a3.5,3.5,0,0,0,7,0V150.5752A3.50048,3.50048,0,0,0,290.86621,147.0752Zm-69.73242,0a3.50048,3.50048,0,0,0-3.5,3.5v7.43261a3.5,3.5,0,0,0,7,0V150.5752A3.50048,3.50048,0,0,0,221.13379,147.0752Zm13.00781-10.01368a34.21431,34.21431,0,0,0-26.01758,0,3.50043,3.50043,0,1,0,2.65821,6.47657,27.216,27.216,0,0,1,20.70507,0,3.49969,3.49969,0,1,0,2.6543-6.47657ZM256.001,227.626h.11132a36.94384,36.94384,0,0,0,15.60645-3.53614,3.50031,3.50031,0,0,0-2.998-6.32617,29.8899,29.8899,0,0,1-12.62988,2.86231H256.001a29.89319,29.89319,0,0,1-12.72168-2.86231,3.50031,3.50031,0,1,0-2.99805,6.32617A36.94012,36.94012,0,0,0,256.001,227.626Z"/></svg>