<svg xmlns="http://www.w3.org/2000/svg" data-name="Layer 1" viewBox="0 0 512 512"><path fill="#f9beac" d="M447.55957,501.999V360.93743a80,80,0,0,0-50.68-74.43345l-84.34835-33.22556a20,20,0,0,1-12.67-18.60836V215.7627H212.13892v18.90736a20,20,0,0,1-12.67,18.60836L115.12046,286.504a80,80,0,0,0-50.68,74.43346V501.999a10,10,0,0,0,10,10H437.55957A10,10,0,0,0,447.55957,501.999Z"/><path fill="#f9f7f8" d="M255.99994,474.99365h.00012a69.21085,69.21085,0,0,0,69.21076-69.21094V258.273l-12.67963-4.99463a19.96942,19.96942,0,0,1-8.32025-6.15625V405.7832a48.21094,48.21094,0,0,1-96.42188,0V247.12256a19.97255,19.97255,0,0,1-8.32013,6.15576L186.78918,258.273V405.78271A69.21085,69.21085,0,0,0,255.99994,474.99365Z"/><path fill="#ff7b4f" d="M350.36606 511.999V270.31177a7 7 0 0 1 9.89916-6.37141l42.66593 19.41413a7 7 0 0 1 4.10084 6.37141V511.999zM327.50165 155.82422H184.49835V129.72705l-15.3761-29.50439a66.15134 66.15134 0 0 1-1.95489-57.05713V43.165a66.152 66.152 0 0 1 60.6181-39.666h56.42908a66.152 66.152 0 0 1 60.6181 39.666v.00049a66.15134 66.15134 0 0 1-1.95489 57.05713l-15.3761 29.50439z"/><path fill="#f9beac" d="M184.49835,204.90918V129.72705A170.42857,170.42857,0,0,0,230.88519,107.167a169.31845,169.31845,0,0,0,24.29993-20.44433,172.33365,172.33365,0,0,0,28.29675,22.772,172.75108,172.75108,0,0,0,44.01978,20.23242v75.18213Z"/><path fill="#e58a7b" d="M228.85492,298.10352l26.3288,15.42285a1.99956,1.99956,0,0,0,2.02594-.00244l26.12146-15.38623a89.65768,89.65768,0,0,0,36.86029-41.8418l-7.66022-3.01758a19.99959,19.99959,0,0,1-12.67-18.6084V215.7627H212.13892v18.90722a19.99959,19.99959,0,0,1-12.67,18.6084l-7.6073,2.99658A89.65672,89.65672,0,0,0,228.85492,298.10352Z"/><path fill="#eaeaea" d="M310.78992 252.48291c-.28485-.145-.568-.292-.84394-.44971-.16143-.09179-.31817-.18994-.47644-.28613-.24731-.15039-.49212-.30371-.73162-.46387-.16059-.10742-.31806-.21826-.475-.33008q-.34278-.24389-.67377-.50146c-.15271-.11865-.30438-.23828-.45325-.36084-.21783-.18018-.42932-.36621-.63885-.55469-.13861-.12451-.27875-.24707-.41357-.37549-.21912-.20849-.42927-.4248-.63831-.64257-.11316-.11768-.23047-.23194-.34058-.352q-.452-.49512-.87066-1.01709l-.02295-.02686v33.999a89.82772 89.82772 0 0 0 15.98047-24.82519l-7.66022-3.01758c-.45014-.17725-.88934-.37256-1.32086-.5791C311.06763 252.63086 310.93048 252.5542 310.78992 252.48291zM207.78906 280.97852v-33.856c-.2854.35889-.58532.70654-.8952 1.04541-.10773.11767-.22247.229-.33307.34424-.21112.22021-.42346.43847-.64484.64892-.13409.12793-.27337.25-.41119.374-.21033.189-.42267.37548-.64136.55615-.14837.12256-.29962.24121-.45178.35986q-.33142.25782-.67432.502c-.15716.11182-.31475.22266-.47552.33008-.23914.16016-.4837.313-.73059.46338-.15857.09619-.31543.19434-.47711.28662-.27588.15772-.55908.30469-.84387.44971-.14057.07129-.27771.148-.42042.21631-.43151.20654-.87072.40185-1.32086.5791l-7.6073 2.99658A89.83374 89.83374 0 0 0 207.78906 280.97852z"/><path fill="#f9f7f8" d="M327.50165,173.24756v33.60937a89.6906,89.6906,0,0,1-44.17053,77.28083l-26.12148,15.38612a2,2,0,0,1-2.02594.00244l-26.3288-15.423a89.69033,89.69033,0,0,1-44.35655-77.38994V173.24756a208.34417,208.34417,0,0,0,30.59479,15.8457,208.4752,208.4752,0,0,0,40.09894,12.1543,195.22168,195.22168,0,0,0,48.90149-15.15869A193.76831,193.76831,0,0,0,327.50165,173.24756Z"/><path fill="#eaeaea" d="M283.41389,220.83006c1.78785-.43266,13.14008-3.36132,19.93348-13.934a29.79206,29.79206,0,0,0,2.25846-4.22949,2.00076,2.00076,0,0,0-2.68091-2.62306,19.59251,19.59251,0,0,1-11.00252,1.87425c-5.84978-.84767-8.04343-4.40805-13.4561-6.41266-4.55413-1.68673-11.84232-2.44005-23.28115,2.84353-11.4389-5.28358-18.72708-4.53026-23.28121-2.84353-5.41268,2.00461-7.60633,5.565-13.456,6.41266a19.60236,19.60236,0,0,1-11.02025-1.88243,2.00054,2.00054,0,0,0-2.68079,2.62277,28.86655,28.86655,0,0,0,2.276,4.23816c7.25709,11.16412,19.91266,13.668,21.89771,14.02926a35.97454,35.97454,0,0,0,26.26458-5.7521C256.81141,216.33667,268.53264,224.43022,283.41389,220.83006Z"/><path fill="#e58a7b" d="M266.61608,185.37439v4.40036a11.4211,11.4211,0,0,1-11.4211,11.4211h-.00583a11.4211,11.4211,0,0,1-11.4211-11.4211v-4.40036a3,3,0,0,1,3-3h16.848A3,3,0,0,1,266.61608,185.37439Z"/><circle cx="256" cy="129.499" r="9" fill="#d34342"/><path fill="#e58a7b" d="M327.37239,173.24756h0V132.19788h5.7301a17.65978,17.65978,0,0,1,17.65977,17.65973v0A23.38985,23.38985,0,0,1,327.37239,173.24756Z"/><path fill="#e58a7b" d="M161.10842,132.19788h.00008a23.38985,23.38985,0,0,1,23.38985,23.38985v.00006a17.65977,17.65977,0,0,1-17.65977,17.65977h-5.73016a0,0,0,0,1,0,0V132.19788a0,0,0,0,1,0,0Z" transform="rotate(180 172.803 152.723)"/><path d="M159.15625,452.9541a3.5,3.5,0,1,0-3.5,3.5A3.49994,3.49994,0,0,0,159.15625,452.9541Zm20.47852,23.88379c-17.99317-1.75488-33.11231-11.98437-39.45606-26.69434a39.044,39.044,0,0,1-3.1582-14.72363v-.31054c0-.06739-.01605-.13038-.01984-.19678a52.966,52.966,0,0,1,4.67218-21.36182,3.50018,3.50018,0,1,0-6.41992-2.791,60.96415,60.96415,0,0,0-5.19965,24.02441c-.01019.1084-.03277.21387-.03277.3252V508.5a3.5,3.5,0,0,0,7,0V459.145c8.53424,13.666,24.011,22.91113,41.93457,24.65967a3.40191,3.40191,0,0,0,.34375.0166,3.5,3.5,0,0,0,.33594-6.9834Zm97.73535-325.57227a24.09068,24.09068,0,0,1,8.56152-1.80566,24.38024,24.38024,0,0,1,9.78809,1.80664A3.50005,3.50005,0,0,0,298.376,144.79a31.6512,31.6512,0,0,0-12.6211-2.32813,31.04468,31.04468,0,0,0-11.043,2.32911,3.49952,3.49952,0,1,0,2.65821,6.4746Zm-44.35645.001a3.50043,3.50043,0,0,0,2.65821-6.47656,31.68761,31.68761,0,0,0-12.6211-2.32813,31.04468,31.04468,0,0,0-11.043,2.32911,3.49952,3.49952,0,1,0,2.65821,6.4746,24.09063,24.09063,0,0,1,8.56152-1.80566A24.40549,24.40549,0,0,1,233.01367,151.2666Zm7.89258,86.38281a33.56837,33.56837,0,0,0,14.292,3.21485h.09571a33.5598,33.5598,0,0,0,14.18457-3.21582,3.49985,3.49985,0,0,0-3-6.32422,26.51319,26.51319,0,0,1-11.20606,2.54h-.07519a26.52693,26.52693,0,0,1-11.293-2.541,3.50031,3.50031,0,1,0-2.99805,6.32617ZM410.50354,289.334a10.51047,10.51047,0,0,0-6.12268-9.16406l-42.666-19.41406a10.453,10.453,0,0,0-12.65417,3.15137L319.18585,252.1377A93.15526,93.15526,0,0,0,331,206.86035v-1.93066l.002-.01953V176.50049A26.8849,26.8849,0,0,0,354.2627,149.8584a21.18364,21.18364,0,0,0-21.16016-21.15918h-1.11737l13.99628-26.8584A69.651,69.651,0,0,0,284.21484,0H227.78516a69.651,69.651,0,0,0-61.76661,101.84082l13.99628,26.8584h-1.24628A21.18363,21.18363,0,0,0,157.6084,149.8584a26.88251,26.88251,0,0,0,23.38965,26.6582v28.39356l.00195.01953V206.71a93.16515,93.16515,0,0,0,11.87537,45.40088l-79.03846,31.1333a83.04542,83.04542,0,0,0-52.89648,77.69629V508.5a3.5,3.5,0,1,0,7,0V360.94043a76.08424,76.08424,0,0,1,48.46191-71.18359l66.88672-26.3462V405.7832a72.71094,72.71094,0,1,0,145.42188,0V263.415l18.15527,7.15234V473.57422a53.69639,53.69639,0,0,1-13.94629,3.26269,3.5,3.5,0,0,0,.33594,6.9834,3.40191,3.40191,0,0,0,.34375-.0166,60.95038,60.95038,0,0,0,13.2666-2.80469V508.5a3.5,3.5,0,0,0,7,0V475.94873c.00018-.03027.00061-.06055,0-.09131V270.3125a3.49969,3.49969,0,0,1,4.9502-3.18555l42.665,19.41407a3.50782,3.50782,0,0,1,2.05078,3.18554V508.5a3.5,3.5,0,0,0,7,0V297.65479a76.62122,76.62122,0,0,1,33.52734,63.28564V508.5a3.5,3.5,0,0,0,7,0V360.94043A83.61476,83.61476,0,0,0,410.50354,289.334Zm-77.401-153.63476A14.17577,14.17577,0,0,1,347.2627,149.8584,19.87481,19.87481,0,0,1,331.002,169.40771V135.69922Zm6.67187-37.09277-14.0158,26.895A169.08726,169.08726,0,0,1,285.376,106.55273a169.08549,169.08549,0,0,1-25.23633-19.90087,149.25714,149.25714,0,0,0,23.7392-32.2212,133.84556,133.84556,0,0,0,25.76959,22.28028A133.80173,133.80173,0,0,0,342.53931,92.519,63.53536,63.53536,0,0,1,339.77441,98.60645ZM341.626,44.56738a62.34226,62.34226,0,0,1,3.1109,41.30616A126.80413,126.80413,0,0,1,313.51562,70.875a126.84352,126.84352,0,0,1-26.19488-23.16113A149.3471,149.3471,0,0,0,299.86816,8.98779,62.65253,62.65253,0,0,1,341.626,44.56738Zm-171.252,0A62.64813,62.64813,0,0,1,227.78516,7h23.787A137.40224,137.40224,0,0,1,231.8418,47.582c-18.77722,26.39356-42.99469,40.667-61.00348,48.1709A62.34293,62.34293,0,0,1,170.374,44.56738Zm10.624,124.85938A19.86221,19.86221,0,0,1,164.6084,149.8584a14.17577,14.17577,0,0,1,14.16015-14.15918h2.2295ZM174.004,102.019c18.83447-7.92285,43.98224-22.88574,63.54095-50.37842A144.54249,144.54249,0,0,0,258.86438,7h25.35046a62.74464,62.74464,0,0,1,8.78632.62354,142.39706,142.39706,0,0,1-12.92865,39.02539l-.00055.00146-.0202.042a142.39717,142.39717,0,0,1-27.32324,37.53907l-.0141.01709c-.00714.00683-.01593.01171-.023.019A166.26646,166.26646,0,0,1,228.89355,104.29a166.668,166.668,0,0,1-42.66912,21.17871Zm13.99408,30.26612A173.63769,173.63769,0,0,0,232.876,110.0459,173.21328,173.21328,0,0,0,255.21,91.6377a176.14992,176.14992,0,0,0,26.37695,20.80175,176.1867,176.1867,0,0,0,42.29279,19.835,3.47165,3.47165,0,0,0,.12225.81934v38.20361a190.9816,190.9816,0,0,1-21.377,11.61377,191.96023,191.96023,0,0,1-23.69208,9.0708,24.94878,24.94878,0,0,0-8.86847-1.18554c.02314-.33887.05176-.67627.05176-1.021v-4.97266a3.5,3.5,0,0,0-7,0v4.97266a7.92432,7.92432,0,0,1-15.84863,0v-4.97266a3.5,3.5,0,0,0-7,0v4.97266c0,.34473.02868.68213.05176,1.02051a25.38249,25.38249,0,0,0-8.02765.90722c-5.38086-1.73828-10.71021-3.6958-15.85614-5.84374a205.21592,205.21592,0,0,1-28.4375-14.56983Zm94.15722,69.16992a20.23483,20.23483,0,0,0,18.48438,3.18262c-.07717.124-.1543.24707-.2334.36914-5.89746,9.167-15.873,11.9541-17.81934,12.42089-13.041,3.16016-23.40332-3.68945-25.34668-5.09472a3.5005,3.5005,0,0,0-4.04394-.03906,32.57055,32.57055,0,0,1-23.65137,5.19238c-2.16992-.39453-13.31543-2.84863-19.59082-12.49414-.07519-.11524-.15039-.23242-.22363-.35059a20.2518,20.2518,0,0,0,18.48437-3.18652,23.74105,23.74105,0,0,1,4.90332-2.66406,18.98637,18.98637,0,0,1,9.6576-.75147,14.90678,14.90678,0,0,0,24.83038.00342,18.9667,18.9667,0,0,1,9.64972.75A23.7121,23.7121,0,0,1,282.15527,201.45508ZM188,206.71V179.46875a212.03224,212.03224,0,0,0,25.74121,12.85059c3.21594,1.34326,6.50556,2.60839,9.8302,3.80322a13.329,13.329,0,0,1-5.62317,2.33349,16.05079,16.05079,0,0,1-9.05078-1.59375,5.49819,5.49819,0,0,0-7.35937,7.18848,32.24721,32.24721,0,0,0,2.54785,4.75879c7.64648,11.75195,20.46289,14.88379,24.209,15.56348a39.50844,39.50844,0,0,0,26.86621-5.03614,40.52979,40.52979,0,0,0,20.59082,5.90918,36.03206,36.03206,0,0,0,8.47559-1.01269c3.36523-.80762,14.90527-4.30957,22.06445-15.4375a33.83672,33.83672,0,0,0,2.53125-4.73731,5.50919,5.50919,0,0,0-7.36719-7.19824,16.00855,16.00855,0,0,1-9.0332,1.5957,12.36473,12.36473,0,0,1-4.94757-1.90869c6.10669-2.11963,12.163-4.55273,18.08234-7.28076A198.25825,198.25825,0,0,0,324,179.5332v27.32715A86.52835,86.52835,0,0,1,281.55469,281.124l-25.3711,14.93848-25.56543-14.9834A86.494,86.494,0,0,1,188,206.71Zm112.71,68.86719V405.78027a44.71,44.71,0,0,1-89.41992,0V275.43408a92.40541,92.40541,0,0,0,15.79,11.68506l26.36523,15.45117a5.54113,5.54113,0,0,0,5.54-.03515l26.1211-15.37989A92.34651,92.34651,0,0,0,300.71,275.57715Zm21.001,130.20605a65.71094,65.71094,0,1,1-131.42188,0V260.65332l6.2724-2.4707A93.72546,93.72546,0,0,0,204.29,268.28027v137.5a51.71,51.71,0,0,0,103.41992,0V268.419a93.83686,93.83686,0,0,0,7.79926-10.20508l6.20172,2.44336ZM286.544,153.76758a3.50048,3.50048,0,0,0-3.5,3.5v6.68359a3.5,3.5,0,0,0,7,0v-6.68359A3.50049,3.50049,0,0,0,286.544,153.76758ZM256,142a12.5,12.5,0,1,0-12.5-12.5A12.51408,12.51408,0,0,0,256,142Zm0-18a5.5,5.5,0,1,1-5.5,5.5A5.50685,5.50685,0,0,1,256,124Zm-32.16016,29.76758a3.50049,3.50049,0,0,0-3.5,3.5v6.68359a3.5,3.5,0,0,0,7,0v-6.68359A3.50048,3.50048,0,0,0,223.83984,153.76758Z"/></svg>