<svg xmlns="http://www.w3.org/2000/svg" data-name="Layer 1" viewBox="0 0 512 512"><path fill="#f9f7f8" d="M461.55954,501.999V363.38579a60,60,0,0,0-41.15445-56.96354l-99.82577-33.02589a20,20,0,0,1-13.71814-18.98785V222.13818H205.13876v32.27033a20,20,0,0,1-13.71814,18.98785L91.5949,306.42225a60,60,0,0,0-41.15444,56.96354V501.999a10,10,0,0,0,10,10H451.55954A10,10,0,0,0,461.55954,501.999Z"/><path fill="#f9beac" d="M206.32758,283.4165a89.48225,89.48225,0,0,0,98.6679,2.47217l17.78186-11.76513-2.198-.72706a20,20,0,0,1-13.71814-18.98779V222.13818H205.13879v32.27051a19.98115,19.98115,0,0,1-6.45245,14.69385Z"/><path fill="#eaeaea" d="M243.20316,501.83975c-23.62251-39.58313-51.90781-86.51387-75.86593-126.60272a7.99586,7.99586,0,0,1,.21583-8.54182q6.18264-9.25955,12.35827-18.51909a8.00115,8.00115,0,0,0-4.05186-12.00449l-36.28189-12.496a7.9946,7.9946,0,0,1-4.22864-11.7287A98.96056,98.96056,0,0,1,201.37569,266.109q25.5,89.13,51.01,178.28,7.095,24.765,14.18,49.55Z"/><path fill="#eaeaea" d="M241.29,508.499l4.17-14.55s9.45-33.04,14.18-49.56q25.5-89.145,51.01-178.28a99.02963,99.02963,0,0,1,66.03,45.84,7.99281,7.99281,0,0,1-4.23,11.73q-18.135,6.24-36.28,12.49a7.99972,7.99972,0,0,0-4.05,12.01q6.18,9.255,12.36,18.52a7.98754,7.98754,0,0,1,.21,8.54c-23.62,39.56-70.87,118.7-70.87,118.7l-8.68,14.56Z"/><path fill="#f9f7f8" d="M161.23856 108.763c5.54208-.08432 4.91277-23.6364 21.03513-52.36609a136.8886 136.8886 0 0 1 10.69622-16.22639 20.86449 20.86449 0 0 0-4.7841-29.995 13.47981 13.47981 0 0 0-7.6099-2.57733c-15.9508.01322-29.98252 33.30071-30.62323 60.92746C149.48416 88.72392 156.10467 108.84126 161.23856 108.763zM350.76144 108.763c-5.54208-.08432-4.91277-23.6364-21.03513-52.36609a136.8886 136.8886 0 0 0-10.69622-16.22639 20.86449 20.86449 0 0 1 4.7841-29.995 13.47981 13.47981 0 0 1 7.6099-2.57733c15.9508.01322 29.98252 33.30071 30.62323 60.92746C362.51584 88.72392 355.89533 108.84126 350.76144 108.763z"/><path fill="#e58a7b" d="M349.101,140.59241h0V88.54281h7.27083a22.40009,22.40009,0,0,1,22.40818,22.39194v.00005A29.66826,29.66826,0,0,1,349.101,140.59241Z"/><path fill="#e58a7b" d="M133.22006,88.54281h.02153a29.65755,29.65755,0,0,1,29.65755,29.65755v.00005a22.392,22.392,0,0,1-22.392,22.392h-7.28708a0,0,0,0,1,0,0V88.54281A0,0,0,0,1,133.22006,88.54281Z" transform="rotate(-180 148.06 114.568)"/><path fill="#e58a7b" d="M306.86121,254.40869V222.13818H205.13879v25.95606a85.48716,85.48716,0,0,0,7.32172,5.90771l11.68579,8.396a78.58161,78.58161,0,0,0,45.85242,14.76269h.00122a78.58858,78.58858,0,0,0,40.51-11.24951A19.96461,19.96461,0,0,1,306.86121,254.40869Z"/><path fill="#f9beac" d="M256.00013,3.499a93.07348,93.07348,0,0,1,93.1008,93.04612v67.13539A85.35969,85.35969,0,0,1,313.54,233.00144l-11.68548,8.39583a78.58721,78.58721,0,0,1-45.8546,14.76334h-.00122A78.58355,78.58355,0,0,1,210.14627,241.398l-11.68579-8.396a85.36033,85.36033,0,0,1-35.56129-69.3209l-.00005-6.85812V96.54514A93.07348,93.07348,0,0,1,255.99994,3.499Z"/><path fill="#e58a7b" d="M272.12048,169.16245v8.13689A16.10468,16.10468,0,0,1,256.01579,193.404h-.03151a16.10469,16.10469,0,0,1-16.10469-16.10468v-8.13689a3,3,0,0,1,3-3h26.24089A3,3,0,0,1,272.12048,169.16245Z"/><ellipse cx="297.271" cy="126.895" fill="#cce4ff" rx="24.635" ry="24.617"/><ellipse cx="214.729" cy="126.895" fill="#cce4ff" rx="24.635" ry="24.617"/><path fill="#dbe6fc" d="M463.5578,383.89057V335.999h-40v47.32005a23.5488,23.5488,0,0,1-2.58936,10.73536l-45.49679,88.82708A20,20,0,0,0,393.27252,511.999h95.20429a20,20,0,0,0,18.20226-28.2872l-41.00453-90.06353A23.54882,23.54882,0,0,1,463.5578,383.89057Z"/><path fill="#8fd17a" d="M420.96844,394.05469l-45.49676,88.82666A20.00008,20.00008,0,0,0,393.27252,511.999h95.20429a19.9999,19.9999,0,0,0,18.20227-28.28711l-41.00452-90.06347a23.55021,23.55021,0,0,1-2.11676-9.75782v-7.99511h-40v7.42334A23.55014,23.55014,0,0,1,420.96844,394.05469Z"/><rect width="54" height="14" x="416.558" y="321.999" fill="#96aff4" rx="7"/><circle cx="401" cy="490.499" r="9.5" fill="#dde279"/><circle cx="450" cy="441.499" r="7.791" fill="#dde279"/><circle cx="464" cy="483.499" r="7.791" fill="#dde279"/><circle cx="489.5" cy="488.5" r="3.5"/><path d="M464,468.709A11.291,11.291,0,1,0,475.291,480,11.30388,11.30388,0,0,0,464,468.709Zm0,15.582A4.291,4.291,0,1,1,468.291,480,4.29571,4.29571,0,0,1,464,484.291ZM128.12109,431.82617a3.50017,3.50017,0,0,0-3.5,3.5V508.5a3.5,3.5,0,1,0,7,0V435.32617A3.50017,3.50017,0,0,0,128.12109,431.82617ZM509.86475,478.7627l-41.00489-90.0625a19.932,19.932,0,0,1-1.80224-8.3086V335.38721a10.49281,10.49281,0,0,0-3.5-20.38721H442.6488a62.9897,62.9897,0,0,0-21.13952-11.90332l-69.87177-23.11182c-.73993-.52832-1.46332-1.07568-2.21905-1.58545a102.21382,102.21382,0,0,0-36.65662-15.42773,16.3422,16.3422,0,0,1-2.402-8.56152v-14.813l5.22217-3.75244a89.067,89.067,0,0,0,37.019-72.16309V143.90723a33.2108,33.2108,0,0,0,29.67872-32.97168,25.9361,25.9361,0,0,0-17.97785-24.646,99.53385,99.53385,0,0,0,1.24689-17.84082c-.68848-29.748-15.7461-64.3374-34.12891-64.34863a17.26443,17.26443,0,0,0-9.54053,3.16064,23.7095,23.7095,0,0,0-9.03418,11.29151,96.3646,96.3646,0,0,0-113.69036,0,23.7091,23.7091,0,0,0-9.03327-11.29053,17.26461,17.26461,0,0,0-9.54346-3.16162c-18.38085.01123-33.43847,34.60058-34.127,64.35058a99.51185,99.51185,0,0,0,1.24634,17.835,25.9354,25.9354,0,0,0-17.9773,24.6504,33.20385,33.20385,0,0,0,29.67908,32.97412l.00012,19.772a89.067,89.067,0,0,0,37.01905,72.16308l5.22168,3.752v14.813a16.36455,16.36455,0,0,1-2.39984,8.56738,102.3474,102.3474,0,0,0-36.63923,15.42187c-.75189.50782-1.47174,1.05274-2.208,1.57862L90.48975,303.09766a63.40551,63.40551,0,0,0-43.54981,60.292V508.5a3.5,3.5,0,0,0,7,0V363.38965a56.41691,56.41691,0,0,1,38.749-53.64649l53.74262-17.77392a104.43568,104.43568,0,0,0-14.06635,18.15283,11.49869,11.49869,0,0,0,6.07569,16.86719l36.27832,12.48926a4.50587,4.50587,0,0,1,2.28027,6.75781q-6.1809,9.25488-12.35986,18.51953a11.53053,11.53053,0,0,0-.3042,12.28027c11.10693,18.584,23.14209,38.6377,35.21094,58.74707,13.476,22.45459,27.39709,45.65137,39.87066,66.54785l-1.49176,5.20508a3.50008,3.50008,0,1,0,6.7295,1.92774l4.17041-14.55078s5.73919-20.06641,10.51129-36.74268c.01031-.03076.01721-.062.02667-.09326,1.34137-4.687,2.60522-9.103,3.64221-12.72461l45.39588-158.65918.00335-.01172,4.71454-16.47754a95.50239,95.50239,0,0,1,60.57617,43.57422,4.49238,4.49238,0,0,1-2.38379,6.5918L335.0293,332.86133a11.49852,11.49852,0,0,0-5.81983,17.26172l.7876,1.17968q5.78467,8.66455,11.57275,17.3418a4.5051,4.5051,0,0,1,.11524,4.80176L270.81348,492.14844,262.13379,506.708a3.49991,3.49991,0,0,0,6.01269,3.584l8.67872-14.55761L347.69141,377.041a11.53132,11.53132,0,0,0-.29932-12.28223q-5.78686-8.68066-11.57324-17.34277l-.79053-1.18457a4.4988,4.4988,0,0,1,2.28027-6.752l36.28321-12.49121a11.49244,11.49244,0,0,0,6.07373-16.86523A104.05189,104.05189,0,0,0,365.6109,291.98l53.69867,17.76221A56.37088,56.37088,0,0,1,430.71814,315h-7.16052a10.49281,10.49281,0,0,0-3.5,20.38721v44.4331A20.13714,20.13714,0,0,1,417.853,388.96l-45.49658,88.82715A23.49994,23.49994,0,0,0,393.27246,512h95.20459a23.50016,23.50016,0,0,0,21.3877-33.2373Zm-134.585-367.82715a26.20511,26.20511,0,0,1-22.67872,25.9248V92.044h3.77051A18.92138,18.92138,0,0,1,375.27979,110.93555ZM325.7417,13.09863A10.46279,10.46279,0,0,1,331.418,11.1001c12.53906.00781,26.48584,29.56933,27.13281,57.50879a92.4241,92.4241,0,0,1-1.14258,16.46142c-.34436-.01367-.689-.02636-1.03662-.02636h-4.45892a96.444,96.444,0,0,0-33.20313-61.84522A16.78586,16.78586,0,0,1,325.7417,13.09863ZM256,7a89.707,89.707,0,0,1,89.12042,80.25342l-26.505,21.356A28.115,28.115,0,0,0,269.362,123.396H242.638a28.11258,28.11258,0,0,0-47.078-17.0542L166.90558,87.02637A89.70638,89.70638,0,0,1,256,7Zm62.40527,119.896A21.13453,21.13453,0,1,1,297.271,105.7793,21.14967,21.14967,0,0,1,318.40527,126.896Zm-82.5415,0A21.13453,21.13453,0,1,1,214.729,105.7793,21.14978,21.14978,0,0,1,235.86377,126.896Zm-76.46484,9.96679a26.19619,26.19619,0,0,1-22.67872-25.92724A18.91325,18.91325,0,0,1,155.6123,92.044h3.78663ZM155.6123,85.044c-.34222,0-.68151.01269-1.02056.02587a92.4063,92.4063,0,0,1-1.14252-16.459c.647-27.94141,14.59375-57.50293,27.13086-57.51074a10.46279,10.46279,0,0,1,5.6792,1.99951,16.783,16.783,0,0,1,7.03119,10.09912A96.444,96.444,0,0,0,160.08734,85.044Zm86.48291,407.94238-.03417.11914c-11.58759-19.39258-24.23481-40.4668-36.51221-60.92383-12.0669-20.10644-24.1001-40.15625-35.20752-58.74219a4.50208,4.50208,0,0,1,.1206-4.79785q6.17944-9.26953,12.35938-18.51855a11.5059,11.5059,0,0,0-5.82227-17.2627l-36.27539-12.48828a4.50684,4.50684,0,0,1-2.78369-2.75,4.45146,4.45146,0,0,1,.39453-3.84375,95.43883,95.43883,0,0,1,60.57617-43.57422l53.46564,186.84522C247.65167,473.56006,242.09485,492.9873,242.09521,492.98633Zm14.18018-49.56055c-.0835.29151-.17169.59961-.25806.90137L212.1958,291.18652a92.80633,92.80633,0,0,0,40.12109,11.68262q2.60744.14649,5.126.14356a94.28982,94.28982,0,0,0,41.8584-9.96192Zm45.726-159.81152a87.308,87.308,0,0,1-49.29284,12.2666,86.22272,86.22272,0,0,1-43.36-14.64453L205.182,266.67578a23.31356,23.31356,0,0,0,3.45813-12.26562v-9.79932a82.03726,82.03726,0,0,0,94.71972.00049v9.79883a23.28843,23.28843,0,0,0,3.48279,12.28369Zm2.90741-48.71973-.01532.01074-5.08093,3.65088a75.0945,75.0945,0,0,1-87.624.00049l-5.08106-3.65039-.01666-.01221-6.58832-4.7334a82.052,82.052,0,0,1-34.103-66.47851l-.00048-67.13623c0-.47022.01062-.938.01788-1.40625l24.6319,16.60351A28.11932,28.11932,0,1,0,242.638,130.396h26.724a28.12938,28.12938,0,1,0,53.13751-15.92627l23.0929-18.60694c.00171.228.00866.45459.00866.68311v67.13574a82.05116,82.05116,0,0,1-34.10351,66.47852ZM423.55762,322h40a3.5,3.5,0,1,1,0,7h-40a3.5,3.5,0,0,1,0-7Zm36.5,14v32.89648h-33V336Zm42.29492,161.42871A16.43279,16.43279,0,0,1,488.47705,505H393.27246a16.49959,16.49959,0,0,1-14.68555-24.02148l45.49659-88.82715a27.16935,27.16935,0,0,0,2.97412-12.33106v-3.92383h33v4.49512a26.8794,26.8794,0,0,0,2.43115,11.208l41.00488,90.06348A16.43365,16.43365,0,0,1,502.35254,497.42871ZM256,196.90479a19.6347,19.6347,0,0,0,19.62061-19.6045v-7.01172a3.5,3.5,0,0,0-7,0v7.01172a12.62062,12.62062,0,0,1-25.24122,0v-7.01172a3.5,3.5,0,0,0-7,0v7.01172A19.6347,19.6347,0,0,0,256,196.90479Zm16.54492,18.24365a38.91049,38.91049,0,0,1-16.42724,3.71972H256.002a38.89733,38.89733,0,0,1-16.54687-3.71972,3.49989,3.49989,0,0,0-2.9961,6.32617,45.93964,45.93964,0,0,0,19.543,4.39355h.13721a45.95,45.95,0,0,0,19.40186-4.39355,3.49989,3.49989,0,0,0-2.9961-6.32617ZM461.291,438A11.291,11.291,0,1,0,450,449.291,11.30388,11.30388,0,0,0,461.291,438ZM450,442.291A4.291,4.291,0,1,1,454.291,438,4.29571,4.29571,0,0,1,450,442.291ZM401,474a13,13,0,1,0,13,13A13.01474,13.01474,0,0,0,401,474Zm0,19a6,6,0,1,1,6-6A6.00657,6.00657,0,0,1,401,493Zm18.5-36a3.5,3.5,0,1,0,3.5,3.5A3.49994,3.49994,0,0,0,419.5,457Zm7-28a3.5,3.5,0,1,0,3.5,3.5A3.49994,3.49994,0,0,0,426.5,429Zm7,63a3.5,3.5,0,1,0,3.5,3.5A3.49994,3.49994,0,0,0,433.5,492ZM297.27075,133.42334a3.50017,3.50017,0,0,1-3.5-3.5v-6.05469a3.5,3.5,0,0,1,7,0v6.05469A3.50017,3.50017,0,0,1,297.27075,133.42334Zm-82.5415.93764a3.50017,3.50017,0,0,1-3.5-3.5v-6.05469a3.5,3.5,0,0,1,7,0V130.861A3.50017,3.50017,0,0,1,214.72925,134.361Z"/></svg>