<svg xmlns="http://www.w3.org/2000/svg" data-name="Layer 1" viewBox="0 0 512 512"><path fill="#7177db" d="M461.55957,501.999V361.31714a60,60,0,0,0-38.552-56.03557L321.96361,266.60638a19.30792,19.30792,0,0,1-12.406-18.03217V201.8916H202.44238v46.68261a19.30792,19.30792,0,0,1-12.406,18.03217L88.99247,305.28157a60,60,0,0,0-38.552,56.03557V501.999a10,10,0,0,0,10,10H451.55957A10,10,0,0,0,461.55957,501.999Z"/><path fill="#f9beac" d="M321.96361,266.60638a19.30792,19.30792,0,0,1-12.406-18.03217V201.8916H202.44238v46.68261a19.30792,19.30792,0,0,1-12.406,18.03217L256,285.71631Z"/><path fill="#3b4a9b" d="M256,285.71631l-30.9304,27.009c-8.84506,7.72368-23.35542,4.82315-27.93-5.583l-16.09552-36.61384,20.949-17.81923Z"/><path fill="#3b4a9b" d="M255.98884,285.71631l30.9304,27.009c8.84506,7.72368,23.35542,4.82315,27.93-5.583l16.09551-36.61384-20.93781-17.82609Z"/><path fill="#e58a7b" d="M263,269.91016a70.01234,70.01234,0,0,0,35.157-9.46387h.00012a97.59991,97.59991,0,0,0,11.79139-8.06934,19.28675,19.28675,0,0,1-.39087-3.80273V201.8916H202.44238v37.28565a97.37405,97.37405,0,0,0,25.40064,21.269h0A70.01234,70.01234,0,0,0,263,269.91016Z"/><path fill="#f9beac" d="M291.15713,239.44645l-.00006,0a70.01345,70.01345,0,0,1-35.157,9.46372h0a70.01347,70.01347,0,0,1-35.157-9.46371l-.00007,0a97.20641,97.20641,0,0,1-48.45661-84.04328V76.1487H339.61374v79.25447A97.20641,97.20641,0,0,1,291.15713,239.44645Z"/><path fill="#e58a7b" d="M238.75127 206.17919a3.00055 3.00055 0 0 0-2.70912 4.3055 22.25207 22.25207 0 0 0 39.91516.00094 3.00075 3.00075 0 0 0-2.70876-4.30644zM268.48557 169.21323v5.06732A12.48563 12.48563 0 0 1 256 186.76618h0a12.48563 12.48563 0 0 1-12.48562-12.48563v-5.06732a3 3 0 0 1 3-3h18.97127A3 3 0 0 1 268.48557 169.21323z"/><path fill="#343c4a" d="M324.927,109.24805v28.28808a10.49022,10.49022,0,0,0,10.49023,10.49024h4.19653V45.61865A42.1856,42.1856,0,0,0,297.3623,3.499l-118.45747.36667A2.99775,2.99775,0,0,0,176.24357,8.239a36.051,36.051,0,0,0,5.61214,7.93389,36.15263,36.15263,0,0,0,9.92782,7.48259,2.98993,2.98993,0,0,1,.26052,5.18726,42.47487,42.47487,0,0,0-12.68223,12.39656,41.79617,41.79617,0,0,0-6.97559,23.18115v83.606h4.19629A10.49047,10.49047,0,0,0,187.073,137.53589V109.24805a7.98946,7.98946,0,0,1,9.23457-7.90243,378.23384,378.23384,0,0,0,59.74689,4.74032,378.24178,378.24178,0,0,0,59.63762-4.74027A7.98949,7.98949,0,0,1,324.927,109.24805Z"/><path fill="#e58a7b" d="M339.61377,160.43689h0V117.3738h6.01116a18.526,18.526,0,0,1,18.52595,18.5259v.00005A24.53708,24.53708,0,0,1,339.61377,160.43689Z"/><path fill="#e58a7b" d="M147.84915,117.3738h.00009a24.53708,24.53708,0,0,1,24.53708,24.53708v.00006a18.526,18.526,0,0,1-18.526,18.526h-6.01121a0,0,0,0,1,0,0V117.3738A0,0,0,0,1,147.84915,117.3738Z" transform="rotate(180 160.118 138.905)"/><rect width="78.63" height="100.074" x="216.685" y="338.135" fill="#f9f7f8" rx="11.914"/><path fill="#b39a96" d="M234.91587,438.20887h42.16825a0,0,0,0,1,0,0v11.93076a7.14815,7.14815,0,0,1-7.14815,7.14815H242.064a7.14815,7.14815,0,0,1-7.14815-7.14815V438.20887A0,0,0,0,1,234.91587,438.20887Z"/><rect width="19.079" height="54.711" x="246.461" y="457.288" fill="#f9f7f8"/><circle cx="445" cy="247.956" r="12.418" fill="#f96263"/><circle cx="382" cy="247.956" r="12.418" fill="#f96263"/><circle cx="71.774" cy="241.839" r="17.19" fill="#f96263"/><path d="M283.40137,334.63574H228.59863a15.43026,15.43026,0,0,0-15.41308,15.41309V426.2959A15.43109,15.43109,0,0,0,228.59863,441.71H231.416v8.43066a10.6611,10.6611,0,0,0,10.64843,10.64844h.89649V508.5a3.5,3.5,0,0,0,7,0V460.78906h12.07812V508.5a3.5,3.5,0,0,0,7,0V460.78906h.89649A10.6611,10.6611,0,0,0,280.584,450.14062V441.71h2.81739a15.43109,15.43109,0,0,0,15.41308-15.41406V350.04883A15.43026,15.43026,0,0,0,283.40137,334.63574ZM273.584,450.14062a3.65261,3.65261,0,0,1-3.64843,3.64844h-27.8711a3.65261,3.65261,0,0,1-3.64843-3.64844V441.71h35.168Zm18.23047-90.65039H275.71973a3.5,3.5,0,0,0,0,7h16.09472v18.01856H275.71973a3.5,3.5,0,0,0,0,7h16.09472v18.01855H275.71973a3.5,3.5,0,0,0,0,7h16.09472v9.76856a8.42323,8.42323,0,0,1-8.41308,8.41406H228.59863a8.42323,8.42323,0,0,1-8.41308-8.41406v-9.76856h16.09472a3.5,3.5,0,0,0,0-7H220.18555V391.50879h16.09472a3.5,3.5,0,0,0,0-7H220.18555V366.49023h16.09472a3.5,3.5,0,0,0,0-7H220.18555v-9.4414a8.423,8.423,0,0,1,8.41308-8.41309h54.80274a8.423,8.423,0,0,1,8.41308,8.41309Zm-220.04-96.96a20.71371,20.71371,0,0,0,20.69043-20.69091V178.23047a.65359.65359,0,0,1,1.11524-.46192L108.794,192.98291a3.49962,3.49962,0,1,0,4.94921-4.94922L98.5293,172.81885a7.65321,7.65321,0,0,0-13.06446,5.41162v48.13721a20.67761,20.67761,0,1,0-13.69043,36.16259Zm0-34.38134A13.69067,13.69067,0,1,1,58.084,241.83936,13.70606,13.70606,0,0,1,71.77441,228.14893ZM382,263.875a15.88177,15.88177,0,0,0,15.05664-21.041l-.99121-49.11962a.50143.50143,0,0,1,.39355-.49756l55.98633-12.24707a.48371.48371,0,0,1,.418.09765.47418.47418,0,0,1,.18848.38526l.55932,53.13623a16.14828,16.14828,0,1,0,7.11695,11.03955l-.67627-64.249a7.49932,7.49932,0,0,0-9.10254-7.24755l-55.98633,12.24707a7.515,7.515,0,0,0-5.89551,7.478l.813,40.2876A15.91137,15.91137,0,1,0,382,263.875Zm63-7a8.91822,8.91822,0,1,1,8.918-8.91846A8.92868,8.92868,0,0,1,445,256.875Zm-63-17.83643a8.91822,8.91822,0,1,1-8.918,8.918A8.92826,8.92826,0,0,1,382,239.03857ZM128.71582,431.82617a3.50048,3.50048,0,0,0-3.5,3.5V508.5a3.5,3.5,0,1,0,7,0V435.32617A3.50048,3.50048,0,0,0,128.71582,431.82617Zm76.84473-295.38281a3.48458,3.48458,0,0,0,1.32812-.26318,29.73745,29.73745,0,0,1,10.57422-2.2295,30.04992,30.04992,0,0,1,12.084,2.23,3.50005,3.50005,0,1,0,2.65624-6.47656,37.16673,37.16673,0,0,0-14.918-2.75146,36.71545,36.71545,0,0,0-13.05469,2.75195,3.50051,3.50051,0,0,0,1.33008,6.73877ZM383.28418,431.82617a3.50048,3.50048,0,0,0-3.5,3.5V508.5a3.5,3.5,0,0,0,7,0V435.32617A3.50048,3.50048,0,0,0,383.28418,431.82617ZM256,190.26709a16.00333,16.00333,0,0,0,15.98535-15.98535v-4.22412a3.5,3.5,0,0,0-7,0v4.22412a8.98535,8.98535,0,1,1-17.9707,0v-4.22412a3.5,3.5,0,0,0-7,0v4.22412A16.00333,16.00333,0,0,0,256,190.26709ZM424.26074,302.01172l-92.5354-35.41406-18.4812-15.73487a15.97126,15.97126,0,0,1-.18457-2.28271V227.05127a101.14344,101.14344,0,0,0,29.6886-63.292,28.02919,28.02919,0,0,0,24.90222-27.8584A22.05084,22.05084,0,0,0,345.625,113.875h-2.51172V45.61963A45.73923,45.73923,0,0,0,297.35156,0l-118.457.3667a6.49769,6.49769,0,0,0-5.75391,9.49219,39.58764,39.58764,0,0,0,6.15723,8.7041,39.521,39.521,0,0,0,10.12695,7.80664,45.52862,45.52862,0,0,0-20.53808,38.05176V113.875H166.375a22.05084,22.05084,0,0,0-22.02539,22.02588,28.07416,28.07416,0,0,0,24.9021,27.85742,101.14174,101.14174,0,0,0,29.68872,63.293v21.52881a15.60275,15.60275,0,0,1-.18872,2.293l-18.49219,15.72851L87.73926,302.01172a63.86832,63.86832,0,0,0-40.79883,59.30859V508.5a3.5,3.5,0,0,0,7,0V361.32031a56.82849,56.82849,0,0,1,36.30078-52.77148l88.75952-33.97071,14.93482,33.97364A20.2231,20.2231,0,0,0,208.333,320.06348a22.32447,22.32447,0,0,0,4.85742.53515,21.56063,21.56063,0,0,0,14.18066-5.23535l28.62354-24.99512,28.62256,24.99512a21.55809,21.55809,0,0,0,14.18164,5.23535,22.32227,22.32227,0,0,0,4.85644-.53515,20.22239,20.22239,0,0,0,14.39844-11.51172l14.93494-33.97608,88.77014,33.97315a56.82849,56.82849,0,0,1,36.30078,52.77148V508.5a3.5,3.5,0,0,0,7,0V361.32031A63.86832,63.86832,0,0,0,424.26074,302.01172ZM343.11328,155.4043V120.875H345.625a15.04276,15.04276,0,0,1,15.02539,15.02637,20.99572,20.99572,0,0,1-17.55774,20.72949C343.09766,156.22168,343.11328,155.814,343.11328,155.4043ZM151.34961,135.90088A15.04266,15.04266,0,0,1,166.375,120.875h2.51172v34.5293c0,.40771.0155.814.02051,1.22119A21.05357,21.05357,0,0,1,151.34961,135.90088Zm24.53711-71.47949a38.32056,38.32056,0,0,1,6.3916-21.24659A38.75678,38.75678,0,0,1,193.917,31.80029a6.47139,6.47139,0,0,0,2.06568-2.10986,151.55584,151.55584,0,0,0,15.366,6.36963,151.68,151.68,0,0,0,20.26563,5.55371,3.5,3.5,0,1,0,1.37695-6.86328,144.64063,144.64063,0,0,1-19.32812-5.29688,144.70537,144.70537,0,0,1-20.23145-8.88476l-.0188-.00781c-.01074-.00538-.02026-.01319-.031-.01856a32.58352,32.58352,0,0,1-8.96778-6.75732,32.56129,32.56129,0,0,1-4.668-6.4209L297.3623,7a38.72941,38.72941,0,0,1,38.751,38.61963v98.90771H335.417a6.99806,6.99806,0,0,1-6.99023-6.99023V109.249a11.47472,11.47472,0,0,0-13.28711-11.3584,375.87113,375.87113,0,0,1-59.08594,4.69629h-.05566a375.907,375.907,0,0,1-59.1377-4.69629,11.48905,11.48905,0,0,0-13.28711,11.3584v28.28809a6.9989,6.9989,0,0,1-6.99121,6.99023h-.69531Zm0,90.98291v-3.877h.69531a14.00645,14.00645,0,0,0,13.99121-13.99023V109.249a4.50714,4.50714,0,0,1,1.583-3.4331,4.40687,4.40687,0,0,1,3.59863-1.01319,382.89942,382.89942,0,0,0,60.24317,4.78418h.05761a382.907,382.907,0,0,0,60.18946-4.78418,4.39824,4.39824,0,0,1,3.59863,1.01319,4.50714,4.50714,0,0,1,1.583,3.4331v28.28809A14.00624,14.00624,0,0,0,335.417,151.52734h.69629v3.877a94.01446,94.01446,0,0,1-46.71387,81.01611,66.53269,66.53269,0,0,1-66.79882,0A94.01446,94.01446,0,0,1,175.88672,155.4043Zm46.88086,154.68554a14.75977,14.75977,0,0,1-12.91016,3.14161,13.29651,13.29651,0,0,1-9.51367-7.4961l-15.04687-34.22851,17.0332-14.48829,47.77637,29.19825Zm-16.95215-59.1455a22.84816,22.84816,0,0,0,.125-2.36426V233.354a100.177,100.177,0,0,0,13.14453,9.12012,73.53642,73.53642,0,0,0,73.83008,0,100.1299,100.1299,0,0,0,13.14453-9.12012v15.22608a22.99878,22.99878,0,0,0,.12354,2.3584l-50.18848,30.67334Zm105.83008,54.791a13.29837,13.29837,0,0,1-9.51367,7.4961,14.77144,14.77144,0,0,1-12.91114-3.14161l-27.33789-23.873L309.669,257.01172l17.02343,14.49414Zm-78.43164-99.97119a6.42309,6.42309,0,0,0-.3086,6.27441,25.9622,25.9622,0,0,0,23.06934,14.3584h.02344A25.95682,25.95682,0,0,0,279.09375,212.04a6.50054,6.50054,0,0,0-5.84473-9.35986H238.751A6.47982,6.47982,0,0,0,233.21387,205.76416Zm39.21582,3.916A18.916,18.916,0,0,1,255.999,219.397h-.01855a18.917,18.917,0,0,1-16.41016-9.71679Zm-54.21192-69.10352a3.50017,3.50017,0,0,0-3.5,3.5v8.05469a3.5,3.5,0,0,0,7,0v-8.05469A3.50017,3.50017,0,0,0,218.21777,140.57666Zm75.56446,0a3.50017,3.50017,0,0,0-3.5,3.5v8.05469a3.5,3.5,0,0,0,7,0v-8.05469A3.50017,3.50017,0,0,0,293.78223,140.57666Zm-11.32813-4.39648a29.73223,29.73223,0,0,1,10.57324-2.2295,30.08358,30.08358,0,0,1,12.08594,2.23,3.49968,3.49968,0,1,0,2.6543-6.47656,36.77188,36.77188,0,0,0-27.97168.00049,3.5,3.5,0,1,0,2.6582,6.47559Z"/></svg>