<svg xmlns="http://www.w3.org/2000/svg" data-name="Layer 1" viewBox="0 0 512 512"><path fill="#343c4a" d="M372.637,349.7003H140.38266V119.59245A116.11024,116.11024,0,0,1,256.50971,3.499h.00023A116.11024,116.11024,0,0,1,372.637,119.59245Z"/><path fill="#7177db" d="M440.62221,511.999a10,10,0,0,0,10-10V401.03614a70.02,70.02,0,0,0-41.66532-64.01724L323.961,300.5993a43.94671,43.94671,0,0,1-26.63815-40.39465v-7.697H214.67711v8.11546a43.94666,43.94666,0,0,1-26.42836,40.30407l-84.00041,36.51105A70.02056,70.02056,0,0,0,61.37779,401.976V501.999a10,10,0,0,0,10,10Z"/><path fill="#f9beac" d="M197.10742 295.7666a72.50656 72.50656 0 0 0 122.188 2.49121 43.94846 43.94846 0 0 1-21.97266-38.05322v-7.69678h-82.6455v8.11524A43.94814 43.94814 0 0 1 197.10742 295.7666zM383.88 511.999V462.00194h66.74219V501.999a10 10 0 0 1-10 10zM61.37779 501.999V462.00194H128.12V511.999H71.37779A10 10 0 0 1 61.37779 501.999z"/><path fill="#ffbc5b" d="M344.924,511.999V316.57287a10.16345,10.16345,0,0,1,13.378-9.63954l43.7048,14.56405a10.16121,10.16121,0,0,1,6.9498,9.63954V511.999Z"/><circle cx="256" cy="368.22" r="7.623" fill="#ffbc5b"/><circle cx="256" cy="413.945" r="7.623" fill="#ffbc5b"/><path fill="#ffbc5b" d="M256,467.28977a7.62073,7.62073,0,1,1,7.62293-7.62073A7.62183,7.62183,0,0,1,256,467.28977"/><path fill="#e58a7b" d="M214.67725,252.50781v8.11524a43.99736,43.99736,0,0,1-.3014,5.12744,82.29774,82.29774,0,0,0,55.62409,21.53906h.00012a82.32891,82.32891,0,0,0,32.41162-6.6084,43.84,43.84,0,0,1-5.08893-20.47656v-7.69678Z"/><path fill="#f9beac" d="M256.00007,266.28955h-.00016a82.60163,82.60163,0,0,1-82.60164-82.60164V82.86084H338.60172V183.68791A82.60164,82.60164,0,0,1,256.00007,266.28955Z"/><rect width="28.922" height="17.996" x="256.793" y="211.438" fill="#343c4a" rx="8.998"/><path fill="#f96263" d="M338.60173,121.11338h20.67279A13.36253,13.36253,0,0,1,372.637,134.47592v33.73032a13.36253,13.36253,0,0,1-13.36253,13.36253H338.60173a0,0,0,0,1,0,0V121.11338A0,0,0,0,1,338.60173,121.11338Z"/><path fill="#f96263" d="M140.38269,121.11338h19.653a13.36253,13.36253,0,0,1,13.36253,13.36253v33.73032a13.36253,13.36253,0,0,1-13.36253,13.36253h-19.653a0,0,0,0,1,0,0V121.11338A0,0,0,0,1,140.38269,121.11338Z" transform="rotate(180 156.89 151.341)"/><path fill="#e58a7b" d="M268.91267,172.41453v6.88182A12.91266,12.91266,0,0,1,256,192.209h-.007a12.90564,12.90564,0,0,1-12.90564-12.90564v-6.88885a3,3,0,0,1,3-3h19.82534A3,3,0,0,1,268.91267,172.41453Z"/><path fill="#343c4a" d="M272.48136,64.77038c1.77137-22.33273,23.15776-37.1537,43.62689-44.82931a116.021,116.021,0,0,1,56.5288,99.65139v7.98117c-1.87236.39295-3.73492.73677-5.57613,1.01163a94.05165,94.05165,0,0,1-27.43945,0C297.34671,122.95481,270.342,91.74252,272.48136,64.77038Z"/><path fill="#343c4a" d="M276.19749,85.4924a202.57942,202.57942,0,0,1-23.55138,16.27589,205.569,205.569,0,0,1-78.2281,26.817H140.38269v-8.9928A116.11027,116.11027,0,0,1,256.50981,3.499h.00025A115.63051,115.63051,0,0,1,326.36881,26.8525"/><path d="M412.45654,334.78711V331.1377a13.64261,13.64261,0,0,0-9.34326-12.95948l-26.97314-8.98877V119.58984A119.79718,119.79718,0,0,0,299.0318,7.749l-.09961-.03662q-2.101-.7954-4.23218-1.51123c-.09839-.0332-.1961-.06836-.29455-.10156q-1.98733-.66065-4.0008-1.24756-.48907-.14355-.97924-.2832c-1.2837-.36524-2.57264-.71436-3.87006-1.03662-.30853-.07666-.6192-.14551-.92847-.21973q-1.63576-.39184-3.285-.73828c-.36072-.07568-.72-.15576-1.08161-.228q-1.89687-.38013-3.81109-.6958-.61825-.10254-1.23834-.19824c-1.30787-.2041-2.61921-.394-3.93732-.55518-.24024-.02929-.48187-.05224-.72247-.08008q-1.82567-.21166-3.6637-.36669c-.32214-.02735-.64337-.05811-.966-.083q-2.05958-.15894-4.13276-.24707c-.30371-.01319-.608-.02246-.912-.03321C259.42474.03516,257.97,0,256.50977,0A119.74531,119.74531,0,0,0,136.87988,119.58984V319.43945l-33.9873,14.77442A73.365,73.365,0,0,0,57.87988,401.98V461.9834l-.002.01953V508.5a3.49985,3.49985,0,0,0,3.5,3.5h.002a3.49985,3.49985,0,0,0,3.5-3.5V465.50293h60.28626a104.16271,104.16271,0,0,0,5.17615,44.144,3.49992,3.49992,0,1,0,6.61328-2.29394,97.20656,97.20656,0,0,1-.65625-61.36719l2.271-7.03223a63.83475,63.83475,0,0,0,3.08838-19.60351V401.2002a3.5,3.5,0,0,0-7,0v18.1499a56.83944,56.83944,0,0,1-2.75049,17.4541l-2.27,7.02978a102.511,102.511,0,0,0-3.54577,14.66895H64.87988V401.98a66.39432,66.39432,0,0,1,40.76563-61.33008l83.99072-36.51025a47.58527,47.58527,0,0,0,6.49335-3.44727,75.98781,75.98781,0,0,0,124.25653,2.10547c.72522.355,1.45788.69922,2.20618,1.01953l19.5567,8.37549a13.75007,13.75007,0,0,0-.72516,4.38086V508.5a3.5,3.5,0,0,0,7,0V316.57373a6.66435,6.66435,0,0,1,8.772-6.31934l43.70459,14.56446a6.65251,6.65251,0,0,1,4.55615,6.31885V508.5a3.5,3.5,0,0,0,7,0v-43h34.66358v43a3.5,3.5,0,0,0,7,0V401.04A73.56763,73.56763,0,0,0,412.45654,334.78711ZM143.88281,119.59326A112.73779,112.73779,0,0,1,256.51,7h.001c1.37359,0,2.7417.0332,4.10711.08154.28821.01026.57673.01905.86457.03174q1.94934.08351,3.88635.23242c.30585.02344.61053.05225.91589.07862q1.72036.14647,3.42993.34326c.2331.02734.46741.04883.70014.07715,1.23608.15136,2.46582.32959,3.69244.521q.59253.0923,1.1839.18946,1.7916.29882,3.56946.65136c.35071.07032.69928.14795,1.049.22168q1.52682.32081,3.04212.6836c.30523.07275.61187.14111.91638.21679,1.2113.30127,2.41552.62647,3.61456.96778q.47845.13623.95538.27685c1.25135.36817,2.49793.752,3.73487,1.16455.10919.03614.2174.0752.32647.11182q1.96839.66283,3.912,1.397c.0492.01856.0987.03613.14789.05518A111.14148,111.14148,0,0,1,308.09515,19.477c-14.68042,6.65918-37.17688,20.73779-39.103,45.01758a46.48934,46.48934,0,0,0,2.99438,19.85791,199.92986,199.92986,0,0,1-21.12231,14.40381,200.70121,200.70121,0,0,1-76.67237,26.33008H143.88281ZM276.71387,207.939H265.793a12.50126,12.50126,0,0,0-10.86084,6.33448,29.9502,29.9502,0,0,1-11.6499-2.82471,3.5,3.5,0,1,0-3.00489,6.32227,36.84078,36.84078,0,0,0,13.05426,3.42871A12.50455,12.50455,0,0,0,265.793,232.93457h10.9209a12.51445,12.51445,0,0,0,12.00567-9.0498,58.27531,58.27531,0,0,0,30.2204-10.31543,57.18053,57.18053,0,0,0,14.72528-14.93555A79.09411,79.09411,0,0,1,176.8999,183.68994V131.769a207.55858,207.55858,0,0,0,77.52783-26.9873,206.92408,206.92408,0,0,0,20.50092-13.855,67.87029,67.87029,0,0,0,11.981,16.21875c12.34051,12.45605,29.34479,20.99219,48.19043,24.28271v47.65723c-1.61151,5.80371-6.63758,19.31885-20.16114,28.74023a51.28147,51.28147,0,0,1-26.248,9.05176A12.51731,12.51731,0,0,0,276.71387,207.939Zm5.50049,12.49756a5.50529,5.50529,0,0,1-5.50049,5.49805H265.793a5.49781,5.49781,0,1,1,0-10.99561h10.9209A5.50519,5.50519,0,0,1,282.21436,220.43652ZM143.87988,134.48a9.84737,9.84737,0,0,1,.29785-2.39355H169.8999v45.98339H153.75a9.87633,9.87633,0,0,1-9.87012-9.85986Zm42.96485,163.24023L143.87988,316.397V181.854a16.76415,16.76415,0,0,0,9.87012,3.21582h16.18347a85.50434,85.50434,0,0,0,25.18225,59.50586,86.78548,86.78548,0,0,0,16.06446,12.64991v3.39453A40.44954,40.44954,0,0,1,186.84473,297.72021ZM259,327a68.51278,68.51278,0,0,1-57.24658-30.48486,47.42743,47.42743,0,0,0,16.41864-35.45459,86.1152,86.1152,0,0,0,75.6626-.05078,47.35771,47.35771,0,0,0,20.47479,38.23437A68.92367,68.92367,0,0,1,259,327Zm110.14014-20.14307-9.73145-3.24316a13.52453,13.52453,0,0,0-12.3125,1.87891c-.34173.24658-.65607.51757-.96973.78857l-20.77929-8.89893A40.38491,40.38491,0,0,1,300.81982,260.21v-3.03613a86.123,86.123,0,0,0,41.24524-72.104H359.27a16.76415,16.76415,0,0,0,9.87012-3.21582Zm0-138.647a9.87633,9.87633,0,0,1-9.87012,9.85986H342.1001V132.42969a98.94241,98.94241,0,0,0,11.32812.66308,95.83848,95.83848,0,0,0,14.14942-1.04492c.39544-.05908.79535-.12256,1.19738-.18847a9.80151,9.80151,0,0,1,.36512,2.6206Zm0-43.51562c-.88941.16162-1.75055.30468-2.59571.43066a90.63547,90.63547,0,0,1-26.46093-.00781c-40.77051-5.43067-66.06641-35.44385-64.1128-60.06885,1.85932-23.4458,27.27545-36.28809,39.77991-41.2168,2.90436,1.80469,5.74854,3.73389,8.51062,5.81641.03381.02539.07178.04053.10614.06445a114.37948,114.37948,0,0,1,11.78742,10.2627,111.85574,111.85574,0,0,1,32.98535,79.61474ZM447.12012,458.5H412.45654V342.65234A66.56773,66.56773,0,0,1,447.12012,401.04ZM256,402.82471a11.12085,11.12085,0,1,0,11.123,11.12109A11.13456,11.13456,0,0,0,256,402.82471Zm0,15.2417a4.12085,4.12085,0,1,1,4.123-4.12061A4.1266,4.1266,0,0,1,256,418.06641Zm0,30.48291a11.12061,11.12061,0,1,0,11.123,11.1206A11.13446,11.13446,0,0,0,256,448.54932Zm0,15.24121a4.12061,4.12061,0,1,1,4.123-4.12061A4.1266,4.1266,0,0,1,256,463.79053Zm0-106.68994a11.12085,11.12085,0,1,0,11.123,11.1206A11.13446,11.13446,0,0,0,256,357.10059Zm0,15.2417a4.12085,4.12085,0,1,1,4.123-4.1211A4.12671,4.12671,0,0,1,256,372.34229ZM218.82373,141.89453a3.49986,3.49986,0,0,0-3.5,3.5v7.55274a3.5,3.5,0,0,0,7,0v-7.55274A3.49986,3.49986,0,0,0,218.82373,141.89453Zm50.08887,29.18164a3.49986,3.49986,0,0,0-3.5,3.5v4.728a9.4126,9.4126,0,0,1-18.8252,0v-4.728a3.5,3.5,0,0,0-7,0v4.728a16.4126,16.4126,0,0,0,32.8252,0v-4.728A3.49987,3.49987,0,0,0,268.9126,171.07617Zm31.33056-32.88379a3.49987,3.49987,0,0,0,2.65528-6.47656,35.18091,35.18091,0,0,0-14.08008-2.59619,34.63383,34.63383,0,0,0-12.32031,2.59668,3.5,3.5,0,0,0,2.6582,6.47558,27.72052,27.72052,0,0,1,21.08691.00049Zm-10.54443,3.70215a3.49986,3.49986,0,0,0-3.5,3.5v7.55274a3.5,3.5,0,0,0,7,0v-7.55274A3.49986,3.49986,0,0,0,289.69873,141.89453ZM232.023,131.71533a34.71778,34.71778,0,0,0-26.40039.001,3.5,3.5,0,0,0,2.6582,6.47558,27.72017,27.72017,0,0,1,21.08789.001,3.50014,3.50014,0,1,0,2.6543-6.47754Z"/></svg>