<svg xmlns="http://www.w3.org/2000/svg" data-name="Layer 1" viewBox="0 0 512 512"><path fill="#f9beac" d="M447.55957,501.999V347.31989a60,60,0,0,0-38.01-55.82508l-97.01835-38.21639a20,20,0,0,1-12.67-18.60836V215.7627H212.13892v18.90736a20,20,0,0,1-12.67,18.60836l-97.01846,38.21639a60,60,0,0,0-38.01,55.8251V501.999a10,10,0,0,0,10,10H437.55957A10,10,0,0,0,447.55957,501.999Z"/><path fill="#f96263" d="M383.88,511.999V281.3833l-46.61187-18.36084h-.00025a88.48929,88.48929,0,0,1-162.5357,0H174.732L128.12,281.3833V511.999Z"/><path fill="#e58a7b" d="M212.13892,215.7627v7.73974A100.87212,100.87212,0,0,0,235.7074,244.6958a63.12191,63.12191,0,0,0,67.33648.77588,19.96156,19.96156,0,0,1-3.18267-10.80176V215.7627Z"/><path fill="#f9beac" d="M327.57336,180.20264A100.8781,100.8781,0,0,1,290.293,223.69531l-.00043.00049a63.128,63.128,0,0,1-68.58514,0,100.88022,100.88022,0,0,1-37.28064-43.49268l-.00012-.00048a100.87854,100.87854,0,0,1-8.79895-41.20508V101.499a211.64548,211.64548,0,0,0,78.51306-13.8999A210.46609,210.46609,0,0,0,305,59.499a68.35471,68.35471,0,0,0,31.37231,42v37.49854A100.87951,100.87951,0,0,1,327.57336,180.20264Z"/><path fill="#e58a7b" d="M268.70444,157.67078v7.9668a12.7012,12.7012,0,0,1-12.7012,12.7012h-.00648a12.7012,12.7012,0,0,1-12.7012-12.7012v-7.9668a3,3,0,0,1,3-3h19.40888A3,3,0,0,1,268.70444,157.67078Z"/><path fill="#e58a7b" d="M152.23776,104.42914h.00008A23.38985,23.38985,0,0,1,175.62769,127.819v.00006a17.65977,17.65977,0,0,1-17.65977,17.65977h-5.73016a0,0,0,0,1,0,0V104.42914A0,0,0,0,1,152.23776,104.42914Z" transform="rotate(180 163.933 124.954)"/><path fill="#57aafe" d="M255.99992,3.499h.00016a80.37226,80.37226,0,0,1,80.37226,80.37226V101.4992a0,0,0,0,1,0,0H175.62766a0,0,0,0,1,0,0V83.87128A80.37226,80.37226,0,0,1,255.99992,3.499Z"/><path fill="#e58a7b" d="M336.37239,145.47881h0V104.42914h5.7301a17.65977,17.65977,0,0,1,17.65977,17.65972v0A23.38985,23.38985,0,0,1,336.37239,145.47881Z"/><rect width="49.956" height="30.408" x="200.675" y="58.295" fill="#38508e" rx="15.204"/><rect width="49.956" height="30.408" x="265.22" y="58.295" fill="#38508e" rx="15.204"/><path d="M280.51465,118.53809a27.14613,27.14613,0,0,1,9.66162-2.03711,27.55352,27.55352,0,0,1,11.04248,2.03759A3.49987,3.49987,0,1,0,303.874,112.062a34.205,34.205,0,0,0-26.01757.00049,3.5,3.5,0,1,0,2.6582,6.47559ZM256,181.83984a16.22119,16.22119,0,0,0,16.20459-16.20117v-5.52978a3.5,3.5,0,0,0-7,0v5.52978a9.20459,9.20459,0,0,1-18.40918,0v-5.52978a3.5,3.5,0,0,0-7,0v5.52978A16.22119,16.22119,0,0,0,256,181.83984ZM410.83252,288.24365l-25.568-10.07226c-.02039-.00879-.04126-.01612-.06177-.02442L313.8125,250.02344a16.41,16.41,0,0,1-10.45264-15.35352V218.293a104.36137,104.36137,0,0,0,36.04688-69.48877,26.92529,26.92529,0,0,0,23.85547-26.71436,21.18363,21.18363,0,0,0-21.15967-21.15966h-2.23V83.87207a84.1865,84.1865,0,0,0-.66419-10.37061L339.2085,73.5a3.47531,3.47531,0,0,0-.10352-.80957,83.851,83.851,0,0,0-166.21,0,3.47531,3.47531,0,0,0-.10352.80957l.00013.00146a84.1865,84.1865,0,0,0-.66419,10.37061v17.05811h-2.23a21.18363,21.18363,0,0,0-21.15967,21.15966,26.92538,26.92538,0,0,0,23.8642,26.71534,104.3,104.3,0,0,0,36.03815,69.48828v16.37646a16.41,16.41,0,0,1-10.45264,15.35352L126.79462,278.148c-.01917.00781-.0387.01416-.05768.02246l-25.569,10.07275a63.13759,63.13759,0,0,0-40.228,59.07666V508.5a3.5,3.5,0,1,0,7,0V347.31982a56.176,56.176,0,0,1,35.793-52.56347l20.88721-8.22852V508.5a3.5,3.5,0,0,0,7,0V283.77051l41.30322-16.271a91.9807,91.9807,0,0,0,166.15369,0l41.30285,16.271V508.5a3.5,3.5,0,0,0,7,0V286.52783l20.8877,8.22852a56.17631,56.17631,0,0,1,35.79248,52.56347V508.5a3.5,3.5,0,0,0,7,0V347.31982A63.13672,63.13672,0,0,0,410.83252,288.24365ZM339.87012,139V107.93018h2.23242a14.17577,14.17577,0,0,1,14.15967,14.15966,19.90785,19.90785,0,0,1-16.42658,19.56787Q339.86869,140.3313,339.87012,139ZM155.73779,122.08984a14.17577,14.17577,0,0,1,14.15967-14.15966h2.23242V139q0,1.32861.03522,2.6582A19.90871,19.90871,0,0,1,155.73779,122.08984ZM256,7a76.98314,76.98314,0,0,1,75.5946,63H318.33612a18.7271,18.7271,0,0,0-18.36395-15.2041H280.42432A18.72711,18.72711,0,0,0,262.06036,70H253.7912a18.7271,18.7271,0,0,0-18.364-15.2041H215.87891A18.72693,18.72693,0,0,0,197.51544,70h-17.11A76.98314,76.98314,0,0,1,256,7Zm55.67627,66.5a11.71742,11.71742,0,0,1-11.7041,11.7041H280.42432a11.7041,11.7041,0,1,1,0-23.4082h19.54785A11.71742,11.71742,0,0,1,311.67627,73.5Zm-64.54492,0a11.71742,11.71742,0,0,1-11.7041,11.7041H215.87891a11.7041,11.7041,0,0,1,0-23.4082h19.54834A11.71742,11.71742,0,0,1,247.13135,73.5ZM179.12744,83.87207c0-2.31738.12134-4.60645.32318-6.87207h18.06482a18.72693,18.72693,0,0,0,18.36347,15.2041h19.54834A18.7271,18.7271,0,0,0,253.7912,77h8.26916a18.72711,18.72711,0,0,0,18.364,15.2041h19.54785A18.7271,18.7271,0,0,0,318.33612,77h14.21326c.20184,2.26562.32318,4.55469.32318,6.87207V98H179.12744Zm8.49756,94.89844A97.62533,97.62533,0,0,1,179.12988,139V105.01807c.638-.002,1.30292-.00782,1.98065-.01807H332.87012v34a97.40863,97.40863,0,0,1-44.48145,81.76172,59.65533,59.65533,0,0,1-64.77734,0A97.115,97.115,0,0,1,187.625,178.77051ZM256,313a85.01849,85.01849,0,0,1-76.54077-48.0752l21.2937-8.38867a23.37143,23.37143,0,0,0,14.88721-21.86621V223.7793c1.36682.98047,2.75,1.94189,4.16845,2.85937a66.65422,66.65422,0,0,0,72.38233,0c1.41864-.918,2.802-1.8789,4.16894-2.85986v10.89111a23.37143,23.37143,0,0,0,14.88721,21.86621l21.29407,8.38867A85.01872,85.01872,0,0,1,256,313ZM240.28125,201.14551a36.93963,36.93963,0,0,0,15.72021,3.53662h.11036a36.955,36.955,0,0,0,15.60644-3.53662,3.5001,3.5001,0,0,0-2.99707-6.32617,29.90713,29.90713,0,0,1-12.63086,2.86279H256.001a29.89035,29.89035,0,0,1-12.72217-2.86279,3.50021,3.50021,0,0,0-2.99756,6.32617Zm50.585-79.07031a3.49986,3.49986,0,0,0-3.5,3.5v7.43261a3.5,3.5,0,0,0,7,0V125.5752A3.49985,3.49985,0,0,0,290.86621,122.0752Zm-66.23242,3.5a3.5,3.5,0,1,0-7,0v7.43261a3.5,3.5,0,0,0,7,0Zm6.853-7.03663a3.49987,3.49987,0,0,0,2.65527-6.47656,34.20489,34.20489,0,0,0-26.01758.00049,3.5,3.5,0,1,0,2.6582,6.47559,27.13911,27.13911,0,0,1,9.66114-2.03711A27.45166,27.45166,0,0,1,231.48682,118.53857Z"/></svg>