<svg xmlns="http://www.w3.org/2000/svg" data-name="Layer 1" viewBox="0 0 512 512"><path fill="#343c4a" d="M394.76221,342.21436H117.23779a280.88685,280.88685,0,0,0,31.06983-86.292,279.945,279.945,0,0,0,3.93017-69.06543v-79.5957a103.76221,103.76221,0,1,1,207.52442,0v65.5957a284.74467,284.74467,0,0,0,35,169.35743Z"/><path fill="#ffaedb" d="M447.55951,501.999V397.30246a60,60,0,0,0-33.65575-53.90714l-102.824-50.24975a20,20,0,0,1-11.21858-17.96905V241.13818H212.13879v34.03834a20,20,0,0,1-11.21858,17.96905l-102.824,50.24975a60,60,0,0,0-33.65575,53.90714V501.999a10,10,0,0,0,10,10h363.119A10,10,0,0,0,447.55951,501.999Z"/><path fill="#f9beac" d="M311.07979,293.14557a20,20,0,0,1-11.21858-17.96905V241.13818H212.13879v34.03834a20,20,0,0,1-11.21858,17.96905L256,336.49121Z"/><path fill="#e58a7b" d="M299.86133,275.17676V241.13818H212.13867v32.15674A80.11449,80.11449,0,0,0,270,297.915h0A80.005,80.005,0,0,0,305.87817,289.46,19.9881,19.9881,0,0,1,299.86133,275.17676Z"/><path fill="#f9beac" d="M175.62761,196.54277l0-60.09174a16.903,16.903,0,0,1,16.37472-16.90748,198.84511,198.84511,0,0,0,51.27373-8.3414,198.84017,198.84017,0,0,0,48.617-22.14776,5.98039,5.98039,0,0,1,8.06751,1.63711,81.33338,81.33338,0,0,0,27.63227,24.56114,16.86053,16.86053,0,0,1,8.77962,14.82912l0,66.461A80.37229,80.37229,0,0,1,256.00008,276.915h-.00017A80.3723,80.3723,0,0,1,175.62761,196.54277Z"/><path fill="#e58a7b" d="M268.70444 211.1684v6.41312a12.7012 12.7012 0 0 1-12.7012 12.70119h-.00648a12.7012 12.7012 0 0 1-12.7012-12.70119V211.1684a3 3 0 0 1 3-3h19.40888A3 3 0 0 1 268.70444 211.1684zM336.37238 192.42068h0V151.371H352.7622a7 7 0 0 1 7 7l0 10.65978A23.38985 23.38985 0 0 1 336.37238 192.42068z"/><path fill="#e58a7b" d="M152.23775,151.371h.00008a23.38985,23.38985,0,0,1,23.38985,23.38985v10.65983a7,7,0,0,1-7,7H152.23775a0,0,0,0,1,0,0V151.371A0,0,0,0,1,152.23775,151.371Z" transform="rotate(180 163.933 171.896)"/><path fill="#e57fbc" d="M303.10791,343.26172l15.13525-46.61524-7.16333-3.501a19.95758,19.95758,0,0,1-6.92749-5.60889L256,336.49121l27.218,14.8418A13.911,13.911,0,0,0,303.10791,343.26172Z"/><path fill="#e57fbc" d="M193.71973,296.66455,208.731,343.29639a13.91154,13.91154,0,0,0,19.90454,8.1167L256.001,336.49121l-48.17139-48.93115a19.96329,19.96329,0,0,1-6.90942,5.58545Z"/><circle cx="256" cy="381.499" r="8" fill="#e57fbc"/><circle cx="256" cy="430.499" r="8" fill="#e57fbc"/><circle cx="256" cy="479.499" r="8" fill="#e57fbc"/><rect width="175.628" height="175.628" x="332.872" y="336.371" fill="#f9f7f8" rx="15"/><path d="M256 370a11.5 11.5 0 1 0 11.5 11.5A11.51341 11.51341 0 0 0 256 370zm0 16a4.5 4.5 0 1 1 4.5-4.5A4.50491 4.50491 0 0 1 256 386zM256 468a11.5 11.5 0 1 0 11.5 11.5A11.51341 11.51341 0 0 0 256 468zm0 16a4.5 4.5 0 1 1 4.5-4.5A4.50491 4.50491 0 0 1 256 484zM137.63477 397.7002a3.50048 3.50048 0 0 0-3.5 3.5v18.14941a56.85021 56.85021 0 0 1-2.751 17.45508l-2.26953 7.02929a104.25227 104.25227 0 0 0 .70312 65.8125 3.49975 3.49975 0 1 0 6.61328-2.293 97.21318 97.21318 0 0 1-.65527-61.36817l2.27051-7.03223a63.837 63.837 0 0 0 3.08887-19.60351V401.2002A3.50049 3.50049 0 0 0 137.63477 397.7002zM256 419a11.5 11.5 0 1 0 11.5 11.5A11.51341 11.51341 0 0 0 256 419zm0 16a4.5 4.5 0 1 1 4.5-4.5A4.50491 4.50491 0 0 1 256 435z"/><circle cx="256" cy="138" r="3.5"/><path d="M392.4668 357.42969c-.01172-.03321-.02442-.06543-.03809-.09766a4.587 4.587 0 0 0-4.25683-2.85058H388.167a4.61724 4.61724 0 0 0-4.28808 2.93945l-18.28907 48.01953a3.49986 3.49986 0 0 0 6.541 2.49219l3.69653-9.70606H400.3811l3.65894 9.69532a3.4997 3.4997 0 0 0 6.54883-2.47071zm-13.97364 33.79687l9.667-25.38281 9.5791 25.38281zM442.79883 409.46582c.001 0 13.01562-.05762 16.60254-.05762a16.59563 16.59563 0 0 0 8.30932-30.96972 14.68284 14.68284 0 0 0-10.78-24.67774H442.7832a3.50049 3.50049 0 0 0-3.5 3.5v48.70508a3.49922 3.49922 0 0 0 3.5 3.5zm3.48437-48.70508h10.64746a7.707 7.707 0 1 1 0 15.41406c-1.04663 0-3.02465.00586-5.176.01368H446.2832zm0 22.44873c1.6106-.00635 3.56787-.01465 5.407-.021h7.71118a9.60986 9.60986 0 1 1 0 19.21972c-2.39551 0-8.98828.02539-13.11817.043zM457.72461 435.00684H444.33789a3.49924 3.49924 0 0 0-3.5 3.50683v46.48926a3.7281 3.7281 0 0 0 3.5957 4.26758h.0127c.4043-.002 9.93359-.03809 13.73144-.10449 13.03125-.22852 22.13282-11.34278 22.13282-27.02735C480.31055 445.91016 471.23438 435.00684 457.72461 435.00684zm.33105 47.16113c-2.3125.04-6.918.06933-10.13378.08594-.01856-5.36036-.04981-15.46875-.04981-20.167 0-3.90429-.01758-14.51855-.02734-20.08007h9.87988c11.49121 0 15.58594 10.39941 15.58594 20.13183C473.31055 473.77344 467.03711 482.00977 458.05566 482.168zM401.5752 476.64551a16.30412 16.30412 0 0 1-1.624 1.67676 16.05492 16.05492 0 0 1-11.03711 3.94824A20.85254 20.85254 0 1 1 400.57031 444.125a3.5 3.5 0 1 0 3.918-5.80078 27.85339 27.85339 0 1 0-15.57422 50.94629 22.647 22.647 0 0 0 18.02246-8.125 3.49978 3.49978 0 1 0-5.36132-4.5zM240.28125 252.08887A36.92525 36.92525 0 0 0 256.002 255.626h.11035a36.9517 36.9517 0 0 0 15.60645-3.53662 3.50032 3.50032 0 0 0-2.998-6.32618 29.69426 29.69426 0 0 1-25.4414.00049 3.49987 3.49987 0 1 0-2.99805 6.3252zM256 232.78369a16.22109 16.22109 0 0 0 16.2041-16.20117v-5.52979a3.5 3.5 0 0 0-7 0v5.52979a9.2041 9.2041 0 0 1-18.4082 0v-5.52979a3.5 3.5 0 0 0-7 0v5.52979A16.22109 16.22109 0 0 0 256 232.78369z"/><path d="M493.5,329.37207H393.16333l-1.68506-.82373a281.03557,281.03557,0,0,1-28.23706-155.32422c.01172-.12109.01856-.24267.01856-.36426V169.147c.00024-.03906.00293-.07715.00293-.11572l-.001-10.65918c0-.01318-.002-.02539-.002-.03857V107.25977a107.25977,107.25977,0,0,0-214.51954,0v51.05468c0,.01953-.00293.03809-.00293.05762v10.65967c0,.03857.00269.07666.00293.11572v17.7124c0,.07813.00293.15576.00782.23389a276.497,276.497,0,0,1-3.88086,68.19531,277.20422,277.20422,0,0,1-24.40869,73.28809l-23.895,11.67773a63.87688,63.87688,0,0,0-35.623,57.04492V508.5a3.5,3.5,0,1,0,7,0V397.2998a56.83207,56.83207,0,0,1,31.69629-50.75488l91.99-44.95752,13.77173,42.77979a17.5645,17.5645,0,0,0,10.208,10.998,17.25117,17.25117,0,0,0,14.70507-.87793l25.689-14.00781,25.5415,13.92774a17.25017,17.25017,0,0,0,14.67774.88867,17.56762,17.56762,0,0,0,10.21679-10.95215l13.8899-42.77832,56.89477,27.80664H347.87207a18.52065,18.52065,0,0,0-18.5,18.5V493.5a18.52065,18.52065,0,0,0,18.5,18.5H493.5A18.52065,18.52065,0,0,0,512,493.5V347.87207A18.52065,18.52065,0,0,0,493.5,329.37207ZM155.74023,107.25977a100.25977,100.25977,0,0,1,200.51954,0v41.22412a10.42767,10.42767,0,0,0-3.498-.61182H339.87207V130.08252a20.3423,20.3423,0,0,0-10.6084-17.9043,77.823,77.823,0,0,1-26.44531-23.50634,9.48367,9.48367,0,0,0-12.791-2.57813,195.306,195.306,0,0,1-47.75976,21.75781,195.41869,195.41869,0,0,1-50.37207,8.19434,20.30972,20.30972,0,0,0-19.76758,20.40625v11.41992H159.2373a10.43285,10.43285,0,0,0-3.49707.61133ZM356.25977,158.353v10.74365a19.92133,19.92133,0,0,1-16.3877,19.51709v-33.7417h12.88965A3.50315,3.50315,0,0,1,356.25977,158.353ZM224.5,201.01758A28.02706,28.02706,0,0,0,252.48047,173.79h7.03906A27.9955,27.9955,0,0,0,315.5,173.01758v-7.333l17.37207-8.65723V196.544a76.87207,76.87207,0,0,1-153.74414,0V157.02734L196.5,165.68457v7.333A28.03146,28.03146,0,0,0,224.5,201.01758Zm-21-28v-6H242a3.50424,3.50424,0,0,1,3.5,3.5v2.5a21,21,0,0,1-42,0Zm63,0v-2.5a3.50424,3.50424,0,0,1,3.5-3.5h38.5v6a21,21,0,0,1-42,0Zm44.67529-13H270a10.508,10.508,0,0,0-9.804,6.77246H251.804A10.508,10.508,0,0,0,242,160.01758H200.82471l-21.69678-10.8125V136.45215A13.34138,13.34138,0,0,1,192.1084,123.043a202.41192,202.41192,0,0,0,52.17676-8.48828,202.339,202.339,0,0,0,49.47265-22.5376,2.41838,2.41838,0,0,1,1.29395-.37354,2.51334,2.51334,0,0,1,2.05078,1.06885,84.81,84.81,0,0,0,28.81934,25.61621,13.34875,13.34875,0,0,1,6.95019,11.75391v19.12256Zm-155.43506-1.67432a3.50251,3.50251,0,0,1,3.49707-3.47119h12.89063v33.7417a19.92133,19.92133,0,0,1-16.3877-19.51709Zm36.41553,135.19483-61.57251,30.09082a283.8747,283.8747,0,0,0,21.1687-67.07862,283.46424,283.46424,0,0,0,4.01123-69.41455,26.85448,26.85448,0,0,0,16.36475,8.55078v.85743a83.837,83.837,0,0,0,36.51172,69.17334v9.4624a16.41713,16.41713,0,0,1-3.42236,10.0747c-.04273.04834-.09424.08643-.13428.13721a16.45841,16.45841,0,0,1-4.02832,3.66455c-.04834.03076-.09717.061-.14575.09131a16.45115,16.45115,0,0,1-1.52613.85449l-7.20019,3.51953C192.1731,293.52637,192.16528,293.5332,192.15576,293.53809ZM226.96,348.34082a10.26323,10.26323,0,0,1-8.75391.52539,10.59053,10.59053,0,0,1-6.14355-6.6416l-14.0813-43.74268,4.47681-2.188a23.7589,23.7589,0,0,0,5.44678-3.66846L250.251,335.64062ZM255.99951,331.502l-43.63574-44.3247a23.45868,23.45868,0,0,0,3.27588-11.99756v-5.14014a83.68111,83.68111,0,0,0,80.7207,0v5.14014a23.45769,23.45769,0,0,0,3.26148,11.97265Zm43.77881,10.67969a10.58722,10.58722,0,0,1-6.14746,6.61035,10.259,10.259,0,0,1-8.73731-.53125l-23.1455-12.62109L304.074,292.60791a23.78065,23.78065,0,0,0,5.469,3.687l4.4314,2.166Zm20.03052-48.66113c-.01026-.00537-.01831-.0127-.02857-.01758l-7.16308-3.501a16.52411,16.52411,0,0,1-1.52564-.85449c-.05176-.03223-.10376-.06445-.15478-.09717a16.42562,16.42562,0,0,1-4.03345-3.67724c-.0415-.05274-.09448-.09229-.13867-.14209a16.417,16.417,0,0,1-3.4043-10.05127v-9.4624A83.837,83.837,0,0,0,339.87207,196.544v-.85743a26.81229,26.81229,0,0,0,15.19019-7.34912A287.88007,287.88007,0,0,0,381.31641,323.582ZM505,493.5A11.51341,11.51341,0,0,1,493.5,505H347.87207a11.51341,11.51341,0,0,1-11.5-11.5V347.87207a11.51341,11.51341,0,0,1,11.5-11.5H493.5a11.51341,11.51341,0,0,1,11.5,11.5Z"/><path d="M287.5 188.37842a3.50017 3.50017 0 0 0 3.5-3.5v-8.72168a3.5 3.5 0 0 0-7 0v8.72168A3.50017 3.50017 0 0 0 287.5 188.37842zM224.5 188.37842a3.50017 3.50017 0 0 0 3.5-3.5v-8.72168a3.5 3.5 0 0 0-7 0v8.72168A3.50017 3.50017 0 0 0 224.5 188.37842z"/></svg>