<svg xmlns="http://www.w3.org/2000/svg" data-name="Layer 1" viewBox="0 0 512 512"><path fill="#38424f" d="M286.946,17.499h25.70545A23.72087,23.72087,0,0,1,336.37234,41.2199V68.47865a0,0,0,0,1,0,0H286.946a0,0,0,0,1,0,0V17.499A0,0,0,0,1,286.946,17.499Z"/><path fill="#343c4a" d="M302.054,61.0752H175.62769a86.69861,86.69861,0,0,1-19.43506-25.93555A86.619,86.619,0,0,1,148.8625,12.9883,8.00525,8.00525,0,0,1,156.72564,3.499H271.0459A31.00806,31.00806,0,0,1,302.054,34.50708Z"/><path fill="#8fd17a" d="M447.55957,501.999V347.31989a60,60,0,0,0-38.01-55.82508l-97.01835-38.21639a20,20,0,0,1-12.67-18.60836V215.7627H212.13892v18.90736a20,20,0,0,1-12.67,18.60836l-97.01846,38.21639a60,60,0,0,0-38.01,55.8251V501.999a10,10,0,0,0,10,10H437.55957A10,10,0,0,0,447.55957,501.999Z"/><path fill="#f9beac" d="M312.53121,253.27842a20,20,0,0,1-12.67-18.60836V215.7627H212.13892v18.90736a20,20,0,0,1-12.67,18.60836L256,276.98638Z"/><path fill="#709653" d="M264.95552,362.43207h-17.911a6,6,0,0,1-6-6v-76.828L256,276.98638l14.95552,2.6177v76.828A6,6,0,0,1,264.95552,362.43207Z"/><path fill="#dde279" d="M302.8921 245.25207L256 276.98638l23.68874 25.43478a15 15 0 0 0 23.62717-2.16308l14.57613-44.851zM209.10521 245.25025L256 276.98638l-23.68874 25.43478a15 15 0 0 1-23.62717-2.16308l-14.57613-44.851z"/><path fill="#e58a7b" d="M303.50806,246.16846a19.968,19.968,0,0,1-3.64673-11.49854V215.7627H212.13892v14.562a74.35514,74.35514,0,0,0,19.82983,13.83642h.00024A88.1904,88.1904,0,0,0,303.50806,246.16846Z"/><path fill="#f9beac" d="M336.37234,160.5396v0a74.4442,74.4442,0,0,1-42.341,67.1664l-.00031.00015a88.19058,88.19058,0,0,1-76.06206.00011l-.00008,0A74.44421,74.44421,0,0,1,175.62766,160.54V101.4992H336.37234Z"/><path fill="#343c4a" d="M336.37234 134.6539h-4a10 10 0 0 1-10-10V101.4992h14zM175.62766 134.6539h4a10 10 0 0 0 10-10V101.4992h-14z"/><path fill="#f9beac" d="M383.88,459.98354h63.67957a0,0,0,0,1,0,0V501.999a10,10,0,0,1-10,10H383.88a0,0,0,0,1,0,0V459.98354A0,0,0,0,1,383.88,459.98354Z"/><rect width="63.68" height="23.647" x="383.88" y="445.984" fill="#dde279"/><path fill="#f9beac" d="M64.44043,459.98354H128.12a0,0,0,0,1,0,0V511.999a0,0,0,0,1,0,0H74.44043a10,10,0,0,1-10-10V459.98354A0,0,0,0,1,64.44043,459.98354Z"/><rect width="63.68" height="23.647" x="64.44" y="445.984" fill="#dde279"/><rect width="160.745" height="40.424" x="175.628" y="61.075" fill="#dde279"/><path fill="#e58a7b" d="M268.70444 159.23049v6.40709a12.7012 12.7012 0 0 1-12.7012 12.7012h-.00648a12.7012 12.7012 0 0 1-12.7012-12.7012v-6.40709a3 3 0 0 1 3-3h19.40888A3 3 0 0 1 268.70444 159.23049zM336.37239 142.54887h0V101.4992h5.7301a17.65978 17.65978 0 0 1 17.65977 17.65973v0A23.38984 23.38984 0 0 1 336.37239 142.54887z"/><path fill="#e58a7b" d="M152.23776,101.4992h.00008A23.38985,23.38985,0,0,1,175.62769,124.889v.00006a17.65977,17.65977,0,0,1-17.65977,17.65977h-5.73016a0,0,0,0,1,0,0V101.4992A0,0,0,0,1,152.23776,101.4992Z" transform="rotate(180 163.933 122.024)"/><path fill="#88b5ea" d="M476.83008,196.88916c-34.52-19.92041-83.02-.53027-108.34009,43.32959C355.07007,263.459,350.8501,288.90918,355,310.65918c6.16016,32.35986,1.07007,65.83984-15.3999,94.36963L290.29,490.4292A6.58569,6.58569,0,0,0,292.7,499.419l14.2,8.20019a6.58633,6.58633,0,0,0,8.99024-2.41016l49.2998-85.3999c16.47022-28.53027,42.93018-49.68017,74.03-60.52,20.91-7.29,40.84009-23.66015,54.26-46.91015C518.80005,268.52881,511.3501,216.81885,476.83008,196.88916ZM486.75,285.749l-17.06006-9.85986L481.5,255.439l9.71,5.6001A84.36533,84.36533,0,0,1,486.75,285.749Zm-7.78,17.23a96.24666,96.24666,0,0,1-6.54,9.85987L454.38,302.40918l11.80994-20.4502L484.24,292.37891A96.67583,96.67583,0,0,1,478.97,302.979ZM448.79,334.54883l-9.72-5.60987L450.88,308.479l17.07,9.8501A83.90714,83.90714,0,0,1,448.79,334.54883Zm-72.68994-69.25,17.06982,9.86035-11.81006,20.46-9.71972-5.61035A83.72537,83.72537,0,0,1,376.1001,265.29883Zm7.79-17.21973a96.87672,96.87672,0,0,1,6.53979-9.86035L408.48,248.63916l-11.81006,20.46-18.0498-10.41992A95.84169,95.84169,0,0,1,383.89014,248.0791ZM414.07007,216.499l9.73,5.62012L411.98,242.5791l-17.06982-9.86035A84.54991,84.54991,0,0,1,414.07007,216.499Zm64.86987,29.37012-19.76-11.41016,11.55-20a45.04973,45.04973,0,0,1,15.38,18.99024ZM489.14,242.19922a63.86123,63.86123,0,0,1,1.82,10.60986L485,249.36914ZM433,325.439l-19.76-11.41015,11.82007-20.46,19.75,11.41015Zm-3.14014-99.81982L449.62,237.02881l-11.80994,20.46045-19.76-11.41016Zm-2.55981-9.56006-5.97-3.45019a65.82071,65.82071,0,0,1,10.10986-3.73975Zm7.01,47.48975-11.82007,20.46-19.76-11.40967,11.82007-20.46Zm-15.32007,26.52-11.81006,20.46-19.76-11.40967,11.81006-20.46Zm9.57007-2.56006,11.80994-20.46L460.13,278.459l-11.80993,20.4502ZM443.87,260.98926l11.80993-20.46045,19.76,11.41015L463.63,272.38916Zm20.8-50.03028-11.55,20-19.76014-11.3999L440.53,207.13916a50.02746,50.02746,0,0,1,5.31006-.29A43.9921,43.9921,0,0,1,464.67,210.959ZM383.91992,305.1792l19.76,11.40967-11.55,20.01025A45.07216,45.07216,0,0,1,376.75,317.60889Zm14.27,34.91992,11.55-20.01025L429.5,331.499,422.33008,343.919A45.06283,45.06283,0,0,1,398.18994,340.09912Z"/><path fill="#343c4a" d="M292.70068,499.419l14.19825,8.19726a6.58017,6.58017,0,0,0,8.98877-2.4082l49.30542-85.39942h0l-25.59546-14.77783-49.30542,85.39942A6.58013,6.58013,0,0,0,292.70068,499.419Z"/><path d="M290.86621,124.73a3.49987,3.49987,0,0,0-3.5,3.5v7.43311a3.5,3.5,0,0,0,7,0V128.23A3.49986,3.49986,0,0,0,290.86621,124.73ZM256,340.90283a3.5,3.5,0,1,0,3.5,3.5A3.49986,3.49986,0,0,0,256,340.90283Zm242.1814-82.46142a71.51478,71.51478,0,0,0-4.75415-25.48633,3.49477,3.49477,0,0,0-.469-1.13867c-4.46972-10.69629-11.747-19.57618-21.67846-25.31055-9.934-5.73486-21.266-7.59668-32.76709-6.11719a3.49749,3.49749,0,0,0-1.20484.16113,71.509,71.509,0,0,0-24.45776,8.62842,3.46354,3.46354,0,0,0-1.04151.59717,91.86044,91.86044,0,0,0-24.87695,21.55566c-.011.01221-.01977.02637-.03052.03907a101.97806,101.97806,0,0,0-9.07251,13.21191c-10.55957,18.28955-15.023,38.68164-12.56836,57.419,2.5,19.083,11.84717,34.19433,26.31983,42.5498a50.40035,50.40035,0,0,0,25.43213,6.68408,64.19981,64.19981,0,0,0,24.57666-5.166,78.64053,78.64053,0,0,0,8.91162-4.40137c.02661-.01465.05322-.02881.07934-.04443,13.72925-7.87891,25.74683-20.07129,34.45142-35.14795a101.98328,101.98328,0,0,0,6.90186-14.45313c.00683-.01953.01709-.03857.02368-.0581a91.87229,91.87229,0,0,0,6.22827-32.31836A3.47138,3.47138,0,0,0,498.1814,258.44141Zm-7.22046-5.62793-5.95948-3.44043,4.14332-7.17676A64.90545,64.90545,0,0,1,490.96094,252.81348Zm-4.84986-19.36328L478.939,245.87256l-19.75927-11.4082L470.72925,214.46A45.11605,45.11605,0,0,1,486.11108,233.4502Zm-51.8059,30.09765-11.81177,20.4585-19.75928-11.40772,11.81177-20.459Zm-16.25928-17.4707,11.81177-20.4585,19.7594,11.40821-11.81189,20.45849Zm.94726,43.9917-11.81176,20.459-19.75928-11.4082,11.81177-20.4585Zm6.0625,3.50049,19.75928,11.40771-11.81177,20.459L413.2439,314.02783Zm3.50025-6.0625,11.81177-20.459,19.75927,11.4082-11.81176,20.4585Zm15.31177-26.52149,11.81176-20.45849,19.7594,11.4082L463.6272,272.39355Zm-3.34156-53.84521a50.83341,50.83341,0,0,1,5.30982-.293,43.93649,43.93649,0,0,1,18.8313,4.11181l-11.55,20.00538-19.75952-11.40821Zm-9.08276,1.73242-4.14746,7.18359-5.96216-3.44189A64.89545,64.89545,0,0,1,431.44336,208.87256Zm-17.373,7.63135,9.72534,5.61474-11.81176,20.459-17.07178-9.85645A84.49155,84.49155,0,0,1,414.07031,216.50391ZM383.89111,248.082a96.08245,96.08245,0,0,1,6.541-9.86426l18.05151,10.42188-11.81176,20.459-18.05323-10.42285A96.72575,96.72575,0,0,1,383.89111,248.082Zm-7.79248,17.22168,17.073,9.85742-11.81177,20.4585-9.72094-5.61231A83.69829,83.69829,0,0,1,376.09863,265.30371Zm-3.89746,35.78809c-.124-.9458-.22046-1.89844-.30591-2.85352l5.9646,3.44336-4.14257,7.17529A64.24419,64.24419,0,0,1,372.20117,301.0918Zm4.54737,16.51513,7.17358-12.4248,19.75952,11.40771-11.551,20.00684A45.00742,45.00742,0,0,1,376.74854,317.60693Zm45.58081,26.31641a45.00619,45.00619,0,0,1-24.13623-3.82666l11.551-20.00684,19.75928,11.40821Zm16.5769-4.31982a64.21579,64.21579,0,0,1-7.4834,2.56982l4.14282-7.17529,5.96485,3.44336C440.66064,338.84521,439.78735,339.23779,438.90625,339.60352Zm9.88013-5.05518-9.721-5.6123,11.812-20.459,17.07324,9.85742A83.70842,83.70842,0,0,1,448.78638,334.54834Zm30.18237-31.57324a96.79206,96.79206,0,0,1-6.538,9.86279l-18.0531-10.42334,11.81176-20.4585L484.238,292.37646A96.00225,96.00225,0,0,1,478.96875,302.9751Zm7.78369-17.23-17.063-9.85157,11.81177-20.45849,9.71021,5.60644A84.46072,84.46072,0,0,1,486.75244,285.74512ZM252.5,316.40283a3.5,3.5,0,1,0,3.5-3.5A3.49985,3.49985,0,0,0,252.5,316.40283Zm26.687-194.94678a3.48766,3.48766,0,0,0,1.32764-.26318,27.14635,27.14635,0,0,1,9.66162-2.03711,27.44916,27.44916,0,0,1,11.04248,2.0376,3.49987,3.49987,0,1,0,2.65527-6.47656,34.20489,34.20489,0,0,0-26.01757.00049,3.50061,3.50061,0,0,0,1.33056,6.73876ZM478.57959,193.8623c-36.1333-20.85937-86.88037-.85156-113.125,44.6045a117.75984,117.75984,0,0,0-11.49365,27.37256l-34.46021-13.56885-13.98535-9.46875a16.42492,16.42492,0,0,1-2.15552-8.13184v-8.12744a78.38918,78.38918,0,0,0,36.5127-66.002V145.81445a26.92468,26.92468,0,0,0,23.38965-26.65478A21.18364,21.18364,0,0,0,342.10254,98h-2.23V61.07617c0-.0083-.00244-.01611-.00244-.02441V41.22021A27.251,27.251,0,0,0,312.6499,14H298.77856A34.47627,34.47627,0,0,0,271.0459,0H156.72559a11.50542,11.50542,0,0,0-11.30371,13.63232,90.16157,90.16157,0,0,0,7.62646,23.0459,89.68536,89.68536,0,0,0,19.0791,25.89307V98h-2.23a21.18374,21.18374,0,0,0-21.15967,21.16016,26.92418,26.92418,0,0,0,23.38965,26.65429V160.541a78.38877,78.38877,0,0,0,36.5127,66.00146v8.12744a16.42444,16.42444,0,0,1-2.15235,8.127l-13.98828,9.47363L101.168,288.24316a63.13759,63.13759,0,0,0-40.228,59.07666V508.5a3.5,3.5,0,1,0,7,0V473.13184h56.68018V508.5a3.5,3.5,0,0,0,7,0V424.12988a3.5,3.5,0,0,0-7,0v18.3545H67.93994V347.31982a56.176,56.176,0,0,1,35.793-52.56347l88.19336-34.73682,13.4292,41.32129a3.48886,3.48886,0,0,0,.37695.79932,18.37488,18.37488,0,0,0,13.915,8.48193q.86573.07909,1.72363.0791a18.358,18.358,0,0,0,13.501-5.89355l2.668-2.86475v54.48731a9.51081,9.51081,0,0,0,9.5,9.5H264.96a9.51081,9.51081,0,0,0,9.5-9.5V301.94287l2.668,2.86475a18.35615,18.35615,0,0,0,13.501,5.89355c.57129,0,1.147-.02637,1.72363-.0791a18.37488,18.37488,0,0,0,13.915-8.48193,3.48886,3.48886,0,0,0,.37695-.79932l13.4292-41.32129,32.231,12.69092a98.65819,98.65819,0,0,0-.74463,38.604c6.09521,32.00147.77051,64.6626-14.99365,91.96729l-49.30567,85.39941a10.08043,10.08043,0,0,0,3.68994,13.77l14.19825,8.19727a10.02389,10.02389,0,0,0,5.02392,1.355,10.13039,10.13039,0,0,0,2.62549-.34815A10.01422,10.01422,0,0,0,318.919,506.959l49.30566-85.3999c15.76367-27.3042,41.38672-48.24609,72.14893-58.96777,1.23547-.43067,2.46386-.89649,3.68652-1.38623v81.2793H387.37988v-18.3545a3.5,3.5,0,0,0-7,0V508.5a3.5,3.5,0,0,0,7,0V473.13184h56.68018V508.5a3.5,3.5,0,0,0,7,0V358.04883c18.14538-9.11865,34.32825-24.644,45.4541-43.915C522.7583,268.67773,514.71289,214.72412,478.57959,193.8623ZM339.87256,105h2.23a14.17587,14.17587,0,0,1,14.15967,14.16016,19.90847,19.90847,0,0,1-16.38965,19.562ZM172.12744,138.72217a19.90847,19.90847,0,0,1-16.38965-19.562A14.17587,14.17587,0,0,1,169.89746,105h2.23ZM124.62012,449.48438v16.64746H67.93994V449.48438ZM332.87256,131.15479h-.5a6.50753,6.50753,0,0,1-6.5-6.5V105h7ZM312.6499,21a20.24318,20.24318,0,0,1,20.22022,20.22021v16.356H305.55371V34.5083A34.31585,34.31585,0,0,0,302.79736,21Zm20.22022,43.57617V68.48c0,.0083.00244.01611.00244.02441V98H179.12744V64.57617ZM186.12744,105v19.65479a6.50753,6.50753,0,0,1-6.5,6.5h-.5V105Zm-26.791-71.397a83.18112,83.18112,0,0,1-7.0337-21.25635A4.50571,4.50571,0,0,1,156.72559,7H271.0459a27.53924,27.53924,0,0,1,27.50781,27.5083V57.57617H177A82.73335,82.73335,0,0,1,159.33643,33.603Zm19.791,126.9375V138.15479h.5a13.51539,13.51539,0,0,0,13.5-13.5V105H318.87256v19.65479a13.51539,13.51539,0,0,0,13.5,13.5h.5v22.38574A71.29518,71.29518,0,0,1,292.522,224.54932a84.31666,84.31666,0,0,1-73.04394,0A71.29584,71.29584,0,0,1,179.12744,160.54053Zm119.21314,83.56689L256,272.76172l-42.34082-28.65381a23.44608,23.44608,0,0,0,1.981-9.438v-4.21533c.27417.13525.54321.27832.81933.41016a91.28712,91.28712,0,0,0,79.08106,0c.27612-.13184.54516-.27491.81933-.41016v4.21533A23.44931,23.44931,0,0,0,298.34058,244.10742ZM229.75,300.03711a11.49995,11.49995,0,0,1-17.88379-1.311L198.25,256.83008l10.856-7.35205,41.5459,28.11621Zm37.71,56.39307a2.50295,2.50295,0,0,1-2.5,2.5H247.04a2.50295,2.50295,0,0,1-2.5-2.5V294.42725L256,282.12256l11.46,12.30469Zm32.67383-57.70411a11.49995,11.49995,0,0,1-17.88379,1.311l-20.90186-22.44287,41.54346-28.11475,10.85791,7.35108ZM444.06006,466.13184H387.37988V449.48438h56.68018ZM312.85645,503.459a3.07948,3.07948,0,0,1-4.20752,1.127l-14.19825-8.19727a3.08339,3.08339,0,0,1-1.12744-4.20752L340.87891,409.813l19.53271,11.27783ZM490.45166,310.63379c-12.44287,21.55273-31.53564,38.08105-52.38184,45.34717-31.20947,10.87793-57.39917,31.78613-74.115,59.07226l-19.61889-11.32763c15.27246-28.12012,20.28442-61.2544,14.1001-93.72071-4.13038-21.687.63769-46.48584,13.08105-68.03808,17.89893-31.002,47.79639-49.40186,75.40918-49.40186a55.798,55.798,0,0,1,28.15332,7.35986C507.87012,218.85645,514.76611,268.52051,490.45166,310.63379ZM224.63379,135.66309V128.23a3.5,3.5,0,0,0-7,0v7.43311a3.5,3.5,0,0,0,7,0ZM256,181.83984a16.22119,16.22119,0,0,0,16.20459-16.20117v-5.52978a3.5,3.5,0,0,0-7,0v5.52978a9.20459,9.20459,0,0,1-18.40918,0v-5.52978a3.5,3.5,0,0,0-7,0v5.52978A16.22119,16.22119,0,0,0,256,181.83984Zm-24.51318-60.64648a3.49987,3.49987,0,0,0,2.65527-6.47656,34.20476,34.20476,0,0,0-26.01758.00049,3.5,3.5,0,0,0,2.6582,6.47558,27.13933,27.13933,0,0,1,9.66114-2.03711A27.47748,27.47748,0,0,1,231.48682,121.19336Zm8.79443,79.95215a36.93963,36.93963,0,0,0,15.72021,3.53662h.11036a36.955,36.955,0,0,0,15.60644-3.53662,3.5001,3.5001,0,0,0-2.99707-6.32617,29.90713,29.90713,0,0,1-12.63086,2.86279H256.001a29.89035,29.89035,0,0,1-12.72217-2.86279,3.50021,3.50021,0,0,0-2.99756,6.32617Z"/></svg>