<svg xmlns="http://www.w3.org/2000/svg" data-name="Layer 1" viewBox="0 0 512 512"><path fill="#57aafe" d="M433.17572,511.999a10,10,0,0,0,10-10V376.36569a71.15438,71.15438,0,0,0-50.69321-68.08091L299.26991,280.18a30.49474,30.49474,0,0,1-21.72567-29.17753V187.37232h-86.638v63.63011A30.49474,30.49474,0,0,1,169.18057,280.18L75.968,308.28478a71.15438,71.15438,0,0,0-50.69322,68.08091V501.999a10,10,0,0,0,10,10Z"/><path fill="#f9beac" d="M286.24382,272.27158l.00006,0a30.39844,30.39844,0,0,1-8.69964-21.26906V202.331L262.53887,187.3724H205.91161L190.90624,202.331v48.67143a30.39844,30.39844,0,0,1-8.69964,21.26906l.00006,0A73.68072,73.68072,0,0,0,286.24382,272.27158Z"/><path fill="#8fd17a" d="M100.3937,511.999V296.70221a4,4,0,0,1,2.79539-3.8143l27.06505-8.54757a4,4,0,0,1,5.20462,3.81456l-.00307,48.11368a7,7,0,0,0,7,7.00044H325.99137a7,7,0,0,0,7-7V288.15453a4,4,0,0,1,5.20462-3.8143l27.0654,8.54768a4,4,0,0,1,2.79539,3.8143V511.999Z"/><path fill="#f9beac" d="M100.3937,445.6665H25.27476V501.999a10,10,0,0,0,10,10H100.3937Z"/><path fill="#343c4a" d="M218.12208,3.85215h32.20638a72.56066,72.56066,0,0,1,72.56066,72.56066v64.38175a0,0,0,0,1,0,0H145.56142a0,0,0,0,1,0,0V76.41281A72.56066,72.56066,0,0,1,218.12208,3.85215Z"/><path fill="#243047" d="M322.88916,76.4126a72.20041,72.20041,0,0,0-10.95264-38.32373,73.68514,73.68514,0,0,1-23.65625,27.54052l4.32959,46.4209,30.2793,16.63037Z"/><path fill="#e58a7b" d="M277.54419,251.00244V202.33105l-15.00537-14.95849h-56.6272l-15.00537,14.95849v48.67139a30.37291,30.37291,0,0,1-.17908,3.25244,111.31414,111.31414,0,0,0,12.66773,9.5459,69.63964,69.63964,0,0,0,75.66052,0l.00049-.00049c.34546-.22314.68017-.46093,1.0227-.688A30.22954,30.22954,0,0,1,277.54419,251.00244Z"/><path fill="#f9beac" d="M313.18239,198.78516a111.283,111.283,0,0,1-41.1264,47.97949l-.00049.00049a69.63974,69.63974,0,0,1-75.66058,0,111.2849,111.2849,0,0,1-41.12671-47.9795l-.00012-.00048a111.286,111.286,0,0,1-9.70667-45.45606V111.9624a252.48242,252.48242,0,0,0,45.36768-4.74609,259.39791,259.39791,0,0,0,97.35119-41.58692l34.60877,46.333v41.3667A111.287,111.287,0,0,1,313.18239,198.78516Z"/><path fill="#e58a7b" d="M248.24032,175.56993v7.14761a14.0115,14.0115,0,0,1-14.0115,14.01149h-.00716a14.0115,14.0115,0,0,1-14.0115-14.01149v-7.14761a3,3,0,0,1,3-3h22.03016A3,3,0,0,1,248.24032,175.56993Z"/><path fill="#e58a7b" d="M119.7585,115.19459h.00009a25.80283,25.80283,0,0,1,25.80283,25.80283v.00006a19.48162,19.48162,0,0,1-19.48162,19.48162h-6.3213a0,0,0,0,1,0,0V115.19459A0,0,0,0,1,119.7585,115.19459Z" transform="rotate(180 132.66 137.837)"/><path fill="#e58a7b" d="M322.88915,160.47911h0V115.19459h6.32125A19.48161,19.48161,0,0,1,348.692,134.67616v0A25.80283,25.80283,0,0,1,322.88915,160.47911Z"/><path fill="#596381" d="M342.82157,287.999H462.62891a24.09633,24.09633,0,0,1,24.09633,24.09633V454.999a57,57,0,0,1-57,57h-54a57,57,0,0,1-57-57V312.09535A24.09633,24.09633,0,0,1,342.82157,287.999Z"/><rect width="112" height="43.732" x="346.725" y="315.999" fill="#d2e9ff" rx="5"/><rect width="168" height="23.37" x="318.725" y="404.434" fill="#a4aed3"/><path d="M272.68848,135.02148a3.50049,3.50049,0,0,0-3.5,3.5v8.2002a3.5,3.5,0,0,0,7,0v-8.2002A3.5005,3.5005,0,0,0,272.68848,135.02148Zm70.81616,338.84571a3.5,3.5,0,1,0-3.5-3.5A3.5,3.5,0,0,0,343.50464,473.86719ZM453.72559,309h-102a8.51013,8.51013,0,0,0-8.5,8.5v33.73242a8.51012,8.51012,0,0,0,8.5,8.5h102a8.51013,8.51013,0,0,0,8.5-8.5V317.5A8.51014,8.51014,0,0,0,453.72559,309Zm1.5,42.23242a1.50164,1.50164,0,0,1-1.5,1.5h-102a1.50164,1.50164,0,0,1-1.5-1.5V317.5a1.50164,1.50164,0,0,1,1.5-1.5h102a1.50164,1.50164,0,0,1,1.5,1.5ZM462.62891,281H342.82129a27.424,27.424,0,0,0-14.66333,4.23486l-27.87769-8.40576a27.16113,27.16113,0,0,1-11.25244-6.65234,3.47789,3.47789,0,0,0-.30517-.375c-.07056-.0708-.15186-.12207-.22657-.18555A26.80073,26.80073,0,0,1,281.04,251v-6.27148a114.75321,114.75321,0,0,0,44.86572-80.90284,29.34507,29.34507,0,0,0,26.28662-29.14892A23.00786,23.00786,0,0,0,329.21,111.69531h-2.82129V76.41406A75.59166,75.59166,0,0,0,315.09424,36.5874a3.47533,3.47533,0,0,0-.53076-.82715A76.05474,76.05474,0,0,0,250.32812.35352H218.12207a76.1473,76.1473,0,0,0-76.06055,76.06054v35.28125h-2.82129a23.00785,23.00785,0,0,0-22.98144,22.98242,29.34469,29.34469,0,0,0,26.28589,29.148,114.75693,114.75693,0,0,0,44.86548,80.90284V251a26.79791,26.79791,0,0,1-7.45948,18.61914c-.07324.0625-.15307.11328-.22216.18262a3.42351,3.42351,0,0,0-.29908.36719A27.16132,27.16132,0,0,1,168.169,276.8291l-29.60572,8.9292a7.50234,7.50234,0,0,0-9.36792-4.75537l-27.05176,8.54687a7.46315,7.46315,0,0,0-5.2539,7.1504v1.62841L74.96,304.93848a74.66013,74.66013,0,0,0-53.19043,71.43164V508.5a3.5,3.5,0,0,0,7,0V449.168H96.88965V508.5a3.5,3.5,0,0,0,7,0V445.70654c.00012-.01318.0039-.02539.0039-.03857s-.00378-.02539-.0039-.03858V296.7002a.50889.50889,0,0,1,.35547-.47364l27.05273-8.54687a.48983.48983,0,0,1,.458.07519.47766.47766,0,0,1,.2041.40528v48.10937a10.51148,10.51148,0,0,0,10.5,10.5H315.22559V451.5a60.56908,60.56908,0,0,0,60.5,60.5h54a60.56908,60.56908,0,0,0,60.5-60.5V308.59668A27.628,27.628,0,0,0,462.62891,281ZM326.38867,153.33008V118.69531H329.21a16,16,0,0,1,15.98242,15.98145,22.3385,22.3385,0,0,1-18.85644,22.03613C326.36841,155.58789,326.38867,154.46045,326.38867,153.33008ZM123.25879,134.67676a15.99916,15.99916,0,0,1,15.98144-15.98145h2.82129v34.63477c0,1.13037.02027,2.25781.05274,3.38281A22.33786,22.33786,0,0,1,123.25879,134.67676ZM96.88965,442.168H28.76953V376.37012a67.25659,67.25659,0,0,1,48.21-64.72852l19.91016-6.001Zm222.499-365.75391V101.4292L293.18506,66.34912a77.26859,77.26859,0,0,0,11.22119-10.63623,77.17806,77.17806,0,0,0,7.54712-10.41162A68.61356,68.61356,0,0,1,319.38867,76.41406Zm-170.32715,0A69.1388,69.1388,0,0,1,218.12207,7.35352h32.20605a69.04359,69.04359,0,0,1,57.55762,30.95459A70.13452,70.13452,0,0,1,286.271,62.76465a254.51524,254.51524,0,0,1-96.02,41.01855,249.50841,249.50841,0,0,1-41.18946,4.58985Zm9.40137,120.94239a107.09941,107.09941,0,0,1-9.40137-44.02637V115.39062a256.59113,256.59113,0,0,0,42.54493-4.74023A260.994,260.994,0,0,0,287.48535,70.415L319.38867,113.126v40.2041a107.78137,107.78137,0,0,1-49.23437,90.49707,66.24006,66.24006,0,0,1-71.8584,0A107.53983,107.53983,0,0,1,158.46289,197.35645ZM194.41016,251v-1.35156c.02807.01806.05493.0376.083.05566a73.24488,73.24488,0,0,0,79.46387,0c.02808-.01806.05493-.0376.083-.05566V251a33.82858,33.82858,0,0,0,7.30493,21.09521,70.324,70.324,0,0,1-94.23926-.001A33.82832,33.82832,0,0,0,194.41016,251Zm120.81543,57.59668v31.17285H142.46a3.50424,3.50424,0,0,1-3.5-3.5V292.94922l31.23047-9.419a34.30622,34.30622,0,0,0,12.02417-6.43066,77.296,77.296,0,0,0,104.02148.00049,34.30661,34.30661,0,0,0,12.02271,6.43017l23.62256,7.12256A27.471,27.471,0,0,0,315.22559,308.59668Zm168,142.90332a53.56059,53.56059,0,0,1-53.5,53.5h-54a53.56059,53.56059,0,0,1-53.5-53.5V427.80469h161Zm0-30.69531h-161V404.43457h161Zm0-23.37012h-161v-54.1167c.00024-.0166.00488-.03174.00488-.04834s-.00464-.03174-.00488-.04834V308.59668A20.61931,20.61931,0,0,1,342.82129,288H462.62891a20.61953,20.61953,0,0,1,20.59668,20.59668Zm-249-197.2041a17.5331,17.5331,0,0,0,17.51464-17.51172v-6.10059a3.5,3.5,0,0,0-7,0v6.10059a10.51514,10.51514,0,0,1-21.03027,0v-6.10059a3.5,3.5,0,0,0-7,0v6.10059A17.53331,17.53331,0,0,0,234.22559,200.23047Zm234.84326,98.63672a3.5,3.5,0,1,0,3.5,3.5A3.50033,3.50033,0,0,0,469.06885,298.86719ZM259.80371,130.6875a3.50126,3.50126,0,0,0,1.32715-.2627,30.38432,30.38432,0,0,1,23.11621,0,3.49968,3.49968,0,0,0,2.6543-6.47656,37.37726,37.37726,0,0,0-28.42676,0,3.50065,3.50065,0,0,0,1.3291,6.73926ZM461.9458,473.86719a3.5,3.5,0,1,0-3.5-3.5A3.49986,3.49986,0,0,0,461.9458,473.86719Zm-39.48047,0a3.5,3.5,0,1,0-3.5-3.5A3.49986,3.49986,0,0,0,422.46533,473.86719Zm-39.48047,0a3.5,3.5,0,1,0-3.5-3.5A3.49986,3.49986,0,0,0,382.98486,473.86719ZM207.32031,130.4248a3.49968,3.49968,0,1,0,2.6543-6.47656,37.37757,37.37757,0,0,0-28.42676,0,3.50042,3.50042,0,0,0,2.6582,6.47656,30.37937,30.37937,0,0,1,23.11426,0ZM336.62769,298.86719a3.5,3.5,0,1,0,3.5,3.5A3.50017,3.50017,0,0,0,336.62769,298.86719ZM217.04,221.5625a40.388,40.388,0,0,0,17.1875,3.86621h.12012a40.39659,40.39659,0,0,0,17.0625-3.86621,3.5001,3.5001,0,1,0-2.99707-6.32617,33.34375,33.34375,0,0,1-14.08692,3.19238h-.09863a33.32654,33.32654,0,0,1-14.18945-3.19238A3.50031,3.50031,0,1,0,217.04,221.5625Zm-17.77832-83.041a3.5,3.5,0,0,0-7,0v8.2002a3.5,3.5,0,0,0,7,0Z"/></svg>